<?xml version="1.0" encoding="UTF-8"?>
<svg id="Layer_2" data-name="Layer 2" xmlns="http://www.w3.org/2000/svg" viewBox="0 0 543.54 130.28">
  <defs>
    <style>
      .cls-1, .cls-2, .cls-3 {
        font-family: National2-XBold, 'National 2';
      }

      .cls-1, .cls-4 {
        letter-spacing: -.04em;
      }

      .cls-5 {
        fill: #f4f3d3;
      }

      .cls-5, .cls-6 {
        font-size: 117.47px;
        font-weight: 700;
        stroke: #000;
        stroke-width: 2px;
      }

      .cls-2, .cls-7 {
        letter-spacing: -.04em;
      }

      .cls-4, .cls-7 {
        font-family: National2Condensed-Bold, 'National 2 Condensed';
      }

      .cls-3 {
        letter-spacing: -.07em;
      }
    </style>
  </defs>
  <g id="TFX">
    <g>
      <g>
        <text class="cls-6" transform="translate(1 107.97)"><tspan class="cls-4" x="0" y="0">KE</tspan><tspan class="cls-1" x="91.63" y="0">IN</tspan><tspan class="cls-3" x="204.28" y="0">D</tspan><tspan class="cls-2" x="277.23" y="0">AH</tspan><tspan class="cls-7" x="438.76" y="0">AN</tspan></text>
        <text class="cls-6" transform="translate(1 106.97)"><tspan class="cls-4" x="0" y="0">KE</tspan><tspan class="cls-1" x="91.63" y="0">IN</tspan><tspan class="cls-3" x="204.28" y="0">D</tspan><tspan class="cls-2" x="277.23" y="0">AH</tspan><tspan class="cls-7" x="438.76" y="0">AN</tspan></text>
        <text class="cls-6" transform="translate(1 105.97)"><tspan class="cls-4" x="0" y="0">KE</tspan><tspan class="cls-1" x="91.63" y="0">IN</tspan><tspan class="cls-3" x="204.28" y="0">D</tspan><tspan class="cls-2" x="277.23" y="0">AH</tspan><tspan class="cls-7" x="438.76" y="0">AN</tspan></text>
        <text class="cls-6" transform="translate(1 104.97)"><tspan class="cls-4" x="0" y="0">KE</tspan><tspan class="cls-1" x="91.63" y="0">IN</tspan><tspan class="cls-3" x="204.28" y="0">D</tspan><tspan class="cls-2" x="277.23" y="0">AH</tspan><tspan class="cls-7" x="438.76" y="0">AN</tspan></text>
        <text class="cls-6" transform="translate(1 103.97)"><tspan class="cls-4" x="0" y="0">KE</tspan><tspan class="cls-1" x="91.63" y="0">IN</tspan><tspan class="cls-3" x="204.28" y="0">D</tspan><tspan class="cls-2" x="277.23" y="0">AH</tspan><tspan class="cls-7" x="438.76" y="0">AN</tspan></text>
        <text class="cls-6" transform="translate(1 102.97)"><tspan class="cls-4" x="0" y="0">KE</tspan><tspan class="cls-1" x="91.63" y="0">IN</tspan><tspan class="cls-3" x="204.28" y="0">D</tspan><tspan class="cls-2" x="277.23" y="0">AH</tspan><tspan class="cls-7" x="438.76" y="0">AN</tspan></text>
        <text class="cls-6" transform="translate(1 101.97)"><tspan class="cls-4" x="0" y="0">KE</tspan><tspan class="cls-1" x="91.63" y="0">IN</tspan><tspan class="cls-3" x="204.28" y="0">D</tspan><tspan class="cls-2" x="277.23" y="0">AH</tspan><tspan class="cls-7" x="438.76" y="0">AN</tspan></text>
        <text class="cls-6" transform="translate(1 100.97)"><tspan class="cls-4" x="0" y="0">KE</tspan><tspan class="cls-1" x="91.63" y="0">IN</tspan><tspan class="cls-3" x="204.28" y="0">D</tspan><tspan class="cls-2" x="277.23" y="0">AH</tspan><tspan class="cls-7" x="438.76" y="0">AN</tspan></text>
        <text class="cls-6" transform="translate(1 99.97)"><tspan class="cls-4" x="0" y="0">KE</tspan><tspan class="cls-1" x="91.63" y="0">IN</tspan><tspan class="cls-3" x="204.28" y="0">D</tspan><tspan class="cls-2" x="277.23" y="0">AH</tspan><tspan class="cls-7" x="438.76" y="0">AN</tspan></text>
        <text class="cls-6" transform="translate(1 98.97)"><tspan class="cls-4" x="0" y="0">KE</tspan><tspan class="cls-1" x="91.63" y="0">IN</tspan><tspan class="cls-3" x="204.28" y="0">D</tspan><tspan class="cls-2" x="277.23" y="0">AH</tspan><tspan class="cls-7" x="438.76" y="0">AN</tspan></text>
      </g>
      <text class="cls-5" transform="translate(1 98.97)"><tspan class="cls-4" x="0" y="0">KE</tspan><tspan class="cls-1" x="91.63" y="0">IN</tspan><tspan class="cls-3" x="204.28" y="0">D</tspan><tspan class="cls-2" x="277.23" y="0">AH</tspan><tspan class="cls-7" x="438.76" y="0">AN</tspan></text>
    </g>
  </g>
</svg>