<?xml version="1.0" encoding="UTF-8"?>
<svg id="Layer_2" data-name="Layer 2" xmlns="http://www.w3.org/2000/svg" viewBox="0 0 606.04 130.28">
  <defs>
    <style>
      .cls-1 {
        letter-spacing: -.06em;
      }

      .cls-1, .cls-2, .cls-3 {
        font-family: National2-XBold, 'National 2';
      }

      .cls-4 {
        fill: #f4f3d3;
      }

      .cls-4, .cls-5 {
        font-size: 117.47px;
        font-weight: 700;
        stroke: #000;
        stroke-width: 2px;
      }

      .cls-2 {
        letter-spacing: -.04em;
      }

      .cls-6 {
        font-family: National2Condensed-Bold, 'National 2 Condensed';
        letter-spacing: -.04em;
      }

      .cls-3 {
        letter-spacing: -.05em;
      }
    </style>
  </defs>
  <g id="TFX">
    <g>
      <g>
        <text class="cls-5" transform="translate(1 107.97)"><tspan class="cls-6" x="0" y="0">KE</tspan><tspan class="cls-1" x="91.63" y="0">S</tspan><tspan class="cls-2" x="154.36" y="0">A</tspan><tspan class="cls-3" x="234.83" y="0">B</tspan><tspan class="cls-2" x="304.84" y="0">AR</tspan><tspan class="cls-6" x="460.84" y="0">AN,</tspan></text>
        <text class="cls-5" transform="translate(1 106.97)"><tspan class="cls-6" x="0" y="0">KE</tspan><tspan class="cls-1" x="91.63" y="0">S</tspan><tspan class="cls-2" x="154.36" y="0">A</tspan><tspan class="cls-3" x="234.83" y="0">B</tspan><tspan class="cls-2" x="304.84" y="0">AR</tspan><tspan class="cls-6" x="460.84" y="0">AN,</tspan></text>
        <text class="cls-5" transform="translate(1 105.97)"><tspan class="cls-6" x="0" y="0">KE</tspan><tspan class="cls-1" x="91.63" y="0">S</tspan><tspan class="cls-2" x="154.36" y="0">A</tspan><tspan class="cls-3" x="234.83" y="0">B</tspan><tspan class="cls-2" x="304.84" y="0">AR</tspan><tspan class="cls-6" x="460.84" y="0">AN,</tspan></text>
        <text class="cls-5" transform="translate(1 104.97)"><tspan class="cls-6" x="0" y="0">KE</tspan><tspan class="cls-1" x="91.63" y="0">S</tspan><tspan class="cls-2" x="154.36" y="0">A</tspan><tspan class="cls-3" x="234.83" y="0">B</tspan><tspan class="cls-2" x="304.84" y="0">AR</tspan><tspan class="cls-6" x="460.84" y="0">AN,</tspan></text>
        <text class="cls-5" transform="translate(1 103.97)"><tspan class="cls-6" x="0" y="0">KE</tspan><tspan class="cls-1" x="91.63" y="0">S</tspan><tspan class="cls-2" x="154.36" y="0">A</tspan><tspan class="cls-3" x="234.83" y="0">B</tspan><tspan class="cls-2" x="304.84" y="0">AR</tspan><tspan class="cls-6" x="460.84" y="0">AN,</tspan></text>
        <text class="cls-5" transform="translate(1 102.97)"><tspan class="cls-6" x="0" y="0">KE</tspan><tspan class="cls-1" x="91.63" y="0">S</tspan><tspan class="cls-2" x="154.36" y="0">A</tspan><tspan class="cls-3" x="234.83" y="0">B</tspan><tspan class="cls-2" x="304.84" y="0">AR</tspan><tspan class="cls-6" x="460.84" y="0">AN,</tspan></text>
        <text class="cls-5" transform="translate(1 101.97)"><tspan class="cls-6" x="0" y="0">KE</tspan><tspan class="cls-1" x="91.63" y="0">S</tspan><tspan class="cls-2" x="154.36" y="0">A</tspan><tspan class="cls-3" x="234.83" y="0">B</tspan><tspan class="cls-2" x="304.84" y="0">AR</tspan><tspan class="cls-6" x="460.84" y="0">AN,</tspan></text>
        <text class="cls-5" transform="translate(1 100.97)"><tspan class="cls-6" x="0" y="0">KE</tspan><tspan class="cls-1" x="91.63" y="0">S</tspan><tspan class="cls-2" x="154.36" y="0">A</tspan><tspan class="cls-3" x="234.83" y="0">B</tspan><tspan class="cls-2" x="304.84" y="0">AR</tspan><tspan class="cls-6" x="460.84" y="0">AN,</tspan></text>
        <text class="cls-5" transform="translate(1 99.97)"><tspan class="cls-6" x="0" y="0">KE</tspan><tspan class="cls-1" x="91.63" y="0">S</tspan><tspan class="cls-2" x="154.36" y="0">A</tspan><tspan class="cls-3" x="234.83" y="0">B</tspan><tspan class="cls-2" x="304.84" y="0">AR</tspan><tspan class="cls-6" x="460.84" y="0">AN,</tspan></text>
        <text class="cls-5" transform="translate(1 98.97)"><tspan class="cls-6" x="0" y="0">KE</tspan><tspan class="cls-1" x="91.63" y="0">S</tspan><tspan class="cls-2" x="154.36" y="0">A</tspan><tspan class="cls-3" x="234.83" y="0">B</tspan><tspan class="cls-2" x="304.84" y="0">AR</tspan><tspan class="cls-6" x="460.84" y="0">AN,</tspan></text>
      </g>
      <text class="cls-4" transform="translate(1 98.97)"><tspan class="cls-6" x="0" y="0">KE</tspan><tspan class="cls-1" x="91.63" y="0">S</tspan><tspan class="cls-2" x="154.36" y="0">A</tspan><tspan class="cls-3" x="234.83" y="0">B</tspan><tspan class="cls-2" x="304.84" y="0">AR</tspan><tspan class="cls-6" x="460.84" y="0">AN,</tspan><tspan class="cls-2" x="583.83" y="0"> </tspan></text>
    </g>
  </g>
</svg>