<?xml version="1.0" encoding="UTF-8"?>
<svg id="Layer_2" data-name="Layer 2" xmlns="http://www.w3.org/2000/svg" viewBox="0 0 325.85 137.64">
  <defs>
    <style>
      .cls-1 {
        letter-spacing: -.02em;
      }

      .cls-2 {
        letter-spacing: -.05em;
      }

      .cls-3 {
        fill: #f4f3d3;
      }

      .cls-3, .cls-4 {
        font-family: National2Condensed-Bold, 'National 2 Condensed';
        font-size: 119px;
        font-weight: 700;
        stroke: #000;
        stroke-miterlimit: 10;
        stroke-width: 2px;
      }
    </style>
  </defs>
  <g id="TFX">
    <g>
      <g>
        <text class="cls-4" transform="translate(7 112.25)"><tspan x="0" y="0">BU</tspan><tspan class="cls-1" x="109.36" y="0">D</tspan><tspan class="cls-2" x="163.86" y="0">AY</tspan><tspan x="262.16" y="0">A</tspan></text>
        <text class="cls-4" transform="translate(6.5 111.25)"><tspan x="0" y="0">BU</tspan><tspan class="cls-1" x="109.36" y="0">D</tspan><tspan class="cls-2" x="163.86" y="0">AY</tspan><tspan x="262.16" y="0">A</tspan></text>
        <text class="cls-4" transform="translate(6 110.25)"><tspan x="0" y="0">BU</tspan><tspan class="cls-1" x="109.36" y="0">D</tspan><tspan class="cls-2" x="163.86" y="0">AY</tspan><tspan x="262.16" y="0">A</tspan></text>
        <text class="cls-4" transform="translate(5.5 109.25)"><tspan x="0" y="0">BU</tspan><tspan class="cls-1" x="109.36" y="0">D</tspan><tspan class="cls-2" x="163.86" y="0">AY</tspan><tspan x="262.16" y="0">A</tspan></text>
        <text class="cls-4" transform="translate(5 108.25)"><tspan x="0" y="0">BU</tspan><tspan class="cls-1" x="109.36" y="0">D</tspan><tspan class="cls-2" x="163.86" y="0">AY</tspan><tspan x="262.16" y="0">A</tspan></text>
        <text class="cls-4" transform="translate(4.5 107.25)"><tspan x="0" y="0">BU</tspan><tspan class="cls-1" x="109.36" y="0">D</tspan><tspan class="cls-2" x="163.86" y="0">AY</tspan><tspan x="262.16" y="0">A</tspan></text>
        <text class="cls-4" transform="translate(4 106.25)"><tspan x="0" y="0">BU</tspan><tspan class="cls-1" x="109.36" y="0">D</tspan><tspan class="cls-2" x="163.86" y="0">AY</tspan><tspan x="262.16" y="0">A</tspan></text>
        <text class="cls-4" transform="translate(3.5 105.25)"><tspan x="0" y="0">BU</tspan><tspan class="cls-1" x="109.36" y="0">D</tspan><tspan class="cls-2" x="163.86" y="0">AY</tspan><tspan x="262.16" y="0">A</tspan></text>
        <text class="cls-4" transform="translate(3 104.25)"><tspan x="0" y="0">BU</tspan><tspan class="cls-1" x="109.36" y="0">D</tspan><tspan class="cls-2" x="163.86" y="0">AY</tspan><tspan x="262.16" y="0">A</tspan></text>
        <text class="cls-4" transform="translate(2.5 103.25)"><tspan x="0" y="0">BU</tspan><tspan class="cls-1" x="109.36" y="0">D</tspan><tspan class="cls-2" x="163.86" y="0">AY</tspan><tspan x="262.16" y="0">A</tspan></text>
        <text class="cls-4" transform="translate(2 102.25)"><tspan x="0" y="0">BU</tspan><tspan class="cls-1" x="109.36" y="0">D</tspan><tspan class="cls-2" x="163.86" y="0">AY</tspan><tspan x="262.16" y="0">A</tspan></text>
        <text class="cls-4" transform="translate(1.5 101.25)"><tspan x="0" y="0">BU</tspan><tspan class="cls-1" x="109.36" y="0">D</tspan><tspan class="cls-2" x="163.86" y="0">AY</tspan><tspan x="262.16" y="0">A</tspan></text>
        <text class="cls-4" transform="translate(1 100.25)"><tspan x="0" y="0">BU</tspan><tspan class="cls-1" x="109.36" y="0">D</tspan><tspan class="cls-2" x="163.86" y="0">AY</tspan><tspan x="262.16" y="0">A</tspan></text>
      </g>
      <text class="cls-3" transform="translate(1 100.25)"><tspan x="0" y="0">BU</tspan><tspan class="cls-1" x="109.36" y="0">D</tspan><tspan class="cls-2" x="163.86" y="0">AY</tspan><tspan x="262.16" y="0">A</tspan></text>
    </g>
  </g>
</svg>