<?xml version="1.0" encoding="UTF-8"?>
<svg id="Layer_2" data-name="Layer 2" xmlns="http://www.w3.org/2000/svg" viewBox="0 0 247.49 280.64">
  <defs>
    <style>
      .cls-1 {
        letter-spacing: -.02em;
      }

      .cls-2 {
        fill: #f4f3d3;
        font-size: 77.28px;
        font-weight: 700;
        stroke: #000;
        stroke-width: 1.5px;
      }

      .cls-3 {
        letter-spacing: -.12em;
      }

      .cls-4, .cls-5 {
        letter-spacing: -.04em;
      }

      .cls-4, .cls-6 {
        font-family: National2-XBold, 'National 2';
      }

      .cls-7 {
        font-family: National2Condensed-Bold, 'National 2 Condensed';
      }

      .cls-8 {
        letter-spacing: -.05em;
      }

      .cls-9 {
        letter-spacing: -.04em;
      }
    </style>
  </defs>
  <g id="TFX">
    <g>
      <g>
        <text class="cls-2" transform="translate(.75 74.2)"><tspan class="cls-4"><tspan x="0" y="0">TENUN</tspan></tspan><tspan class="cls-6"><tspan class="cls-5" x="40.19" y="66.28">IK</tspan><tspan class="cls-3" x="111.13" y="66.28">A</tspan><tspan class="cls-5" x="158.12" y="66.28">T</tspan></tspan><tspan class="cls-7"><tspan class="cls-1" x="38.72" y="132.56">D</tspan><tspan class="cls-8" x="74.12" y="132.56">AY</tspan><tspan x="137.95" y="132.56">AK</tspan></tspan><tspan class="cls-7"><tspan x="11.32" y="198.84">SIN</tspan><tspan class="cls-9" x="97.65" y="198.84">T</tspan><tspan x="127.4" y="198.84">ANG</tspan></tspan></text>
        <text class="cls-2" transform="translate(.75 73.2)"><tspan class="cls-4"><tspan x="0" y="0">TENUN</tspan></tspan><tspan class="cls-6"><tspan class="cls-5" x="40.19" y="66.28">IK</tspan><tspan class="cls-3" x="111.13" y="66.28">A</tspan><tspan class="cls-5" x="158.12" y="66.28">T</tspan></tspan><tspan class="cls-7"><tspan class="cls-1" x="38.72" y="132.56">D</tspan><tspan class="cls-8" x="74.12" y="132.56">AY</tspan><tspan x="137.95" y="132.56">AK</tspan></tspan><tspan class="cls-7"><tspan x="11.32" y="198.84">SIN</tspan><tspan class="cls-9" x="97.65" y="198.84">T</tspan><tspan x="127.4" y="198.84">ANG</tspan></tspan></text>
        <text class="cls-2" transform="translate(.75 72.2)"><tspan class="cls-4"><tspan x="0" y="0">TENUN</tspan></tspan><tspan class="cls-6"><tspan class="cls-5" x="40.19" y="66.28">IK</tspan><tspan class="cls-3" x="111.13" y="66.28">A</tspan><tspan class="cls-5" x="158.12" y="66.28">T</tspan></tspan><tspan class="cls-7"><tspan class="cls-1" x="38.72" y="132.56">D</tspan><tspan class="cls-8" x="74.12" y="132.56">AY</tspan><tspan x="137.95" y="132.56">AK</tspan></tspan><tspan class="cls-7"><tspan x="11.32" y="198.84">SIN</tspan><tspan class="cls-9" x="97.65" y="198.84">T</tspan><tspan x="127.4" y="198.84">ANG</tspan></tspan></text>
        <text class="cls-2" transform="translate(.75 71.2)"><tspan class="cls-4"><tspan x="0" y="0">TENUN</tspan></tspan><tspan class="cls-6"><tspan class="cls-5" x="40.19" y="66.28">IK</tspan><tspan class="cls-3" x="111.13" y="66.28">A</tspan><tspan class="cls-5" x="158.12" y="66.28">T</tspan></tspan><tspan class="cls-7"><tspan class="cls-1" x="38.72" y="132.56">D</tspan><tspan class="cls-8" x="74.12" y="132.56">AY</tspan><tspan x="137.95" y="132.56">AK</tspan></tspan><tspan class="cls-7"><tspan x="11.32" y="198.84">SIN</tspan><tspan class="cls-9" x="97.65" y="198.84">T</tspan><tspan x="127.4" y="198.84">ANG</tspan></tspan></text>
        <text class="cls-2" transform="translate(.75 70.2)"><tspan class="cls-4"><tspan x="0" y="0">TENUN</tspan></tspan><tspan class="cls-6"><tspan class="cls-5" x="40.19" y="66.28">IK</tspan><tspan class="cls-3" x="111.13" y="66.28">A</tspan><tspan class="cls-5" x="158.12" y="66.28">T</tspan></tspan><tspan class="cls-7"><tspan class="cls-1" x="38.72" y="132.56">D</tspan><tspan class="cls-8" x="74.12" y="132.56">AY</tspan><tspan x="137.95" y="132.56">AK</tspan></tspan><tspan class="cls-7"><tspan x="11.32" y="198.84">SIN</tspan><tspan class="cls-9" x="97.65" y="198.84">T</tspan><tspan x="127.4" y="198.84">ANG</tspan></tspan></text>
        <text class="cls-2" transform="translate(.75 69.2)"><tspan class="cls-4"><tspan x="0" y="0">TENUN</tspan></tspan><tspan class="cls-6"><tspan class="cls-5" x="40.19" y="66.28">IK</tspan><tspan class="cls-3" x="111.13" y="66.28">A</tspan><tspan class="cls-5" x="158.12" y="66.28">T</tspan></tspan><tspan class="cls-7"><tspan class="cls-1" x="38.72" y="132.56">D</tspan><tspan class="cls-8" x="74.12" y="132.56">AY</tspan><tspan x="137.95" y="132.56">AK</tspan></tspan><tspan class="cls-7"><tspan x="11.32" y="198.84">SIN</tspan><tspan class="cls-9" x="97.65" y="198.84">T</tspan><tspan x="127.4" y="198.84">ANG</tspan></tspan></text>
        <text class="cls-2" transform="translate(.75 68.2)"><tspan class="cls-4"><tspan x="0" y="0">TENUN</tspan></tspan><tspan class="cls-6"><tspan class="cls-5" x="40.19" y="66.28">IK</tspan><tspan class="cls-3" x="111.13" y="66.28">A</tspan><tspan class="cls-5" x="158.12" y="66.28">T</tspan></tspan><tspan class="cls-7"><tspan class="cls-1" x="38.72" y="132.56">D</tspan><tspan class="cls-8" x="74.12" y="132.56">AY</tspan><tspan x="137.95" y="132.56">AK</tspan></tspan><tspan class="cls-7"><tspan x="11.32" y="198.84">SIN</tspan><tspan class="cls-9" x="97.65" y="198.84">T</tspan><tspan x="127.4" y="198.84">ANG</tspan></tspan></text>
        <text class="cls-2" transform="translate(.75 67.2)"><tspan class="cls-4"><tspan x="0" y="0">TENUN</tspan></tspan><tspan class="cls-6"><tspan class="cls-5" x="40.19" y="66.28">IK</tspan><tspan class="cls-3" x="111.13" y="66.28">A</tspan><tspan class="cls-5" x="158.12" y="66.28">T</tspan></tspan><tspan class="cls-7"><tspan class="cls-1" x="38.72" y="132.56">D</tspan><tspan class="cls-8" x="74.12" y="132.56">AY</tspan><tspan x="137.95" y="132.56">AK</tspan></tspan><tspan class="cls-7"><tspan x="11.32" y="198.84">SIN</tspan><tspan class="cls-9" x="97.65" y="198.84">T</tspan><tspan x="127.4" y="198.84">ANG</tspan></tspan></text>
        <text class="cls-2" transform="translate(.75 66.2)"><tspan class="cls-4"><tspan x="0" y="0">TENUN</tspan></tspan><tspan class="cls-6"><tspan class="cls-5" x="40.19" y="66.28">IK</tspan><tspan class="cls-3" x="111.13" y="66.28">A</tspan><tspan class="cls-5" x="158.12" y="66.28">T</tspan></tspan><tspan class="cls-7"><tspan class="cls-1" x="38.72" y="132.56">D</tspan><tspan class="cls-8" x="74.12" y="132.56">AY</tspan><tspan x="137.95" y="132.56">AK</tspan></tspan><tspan class="cls-7"><tspan x="11.32" y="198.84">SIN</tspan><tspan class="cls-9" x="97.65" y="198.84">T</tspan><tspan x="127.4" y="198.84">ANG</tspan></tspan></text>
        <text class="cls-2" transform="translate(.75 65.2)"><tspan class="cls-4"><tspan x="0" y="0">TENUN</tspan></tspan><tspan class="cls-6"><tspan class="cls-5" x="40.19" y="66.28">IK</tspan><tspan class="cls-3" x="111.13" y="66.28">A</tspan><tspan class="cls-5" x="158.12" y="66.28">T</tspan></tspan><tspan class="cls-7"><tspan class="cls-1" x="38.72" y="132.56">D</tspan><tspan class="cls-8" x="74.12" y="132.56">AY</tspan><tspan x="137.95" y="132.56">AK</tspan></tspan><tspan class="cls-7"><tspan x="11.32" y="198.84">SIN</tspan><tspan class="cls-9" x="97.65" y="198.84">T</tspan><tspan x="127.4" y="198.84">ANG</tspan></tspan></text>
      </g>
      <text class="cls-2" transform="translate(.75 65.2)"><tspan class="cls-4"><tspan x="0" y="0">TENUN</tspan></tspan><tspan class="cls-6"><tspan class="cls-5" x="40.19" y="66.28">IK</tspan><tspan class="cls-3" x="111.13" y="66.28">A</tspan><tspan class="cls-5" x="158.12" y="66.28">T</tspan></tspan><tspan class="cls-7"><tspan class="cls-1" x="38.72" y="132.56">D</tspan><tspan class="cls-8" x="74.12" y="132.56">AY</tspan><tspan x="137.95" y="132.56">AK</tspan></tspan><tspan class="cls-7"><tspan x="11.32" y="198.84">SIN</tspan><tspan class="cls-9" x="97.65" y="198.84">T</tspan><tspan x="127.4" y="198.84">ANG</tspan></tspan></text>
    </g>
  </g>
</svg>