<?xml version="1.0" encoding="UTF-8"?>
<svg id="Layer_2" data-name="Layer 2" xmlns="http://www.w3.org/2000/svg" viewBox="0 0 1177.54 155.83">
  <defs>
    <style>
      .cls-1 {
        letter-spacing: 0em;
      }

      .cls-1, .cls-2, .cls-3 {
        font-family: National2-XBold, 'National 2';
        font-size: 136px;
        stroke-miterlimit: 10;
        stroke-width: 3px;
      }

      .cls-2 {
        letter-spacing: .01em;
      }

      .cls-4 {
        letter-spacing: -.04em;
      }

      .cls-4, .cls-5 {
        font-family: National2Condensed-Bold, 'National 2 Condensed';
        font-size: 141.18px;
        stroke-width: 2px;
      }

      .cls-3 {
        letter-spacing: -.07em;
      }

      .cls-5 {
        letter-spacing: -.08em;
      }

      .cls-6, .cls-7 {
        font-weight: 700;
        stroke: #000;
      }

      .cls-7 {
        fill: #ffaf00;
      }
    </style>
  </defs>
  <g id="TFX">
    <g>
      <g>
        <text class="cls-6" transform="translate(1 128.24)"><tspan class="cls-4" x="0" y="0">KABU</tspan><tspan class="cls-5" x="239.43" y="0">PA</tspan><tspan class="cls-4" x="345.6" y="0">TEN </tspan><tspan class="cls-2" x="530.68" y="0">SIN</tspan><tspan class="cls-3" x="756.84" y="0">T</tspan><tspan class="cls-1" x="837.08" y="0">ANG,</tspan></text>
        <text class="cls-6" transform="translate(1 127.24)"><tspan class="cls-4" x="0" y="0">KABU</tspan><tspan class="cls-5" x="239.43" y="0">PA</tspan><tspan class="cls-4" x="345.6" y="0">TEN </tspan><tspan class="cls-2" x="530.68" y="0">SIN</tspan><tspan class="cls-3" x="756.84" y="0">T</tspan><tspan class="cls-1" x="837.08" y="0">ANG,</tspan></text>
        <text class="cls-6" transform="translate(1 126.24)"><tspan class="cls-4" x="0" y="0">KABU</tspan><tspan class="cls-5" x="239.43" y="0">PA</tspan><tspan class="cls-4" x="345.6" y="0">TEN </tspan><tspan class="cls-2" x="530.68" y="0">SIN</tspan><tspan class="cls-3" x="756.84" y="0">T</tspan><tspan class="cls-1" x="837.08" y="0">ANG,</tspan></text>
        <text class="cls-6" transform="translate(1 125.24)"><tspan class="cls-4" x="0" y="0">KABU</tspan><tspan class="cls-5" x="239.43" y="0">PA</tspan><tspan class="cls-4" x="345.6" y="0">TEN </tspan><tspan class="cls-2" x="530.68" y="0">SIN</tspan><tspan class="cls-3" x="756.84" y="0">T</tspan><tspan class="cls-1" x="837.08" y="0">ANG,</tspan></text>
        <text class="cls-6" transform="translate(1 124.24)"><tspan class="cls-4" x="0" y="0">KABU</tspan><tspan class="cls-5" x="239.43" y="0">PA</tspan><tspan class="cls-4" x="345.6" y="0">TEN </tspan><tspan class="cls-2" x="530.68" y="0">SIN</tspan><tspan class="cls-3" x="756.84" y="0">T</tspan><tspan class="cls-1" x="837.08" y="0">ANG,</tspan></text>
        <text class="cls-6" transform="translate(1 123.24)"><tspan class="cls-4" x="0" y="0">KABU</tspan><tspan class="cls-5" x="239.43" y="0">PA</tspan><tspan class="cls-4" x="345.6" y="0">TEN </tspan><tspan class="cls-2" x="530.68" y="0">SIN</tspan><tspan class="cls-3" x="756.84" y="0">T</tspan><tspan class="cls-1" x="837.08" y="0">ANG,</tspan></text>
        <text class="cls-6" transform="translate(1 122.24)"><tspan class="cls-4" x="0" y="0">KABU</tspan><tspan class="cls-5" x="239.43" y="0">PA</tspan><tspan class="cls-4" x="345.6" y="0">TEN </tspan><tspan class="cls-2" x="530.68" y="0">SIN</tspan><tspan class="cls-3" x="756.84" y="0">T</tspan><tspan class="cls-1" x="837.08" y="0">ANG,</tspan></text>
        <text class="cls-6" transform="translate(1 121.24)"><tspan class="cls-4" x="0" y="0">KABU</tspan><tspan class="cls-5" x="239.43" y="0">PA</tspan><tspan class="cls-4" x="345.6" y="0">TEN </tspan><tspan class="cls-2" x="530.68" y="0">SIN</tspan><tspan class="cls-3" x="756.84" y="0">T</tspan><tspan class="cls-1" x="837.08" y="0">ANG,</tspan></text>
        <text class="cls-6" transform="translate(1 120.24)"><tspan class="cls-4" x="0" y="0">KABU</tspan><tspan class="cls-5" x="239.43" y="0">PA</tspan><tspan class="cls-4" x="345.6" y="0">TEN </tspan><tspan class="cls-2" x="530.68" y="0">SIN</tspan><tspan class="cls-3" x="756.84" y="0">T</tspan><tspan class="cls-1" x="837.08" y="0">ANG,</tspan></text>
        <text class="cls-6" transform="translate(1 119.24)"><tspan class="cls-4" x="0" y="0">KABU</tspan><tspan class="cls-5" x="239.43" y="0">PA</tspan><tspan class="cls-4" x="345.6" y="0">TEN </tspan><tspan class="cls-2" x="530.68" y="0">SIN</tspan><tspan class="cls-3" x="756.84" y="0">T</tspan><tspan class="cls-1" x="837.08" y="0">ANG,</tspan></text>
      </g>
      <text class="cls-7" transform="translate(1 119.24)"><tspan class="cls-4" x="0" y="0">KABU</tspan><tspan class="cls-5" x="239.43" y="0">PA</tspan><tspan class="cls-4" x="345.6" y="0">TEN </tspan><tspan class="cls-2" x="530.68" y="0">SIN</tspan><tspan class="cls-3" x="756.84" y="0">T</tspan><tspan class="cls-1" x="837.08" y="0">ANG,</tspan></text>
    </g>
  </g>
</svg>