<?xml version="1.0" encoding="UTF-8"?>
<svg id="Layer_2" data-name="Layer 2" xmlns="http://www.w3.org/2000/svg" viewBox="0 0 307.54 284.74">
  <defs>
    <style>
      .cls-1 {
        letter-spacing: 0em;
      }

      .cls-2 {
        letter-spacing: -.12em;
      }

      .cls-3 {
        letter-spacing: -.02em;
      }

      .cls-4 {
        fill: #f4f3d3;
      }

      .cls-4, .cls-5 {
        font-size: 77.28px;
        font-weight: 700;
        stroke: #000;
        stroke-width: 1.5px;
      }

      .cls-6 {
        letter-spacing: -.04em;
      }

      .cls-7, .cls-8 {
        letter-spacing: -.04em;
      }

      .cls-7, .cls-9 {
        font-family: National2-XBold, 'National 2';
      }

      .cls-10 {
        font-family: National2Condensed-Bold, 'National 2 Condensed';
      }

      .cls-11 {
        letter-spacing: -.04em;
      }
    </style>
  </defs>
  <g id="TFX">
    <g>
      <g>
        <text class="cls-5" transform="translate(41.75 74.2)"><tspan class="cls-7"><tspan x="0" y="0">TIKAR</tspan></tspan><tspan class="cls-10"><tspan class="cls-11" x="5.29" y="66.28">P</tspan><tspan class="cls-1" x="36.52" y="66.28">AN</tspan><tspan class="cls-3" x="110.09" y="66.28">D</tspan><tspan x="145.49" y="66.28">AN</tspan></tspan><tspan class="cls-10"><tspan x="-8" y="132.56">SERASAN</tspan></tspan><tspan class="cls-9"><tspan class="cls-8" x="-41" y="198.84">N</tspan><tspan class="cls-2" x="12.02" y="198.84">A</tspan><tspan class="cls-6" x="59.01" y="198.84">TUNA</tspan></tspan></text>
        <text class="cls-5" transform="translate(41.75 73.2)"><tspan class="cls-7"><tspan x="0" y="0">TIKAR</tspan></tspan><tspan class="cls-10"><tspan class="cls-11" x="5.29" y="66.28">P</tspan><tspan class="cls-1" x="36.52" y="66.28">AN</tspan><tspan class="cls-3" x="110.09" y="66.28">D</tspan><tspan x="145.49" y="66.28">AN</tspan></tspan><tspan class="cls-10"><tspan x="-8" y="132.56">SERASAN</tspan></tspan><tspan class="cls-9"><tspan class="cls-8" x="-41" y="198.84">N</tspan><tspan class="cls-2" x="12.02" y="198.84">A</tspan><tspan class="cls-6" x="59.01" y="198.84">TUNA</tspan></tspan></text>
        <text class="cls-5" transform="translate(41.75 72.2)"><tspan class="cls-7"><tspan x="0" y="0">TIKAR</tspan></tspan><tspan class="cls-10"><tspan class="cls-11" x="5.29" y="66.28">P</tspan><tspan class="cls-1" x="36.52" y="66.28">AN</tspan><tspan class="cls-3" x="110.09" y="66.28">D</tspan><tspan x="145.49" y="66.28">AN</tspan></tspan><tspan class="cls-10"><tspan x="-8" y="132.56">SERASAN</tspan></tspan><tspan class="cls-9"><tspan class="cls-8" x="-41" y="198.84">N</tspan><tspan class="cls-2" x="12.02" y="198.84">A</tspan><tspan class="cls-6" x="59.01" y="198.84">TUNA</tspan></tspan></text>
        <text class="cls-5" transform="translate(41.75 71.2)"><tspan class="cls-7"><tspan x="0" y="0">TIKAR</tspan></tspan><tspan class="cls-10"><tspan class="cls-11" x="5.29" y="66.28">P</tspan><tspan class="cls-1" x="36.52" y="66.28">AN</tspan><tspan class="cls-3" x="110.09" y="66.28">D</tspan><tspan x="145.49" y="66.28">AN</tspan></tspan><tspan class="cls-10"><tspan x="-8" y="132.56">SERASAN</tspan></tspan><tspan class="cls-9"><tspan class="cls-8" x="-41" y="198.84">N</tspan><tspan class="cls-2" x="12.02" y="198.84">A</tspan><tspan class="cls-6" x="59.01" y="198.84">TUNA</tspan></tspan></text>
        <text class="cls-5" transform="translate(41.75 70.2)"><tspan class="cls-7"><tspan x="0" y="0">TIKAR</tspan></tspan><tspan class="cls-10"><tspan class="cls-11" x="5.29" y="66.28">P</tspan><tspan class="cls-1" x="36.52" y="66.28">AN</tspan><tspan class="cls-3" x="110.09" y="66.28">D</tspan><tspan x="145.49" y="66.28">AN</tspan></tspan><tspan class="cls-10"><tspan x="-8" y="132.56">SERASAN</tspan></tspan><tspan class="cls-9"><tspan class="cls-8" x="-41" y="198.84">N</tspan><tspan class="cls-2" x="12.02" y="198.84">A</tspan><tspan class="cls-6" x="59.01" y="198.84">TUNA</tspan></tspan></text>
        <text class="cls-5" transform="translate(41.75 69.2)"><tspan class="cls-7"><tspan x="0" y="0">TIKAR</tspan></tspan><tspan class="cls-10"><tspan class="cls-11" x="5.29" y="66.28">P</tspan><tspan class="cls-1" x="36.52" y="66.28">AN</tspan><tspan class="cls-3" x="110.09" y="66.28">D</tspan><tspan x="145.49" y="66.28">AN</tspan></tspan><tspan class="cls-10"><tspan x="-8" y="132.56">SERASAN</tspan></tspan><tspan class="cls-9"><tspan class="cls-8" x="-41" y="198.84">N</tspan><tspan class="cls-2" x="12.02" y="198.84">A</tspan><tspan class="cls-6" x="59.01" y="198.84">TUNA</tspan></tspan></text>
        <text class="cls-5" transform="translate(41.75 68.2)"><tspan class="cls-7"><tspan x="0" y="0">TIKAR</tspan></tspan><tspan class="cls-10"><tspan class="cls-11" x="5.29" y="66.28">P</tspan><tspan class="cls-1" x="36.52" y="66.28">AN</tspan><tspan class="cls-3" x="110.09" y="66.28">D</tspan><tspan x="145.49" y="66.28">AN</tspan></tspan><tspan class="cls-10"><tspan x="-8" y="132.56">SERASAN</tspan></tspan><tspan class="cls-9"><tspan class="cls-8" x="-41" y="198.84">N</tspan><tspan class="cls-2" x="12.02" y="198.84">A</tspan><tspan class="cls-6" x="59.01" y="198.84">TUNA</tspan></tspan></text>
        <text class="cls-5" transform="translate(41.75 67.2)"><tspan class="cls-7"><tspan x="0" y="0">TIKAR</tspan></tspan><tspan class="cls-10"><tspan class="cls-11" x="5.29" y="66.28">P</tspan><tspan class="cls-1" x="36.52" y="66.28">AN</tspan><tspan class="cls-3" x="110.09" y="66.28">D</tspan><tspan x="145.49" y="66.28">AN</tspan></tspan><tspan class="cls-10"><tspan x="-8" y="132.56">SERASAN</tspan></tspan><tspan class="cls-9"><tspan class="cls-8" x="-41" y="198.84">N</tspan><tspan class="cls-2" x="12.02" y="198.84">A</tspan><tspan class="cls-6" x="59.01" y="198.84">TUNA</tspan></tspan></text>
        <text class="cls-5" transform="translate(41.75 66.2)"><tspan class="cls-7"><tspan x="0" y="0">TIKAR</tspan></tspan><tspan class="cls-10"><tspan class="cls-11" x="5.29" y="66.28">P</tspan><tspan class="cls-1" x="36.52" y="66.28">AN</tspan><tspan class="cls-3" x="110.09" y="66.28">D</tspan><tspan x="145.49" y="66.28">AN</tspan></tspan><tspan class="cls-10"><tspan x="-8" y="132.56">SERASAN</tspan></tspan><tspan class="cls-9"><tspan class="cls-8" x="-41" y="198.84">N</tspan><tspan class="cls-2" x="12.02" y="198.84">A</tspan><tspan class="cls-6" x="59.01" y="198.84">TUNA</tspan></tspan></text>
        <text class="cls-5" transform="translate(41.75 65.2)"><tspan class="cls-7"><tspan x="0" y="0">TIKAR</tspan></tspan><tspan class="cls-10"><tspan class="cls-11" x="5.29" y="66.28">P</tspan><tspan class="cls-1" x="36.52" y="66.28">AN</tspan><tspan class="cls-3" x="110.09" y="66.28">D</tspan><tspan x="145.49" y="66.28">AN</tspan></tspan><tspan class="cls-10"><tspan x="-8" y="132.56">SERASAN</tspan></tspan><tspan class="cls-9"><tspan class="cls-8" x="-41" y="198.84">N</tspan><tspan class="cls-2" x="12.02" y="198.84">A</tspan><tspan class="cls-6" x="59.01" y="198.84">TUNA</tspan></tspan></text>
      </g>
      <text class="cls-4" transform="translate(41.75 65.2)"><tspan class="cls-7"><tspan x="0" y="0">TIKAR</tspan></tspan><tspan class="cls-10"><tspan class="cls-11" x="5.29" y="66.28">P</tspan><tspan class="cls-1" x="36.52" y="66.28">AN</tspan><tspan class="cls-3" x="110.09" y="66.28">D</tspan><tspan x="145.49" y="66.28">AN</tspan></tspan><tspan class="cls-10"><tspan x="-8" y="132.56">SERASAN</tspan></tspan><tspan class="cls-9"><tspan class="cls-8" x="-41" y="198.84">N</tspan><tspan class="cls-2" x="12.02" y="198.84">A</tspan><tspan class="cls-6" x="59.01" y="198.84">TUNA</tspan></tspan></text>
    </g>
  </g>
</svg>