<?xml version="1.0" encoding="UTF-8"?>
<svg id="Layer_2" data-name="Layer 2" xmlns="http://www.w3.org/2000/svg" viewBox="0 0 251.28 218.46">
  <defs>
    <style>
      .cls-1 {
        letter-spacing: -.07em;
      }

      .cls-2 {
        fill: #f4f3d3;
      }

      .cls-2, .cls-3 {
        font-size: 77.28px;
        font-weight: 700;
        stroke: #000;
        stroke-width: 1.5px;
      }

      .cls-4 {
        letter-spacing: -.1em;
      }

      .cls-5 {
        letter-spacing: -.04em;
      }

      .cls-6, .cls-7 {
        letter-spacing: -.04em;
      }

      .cls-6, .cls-8 {
        font-family: National2-XBold, 'National 2';
      }

      .cls-9 {
        font-family: National2Condensed-Bold, 'National 2 Condensed';
      }
    </style>
  </defs>
  <g id="TFX">
    <g>
      <g>
        <text class="cls-3" transform="translate(.75 74.2)"><tspan class="cls-6"><tspan x="0" y="0">NOKEN</tspan></tspan><tspan class="cls-9"><tspan x="55.1" y="66.28">KHAS</tspan></tspan><tspan class="cls-8"><tspan class="cls-4" x="4.87" y="132.56">P</tspan><tspan class="cls-5" x="45.83" y="132.56">AP</tspan><tspan class="cls-1" x="144.68" y="132.56">U</tspan><tspan class="cls-7" x="191.97" y="132.56">A</tspan></tspan></text>
        <text class="cls-3" transform="translate(.75 73.2)"><tspan class="cls-6"><tspan x="0" y="0">NOKEN</tspan></tspan><tspan class="cls-9"><tspan x="55.1" y="66.28">KHAS</tspan></tspan><tspan class="cls-8"><tspan class="cls-4" x="4.87" y="132.56">P</tspan><tspan class="cls-5" x="45.83" y="132.56">AP</tspan><tspan class="cls-1" x="144.68" y="132.56">U</tspan><tspan class="cls-7" x="191.97" y="132.56">A</tspan></tspan></text>
        <text class="cls-3" transform="translate(.75 72.2)"><tspan class="cls-6"><tspan x="0" y="0">NOKEN</tspan></tspan><tspan class="cls-9"><tspan x="55.1" y="66.28">KHAS</tspan></tspan><tspan class="cls-8"><tspan class="cls-4" x="4.87" y="132.56">P</tspan><tspan class="cls-5" x="45.83" y="132.56">AP</tspan><tspan class="cls-1" x="144.68" y="132.56">U</tspan><tspan class="cls-7" x="191.97" y="132.56">A</tspan></tspan></text>
        <text class="cls-3" transform="translate(.75 71.2)"><tspan class="cls-6"><tspan x="0" y="0">NOKEN</tspan></tspan><tspan class="cls-9"><tspan x="55.1" y="66.28">KHAS</tspan></tspan><tspan class="cls-8"><tspan class="cls-4" x="4.87" y="132.56">P</tspan><tspan class="cls-5" x="45.83" y="132.56">AP</tspan><tspan class="cls-1" x="144.68" y="132.56">U</tspan><tspan class="cls-7" x="191.97" y="132.56">A</tspan></tspan></text>
        <text class="cls-3" transform="translate(.75 70.2)"><tspan class="cls-6"><tspan x="0" y="0">NOKEN</tspan></tspan><tspan class="cls-9"><tspan x="55.1" y="66.28">KHAS</tspan></tspan><tspan class="cls-8"><tspan class="cls-4" x="4.87" y="132.56">P</tspan><tspan class="cls-5" x="45.83" y="132.56">AP</tspan><tspan class="cls-1" x="144.68" y="132.56">U</tspan><tspan class="cls-7" x="191.97" y="132.56">A</tspan></tspan></text>
        <text class="cls-3" transform="translate(.75 69.2)"><tspan class="cls-6"><tspan x="0" y="0">NOKEN</tspan></tspan><tspan class="cls-9"><tspan x="55.1" y="66.28">KHAS</tspan></tspan><tspan class="cls-8"><tspan class="cls-4" x="4.87" y="132.56">P</tspan><tspan class="cls-5" x="45.83" y="132.56">AP</tspan><tspan class="cls-1" x="144.68" y="132.56">U</tspan><tspan class="cls-7" x="191.97" y="132.56">A</tspan></tspan></text>
        <text class="cls-3" transform="translate(.75 68.2)"><tspan class="cls-6"><tspan x="0" y="0">NOKEN</tspan></tspan><tspan class="cls-9"><tspan x="55.1" y="66.28">KHAS</tspan></tspan><tspan class="cls-8"><tspan class="cls-4" x="4.87" y="132.56">P</tspan><tspan class="cls-5" x="45.83" y="132.56">AP</tspan><tspan class="cls-1" x="144.68" y="132.56">U</tspan><tspan class="cls-7" x="191.97" y="132.56">A</tspan></tspan></text>
        <text class="cls-3" transform="translate(.75 67.2)"><tspan class="cls-6"><tspan x="0" y="0">NOKEN</tspan></tspan><tspan class="cls-9"><tspan x="55.1" y="66.28">KHAS</tspan></tspan><tspan class="cls-8"><tspan class="cls-4" x="4.87" y="132.56">P</tspan><tspan class="cls-5" x="45.83" y="132.56">AP</tspan><tspan class="cls-1" x="144.68" y="132.56">U</tspan><tspan class="cls-7" x="191.97" y="132.56">A</tspan></tspan></text>
        <text class="cls-3" transform="translate(.75 66.2)"><tspan class="cls-6"><tspan x="0" y="0">NOKEN</tspan></tspan><tspan class="cls-9"><tspan x="55.1" y="66.28">KHAS</tspan></tspan><tspan class="cls-8"><tspan class="cls-4" x="4.87" y="132.56">P</tspan><tspan class="cls-5" x="45.83" y="132.56">AP</tspan><tspan class="cls-1" x="144.68" y="132.56">U</tspan><tspan class="cls-7" x="191.97" y="132.56">A</tspan></tspan></text>
        <text class="cls-3" transform="translate(.75 65.2)"><tspan class="cls-6"><tspan x="0" y="0">NOKEN</tspan></tspan><tspan class="cls-9"><tspan x="55.1" y="66.28">KHAS</tspan></tspan><tspan class="cls-8"><tspan class="cls-4" x="4.87" y="132.56">P</tspan><tspan class="cls-5" x="45.83" y="132.56">AP</tspan><tspan class="cls-1" x="144.68" y="132.56">U</tspan><tspan class="cls-7" x="191.97" y="132.56">A</tspan></tspan></text>
      </g>
      <text class="cls-2" transform="translate(.75 65.2)"><tspan class="cls-6"><tspan x="0" y="0">NOKEN</tspan></tspan><tspan class="cls-9"><tspan x="55.1" y="66.28">KHAS</tspan></tspan><tspan class="cls-8"><tspan class="cls-4" x="4.87" y="132.56">P</tspan><tspan class="cls-5" x="45.83" y="132.56">AP</tspan><tspan class="cls-1" x="144.68" y="132.56">U</tspan><tspan class="cls-7" x="191.97" y="132.56">A</tspan></tspan></text>
    </g>
  </g>
</svg>