<?xml version="1.0" encoding="UTF-8"?>
<svg id="Layer_2" data-name="Layer 2" xmlns="http://www.w3.org/2000/svg" viewBox="0 0 210.8 193.35">
  <defs>
    <style>
      .cls-1, .cls-2 {
        font-size: 65.28px;
        font-weight: 700;
        stroke: #000;
        stroke-width: 1.5px;
      }

      .cls-3, .cls-4 {
        letter-spacing: -.04em;
      }

      .cls-2 {
        fill: #f4f3d3;
      }

      .cls-5 {
        font-family: National2Condensed-Bold, 'National 2 Condensed';
      }

      .cls-6, .cls-4 {
        font-family: National2-XBold, 'National 2';
      }

      .cls-7 {
        letter-spacing: -.05em;
      }
    </style>
  </defs>
  <g id="TFX">
    <g>
      <g>
        <text class="cls-1" transform="translate(.75 64.2)"><tspan class="cls-4"><tspan x="0" y="0">UDENG</tspan></tspan><tspan class="cls-5"><tspan x="45.7" y="60.28">KHAS</tspan></tspan><tspan class="cls-6"><tspan class="cls-7" x="36.82" y="120.56">B</tspan><tspan class="cls-3" x="75.73" y="120.56">ALI</tspan></tspan></text>
        <text class="cls-1" transform="translate(.75 63.2)"><tspan class="cls-4"><tspan x="0" y="0">UDENG</tspan></tspan><tspan class="cls-5"><tspan x="45.7" y="60.28">KHAS</tspan></tspan><tspan class="cls-6"><tspan class="cls-7" x="36.82" y="120.56">B</tspan><tspan class="cls-3" x="75.73" y="120.56">ALI</tspan></tspan></text>
        <text class="cls-1" transform="translate(.75 62.2)"><tspan class="cls-4"><tspan x="0" y="0">UDENG</tspan></tspan><tspan class="cls-5"><tspan x="45.7" y="60.28">KHAS</tspan></tspan><tspan class="cls-6"><tspan class="cls-7" x="36.82" y="120.56">B</tspan><tspan class="cls-3" x="75.73" y="120.56">ALI</tspan></tspan></text>
        <text class="cls-1" transform="translate(.75 61.2)"><tspan class="cls-4"><tspan x="0" y="0">UDENG</tspan></tspan><tspan class="cls-5"><tspan x="45.7" y="60.28">KHAS</tspan></tspan><tspan class="cls-6"><tspan class="cls-7" x="36.82" y="120.56">B</tspan><tspan class="cls-3" x="75.73" y="120.56">ALI</tspan></tspan></text>
        <text class="cls-1" transform="translate(.75 60.2)"><tspan class="cls-4"><tspan x="0" y="0">UDENG</tspan></tspan><tspan class="cls-5"><tspan x="45.7" y="60.28">KHAS</tspan></tspan><tspan class="cls-6"><tspan class="cls-7" x="36.82" y="120.56">B</tspan><tspan class="cls-3" x="75.73" y="120.56">ALI</tspan></tspan></text>
        <text class="cls-1" transform="translate(.75 59.2)"><tspan class="cls-4"><tspan x="0" y="0">UDENG</tspan></tspan><tspan class="cls-5"><tspan x="45.7" y="60.28">KHAS</tspan></tspan><tspan class="cls-6"><tspan class="cls-7" x="36.82" y="120.56">B</tspan><tspan class="cls-3" x="75.73" y="120.56">ALI</tspan></tspan></text>
        <text class="cls-1" transform="translate(.75 58.2)"><tspan class="cls-4"><tspan x="0" y="0">UDENG</tspan></tspan><tspan class="cls-5"><tspan x="45.7" y="60.28">KHAS</tspan></tspan><tspan class="cls-6"><tspan class="cls-7" x="36.82" y="120.56">B</tspan><tspan class="cls-3" x="75.73" y="120.56">ALI</tspan></tspan></text>
        <text class="cls-1" transform="translate(.75 57.2)"><tspan class="cls-4"><tspan x="0" y="0">UDENG</tspan></tspan><tspan class="cls-5"><tspan x="45.7" y="60.28">KHAS</tspan></tspan><tspan class="cls-6"><tspan class="cls-7" x="36.82" y="120.56">B</tspan><tspan class="cls-3" x="75.73" y="120.56">ALI</tspan></tspan></text>
        <text class="cls-1" transform="translate(.75 56.2)"><tspan class="cls-4"><tspan x="0" y="0">UDENG</tspan></tspan><tspan class="cls-5"><tspan x="45.7" y="60.28">KHAS</tspan></tspan><tspan class="cls-6"><tspan class="cls-7" x="36.82" y="120.56">B</tspan><tspan class="cls-3" x="75.73" y="120.56">ALI</tspan></tspan></text>
        <text class="cls-1" transform="translate(.75 55.2)"><tspan class="cls-4"><tspan x="0" y="0">UDENG</tspan></tspan><tspan class="cls-5"><tspan x="45.7" y="60.28">KHAS</tspan></tspan><tspan class="cls-6"><tspan class="cls-7" x="36.82" y="120.56">B</tspan><tspan class="cls-3" x="75.73" y="120.56">ALI</tspan></tspan></text>
      </g>
      <text class="cls-2" transform="translate(.75 55.2)"><tspan class="cls-4"><tspan x="0" y="0">UDENG</tspan></tspan><tspan class="cls-5"><tspan x="45.7" y="60.28">KHAS</tspan></tspan><tspan class="cls-6"><tspan class="cls-7" x="36.82" y="120.56">B</tspan><tspan class="cls-3" x="75.73" y="120.56">ALI</tspan></tspan></text>
    </g>
  </g>
</svg>