<?xml version="1.0" encoding="UTF-8"?>
<svg id="Layer_2" data-name="Layer 2" xmlns="http://www.w3.org/2000/svg" viewBox="0 0 260.03 253.63">
  <defs>
    <style>
      .cls-1, .cls-2 {
        font-size: 65.28px;
        font-weight: 700;
        stroke: #000;
        stroke-width: 1.5px;
      }

      .cls-3 {
        letter-spacing: -.04em;
      }

      .cls-4 {
        letter-spacing: 0em;
      }

      .cls-5, .cls-6 {
        letter-spacing: -.04em;
      }

      .cls-2 {
        fill: #f4f3d3;
      }

      .cls-7 {
        font-family: National2Condensed-Bold, 'National 2 Condensed';
      }

      .cls-8 {
        letter-spacing: -.12em;
      }

      .cls-9, .cls-6 {
        font-family: National2-XBold, 'National 2';
      }

      .cls-10 {
        letter-spacing: -.02em;
      }
    </style>
  </defs>
  <g id="TFX">
    <g>
      <g>
        <text class="cls-1" transform="translate(35.38 64.2)"><tspan class="cls-6"><tspan x="0" y="0">TIKAR</tspan></tspan><tspan class="cls-7"><tspan class="cls-3" x="4.47" y="60.28">P</tspan><tspan x="30.85" y="60.28">AN</tspan><tspan class="cls-10" x="93" y="60.28">D</tspan><tspan class="cls-4" x="122.9" y="60.28">AN</tspan></tspan><tspan class="cls-7"><tspan x="-6.76" y="120.56">SERASAN</tspan></tspan><tspan class="cls-9"><tspan class="cls-5" x="-34.63" y="180.84">N</tspan><tspan class="cls-8" x="10.15" y="180.84">A</tspan><tspan class="cls-5" x="49.84" y="180.84">TUNA</tspan></tspan></text>
        <text class="cls-1" transform="translate(35.38 63.2)"><tspan class="cls-6"><tspan x="0" y="0">TIKAR</tspan></tspan><tspan class="cls-7"><tspan class="cls-3" x="4.47" y="60.28">P</tspan><tspan x="30.85" y="60.28">AN</tspan><tspan class="cls-10" x="93" y="60.28">D</tspan><tspan class="cls-4" x="122.9" y="60.28">AN</tspan></tspan><tspan class="cls-7"><tspan x="-6.76" y="120.56">SERASAN</tspan></tspan><tspan class="cls-9"><tspan class="cls-5" x="-34.63" y="180.84">N</tspan><tspan class="cls-8" x="10.15" y="180.84">A</tspan><tspan class="cls-5" x="49.84" y="180.84">TUNA</tspan></tspan></text>
        <text class="cls-1" transform="translate(35.38 62.2)"><tspan class="cls-6"><tspan x="0" y="0">TIKAR</tspan></tspan><tspan class="cls-7"><tspan class="cls-3" x="4.47" y="60.28">P</tspan><tspan x="30.85" y="60.28">AN</tspan><tspan class="cls-10" x="93" y="60.28">D</tspan><tspan class="cls-4" x="122.9" y="60.28">AN</tspan></tspan><tspan class="cls-7"><tspan x="-6.76" y="120.56">SERASAN</tspan></tspan><tspan class="cls-9"><tspan class="cls-5" x="-34.63" y="180.84">N</tspan><tspan class="cls-8" x="10.15" y="180.84">A</tspan><tspan class="cls-5" x="49.84" y="180.84">TUNA</tspan></tspan></text>
        <text class="cls-1" transform="translate(35.38 61.2)"><tspan class="cls-6"><tspan x="0" y="0">TIKAR</tspan></tspan><tspan class="cls-7"><tspan class="cls-3" x="4.47" y="60.28">P</tspan><tspan x="30.85" y="60.28">AN</tspan><tspan class="cls-10" x="93" y="60.28">D</tspan><tspan class="cls-4" x="122.9" y="60.28">AN</tspan></tspan><tspan class="cls-7"><tspan x="-6.76" y="120.56">SERASAN</tspan></tspan><tspan class="cls-9"><tspan class="cls-5" x="-34.63" y="180.84">N</tspan><tspan class="cls-8" x="10.15" y="180.84">A</tspan><tspan class="cls-5" x="49.84" y="180.84">TUNA</tspan></tspan></text>
        <text class="cls-1" transform="translate(35.38 60.2)"><tspan class="cls-6"><tspan x="0" y="0">TIKAR</tspan></tspan><tspan class="cls-7"><tspan class="cls-3" x="4.47" y="60.28">P</tspan><tspan x="30.85" y="60.28">AN</tspan><tspan class="cls-10" x="93" y="60.28">D</tspan><tspan class="cls-4" x="122.9" y="60.28">AN</tspan></tspan><tspan class="cls-7"><tspan x="-6.76" y="120.56">SERASAN</tspan></tspan><tspan class="cls-9"><tspan class="cls-5" x="-34.63" y="180.84">N</tspan><tspan class="cls-8" x="10.15" y="180.84">A</tspan><tspan class="cls-5" x="49.84" y="180.84">TUNA</tspan></tspan></text>
        <text class="cls-1" transform="translate(35.38 59.2)"><tspan class="cls-6"><tspan x="0" y="0">TIKAR</tspan></tspan><tspan class="cls-7"><tspan class="cls-3" x="4.47" y="60.28">P</tspan><tspan x="30.85" y="60.28">AN</tspan><tspan class="cls-10" x="93" y="60.28">D</tspan><tspan class="cls-4" x="122.9" y="60.28">AN</tspan></tspan><tspan class="cls-7"><tspan x="-6.76" y="120.56">SERASAN</tspan></tspan><tspan class="cls-9"><tspan class="cls-5" x="-34.63" y="180.84">N</tspan><tspan class="cls-8" x="10.15" y="180.84">A</tspan><tspan class="cls-5" x="49.84" y="180.84">TUNA</tspan></tspan></text>
        <text class="cls-1" transform="translate(35.38 58.2)"><tspan class="cls-6"><tspan x="0" y="0">TIKAR</tspan></tspan><tspan class="cls-7"><tspan class="cls-3" x="4.47" y="60.28">P</tspan><tspan x="30.85" y="60.28">AN</tspan><tspan class="cls-10" x="93" y="60.28">D</tspan><tspan class="cls-4" x="122.9" y="60.28">AN</tspan></tspan><tspan class="cls-7"><tspan x="-6.76" y="120.56">SERASAN</tspan></tspan><tspan class="cls-9"><tspan class="cls-5" x="-34.63" y="180.84">N</tspan><tspan class="cls-8" x="10.15" y="180.84">A</tspan><tspan class="cls-5" x="49.84" y="180.84">TUNA</tspan></tspan></text>
        <text class="cls-1" transform="translate(35.38 57.2)"><tspan class="cls-6"><tspan x="0" y="0">TIKAR</tspan></tspan><tspan class="cls-7"><tspan class="cls-3" x="4.47" y="60.28">P</tspan><tspan x="30.85" y="60.28">AN</tspan><tspan class="cls-10" x="93" y="60.28">D</tspan><tspan class="cls-4" x="122.9" y="60.28">AN</tspan></tspan><tspan class="cls-7"><tspan x="-6.76" y="120.56">SERASAN</tspan></tspan><tspan class="cls-9"><tspan class="cls-5" x="-34.63" y="180.84">N</tspan><tspan class="cls-8" x="10.15" y="180.84">A</tspan><tspan class="cls-5" x="49.84" y="180.84">TUNA</tspan></tspan></text>
        <text class="cls-1" transform="translate(35.38 56.2)"><tspan class="cls-6"><tspan x="0" y="0">TIKAR</tspan></tspan><tspan class="cls-7"><tspan class="cls-3" x="4.47" y="60.28">P</tspan><tspan x="30.85" y="60.28">AN</tspan><tspan class="cls-10" x="93" y="60.28">D</tspan><tspan class="cls-4" x="122.9" y="60.28">AN</tspan></tspan><tspan class="cls-7"><tspan x="-6.76" y="120.56">SERASAN</tspan></tspan><tspan class="cls-9"><tspan class="cls-5" x="-34.63" y="180.84">N</tspan><tspan class="cls-8" x="10.15" y="180.84">A</tspan><tspan class="cls-5" x="49.84" y="180.84">TUNA</tspan></tspan></text>
        <text class="cls-1" transform="translate(35.38 55.2)"><tspan class="cls-6"><tspan x="0" y="0">TIKAR</tspan></tspan><tspan class="cls-7"><tspan class="cls-3" x="4.47" y="60.28">P</tspan><tspan x="30.85" y="60.28">AN</tspan><tspan class="cls-10" x="93" y="60.28">D</tspan><tspan class="cls-4" x="122.9" y="60.28">AN</tspan></tspan><tspan class="cls-7"><tspan x="-6.76" y="120.56">SERASAN</tspan></tspan><tspan class="cls-9"><tspan class="cls-5" x="-34.63" y="180.84">N</tspan><tspan class="cls-8" x="10.15" y="180.84">A</tspan><tspan class="cls-5" x="49.84" y="180.84">TUNA</tspan></tspan></text>
      </g>
      <text class="cls-2" transform="translate(35.38 55.2)"><tspan class="cls-6"><tspan x="0" y="0">TIKAR</tspan></tspan><tspan class="cls-7"><tspan class="cls-3" x="4.47" y="60.28">P</tspan><tspan x="30.85" y="60.28">AN</tspan><tspan class="cls-10" x="93" y="60.28">D</tspan><tspan class="cls-4" x="122.9" y="60.28">AN</tspan></tspan><tspan class="cls-7"><tspan x="-6.76" y="120.56">SERASAN</tspan></tspan><tspan class="cls-9"><tspan class="cls-5" x="-34.63" y="180.84">N</tspan><tspan class="cls-8" x="10.15" y="180.84">A</tspan><tspan class="cls-5" x="49.84" y="180.84">TUNA</tspan></tspan></text>
    </g>
  </g>
</svg>