<?xml version="1.0" encoding="UTF-8"?>
<svg id="Layer_2" data-name="Layer 2" xmlns="http://www.w3.org/2000/svg" viewBox="0 0 327.63 284.93">
  <defs>
    <style>
      .cls-1 {
        letter-spacing: .01em;
      }

      .cls-2 {
        letter-spacing: -.04em;
      }

      .cls-3 {
        letter-spacing: -.06em;
      }

      .cls-4 {
        font-family: National2Condensed-Bold, 'National 2 Condensed';
        font-size: 141.18px;
        stroke-width: 2px;
      }

      .cls-5 {
        font-family: National2-XBold, 'National 2';
        font-size: 136px;
        stroke-miterlimit: 10;
        stroke-width: 3px;
      }

      .cls-6, .cls-7 {
        font-weight: 700;
        stroke: #000;
      }

      .cls-8 {
        letter-spacing: -.02em;
      }

      .cls-9 {
        letter-spacing: 0em;
      }

      .cls-7 {
        fill: #ffaf00;
      }
    </style>
  </defs>
  <g id="TFX">
    <g>
      <g>
        <text class="cls-6" transform="translate(1.5 127.74)"><tspan class="cls-4"><tspan class="cls-2" x="0" y="0">M</tspan><tspan class="cls-3" x="72.28" y="0">O</tspan><tspan class="cls-2" x="132.14" y="0">TIF</tspan></tspan><tspan class="cls-5"><tspan class="cls-1" x="0" y="129.6">T</tspan><tspan class="cls-8" x="90.71" y="129.6">U</tspan><tspan class="cls-9" x="180.74" y="129.6">AI</tspan></tspan></text>
        <text class="cls-6" transform="translate(1.5 126.74)"><tspan class="cls-4"><tspan class="cls-2" x="0" y="0">M</tspan><tspan class="cls-3" x="72.28" y="0">O</tspan><tspan class="cls-2" x="132.14" y="0">TIF</tspan></tspan><tspan class="cls-5"><tspan class="cls-1" x="0" y="129.6">T</tspan><tspan class="cls-8" x="90.71" y="129.6">U</tspan><tspan class="cls-9" x="180.74" y="129.6">AI</tspan></tspan></text>
        <text class="cls-6" transform="translate(1.5 125.74)"><tspan class="cls-4"><tspan class="cls-2" x="0" y="0">M</tspan><tspan class="cls-3" x="72.28" y="0">O</tspan><tspan class="cls-2" x="132.14" y="0">TIF</tspan></tspan><tspan class="cls-5"><tspan class="cls-1" x="0" y="129.6">T</tspan><tspan class="cls-8" x="90.71" y="129.6">U</tspan><tspan class="cls-9" x="180.74" y="129.6">AI</tspan></tspan></text>
        <text class="cls-6" transform="translate(1.5 124.74)"><tspan class="cls-4"><tspan class="cls-2" x="0" y="0">M</tspan><tspan class="cls-3" x="72.28" y="0">O</tspan><tspan class="cls-2" x="132.14" y="0">TIF</tspan></tspan><tspan class="cls-5"><tspan class="cls-1" x="0" y="129.6">T</tspan><tspan class="cls-8" x="90.71" y="129.6">U</tspan><tspan class="cls-9" x="180.74" y="129.6">AI</tspan></tspan></text>
        <text class="cls-6" transform="translate(1.5 123.74)"><tspan class="cls-4"><tspan class="cls-2" x="0" y="0">M</tspan><tspan class="cls-3" x="72.28" y="0">O</tspan><tspan class="cls-2" x="132.14" y="0">TIF</tspan></tspan><tspan class="cls-5"><tspan class="cls-1" x="0" y="129.6">T</tspan><tspan class="cls-8" x="90.71" y="129.6">U</tspan><tspan class="cls-9" x="180.74" y="129.6">AI</tspan></tspan></text>
        <text class="cls-6" transform="translate(1.5 122.74)"><tspan class="cls-4"><tspan class="cls-2" x="0" y="0">M</tspan><tspan class="cls-3" x="72.28" y="0">O</tspan><tspan class="cls-2" x="132.14" y="0">TIF</tspan></tspan><tspan class="cls-5"><tspan class="cls-1" x="0" y="129.6">T</tspan><tspan class="cls-8" x="90.71" y="129.6">U</tspan><tspan class="cls-9" x="180.74" y="129.6">AI</tspan></tspan></text>
        <text class="cls-6" transform="translate(1.5 121.74)"><tspan class="cls-4"><tspan class="cls-2" x="0" y="0">M</tspan><tspan class="cls-3" x="72.28" y="0">O</tspan><tspan class="cls-2" x="132.14" y="0">TIF</tspan></tspan><tspan class="cls-5"><tspan class="cls-1" x="0" y="129.6">T</tspan><tspan class="cls-8" x="90.71" y="129.6">U</tspan><tspan class="cls-9" x="180.74" y="129.6">AI</tspan></tspan></text>
        <text class="cls-6" transform="translate(1.5 120.74)"><tspan class="cls-4"><tspan class="cls-2" x="0" y="0">M</tspan><tspan class="cls-3" x="72.28" y="0">O</tspan><tspan class="cls-2" x="132.14" y="0">TIF</tspan></tspan><tspan class="cls-5"><tspan class="cls-1" x="0" y="129.6">T</tspan><tspan class="cls-8" x="90.71" y="129.6">U</tspan><tspan class="cls-9" x="180.74" y="129.6">AI</tspan></tspan></text>
        <text class="cls-6" transform="translate(1.5 119.74)"><tspan class="cls-4"><tspan class="cls-2" x="0" y="0">M</tspan><tspan class="cls-3" x="72.28" y="0">O</tspan><tspan class="cls-2" x="132.14" y="0">TIF</tspan></tspan><tspan class="cls-5"><tspan class="cls-1" x="0" y="129.6">T</tspan><tspan class="cls-8" x="90.71" y="129.6">U</tspan><tspan class="cls-9" x="180.74" y="129.6">AI</tspan></tspan></text>
        <text class="cls-6" transform="translate(1.5 118.74)"><tspan class="cls-4"><tspan class="cls-2" x="0" y="0">M</tspan><tspan class="cls-3" x="72.28" y="0">O</tspan><tspan class="cls-2" x="132.14" y="0">TIF</tspan></tspan><tspan class="cls-5"><tspan class="cls-1" x="0" y="129.6">T</tspan><tspan class="cls-8" x="90.71" y="129.6">U</tspan><tspan class="cls-9" x="180.74" y="129.6">AI</tspan></tspan></text>
      </g>
      <text class="cls-7" transform="translate(1.5 118.74)"><tspan class="cls-4"><tspan class="cls-2" x="0" y="0">M</tspan><tspan class="cls-3" x="72.28" y="0">O</tspan><tspan class="cls-2" x="132.14" y="0">TIF</tspan></tspan><tspan class="cls-5"><tspan class="cls-1" x="0" y="129.6">T</tspan><tspan class="cls-8" x="90.71" y="129.6">U</tspan><tspan class="cls-9" x="180.74" y="129.6">AI</tspan></tspan></text>
    </g>
  </g>
</svg>