<?xml version="1.0" encoding="UTF-8"?>
<svg id="Layer_2" data-name="Layer 2" xmlns="http://www.w3.org/2000/svg" viewBox="0 0 274.39 214.36">
  <defs>
    <style>
      .cls-1 {
        letter-spacing: 0em;
      }

      .cls-2 {
        letter-spacing: -.07em;
      }

      .cls-3 {
        letter-spacing: -.02em;
      }

      .cls-4 {
        fill: #f4f3d3;
      }

      .cls-4, .cls-5 {
        font-size: 77.28px;
        font-weight: 700;
        stroke: #000;
        stroke-width: 1.5px;
      }

      .cls-6 {
        letter-spacing: -.04em;
      }

      .cls-7 {
        letter-spacing: -.12em;
      }

      .cls-8 {
        letter-spacing: -.04em;
      }

      .cls-9 {
        font-family: National2Condensed-Bold, 'National 2 Condensed';
      }

      .cls-10 {
        font-family: National2-XBold, 'National 2';
      }
    </style>
  </defs>
  <g id="TFX">
    <g>
      <g>
        <text class="cls-5" transform="translate(.75 74.21)"><tspan class="cls-10"><tspan class="cls-7" x="0" y="0">A</tspan><tspan class="cls-8" x="46.6" y="0">’R</tspan><tspan class="cls-2" x="115" y="0">A</tspan><tspan class="cls-8" x="165.31" y="0">GA</tspan></tspan><tspan class="cls-9"><tspan x="7.23" y="66.28">SUL</tspan><tspan class="cls-3" x="104.53" y="66.28">A</tspan><tspan class="cls-1" x="139.15" y="66.28">WESI</tspan></tspan><tspan class="cls-9"><tspan x="22.96" y="132.56">SEL</tspan><tspan class="cls-6" x="113.84" y="132.56">AT</tspan><tspan class="cls-1" x="176.67" y="132.56">AN</tspan></tspan></text>
        <text class="cls-5" transform="translate(.75 73.21)"><tspan class="cls-10"><tspan class="cls-7" x="0" y="0">A</tspan><tspan class="cls-8" x="46.6" y="0">’R</tspan><tspan class="cls-2" x="115" y="0">A</tspan><tspan class="cls-8" x="165.31" y="0">GA</tspan></tspan><tspan class="cls-9"><tspan x="7.23" y="66.28">SUL</tspan><tspan class="cls-3" x="104.53" y="66.28">A</tspan><tspan class="cls-1" x="139.15" y="66.28">WESI</tspan></tspan><tspan class="cls-9"><tspan x="22.96" y="132.56">SEL</tspan><tspan class="cls-6" x="113.84" y="132.56">AT</tspan><tspan class="cls-1" x="176.67" y="132.56">AN</tspan></tspan></text>
        <text class="cls-5" transform="translate(.75 72.21)"><tspan class="cls-10"><tspan class="cls-7" x="0" y="0">A</tspan><tspan class="cls-8" x="46.6" y="0">’R</tspan><tspan class="cls-2" x="115" y="0">A</tspan><tspan class="cls-8" x="165.31" y="0">GA</tspan></tspan><tspan class="cls-9"><tspan x="7.23" y="66.28">SUL</tspan><tspan class="cls-3" x="104.53" y="66.28">A</tspan><tspan class="cls-1" x="139.15" y="66.28">WESI</tspan></tspan><tspan class="cls-9"><tspan x="22.96" y="132.56">SEL</tspan><tspan class="cls-6" x="113.84" y="132.56">AT</tspan><tspan class="cls-1" x="176.67" y="132.56">AN</tspan></tspan></text>
        <text class="cls-5" transform="translate(.75 71.21)"><tspan class="cls-10"><tspan class="cls-7" x="0" y="0">A</tspan><tspan class="cls-8" x="46.6" y="0">’R</tspan><tspan class="cls-2" x="115" y="0">A</tspan><tspan class="cls-8" x="165.31" y="0">GA</tspan></tspan><tspan class="cls-9"><tspan x="7.23" y="66.28">SUL</tspan><tspan class="cls-3" x="104.53" y="66.28">A</tspan><tspan class="cls-1" x="139.15" y="66.28">WESI</tspan></tspan><tspan class="cls-9"><tspan x="22.96" y="132.56">SEL</tspan><tspan class="cls-6" x="113.84" y="132.56">AT</tspan><tspan class="cls-1" x="176.67" y="132.56">AN</tspan></tspan></text>
        <text class="cls-5" transform="translate(.75 70.21)"><tspan class="cls-10"><tspan class="cls-7" x="0" y="0">A</tspan><tspan class="cls-8" x="46.6" y="0">’R</tspan><tspan class="cls-2" x="115" y="0">A</tspan><tspan class="cls-8" x="165.31" y="0">GA</tspan></tspan><tspan class="cls-9"><tspan x="7.23" y="66.28">SUL</tspan><tspan class="cls-3" x="104.53" y="66.28">A</tspan><tspan class="cls-1" x="139.15" y="66.28">WESI</tspan></tspan><tspan class="cls-9"><tspan x="22.96" y="132.56">SEL</tspan><tspan class="cls-6" x="113.84" y="132.56">AT</tspan><tspan class="cls-1" x="176.67" y="132.56">AN</tspan></tspan></text>
        <text class="cls-5" transform="translate(.75 69.21)"><tspan class="cls-10"><tspan class="cls-7" x="0" y="0">A</tspan><tspan class="cls-8" x="46.6" y="0">’R</tspan><tspan class="cls-2" x="115" y="0">A</tspan><tspan class="cls-8" x="165.31" y="0">GA</tspan></tspan><tspan class="cls-9"><tspan x="7.23" y="66.28">SUL</tspan><tspan class="cls-3" x="104.53" y="66.28">A</tspan><tspan class="cls-1" x="139.15" y="66.28">WESI</tspan></tspan><tspan class="cls-9"><tspan x="22.96" y="132.56">SEL</tspan><tspan class="cls-6" x="113.84" y="132.56">AT</tspan><tspan class="cls-1" x="176.67" y="132.56">AN</tspan></tspan></text>
        <text class="cls-5" transform="translate(.75 68.21)"><tspan class="cls-10"><tspan class="cls-7" x="0" y="0">A</tspan><tspan class="cls-8" x="46.6" y="0">’R</tspan><tspan class="cls-2" x="115" y="0">A</tspan><tspan class="cls-8" x="165.31" y="0">GA</tspan></tspan><tspan class="cls-9"><tspan x="7.23" y="66.28">SUL</tspan><tspan class="cls-3" x="104.53" y="66.28">A</tspan><tspan class="cls-1" x="139.15" y="66.28">WESI</tspan></tspan><tspan class="cls-9"><tspan x="22.96" y="132.56">SEL</tspan><tspan class="cls-6" x="113.84" y="132.56">AT</tspan><tspan class="cls-1" x="176.67" y="132.56">AN</tspan></tspan></text>
        <text class="cls-5" transform="translate(.75 67.21)"><tspan class="cls-10"><tspan class="cls-7" x="0" y="0">A</tspan><tspan class="cls-8" x="46.6" y="0">’R</tspan><tspan class="cls-2" x="115" y="0">A</tspan><tspan class="cls-8" x="165.31" y="0">GA</tspan></tspan><tspan class="cls-9"><tspan x="7.23" y="66.28">SUL</tspan><tspan class="cls-3" x="104.53" y="66.28">A</tspan><tspan class="cls-1" x="139.15" y="66.28">WESI</tspan></tspan><tspan class="cls-9"><tspan x="22.96" y="132.56">SEL</tspan><tspan class="cls-6" x="113.84" y="132.56">AT</tspan><tspan class="cls-1" x="176.67" y="132.56">AN</tspan></tspan></text>
        <text class="cls-5" transform="translate(.75 66.21)"><tspan class="cls-10"><tspan class="cls-7" x="0" y="0">A</tspan><tspan class="cls-8" x="46.6" y="0">’R</tspan><tspan class="cls-2" x="115" y="0">A</tspan><tspan class="cls-8" x="165.31" y="0">GA</tspan></tspan><tspan class="cls-9"><tspan x="7.23" y="66.28">SUL</tspan><tspan class="cls-3" x="104.53" y="66.28">A</tspan><tspan class="cls-1" x="139.15" y="66.28">WESI</tspan></tspan><tspan class="cls-9"><tspan x="22.96" y="132.56">SEL</tspan><tspan class="cls-6" x="113.84" y="132.56">AT</tspan><tspan class="cls-1" x="176.67" y="132.56">AN</tspan></tspan></text>
        <text class="cls-5" transform="translate(.75 65.21)"><tspan class="cls-10"><tspan class="cls-7" x="0" y="0">A</tspan><tspan class="cls-8" x="46.6" y="0">’R</tspan><tspan class="cls-2" x="115" y="0">A</tspan><tspan class="cls-8" x="165.31" y="0">GA</tspan></tspan><tspan class="cls-9"><tspan x="7.23" y="66.28">SUL</tspan><tspan class="cls-3" x="104.53" y="66.28">A</tspan><tspan class="cls-1" x="139.15" y="66.28">WESI</tspan></tspan><tspan class="cls-9"><tspan x="22.96" y="132.56">SEL</tspan><tspan class="cls-6" x="113.84" y="132.56">AT</tspan><tspan class="cls-1" x="176.67" y="132.56">AN</tspan></tspan></text>
      </g>
      <text class="cls-4" transform="translate(.75 65.21)"><tspan class="cls-10"><tspan class="cls-7" x="0" y="0">A</tspan><tspan class="cls-8" x="46.6" y="0">’R</tspan><tspan class="cls-2" x="115" y="0">A</tspan><tspan class="cls-8" x="165.31" y="0">GA</tspan></tspan><tspan class="cls-9"><tspan x="7.23" y="66.28">SUL</tspan><tspan class="cls-3" x="104.53" y="66.28">A</tspan><tspan class="cls-1" x="139.15" y="66.28">WESI</tspan></tspan><tspan class="cls-9"><tspan x="22.96" y="132.56">SEL</tspan><tspan class="cls-6" x="113.84" y="132.56">AT</tspan><tspan class="cls-1" x="176.67" y="132.56">AN</tspan></tspan></text>
    </g>
  </g>
</svg>