<?xml version="1.0" encoding="UTF-8"?>
<svg id="Layer_2" data-name="Layer 2" xmlns="http://www.w3.org/2000/svg" viewBox="0 0 997.12 155.83">
  <defs>
    <style>
      .cls-1 {
        letter-spacing: 0em;
      }

      .cls-1, .cls-2, .cls-3, .cls-4, .cls-5, .cls-6 {
        font-family: National2-XBold, 'National 2';
        font-size: 136px;
        stroke-miterlimit: 10;
        stroke-width: 3px;
      }

      .cls-2, .cls-4 {
        letter-spacing: 0em;
      }

      .cls-2, .cls-4, .cls-7, .cls-8 {
        font-weight: 700;
        stroke: #000;
      }

      .cls-3 {
        letter-spacing: .01em;
      }

      .cls-4, .cls-8 {
        fill: #ffaf00;
      }

      .cls-5 {
        letter-spacing: -.02em;
      }

      .cls-9 {
        letter-spacing: -.04em;
      }

      .cls-9, .cls-10, .cls-11, .cls-12 {
        font-family: National2Condensed-Bold, 'National 2 Condensed';
        font-size: 141.18px;
        stroke-width: 2px;
      }

      .cls-10 {
        letter-spacing: -.1em;
      }

      .cls-11 {
        letter-spacing: -.04em;
      }

      .cls-12 {
        letter-spacing: -.06em;
      }

      .cls-6 {
        letter-spacing: -.11em;
      }
    </style>
  </defs>
  <g id="TFX">
    <g>
      <g>
        <g>
          <text class="cls-7" transform="translate(1 128.24)"><tspan class="cls-11" x="0" y="0">M</tspan><tspan class="cls-10" x="72.28" y="0">A</tspan><tspan class="cls-9" x="124.23" y="0">’</tspan><tspan class="cls-3" x="148.66" y="0">R</tspan><tspan class="cls-5" x="242.91" y="0">A</tspan><tspan class="cls-1" x="338.24" y="0">GA</tspan></text>
          <text class="cls-7" transform="translate(1 127.24)"><tspan class="cls-11" x="0" y="0">M</tspan><tspan class="cls-10" x="72.28" y="0">A</tspan><tspan class="cls-9" x="124.23" y="0">’</tspan><tspan class="cls-3" x="148.66" y="0">R</tspan><tspan class="cls-5" x="242.91" y="0">A</tspan><tspan class="cls-1" x="338.24" y="0">GA</tspan></text>
          <text class="cls-7" transform="translate(1 126.24)"><tspan class="cls-11" x="0" y="0">M</tspan><tspan class="cls-10" x="72.28" y="0">A</tspan><tspan class="cls-9" x="124.23" y="0">’</tspan><tspan class="cls-3" x="148.66" y="0">R</tspan><tspan class="cls-5" x="242.91" y="0">A</tspan><tspan class="cls-1" x="338.24" y="0">GA</tspan></text>
          <text class="cls-7" transform="translate(1 125.24)"><tspan class="cls-11" x="0" y="0">M</tspan><tspan class="cls-10" x="72.28" y="0">A</tspan><tspan class="cls-9" x="124.23" y="0">’</tspan><tspan class="cls-3" x="148.66" y="0">R</tspan><tspan class="cls-5" x="242.91" y="0">A</tspan><tspan class="cls-1" x="338.24" y="0">GA</tspan></text>
          <text class="cls-7" transform="translate(1 124.24)"><tspan class="cls-11" x="0" y="0">M</tspan><tspan class="cls-10" x="72.28" y="0">A</tspan><tspan class="cls-9" x="124.23" y="0">’</tspan><tspan class="cls-3" x="148.66" y="0">R</tspan><tspan class="cls-5" x="242.91" y="0">A</tspan><tspan class="cls-1" x="338.24" y="0">GA</tspan></text>
          <text class="cls-7" transform="translate(1 123.24)"><tspan class="cls-11" x="0" y="0">M</tspan><tspan class="cls-10" x="72.28" y="0">A</tspan><tspan class="cls-9" x="124.23" y="0">’</tspan><tspan class="cls-3" x="148.66" y="0">R</tspan><tspan class="cls-5" x="242.91" y="0">A</tspan><tspan class="cls-1" x="338.24" y="0">GA</tspan></text>
          <text class="cls-7" transform="translate(1 122.24)"><tspan class="cls-11" x="0" y="0">M</tspan><tspan class="cls-10" x="72.28" y="0">A</tspan><tspan class="cls-9" x="124.23" y="0">’</tspan><tspan class="cls-3" x="148.66" y="0">R</tspan><tspan class="cls-5" x="242.91" y="0">A</tspan><tspan class="cls-1" x="338.24" y="0">GA</tspan></text>
          <text class="cls-7" transform="translate(1 121.24)"><tspan class="cls-11" x="0" y="0">M</tspan><tspan class="cls-10" x="72.28" y="0">A</tspan><tspan class="cls-9" x="124.23" y="0">’</tspan><tspan class="cls-3" x="148.66" y="0">R</tspan><tspan class="cls-5" x="242.91" y="0">A</tspan><tspan class="cls-1" x="338.24" y="0">GA</tspan></text>
          <text class="cls-7" transform="translate(1 120.24)"><tspan class="cls-11" x="0" y="0">M</tspan><tspan class="cls-10" x="72.28" y="0">A</tspan><tspan class="cls-9" x="124.23" y="0">’</tspan><tspan class="cls-3" x="148.66" y="0">R</tspan><tspan class="cls-5" x="242.91" y="0">A</tspan><tspan class="cls-1" x="338.24" y="0">GA</tspan></text>
          <text class="cls-7" transform="translate(1 119.24)"><tspan class="cls-11" x="0" y="0">M</tspan><tspan class="cls-10" x="72.28" y="0">A</tspan><tspan class="cls-9" x="124.23" y="0">’</tspan><tspan class="cls-3" x="148.66" y="0">R</tspan><tspan class="cls-5" x="242.91" y="0">A</tspan><tspan class="cls-1" x="338.24" y="0">GA</tspan></text>
        </g>
        <text class="cls-8" transform="translate(1 119.24)"><tspan class="cls-11" x="0" y="0">M</tspan><tspan class="cls-10" x="72.28" y="0">A</tspan><tspan class="cls-9" x="124.23" y="0">’</tspan><tspan class="cls-3" x="148.66" y="0">R</tspan><tspan class="cls-5" x="242.91" y="0">A</tspan><tspan class="cls-1" x="338.24" y="0">GA</tspan></text>
      </g>
      <g>
        <g>
          <text class="cls-2" transform="translate(565 128.24)"><tspan x="0" y="0">/</tspan></text>
          <text class="cls-2" transform="translate(565 127.24)"><tspan x="0" y="0">/</tspan></text>
          <text class="cls-2" transform="translate(565 126.24)"><tspan x="0" y="0">/</tspan></text>
          <text class="cls-2" transform="translate(565 125.24)"><tspan x="0" y="0">/</tspan></text>
          <text class="cls-2" transform="translate(565 124.24)"><tspan x="0" y="0">/</tspan></text>
          <text class="cls-2" transform="translate(565 123.24)"><tspan x="0" y="0">/</tspan></text>
          <text class="cls-2" transform="translate(565 122.24)"><tspan x="0" y="0">/</tspan></text>
          <text class="cls-2" transform="translate(565 121.24)"><tspan x="0" y="0">/</tspan></text>
          <text class="cls-2" transform="translate(565 120.24)"><tspan x="0" y="0">/</tspan></text>
          <text class="cls-2" transform="translate(565 119.24)"><tspan x="0" y="0">/</tspan></text>
        </g>
        <text class="cls-4" transform="translate(565 119.24)"><tspan x="0" y="0">/</tspan></text>
      </g>
      <g>
        <g>
          <text class="cls-7" transform="translate(642.97 128.24)"><tspan class="cls-6" x="0" y="0">A</tspan><tspan class="cls-11" x="83.64" y="0">’R</tspan><tspan class="cls-12" x="168.91" y="0">A</tspan><tspan class="cls-11" x="226.51" y="0">GA</tspan></text>
          <text class="cls-7" transform="translate(642.97 127.24)"><tspan class="cls-6" x="0" y="0">A</tspan><tspan class="cls-11" x="83.64" y="0">’R</tspan><tspan class="cls-12" x="168.91" y="0">A</tspan><tspan class="cls-11" x="226.51" y="0">GA</tspan></text>
          <text class="cls-7" transform="translate(642.97 126.24)"><tspan class="cls-6" x="0" y="0">A</tspan><tspan class="cls-11" x="83.64" y="0">’R</tspan><tspan class="cls-12" x="168.91" y="0">A</tspan><tspan class="cls-11" x="226.51" y="0">GA</tspan></text>
          <text class="cls-7" transform="translate(642.97 125.24)"><tspan class="cls-6" x="0" y="0">A</tspan><tspan class="cls-11" x="83.64" y="0">’R</tspan><tspan class="cls-12" x="168.91" y="0">A</tspan><tspan class="cls-11" x="226.51" y="0">GA</tspan></text>
          <text class="cls-7" transform="translate(642.97 124.24)"><tspan class="cls-6" x="0" y="0">A</tspan><tspan class="cls-11" x="83.64" y="0">’R</tspan><tspan class="cls-12" x="168.91" y="0">A</tspan><tspan class="cls-11" x="226.51" y="0">GA</tspan></text>
          <text class="cls-7" transform="translate(642.97 123.24)"><tspan class="cls-6" x="0" y="0">A</tspan><tspan class="cls-11" x="83.64" y="0">’R</tspan><tspan class="cls-12" x="168.91" y="0">A</tspan><tspan class="cls-11" x="226.51" y="0">GA</tspan></text>
          <text class="cls-7" transform="translate(642.97 122.24)"><tspan class="cls-6" x="0" y="0">A</tspan><tspan class="cls-11" x="83.64" y="0">’R</tspan><tspan class="cls-12" x="168.91" y="0">A</tspan><tspan class="cls-11" x="226.51" y="0">GA</tspan></text>
          <text class="cls-7" transform="translate(642.97 121.24)"><tspan class="cls-6" x="0" y="0">A</tspan><tspan class="cls-11" x="83.64" y="0">’R</tspan><tspan class="cls-12" x="168.91" y="0">A</tspan><tspan class="cls-11" x="226.51" y="0">GA</tspan></text>
          <text class="cls-7" transform="translate(642.97 120.24)"><tspan class="cls-6" x="0" y="0">A</tspan><tspan class="cls-11" x="83.64" y="0">’R</tspan><tspan class="cls-12" x="168.91" y="0">A</tspan><tspan class="cls-11" x="226.51" y="0">GA</tspan></text>
          <text class="cls-7" transform="translate(642.97 119.24)"><tspan class="cls-6" x="0" y="0">A</tspan><tspan class="cls-11" x="83.64" y="0">’R</tspan><tspan class="cls-12" x="168.91" y="0">A</tspan><tspan class="cls-11" x="226.51" y="0">GA</tspan></text>
        </g>
        <text class="cls-8" transform="translate(642.97 119.24)"><tspan class="cls-6" x="0" y="0">A</tspan><tspan class="cls-11" x="83.64" y="0">’R</tspan><tspan class="cls-12" x="168.91" y="0">A</tspan><tspan class="cls-11" x="226.51" y="0">GA</tspan></text>
      </g>
    </g>
  </g>
</svg>