<?xml version="1.0" encoding="UTF-8"?>
<svg id="Layer_2" data-name="Layer 2" xmlns="http://www.w3.org/2000/svg" viewBox="0 0 730.31 422.71">
  <defs>
    <style>
      .cls-1 {
        fill: #f4f3d3;
      }

      .cls-1, .cls-2 {
        font-size: 136px;
        font-weight: 700;
        stroke: #000;
        stroke-miterlimit: 10;
        stroke-width: 3px;
      }

      .cls-3 {
        letter-spacing: -.07em;
      }

      .cls-3, .cls-4, .cls-5, .cls-6, .cls-7, .cls-8, .cls-9, .cls-10 {
        font-family: National2-XBold, 'National 2';
      }

      .cls-11, .cls-12, .cls-7 {
        letter-spacing: .01em;
      }

      .cls-4 {
        letter-spacing: -.02em;
      }

      .cls-5 {
        letter-spacing: -.04em;
      }

      .cls-12, .cls-13 {
        font-family: National2Condensed-Bold, 'National 2 Condensed';
      }

      .cls-6 {
        letter-spacing: -.13em;
      }

      .cls-8 {
        letter-spacing: .01em;
      }

      .cls-9 {
        letter-spacing: -.04em;
      }

      .cls-10 {
        letter-spacing: -.13em;
      }

      .cls-14 {
        letter-spacing: -.03em;
      }
    </style>
  </defs>
  <g id="TFX">
    <g>
      <g>
        <text class="cls-2" transform="translate(1.5 126.92)"><tspan class="cls-12" x="0" y="0">BICARA </tspan><tspan class="cls-8" x="374.26" y="0">S</tspan><tspan class="cls-4" x="456.95" y="0">O</tspan><tspan class="cls-7" x="549.29" y="0">AL</tspan><tspan class="cls-13"><tspan class="cls-11" x="0" y="129.6">MELES</tspan><tspan class="cls-14" x="294.98" y="129.6">T</tspan><tspan class="cls-11" x="348.7" y="129.6">ARIKAN</tspan></tspan><tspan class="cls-9" x="0" y="259.2">B</tspan><tspan class="cls-5" x="81.6" y="259.2">U</tspan><tspan class="cls-3" x="168.91" y="259.2">D</tspan><tspan class="cls-10" x="253.37" y="259.2">A</tspan><tspan class="cls-6" x="333.61" y="259.2">Y</tspan><tspan class="cls-5" x="408.41" y="259.2">A</tspan><tspan class="cls-12" x="501.57" y="259.2">,</tspan></text>
        <text class="cls-2" transform="translate(1.5 125.92)"><tspan class="cls-12" x="0" y="0">BICARA </tspan><tspan class="cls-8" x="374.26" y="0">S</tspan><tspan class="cls-4" x="456.95" y="0">O</tspan><tspan class="cls-7" x="549.29" y="0">AL</tspan><tspan class="cls-13"><tspan class="cls-11" x="0" y="129.6">MELES</tspan><tspan class="cls-14" x="294.98" y="129.6">T</tspan><tspan class="cls-11" x="348.7" y="129.6">ARIKAN</tspan></tspan><tspan class="cls-9" x="0" y="259.2">B</tspan><tspan class="cls-5" x="81.6" y="259.2">U</tspan><tspan class="cls-3" x="168.91" y="259.2">D</tspan><tspan class="cls-10" x="253.37" y="259.2">A</tspan><tspan class="cls-6" x="333.61" y="259.2">Y</tspan><tspan class="cls-5" x="408.41" y="259.2">A</tspan><tspan class="cls-12" x="501.57" y="259.2">,</tspan></text>
        <text class="cls-2" transform="translate(1.5 124.92)"><tspan class="cls-12" x="0" y="0">BICARA </tspan><tspan class="cls-8" x="374.26" y="0">S</tspan><tspan class="cls-4" x="456.95" y="0">O</tspan><tspan class="cls-7" x="549.29" y="0">AL</tspan><tspan class="cls-13"><tspan class="cls-11" x="0" y="129.6">MELES</tspan><tspan class="cls-14" x="294.98" y="129.6">T</tspan><tspan class="cls-11" x="348.7" y="129.6">ARIKAN</tspan></tspan><tspan class="cls-9" x="0" y="259.2">B</tspan><tspan class="cls-5" x="81.6" y="259.2">U</tspan><tspan class="cls-3" x="168.91" y="259.2">D</tspan><tspan class="cls-10" x="253.37" y="259.2">A</tspan><tspan class="cls-6" x="333.61" y="259.2">Y</tspan><tspan class="cls-5" x="408.41" y="259.2">A</tspan><tspan class="cls-12" x="501.57" y="259.2">,</tspan></text>
        <text class="cls-2" transform="translate(1.5 123.92)"><tspan class="cls-12" x="0" y="0">BICARA </tspan><tspan class="cls-8" x="374.26" y="0">S</tspan><tspan class="cls-4" x="456.95" y="0">O</tspan><tspan class="cls-7" x="549.29" y="0">AL</tspan><tspan class="cls-13"><tspan class="cls-11" x="0" y="129.6">MELES</tspan><tspan class="cls-14" x="294.98" y="129.6">T</tspan><tspan class="cls-11" x="348.7" y="129.6">ARIKAN</tspan></tspan><tspan class="cls-9" x="0" y="259.2">B</tspan><tspan class="cls-5" x="81.6" y="259.2">U</tspan><tspan class="cls-3" x="168.91" y="259.2">D</tspan><tspan class="cls-10" x="253.37" y="259.2">A</tspan><tspan class="cls-6" x="333.61" y="259.2">Y</tspan><tspan class="cls-5" x="408.41" y="259.2">A</tspan><tspan class="cls-12" x="501.57" y="259.2">,</tspan></text>
        <text class="cls-2" transform="translate(1.5 122.92)"><tspan class="cls-12" x="0" y="0">BICARA </tspan><tspan class="cls-8" x="374.26" y="0">S</tspan><tspan class="cls-4" x="456.95" y="0">O</tspan><tspan class="cls-7" x="549.29" y="0">AL</tspan><tspan class="cls-13"><tspan class="cls-11" x="0" y="129.6">MELES</tspan><tspan class="cls-14" x="294.98" y="129.6">T</tspan><tspan class="cls-11" x="348.7" y="129.6">ARIKAN</tspan></tspan><tspan class="cls-9" x="0" y="259.2">B</tspan><tspan class="cls-5" x="81.6" y="259.2">U</tspan><tspan class="cls-3" x="168.91" y="259.2">D</tspan><tspan class="cls-10" x="253.37" y="259.2">A</tspan><tspan class="cls-6" x="333.61" y="259.2">Y</tspan><tspan class="cls-5" x="408.41" y="259.2">A</tspan><tspan class="cls-12" x="501.57" y="259.2">,</tspan></text>
        <text class="cls-2" transform="translate(1.5 121.92)"><tspan class="cls-12" x="0" y="0">BICARA </tspan><tspan class="cls-8" x="374.26" y="0">S</tspan><tspan class="cls-4" x="456.95" y="0">O</tspan><tspan class="cls-7" x="549.29" y="0">AL</tspan><tspan class="cls-13"><tspan class="cls-11" x="0" y="129.6">MELES</tspan><tspan class="cls-14" x="294.98" y="129.6">T</tspan><tspan class="cls-11" x="348.7" y="129.6">ARIKAN</tspan></tspan><tspan class="cls-9" x="0" y="259.2">B</tspan><tspan class="cls-5" x="81.6" y="259.2">U</tspan><tspan class="cls-3" x="168.91" y="259.2">D</tspan><tspan class="cls-10" x="253.37" y="259.2">A</tspan><tspan class="cls-6" x="333.61" y="259.2">Y</tspan><tspan class="cls-5" x="408.41" y="259.2">A</tspan><tspan class="cls-12" x="501.57" y="259.2">,</tspan></text>
        <text class="cls-2" transform="translate(1.5 120.92)"><tspan class="cls-12" x="0" y="0">BICARA </tspan><tspan class="cls-8" x="374.26" y="0">S</tspan><tspan class="cls-4" x="456.95" y="0">O</tspan><tspan class="cls-7" x="549.29" y="0">AL</tspan><tspan class="cls-13"><tspan class="cls-11" x="0" y="129.6">MELES</tspan><tspan class="cls-14" x="294.98" y="129.6">T</tspan><tspan class="cls-11" x="348.7" y="129.6">ARIKAN</tspan></tspan><tspan class="cls-9" x="0" y="259.2">B</tspan><tspan class="cls-5" x="81.6" y="259.2">U</tspan><tspan class="cls-3" x="168.91" y="259.2">D</tspan><tspan class="cls-10" x="253.37" y="259.2">A</tspan><tspan class="cls-6" x="333.61" y="259.2">Y</tspan><tspan class="cls-5" x="408.41" y="259.2">A</tspan><tspan class="cls-12" x="501.57" y="259.2">,</tspan></text>
        <text class="cls-2" transform="translate(1.5 119.92)"><tspan class="cls-12" x="0" y="0">BICARA </tspan><tspan class="cls-8" x="374.26" y="0">S</tspan><tspan class="cls-4" x="456.95" y="0">O</tspan><tspan class="cls-7" x="549.29" y="0">AL</tspan><tspan class="cls-13"><tspan class="cls-11" x="0" y="129.6">MELES</tspan><tspan class="cls-14" x="294.98" y="129.6">T</tspan><tspan class="cls-11" x="348.7" y="129.6">ARIKAN</tspan></tspan><tspan class="cls-9" x="0" y="259.2">B</tspan><tspan class="cls-5" x="81.6" y="259.2">U</tspan><tspan class="cls-3" x="168.91" y="259.2">D</tspan><tspan class="cls-10" x="253.37" y="259.2">A</tspan><tspan class="cls-6" x="333.61" y="259.2">Y</tspan><tspan class="cls-5" x="408.41" y="259.2">A</tspan><tspan class="cls-12" x="501.57" y="259.2">,</tspan></text>
        <text class="cls-2" transform="translate(1.5 118.92)"><tspan class="cls-12" x="0" y="0">BICARA </tspan><tspan class="cls-8" x="374.26" y="0">S</tspan><tspan class="cls-4" x="456.95" y="0">O</tspan><tspan class="cls-7" x="549.29" y="0">AL</tspan><tspan class="cls-13"><tspan class="cls-11" x="0" y="129.6">MELES</tspan><tspan class="cls-14" x="294.98" y="129.6">T</tspan><tspan class="cls-11" x="348.7" y="129.6">ARIKAN</tspan></tspan><tspan class="cls-9" x="0" y="259.2">B</tspan><tspan class="cls-5" x="81.6" y="259.2">U</tspan><tspan class="cls-3" x="168.91" y="259.2">D</tspan><tspan class="cls-10" x="253.37" y="259.2">A</tspan><tspan class="cls-6" x="333.61" y="259.2">Y</tspan><tspan class="cls-5" x="408.41" y="259.2">A</tspan><tspan class="cls-12" x="501.57" y="259.2">,</tspan></text>
        <text class="cls-2" transform="translate(1.5 117.92)"><tspan class="cls-12" x="0" y="0">BICARA </tspan><tspan class="cls-8" x="374.26" y="0">S</tspan><tspan class="cls-4" x="456.95" y="0">O</tspan><tspan class="cls-7" x="549.29" y="0">AL</tspan><tspan class="cls-13"><tspan class="cls-11" x="0" y="129.6">MELES</tspan><tspan class="cls-14" x="294.98" y="129.6">T</tspan><tspan class="cls-11" x="348.7" y="129.6">ARIKAN</tspan></tspan><tspan class="cls-9" x="0" y="259.2">B</tspan><tspan class="cls-5" x="81.6" y="259.2">U</tspan><tspan class="cls-3" x="168.91" y="259.2">D</tspan><tspan class="cls-10" x="253.37" y="259.2">A</tspan><tspan class="cls-6" x="333.61" y="259.2">Y</tspan><tspan class="cls-5" x="408.41" y="259.2">A</tspan><tspan class="cls-12" x="501.57" y="259.2">,</tspan></text>
        <text class="cls-2" transform="translate(1.5 116.92)"><tspan class="cls-12" x="0" y="0">BICARA </tspan><tspan class="cls-8" x="374.26" y="0">S</tspan><tspan class="cls-4" x="456.95" y="0">O</tspan><tspan class="cls-7" x="549.29" y="0">AL</tspan><tspan class="cls-13"><tspan class="cls-11" x="0" y="129.6">MELES</tspan><tspan class="cls-14" x="294.98" y="129.6">T</tspan><tspan class="cls-11" x="348.7" y="129.6">ARIKAN</tspan></tspan><tspan class="cls-9" x="0" y="259.2">B</tspan><tspan class="cls-5" x="81.6" y="259.2">U</tspan><tspan class="cls-3" x="168.91" y="259.2">D</tspan><tspan class="cls-10" x="253.37" y="259.2">A</tspan><tspan class="cls-6" x="333.61" y="259.2">Y</tspan><tspan class="cls-5" x="408.41" y="259.2">A</tspan><tspan class="cls-12" x="501.57" y="259.2">,</tspan></text>
        <text class="cls-2" transform="translate(1.5 115.92)"><tspan class="cls-12" x="0" y="0">BICARA </tspan><tspan class="cls-8" x="374.26" y="0">S</tspan><tspan class="cls-4" x="456.95" y="0">O</tspan><tspan class="cls-7" x="549.29" y="0">AL</tspan><tspan class="cls-13"><tspan class="cls-11" x="0" y="129.6">MELES</tspan><tspan class="cls-14" x="294.98" y="129.6">T</tspan><tspan class="cls-11" x="348.7" y="129.6">ARIKAN</tspan></tspan><tspan class="cls-9" x="0" y="259.2">B</tspan><tspan class="cls-5" x="81.6" y="259.2">U</tspan><tspan class="cls-3" x="168.91" y="259.2">D</tspan><tspan class="cls-10" x="253.37" y="259.2">A</tspan><tspan class="cls-6" x="333.61" y="259.2">Y</tspan><tspan class="cls-5" x="408.41" y="259.2">A</tspan><tspan class="cls-12" x="501.57" y="259.2">,</tspan></text>
        <text class="cls-2" transform="translate(1.5 114.92)"><tspan class="cls-12" x="0" y="0">BICARA </tspan><tspan class="cls-8" x="374.26" y="0">S</tspan><tspan class="cls-4" x="456.95" y="0">O</tspan><tspan class="cls-7" x="549.29" y="0">AL</tspan><tspan class="cls-13"><tspan class="cls-11" x="0" y="129.6">MELES</tspan><tspan class="cls-14" x="294.98" y="129.6">T</tspan><tspan class="cls-11" x="348.7" y="129.6">ARIKAN</tspan></tspan><tspan class="cls-9" x="0" y="259.2">B</tspan><tspan class="cls-5" x="81.6" y="259.2">U</tspan><tspan class="cls-3" x="168.91" y="259.2">D</tspan><tspan class="cls-10" x="253.37" y="259.2">A</tspan><tspan class="cls-6" x="333.61" y="259.2">Y</tspan><tspan class="cls-5" x="408.41" y="259.2">A</tspan><tspan class="cls-12" x="501.57" y="259.2">,</tspan></text>
      </g>
      <text class="cls-1" transform="translate(1.5 114.92)"><tspan class="cls-12" x="0" y="0">BICARA </tspan><tspan class="cls-8" x="374.26" y="0">S</tspan><tspan class="cls-4" x="456.95" y="0">O</tspan><tspan class="cls-7" x="549.29" y="0">AL</tspan><tspan class="cls-13"><tspan class="cls-11" x="0" y="129.6">MELES</tspan><tspan class="cls-14" x="294.98" y="129.6">T</tspan><tspan class="cls-11" x="348.7" y="129.6">ARIKAN</tspan></tspan><tspan class="cls-9" x="0" y="259.2">B</tspan><tspan class="cls-5" x="81.6" y="259.2">U</tspan><tspan class="cls-3" x="168.91" y="259.2">D</tspan><tspan class="cls-10" x="253.37" y="259.2">A</tspan><tspan class="cls-6" x="333.61" y="259.2">Y</tspan><tspan class="cls-5" x="408.41" y="259.2">A</tspan><tspan class="cls-12" x="501.57" y="259.2">,</tspan></text>
    </g>
  </g>
</svg>