<?xml version="1.0" encoding="UTF-8"?>
<svg id="Layer_2" data-name="Layer 2" xmlns="http://www.w3.org/2000/svg" viewBox="0 0 249.27 218.46">
  <defs>
    <style>
      .cls-1 {
        fill: #f4f3d3;
      }

      .cls-1, .cls-2 {
        font-size: 77.28px;
        font-weight: 700;
        stroke: #000;
        stroke-width: 1.5px;
      }

      .cls-3 {
        letter-spacing: -.05em;
      }

      .cls-4, .cls-5 {
        letter-spacing: -.04em;
      }

      .cls-4, .cls-6 {
        font-family: National2-XBold, 'National 2';
      }

      .cls-7 {
        font-family: National2Condensed-Bold, 'National 2 Condensed';
      }
    </style>
  </defs>
  <g id="TFX">
    <g>
      <g>
        <text class="cls-2" transform="translate(.75 74.21)"><tspan class="cls-4"><tspan x="0" y="0">UDENG</tspan></tspan><tspan class="cls-7"><tspan x="54.1" y="66.28">KHAS</tspan></tspan><tspan class="cls-6"><tspan class="cls-3" x="43.59" y="132.56">B</tspan><tspan class="cls-5" x="89.65" y="132.56">ALI</tspan></tspan></text>
        <text class="cls-2" transform="translate(.75 73.21)"><tspan class="cls-4"><tspan x="0" y="0">UDENG</tspan></tspan><tspan class="cls-7"><tspan x="54.1" y="66.28">KHAS</tspan></tspan><tspan class="cls-6"><tspan class="cls-3" x="43.59" y="132.56">B</tspan><tspan class="cls-5" x="89.65" y="132.56">ALI</tspan></tspan></text>
        <text class="cls-2" transform="translate(.75 72.21)"><tspan class="cls-4"><tspan x="0" y="0">UDENG</tspan></tspan><tspan class="cls-7"><tspan x="54.1" y="66.28">KHAS</tspan></tspan><tspan class="cls-6"><tspan class="cls-3" x="43.59" y="132.56">B</tspan><tspan class="cls-5" x="89.65" y="132.56">ALI</tspan></tspan></text>
        <text class="cls-2" transform="translate(.75 71.21)"><tspan class="cls-4"><tspan x="0" y="0">UDENG</tspan></tspan><tspan class="cls-7"><tspan x="54.1" y="66.28">KHAS</tspan></tspan><tspan class="cls-6"><tspan class="cls-3" x="43.59" y="132.56">B</tspan><tspan class="cls-5" x="89.65" y="132.56">ALI</tspan></tspan></text>
        <text class="cls-2" transform="translate(.75 70.21)"><tspan class="cls-4"><tspan x="0" y="0">UDENG</tspan></tspan><tspan class="cls-7"><tspan x="54.1" y="66.28">KHAS</tspan></tspan><tspan class="cls-6"><tspan class="cls-3" x="43.59" y="132.56">B</tspan><tspan class="cls-5" x="89.65" y="132.56">ALI</tspan></tspan></text>
        <text class="cls-2" transform="translate(.75 69.21)"><tspan class="cls-4"><tspan x="0" y="0">UDENG</tspan></tspan><tspan class="cls-7"><tspan x="54.1" y="66.28">KHAS</tspan></tspan><tspan class="cls-6"><tspan class="cls-3" x="43.59" y="132.56">B</tspan><tspan class="cls-5" x="89.65" y="132.56">ALI</tspan></tspan></text>
        <text class="cls-2" transform="translate(.75 68.21)"><tspan class="cls-4"><tspan x="0" y="0">UDENG</tspan></tspan><tspan class="cls-7"><tspan x="54.1" y="66.28">KHAS</tspan></tspan><tspan class="cls-6"><tspan class="cls-3" x="43.59" y="132.56">B</tspan><tspan class="cls-5" x="89.65" y="132.56">ALI</tspan></tspan></text>
        <text class="cls-2" transform="translate(.75 67.21)"><tspan class="cls-4"><tspan x="0" y="0">UDENG</tspan></tspan><tspan class="cls-7"><tspan x="54.1" y="66.28">KHAS</tspan></tspan><tspan class="cls-6"><tspan class="cls-3" x="43.59" y="132.56">B</tspan><tspan class="cls-5" x="89.65" y="132.56">ALI</tspan></tspan></text>
        <text class="cls-2" transform="translate(.75 66.21)"><tspan class="cls-4"><tspan x="0" y="0">UDENG</tspan></tspan><tspan class="cls-7"><tspan x="54.1" y="66.28">KHAS</tspan></tspan><tspan class="cls-6"><tspan class="cls-3" x="43.59" y="132.56">B</tspan><tspan class="cls-5" x="89.65" y="132.56">ALI</tspan></tspan></text>
        <text class="cls-2" transform="translate(.75 65.21)"><tspan class="cls-4"><tspan x="0" y="0">UDENG</tspan></tspan><tspan class="cls-7"><tspan x="54.1" y="66.28">KHAS</tspan></tspan><tspan class="cls-6"><tspan class="cls-3" x="43.59" y="132.56">B</tspan><tspan class="cls-5" x="89.65" y="132.56">ALI</tspan></tspan></text>
      </g>
      <text class="cls-1" transform="translate(.75 65.21)"><tspan class="cls-4"><tspan x="0" y="0">UDENG</tspan></tspan><tspan class="cls-7"><tspan x="54.1" y="66.28">KHAS</tspan></tspan><tspan class="cls-6"><tspan class="cls-3" x="43.59" y="132.56">B</tspan><tspan class="cls-5" x="89.65" y="132.56">ALI</tspan></tspan></text>
    </g>
  </g>
</svg>