<?xml version="1.0" encoding="UTF-8"?>
<svg id="Layer_2" data-name="Layer 2" xmlns="http://www.w3.org/2000/svg" viewBox="0 0 572.32 130.28">
  <defs>
    <style>
      .cls-1 {
        fill: #f4f3d3;
      }

      .cls-1, .cls-2 {
        font-size: 117.47px;
        font-weight: 700;
        letter-spacing: -.04em;
        stroke: #000;
        stroke-width: 2px;
      }

      .cls-3 {
        font-family: National2Condensed-Bold, 'National 2 Condensed';
      }

      .cls-4 {
        font-family: National2-XBold, 'National 2';
      }
    </style>
  </defs>
  <g id="TFX">
    <g>
      <g>
        <text class="cls-2" transform="translate(1 107.97)"><tspan class="cls-3" x="0" y="0">KE</tspan><tspan class="cls-4" x="91.63" y="0">TELITI</tspan><tspan class="cls-3" x="427.13" y="0">AN,</tspan><tspan class="cls-4" x="550.12" y="0"> </tspan></text>
        <text class="cls-2" transform="translate(1 106.97)"><tspan class="cls-3" x="0" y="0">KE</tspan><tspan class="cls-4" x="91.63" y="0">TELITI</tspan><tspan class="cls-3" x="427.13" y="0">AN,</tspan><tspan class="cls-4" x="550.12" y="0"> </tspan></text>
        <text class="cls-2" transform="translate(1 105.97)"><tspan class="cls-3" x="0" y="0">KE</tspan><tspan class="cls-4" x="91.63" y="0">TELITI</tspan><tspan class="cls-3" x="427.13" y="0">AN,</tspan><tspan class="cls-4" x="550.12" y="0"> </tspan></text>
        <text class="cls-2" transform="translate(1 104.97)"><tspan class="cls-3" x="0" y="0">KE</tspan><tspan class="cls-4" x="91.63" y="0">TELITI</tspan><tspan class="cls-3" x="427.13" y="0">AN,</tspan><tspan class="cls-4" x="550.12" y="0"> </tspan></text>
        <text class="cls-2" transform="translate(1 103.97)"><tspan class="cls-3" x="0" y="0">KE</tspan><tspan class="cls-4" x="91.63" y="0">TELITI</tspan><tspan class="cls-3" x="427.13" y="0">AN,</tspan><tspan class="cls-4" x="550.12" y="0"> </tspan></text>
        <text class="cls-2" transform="translate(1 102.97)"><tspan class="cls-3" x="0" y="0">KE</tspan><tspan class="cls-4" x="91.63" y="0">TELITI</tspan><tspan class="cls-3" x="427.13" y="0">AN,</tspan><tspan class="cls-4" x="550.12" y="0"> </tspan></text>
        <text class="cls-2" transform="translate(1 101.97)"><tspan class="cls-3" x="0" y="0">KE</tspan><tspan class="cls-4" x="91.63" y="0">TELITI</tspan><tspan class="cls-3" x="427.13" y="0">AN,</tspan><tspan class="cls-4" x="550.12" y="0"> </tspan></text>
        <text class="cls-2" transform="translate(1 100.97)"><tspan class="cls-3" x="0" y="0">KE</tspan><tspan class="cls-4" x="91.63" y="0">TELITI</tspan><tspan class="cls-3" x="427.13" y="0">AN,</tspan><tspan class="cls-4" x="550.12" y="0"> </tspan></text>
        <text class="cls-2" transform="translate(1 99.97)"><tspan class="cls-3" x="0" y="0">KE</tspan><tspan class="cls-4" x="91.63" y="0">TELITI</tspan><tspan class="cls-3" x="427.13" y="0">AN,</tspan><tspan class="cls-4" x="550.12" y="0"> </tspan></text>
        <text class="cls-2" transform="translate(1 98.97)"><tspan class="cls-3" x="0" y="0">KE</tspan><tspan class="cls-4" x="91.63" y="0">TELITI</tspan><tspan class="cls-3" x="427.13" y="0">AN,</tspan><tspan class="cls-4" x="550.12" y="0"> </tspan></text>
      </g>
      <text class="cls-1" transform="translate(1 98.97)"><tspan class="cls-3" x="0" y="0">KE</tspan><tspan class="cls-4" x="91.63" y="0">TELITI</tspan><tspan class="cls-3" x="427.13" y="0">AN,</tspan><tspan class="cls-4" x="550.12" y="0"> </tspan></text>
    </g>
  </g>
</svg>