<?xml version="1.0" encoding="UTF-8"?>
<svg id="Layer_2" data-name="Layer 2" xmlns="http://www.w3.org/2000/svg" viewBox="0 0 868.59 143.23">
  <defs>
    <style>
      .cls-1 {
        fill: #f4f3d3;
      }

      .cls-1, .cls-2 {
        font-size: 119px;
        font-weight: 700;
        stroke: #000;
        stroke-miterlimit: 10;
        stroke-width: 2px;
      }

      .cls-3 {
        font-family: National2-Bold, 'National 2';
        letter-spacing: -.04em;
      }

      .cls-4, .cls-5 {
        font-family: National2Condensed-Bold, 'National 2 Condensed';
      }

      .cls-5 {
        letter-spacing: -.02em;
      }
    </style>
  </defs>
  <g id="TFX">
    <g>
      <g>
        <text class="cls-2" transform="translate(7 112.25)"><tspan class="cls-3" x="0" y="0">TELISIK</tspan><tspan class="cls-4" x="400.19" y="0" xml:space="preserve"> 5 </tspan><tspan class="cls-5" x="489.2" y="0">W</tspan><tspan class="cls-4" x="560.24" y="0">ARISAN</tspan></text>
        <text class="cls-2" transform="translate(6.5 111.25)"><tspan class="cls-3" x="0" y="0">TELISIK</tspan><tspan class="cls-4" x="400.19" y="0" xml:space="preserve"> 5 </tspan><tspan class="cls-5" x="489.2" y="0">W</tspan><tspan class="cls-4" x="560.24" y="0">ARISAN</tspan></text>
        <text class="cls-2" transform="translate(6 110.25)"><tspan class="cls-3" x="0" y="0">TELISIK</tspan><tspan class="cls-4" x="400.19" y="0" xml:space="preserve"> 5 </tspan><tspan class="cls-5" x="489.2" y="0">W</tspan><tspan class="cls-4" x="560.24" y="0">ARISAN</tspan></text>
        <text class="cls-2" transform="translate(5.5 109.25)"><tspan class="cls-3" x="0" y="0">TELISIK</tspan><tspan class="cls-4" x="400.19" y="0" xml:space="preserve"> 5 </tspan><tspan class="cls-5" x="489.2" y="0">W</tspan><tspan class="cls-4" x="560.24" y="0">ARISAN</tspan></text>
        <text class="cls-2" transform="translate(5 108.25)"><tspan class="cls-3" x="0" y="0">TELISIK</tspan><tspan class="cls-4" x="400.19" y="0" xml:space="preserve"> 5 </tspan><tspan class="cls-5" x="489.2" y="0">W</tspan><tspan class="cls-4" x="560.24" y="0">ARISAN</tspan></text>
        <text class="cls-2" transform="translate(4.5 107.25)"><tspan class="cls-3" x="0" y="0">TELISIK</tspan><tspan class="cls-4" x="400.19" y="0" xml:space="preserve"> 5 </tspan><tspan class="cls-5" x="489.2" y="0">W</tspan><tspan class="cls-4" x="560.24" y="0">ARISAN</tspan></text>
        <text class="cls-2" transform="translate(4 106.25)"><tspan class="cls-3" x="0" y="0">TELISIK</tspan><tspan class="cls-4" x="400.19" y="0" xml:space="preserve"> 5 </tspan><tspan class="cls-5" x="489.2" y="0">W</tspan><tspan class="cls-4" x="560.24" y="0">ARISAN</tspan></text>
        <text class="cls-2" transform="translate(3.5 105.25)"><tspan class="cls-3" x="0" y="0">TELISIK</tspan><tspan class="cls-4" x="400.19" y="0" xml:space="preserve"> 5 </tspan><tspan class="cls-5" x="489.2" y="0">W</tspan><tspan class="cls-4" x="560.24" y="0">ARISAN</tspan></text>
        <text class="cls-2" transform="translate(3 104.25)"><tspan class="cls-3" x="0" y="0">TELISIK</tspan><tspan class="cls-4" x="400.19" y="0" xml:space="preserve"> 5 </tspan><tspan class="cls-5" x="489.2" y="0">W</tspan><tspan class="cls-4" x="560.24" y="0">ARISAN</tspan></text>
        <text class="cls-2" transform="translate(2.5 103.25)"><tspan class="cls-3" x="0" y="0">TELISIK</tspan><tspan class="cls-4" x="400.19" y="0" xml:space="preserve"> 5 </tspan><tspan class="cls-5" x="489.2" y="0">W</tspan><tspan class="cls-4" x="560.24" y="0">ARISAN</tspan></text>
        <text class="cls-2" transform="translate(2 102.25)"><tspan class="cls-3" x="0" y="0">TELISIK</tspan><tspan class="cls-4" x="400.19" y="0" xml:space="preserve"> 5 </tspan><tspan class="cls-5" x="489.2" y="0">W</tspan><tspan class="cls-4" x="560.24" y="0">ARISAN</tspan></text>
        <text class="cls-2" transform="translate(1.5 101.25)"><tspan class="cls-3" x="0" y="0">TELISIK</tspan><tspan class="cls-4" x="400.19" y="0" xml:space="preserve"> 5 </tspan><tspan class="cls-5" x="489.2" y="0">W</tspan><tspan class="cls-4" x="560.24" y="0">ARISAN</tspan></text>
        <text class="cls-2" transform="translate(1 100.25)"><tspan class="cls-3" x="0" y="0">TELISIK</tspan><tspan class="cls-4" x="400.19" y="0" xml:space="preserve"> 5 </tspan><tspan class="cls-5" x="489.2" y="0">W</tspan><tspan class="cls-4" x="560.24" y="0">ARISAN</tspan></text>
      </g>
      <text class="cls-1" transform="translate(1 100.25)"><tspan class="cls-3" x="0" y="0">TELISIK</tspan><tspan class="cls-4" x="400.19" y="0" xml:space="preserve"> 5 </tspan><tspan class="cls-5" x="489.2" y="0">W</tspan><tspan class="cls-4" x="560.24" y="0">ARISAN</tspan></text>
    </g>
  </g>
</svg>