<?xml version="1.0" encoding="UTF-8"?>
<svg id="Layer_2" data-name="Layer 2" xmlns="http://www.w3.org/2000/svg" viewBox="0 0 460.76 301.28">
  <defs>
    <style>
      .cls-1 {
        letter-spacing: -.12em;
      }

      .cls-2, .cls-3 {
        font-size: 141.18px;
      }

      .cls-2, .cls-3, .cls-4, .cls-5 {
        font-weight: 700;
        stroke: #000;
        stroke-width: 2px;
      }

      .cls-3, .cls-4 {
        fill: #f4f3d3;
      }

      .cls-6, .cls-7 {
        letter-spacing: -.04em;
      }

      .cls-6, .cls-8, .cls-9, .cls-10, .cls-11, .cls-12, .cls-13, .cls-14 {
        font-family: National2-XBold, 'National 2';
      }

      .cls-15 {
        letter-spacing: -.09em;
      }

      .cls-15, .cls-7, .cls-16, .cls-17, .cls-18 {
        font-family: National2Condensed-Bold, 'National 2 Condensed';
      }

      .cls-8 {
        letter-spacing: -.06em;
      }

      .cls-9 {
        letter-spacing: -.05em;
      }

      .cls-10 {
        letter-spacing: -.04em;
      }

      .cls-11, .cls-18, .cls-19 {
        letter-spacing: -.04em;
      }

      .cls-12 {
        letter-spacing: -.11em;
      }

      .cls-13 {
        letter-spacing: -.08em;
      }

      .cls-16 {
        letter-spacing: -.04em;
      }

      .cls-4, .cls-5 {
        font-size: 65.22px;
      }

      .cls-17 {
        letter-spacing: -.06em;
      }

      .cls-20 {
        letter-spacing: -.07em;
      }

      .cls-21 {
        letter-spacing: -.04em;
      }
    </style>
  </defs>
  <g id="TFX">
    <g>
      <g>
        <g>
          <text class="cls-2" transform="translate(1 127.74)"><tspan class="cls-9" x="0" y="0">1</tspan><tspan class="cls-12" x="48.28" y="0">.</tspan><tspan class="cls-10" x="73.13" y="0">7</tspan><tspan class="cls-7" x="146.54" y="0">2</tspan><tspan class="cls-6" x="198.92" y="0">8</tspan></text>
          <text class="cls-2" transform="translate(1 126.74)"><tspan class="cls-9" x="0" y="0">1</tspan><tspan class="cls-12" x="48.28" y="0">.</tspan><tspan class="cls-10" x="73.13" y="0">7</tspan><tspan class="cls-7" x="146.54" y="0">2</tspan><tspan class="cls-6" x="198.92" y="0">8</tspan></text>
          <text class="cls-2" transform="translate(1 125.74)"><tspan class="cls-9" x="0" y="0">1</tspan><tspan class="cls-12" x="48.28" y="0">.</tspan><tspan class="cls-10" x="73.13" y="0">7</tspan><tspan class="cls-7" x="146.54" y="0">2</tspan><tspan class="cls-6" x="198.92" y="0">8</tspan></text>
          <text class="cls-2" transform="translate(1 124.74)"><tspan class="cls-9" x="0" y="0">1</tspan><tspan class="cls-12" x="48.28" y="0">.</tspan><tspan class="cls-10" x="73.13" y="0">7</tspan><tspan class="cls-7" x="146.54" y="0">2</tspan><tspan class="cls-6" x="198.92" y="0">8</tspan></text>
          <text class="cls-2" transform="translate(1 123.74)"><tspan class="cls-9" x="0" y="0">1</tspan><tspan class="cls-12" x="48.28" y="0">.</tspan><tspan class="cls-10" x="73.13" y="0">7</tspan><tspan class="cls-7" x="146.54" y="0">2</tspan><tspan class="cls-6" x="198.92" y="0">8</tspan></text>
          <text class="cls-2" transform="translate(1 122.74)"><tspan class="cls-9" x="0" y="0">1</tspan><tspan class="cls-12" x="48.28" y="0">.</tspan><tspan class="cls-10" x="73.13" y="0">7</tspan><tspan class="cls-7" x="146.54" y="0">2</tspan><tspan class="cls-6" x="198.92" y="0">8</tspan></text>
          <text class="cls-2" transform="translate(1 121.74)"><tspan class="cls-9" x="0" y="0">1</tspan><tspan class="cls-12" x="48.28" y="0">.</tspan><tspan class="cls-10" x="73.13" y="0">7</tspan><tspan class="cls-7" x="146.54" y="0">2</tspan><tspan class="cls-6" x="198.92" y="0">8</tspan></text>
          <text class="cls-2" transform="translate(1 120.74)"><tspan class="cls-9" x="0" y="0">1</tspan><tspan class="cls-12" x="48.28" y="0">.</tspan><tspan class="cls-10" x="73.13" y="0">7</tspan><tspan class="cls-7" x="146.54" y="0">2</tspan><tspan class="cls-6" x="198.92" y="0">8</tspan></text>
          <text class="cls-2" transform="translate(1 119.74)"><tspan class="cls-9" x="0" y="0">1</tspan><tspan class="cls-12" x="48.28" y="0">.</tspan><tspan class="cls-10" x="73.13" y="0">7</tspan><tspan class="cls-7" x="146.54" y="0">2</tspan><tspan class="cls-6" x="198.92" y="0">8</tspan></text>
          <text class="cls-2" transform="translate(1 118.74)"><tspan class="cls-9" x="0" y="0">1</tspan><tspan class="cls-12" x="48.28" y="0">.</tspan><tspan class="cls-10" x="73.13" y="0">7</tspan><tspan class="cls-7" x="146.54" y="0">2</tspan><tspan class="cls-6" x="198.92" y="0">8</tspan></text>
        </g>
        <text class="cls-3" transform="translate(1 118.74)"><tspan class="cls-9" x="0" y="0">1</tspan><tspan class="cls-12" x="48.28" y="0">.</tspan><tspan class="cls-10" x="73.13" y="0">7</tspan><tspan class="cls-7" x="146.54" y="0">2</tspan><tspan class="cls-6" x="198.92" y="0">8</tspan></text>
      </g>
      <g>
        <g>
          <text class="cls-5" transform="translate(5.22 225.83)"><tspan class="cls-13" x="0" y="0">W</tspan><tspan class="cls-11" x="53.94" y="0">ARI</tspan><tspan class="cls-8" x="158.36" y="0">S</tspan><tspan class="cls-11" x="193.19" y="0">AN </tspan><tspan class="cls-18" x="293.83" y="0">BU</tspan><tspan class="cls-17" x="348.55" y="0">D</tspan><tspan class="cls-15" x="375.81" y="0">AY</tspan><tspan class="cls-16" x="424.47" y="0">A</tspan><tspan class="cls-14"><tspan class="cls-1" x="0" y="57.62">T</tspan><tspan class="cls-21" x="35.22" y="57.62">AKBEN</tspan><tspan class="cls-20" x="242.11" y="57.62">D</tspan><tspan class="cls-19" x="282.61" y="57.62">A</tspan></tspan></text>
          <text class="cls-5" transform="translate(5.22 224.83)"><tspan class="cls-13" x="0" y="0">W</tspan><tspan class="cls-11" x="53.94" y="0">ARI</tspan><tspan class="cls-8" x="158.36" y="0">S</tspan><tspan class="cls-11" x="193.19" y="0">AN </tspan><tspan class="cls-18" x="293.83" y="0">BU</tspan><tspan class="cls-17" x="348.55" y="0">D</tspan><tspan class="cls-15" x="375.81" y="0">AY</tspan><tspan class="cls-16" x="424.47" y="0">A</tspan><tspan class="cls-14"><tspan class="cls-1" x="0" y="57.62">T</tspan><tspan class="cls-21" x="35.22" y="57.62">AKBEN</tspan><tspan class="cls-20" x="242.11" y="57.62">D</tspan><tspan class="cls-19" x="282.61" y="57.62">A</tspan></tspan></text>
          <text class="cls-5" transform="translate(5.22 223.83)"><tspan class="cls-13" x="0" y="0">W</tspan><tspan class="cls-11" x="53.94" y="0">ARI</tspan><tspan class="cls-8" x="158.36" y="0">S</tspan><tspan class="cls-11" x="193.19" y="0">AN </tspan><tspan class="cls-18" x="293.83" y="0">BU</tspan><tspan class="cls-17" x="348.55" y="0">D</tspan><tspan class="cls-15" x="375.81" y="0">AY</tspan><tspan class="cls-16" x="424.47" y="0">A</tspan><tspan class="cls-14"><tspan class="cls-1" x="0" y="57.62">T</tspan><tspan class="cls-21" x="35.22" y="57.62">AKBEN</tspan><tspan class="cls-20" x="242.11" y="57.62">D</tspan><tspan class="cls-19" x="282.61" y="57.62">A</tspan></tspan></text>
          <text class="cls-5" transform="translate(5.22 222.83)"><tspan class="cls-13" x="0" y="0">W</tspan><tspan class="cls-11" x="53.94" y="0">ARI</tspan><tspan class="cls-8" x="158.36" y="0">S</tspan><tspan class="cls-11" x="193.19" y="0">AN </tspan><tspan class="cls-18" x="293.83" y="0">BU</tspan><tspan class="cls-17" x="348.55" y="0">D</tspan><tspan class="cls-15" x="375.81" y="0">AY</tspan><tspan class="cls-16" x="424.47" y="0">A</tspan><tspan class="cls-14"><tspan class="cls-1" x="0" y="57.62">T</tspan><tspan class="cls-21" x="35.22" y="57.62">AKBEN</tspan><tspan class="cls-20" x="242.11" y="57.62">D</tspan><tspan class="cls-19" x="282.61" y="57.62">A</tspan></tspan></text>
          <text class="cls-5" transform="translate(5.22 221.83)"><tspan class="cls-13" x="0" y="0">W</tspan><tspan class="cls-11" x="53.94" y="0">ARI</tspan><tspan class="cls-8" x="158.36" y="0">S</tspan><tspan class="cls-11" x="193.19" y="0">AN </tspan><tspan class="cls-18" x="293.83" y="0">BU</tspan><tspan class="cls-17" x="348.55" y="0">D</tspan><tspan class="cls-15" x="375.81" y="0">AY</tspan><tspan class="cls-16" x="424.47" y="0">A</tspan><tspan class="cls-14"><tspan class="cls-1" x="0" y="57.62">T</tspan><tspan class="cls-21" x="35.22" y="57.62">AKBEN</tspan><tspan class="cls-20" x="242.11" y="57.62">D</tspan><tspan class="cls-19" x="282.61" y="57.62">A</tspan></tspan></text>
          <text class="cls-5" transform="translate(5.22 220.83)"><tspan class="cls-13" x="0" y="0">W</tspan><tspan class="cls-11" x="53.94" y="0">ARI</tspan><tspan class="cls-8" x="158.36" y="0">S</tspan><tspan class="cls-11" x="193.19" y="0">AN </tspan><tspan class="cls-18" x="293.83" y="0">BU</tspan><tspan class="cls-17" x="348.55" y="0">D</tspan><tspan class="cls-15" x="375.81" y="0">AY</tspan><tspan class="cls-16" x="424.47" y="0">A</tspan><tspan class="cls-14"><tspan class="cls-1" x="0" y="57.62">T</tspan><tspan class="cls-21" x="35.22" y="57.62">AKBEN</tspan><tspan class="cls-20" x="242.11" y="57.62">D</tspan><tspan class="cls-19" x="282.61" y="57.62">A</tspan></tspan></text>
          <text class="cls-5" transform="translate(5.22 219.83)"><tspan class="cls-13" x="0" y="0">W</tspan><tspan class="cls-11" x="53.94" y="0">ARI</tspan><tspan class="cls-8" x="158.36" y="0">S</tspan><tspan class="cls-11" x="193.19" y="0">AN </tspan><tspan class="cls-18" x="293.83" y="0">BU</tspan><tspan class="cls-17" x="348.55" y="0">D</tspan><tspan class="cls-15" x="375.81" y="0">AY</tspan><tspan class="cls-16" x="424.47" y="0">A</tspan><tspan class="cls-14"><tspan class="cls-1" x="0" y="57.62">T</tspan><tspan class="cls-21" x="35.22" y="57.62">AKBEN</tspan><tspan class="cls-20" x="242.11" y="57.62">D</tspan><tspan class="cls-19" x="282.61" y="57.62">A</tspan></tspan></text>
        </g>
        <text class="cls-4" transform="translate(5.22 219.83)"><tspan class="cls-13" x="0" y="0">W</tspan><tspan class="cls-11" x="53.94" y="0">ARI</tspan><tspan class="cls-8" x="158.36" y="0">S</tspan><tspan class="cls-11" x="193.19" y="0">AN </tspan><tspan class="cls-18" x="293.83" y="0">BU</tspan><tspan class="cls-17" x="348.55" y="0">D</tspan><tspan class="cls-15" x="375.81" y="0">AY</tspan><tspan class="cls-16" x="424.47" y="0">A</tspan><tspan class="cls-14"><tspan class="cls-1" x="0" y="57.62">T</tspan><tspan class="cls-21" x="35.22" y="57.62">AKBEN</tspan><tspan class="cls-20" x="242.11" y="57.62">D</tspan><tspan class="cls-19" x="282.61" y="57.62">A</tspan></tspan></text>
      </g>
    </g>
  </g>
</svg>