<?xml version="1.0" encoding="UTF-8"?>
<svg id="Layer_2" data-name="Layer 2" xmlns="http://www.w3.org/2000/svg" viewBox="0 0 1484.77 156.17">
  <defs>
    <style>
      .cls-1, .cls-2, .cls-3, .cls-4 {
        font-size: 141.18px;
        font-weight: 700;
        stroke: #000;
        stroke-width: 2px;
      }

      .cls-2, .cls-5, .cls-6, .cls-7, .cls-4, .cls-8 {
        font-family: National2Condensed-Bold, 'National 2 Condensed';
      }

      .cls-2, .cls-3 {
        fill: #f4f3d3;
      }

      .cls-2, .cls-9, .cls-7, .cls-4 {
        letter-spacing: -.04em;
      }

      .cls-5 {
        letter-spacing: -.08em;
      }

      .cls-10, .cls-6 {
        letter-spacing: -.04em;
      }

      .cls-10, .cls-9, .cls-11 {
        font-family: National2-XBold, 'National 2';
      }

      .cls-11 {
        letter-spacing: -.07em;
      }

      .cls-8 {
        letter-spacing: -.04em;
      }
    </style>
  </defs>
  <g id="TFX">
    <g>
      <g>
        <g>
          <text class="cls-1" transform="translate(1 127.74)"><tspan class="cls-7" x="0" y="0">S</tspan><tspan class="cls-5" x="52.8" y="0">A</tspan><tspan class="cls-6" x="107.58" y="0">TU</tspan><tspan class="cls-10" x="223.2" y="0" xml:space="preserve"> MINGGU</tspan></text>
          <text class="cls-1" transform="translate(1 126.74)"><tspan class="cls-7" x="0" y="0">S</tspan><tspan class="cls-5" x="52.8" y="0">A</tspan><tspan class="cls-6" x="107.58" y="0">TU</tspan><tspan class="cls-10" x="223.2" y="0" xml:space="preserve"> MINGGU</tspan></text>
          <text class="cls-1" transform="translate(1 125.74)"><tspan class="cls-7" x="0" y="0">S</tspan><tspan class="cls-5" x="52.8" y="0">A</tspan><tspan class="cls-6" x="107.58" y="0">TU</tspan><tspan class="cls-10" x="223.2" y="0" xml:space="preserve"> MINGGU</tspan></text>
          <text class="cls-1" transform="translate(1 124.74)"><tspan class="cls-7" x="0" y="0">S</tspan><tspan class="cls-5" x="52.8" y="0">A</tspan><tspan class="cls-6" x="107.58" y="0">TU</tspan><tspan class="cls-10" x="223.2" y="0" xml:space="preserve"> MINGGU</tspan></text>
          <text class="cls-1" transform="translate(1 123.74)"><tspan class="cls-7" x="0" y="0">S</tspan><tspan class="cls-5" x="52.8" y="0">A</tspan><tspan class="cls-6" x="107.58" y="0">TU</tspan><tspan class="cls-10" x="223.2" y="0" xml:space="preserve"> MINGGU</tspan></text>
          <text class="cls-1" transform="translate(1 122.74)"><tspan class="cls-7" x="0" y="0">S</tspan><tspan class="cls-5" x="52.8" y="0">A</tspan><tspan class="cls-6" x="107.58" y="0">TU</tspan><tspan class="cls-10" x="223.2" y="0" xml:space="preserve"> MINGGU</tspan></text>
          <text class="cls-1" transform="translate(1 121.74)"><tspan class="cls-7" x="0" y="0">S</tspan><tspan class="cls-5" x="52.8" y="0">A</tspan><tspan class="cls-6" x="107.58" y="0">TU</tspan><tspan class="cls-10" x="223.2" y="0" xml:space="preserve"> MINGGU</tspan></text>
          <text class="cls-1" transform="translate(1 120.74)"><tspan class="cls-7" x="0" y="0">S</tspan><tspan class="cls-5" x="52.8" y="0">A</tspan><tspan class="cls-6" x="107.58" y="0">TU</tspan><tspan class="cls-10" x="223.2" y="0" xml:space="preserve"> MINGGU</tspan></text>
          <text class="cls-1" transform="translate(1 119.74)"><tspan class="cls-7" x="0" y="0">S</tspan><tspan class="cls-5" x="52.8" y="0">A</tspan><tspan class="cls-6" x="107.58" y="0">TU</tspan><tspan class="cls-10" x="223.2" y="0" xml:space="preserve"> MINGGU</tspan></text>
          <text class="cls-1" transform="translate(1 118.74)"><tspan class="cls-7" x="0" y="0">S</tspan><tspan class="cls-5" x="52.8" y="0">A</tspan><tspan class="cls-6" x="107.58" y="0">TU</tspan><tspan class="cls-10" x="223.2" y="0" xml:space="preserve"> MINGGU</tspan></text>
        </g>
        <text class="cls-3" transform="translate(1 118.74)"><tspan class="cls-7" x="0" y="0">S</tspan><tspan class="cls-5" x="52.8" y="0">A</tspan><tspan class="cls-6" x="107.58" y="0">TU</tspan><tspan class="cls-10" x="223.2" y="0" xml:space="preserve"> MINGGU</tspan></text>
      </g>
      <g>
        <g>
          <text class="cls-4" transform="translate(797.92 129.44)"><tspan x="0" y="0">—</tspan></text>
          <text class="cls-4" transform="translate(797.92 128.44)"><tspan x="0" y="0">—</tspan></text>
          <text class="cls-4" transform="translate(797.92 127.44)"><tspan x="0" y="0">—</tspan></text>
          <text class="cls-4" transform="translate(797.92 126.44)"><tspan x="0" y="0">—</tspan></text>
          <text class="cls-4" transform="translate(797.92 125.44)"><tspan x="0" y="0">—</tspan></text>
          <text class="cls-4" transform="translate(797.92 124.44)"><tspan x="0" y="0">—</tspan></text>
          <text class="cls-4" transform="translate(797.92 123.44)"><tspan x="0" y="0">—</tspan></text>
          <text class="cls-4" transform="translate(797.92 122.44)"><tspan x="0" y="0">—</tspan></text>
          <text class="cls-4" transform="translate(797.92 121.44)"><tspan x="0" y="0">—</tspan></text>
          <text class="cls-4" transform="translate(797.92 120.44)"><tspan x="0" y="0">—</tspan></text>
        </g>
        <text class="cls-2" transform="translate(797.92 120.44)"><tspan x="0" y="0">—</tspan></text>
      </g>
      <g>
        <g>
          <text class="cls-1" transform="translate(895.21 127.74)"><tspan class="cls-9" x="0" y="0">D</tspan><tspan class="cls-11" x="92.47" y="0">U</tspan><tspan class="cls-9" x="178.87" y="0">A </tspan><tspan class="cls-8" x="299.86" y="0">BULAN</tspan></text>
          <text class="cls-1" transform="translate(895.21 126.74)"><tspan class="cls-9" x="0" y="0">D</tspan><tspan class="cls-11" x="92.47" y="0">U</tspan><tspan class="cls-9" x="178.87" y="0">A </tspan><tspan class="cls-8" x="299.86" y="0">BULAN</tspan></text>
          <text class="cls-1" transform="translate(895.21 125.74)"><tspan class="cls-9" x="0" y="0">D</tspan><tspan class="cls-11" x="92.47" y="0">U</tspan><tspan class="cls-9" x="178.87" y="0">A </tspan><tspan class="cls-8" x="299.86" y="0">BULAN</tspan></text>
          <text class="cls-1" transform="translate(895.21 124.74)"><tspan class="cls-9" x="0" y="0">D</tspan><tspan class="cls-11" x="92.47" y="0">U</tspan><tspan class="cls-9" x="178.87" y="0">A </tspan><tspan class="cls-8" x="299.86" y="0">BULAN</tspan></text>
          <text class="cls-1" transform="translate(895.21 123.74)"><tspan class="cls-9" x="0" y="0">D</tspan><tspan class="cls-11" x="92.47" y="0">U</tspan><tspan class="cls-9" x="178.87" y="0">A </tspan><tspan class="cls-8" x="299.86" y="0">BULAN</tspan></text>
          <text class="cls-1" transform="translate(895.21 122.74)"><tspan class="cls-9" x="0" y="0">D</tspan><tspan class="cls-11" x="92.47" y="0">U</tspan><tspan class="cls-9" x="178.87" y="0">A </tspan><tspan class="cls-8" x="299.86" y="0">BULAN</tspan></text>
          <text class="cls-1" transform="translate(895.21 121.74)"><tspan class="cls-9" x="0" y="0">D</tspan><tspan class="cls-11" x="92.47" y="0">U</tspan><tspan class="cls-9" x="178.87" y="0">A </tspan><tspan class="cls-8" x="299.86" y="0">BULAN</tspan></text>
          <text class="cls-1" transform="translate(895.21 120.74)"><tspan class="cls-9" x="0" y="0">D</tspan><tspan class="cls-11" x="92.47" y="0">U</tspan><tspan class="cls-9" x="178.87" y="0">A </tspan><tspan class="cls-8" x="299.86" y="0">BULAN</tspan></text>
          <text class="cls-1" transform="translate(895.21 119.74)"><tspan class="cls-9" x="0" y="0">D</tspan><tspan class="cls-11" x="92.47" y="0">U</tspan><tspan class="cls-9" x="178.87" y="0">A </tspan><tspan class="cls-8" x="299.86" y="0">BULAN</tspan></text>
          <text class="cls-1" transform="translate(895.21 118.74)"><tspan class="cls-9" x="0" y="0">D</tspan><tspan class="cls-11" x="92.47" y="0">U</tspan><tspan class="cls-9" x="178.87" y="0">A </tspan><tspan class="cls-8" x="299.86" y="0">BULAN</tspan></text>
        </g>
        <text class="cls-3" transform="translate(895.21 118.74)"><tspan class="cls-9" x="0" y="0">D</tspan><tspan class="cls-11" x="92.47" y="0">U</tspan><tspan class="cls-9" x="178.87" y="0">A </tspan><tspan class="cls-8" x="299.86" y="0">BULAN</tspan></text>
      </g>
    </g>
  </g>
</svg>