<?xml version="1.0" encoding="UTF-8"?>
<svg id="Layer_2" data-name="Layer 2" xmlns="http://www.w3.org/2000/svg" viewBox="0 0 445.27 284.93">
  <defs>
    <style>
      .cls-1 {
        letter-spacing: 0em;
      }

      .cls-1, .cls-2 {
        font-family: National2-XBold, 'National 2';
        font-size: 136px;
        stroke-miterlimit: 10;
        stroke-width: 3px;
      }

      .cls-3, .cls-4 {
        letter-spacing: -.04em;
      }

      .cls-5 {
        letter-spacing: -.06em;
      }

      .cls-4, .cls-6 {
        font-family: National2Condensed-Bold, 'National 2 Condensed';
        font-size: 141.18px;
        stroke-width: 2px;
      }

      .cls-2 {
        letter-spacing: 0em;
      }

      .cls-7, .cls-8 {
        font-weight: 700;
        stroke: #000;
      }

      .cls-8 {
        fill: #ffaf00;
      }
    </style>
  </defs>
  <g id="TFX">
    <g>
      <g>
        <text class="cls-7" transform="translate(1.77 127.74)"><tspan class="cls-6"><tspan class="cls-3" x="0" y="0">M</tspan><tspan class="cls-5" x="72.28" y="0">O</tspan><tspan class="cls-3" x="132.14" y="0">TIF</tspan></tspan><tspan class="cls-2" x="0" y="129.6">S</tspan><tspan class="cls-4" x="82.14" y="129.6">AKR</tspan><tspan class="cls-1" x="263.98" y="129.6">AL</tspan></text>
        <text class="cls-7" transform="translate(1.77 126.74)"><tspan class="cls-6"><tspan class="cls-3" x="0" y="0">M</tspan><tspan class="cls-5" x="72.28" y="0">O</tspan><tspan class="cls-3" x="132.14" y="0">TIF</tspan></tspan><tspan class="cls-2" x="0" y="129.6">S</tspan><tspan class="cls-4" x="82.14" y="129.6">AKR</tspan><tspan class="cls-1" x="263.98" y="129.6">AL</tspan></text>
        <text class="cls-7" transform="translate(1.77 125.74)"><tspan class="cls-6"><tspan class="cls-3" x="0" y="0">M</tspan><tspan class="cls-5" x="72.28" y="0">O</tspan><tspan class="cls-3" x="132.14" y="0">TIF</tspan></tspan><tspan class="cls-2" x="0" y="129.6">S</tspan><tspan class="cls-4" x="82.14" y="129.6">AKR</tspan><tspan class="cls-1" x="263.98" y="129.6">AL</tspan></text>
        <text class="cls-7" transform="translate(1.77 124.74)"><tspan class="cls-6"><tspan class="cls-3" x="0" y="0">M</tspan><tspan class="cls-5" x="72.28" y="0">O</tspan><tspan class="cls-3" x="132.14" y="0">TIF</tspan></tspan><tspan class="cls-2" x="0" y="129.6">S</tspan><tspan class="cls-4" x="82.14" y="129.6">AKR</tspan><tspan class="cls-1" x="263.98" y="129.6">AL</tspan></text>
        <text class="cls-7" transform="translate(1.77 123.74)"><tspan class="cls-6"><tspan class="cls-3" x="0" y="0">M</tspan><tspan class="cls-5" x="72.28" y="0">O</tspan><tspan class="cls-3" x="132.14" y="0">TIF</tspan></tspan><tspan class="cls-2" x="0" y="129.6">S</tspan><tspan class="cls-4" x="82.14" y="129.6">AKR</tspan><tspan class="cls-1" x="263.98" y="129.6">AL</tspan></text>
        <text class="cls-7" transform="translate(1.77 122.74)"><tspan class="cls-6"><tspan class="cls-3" x="0" y="0">M</tspan><tspan class="cls-5" x="72.28" y="0">O</tspan><tspan class="cls-3" x="132.14" y="0">TIF</tspan></tspan><tspan class="cls-2" x="0" y="129.6">S</tspan><tspan class="cls-4" x="82.14" y="129.6">AKR</tspan><tspan class="cls-1" x="263.98" y="129.6">AL</tspan></text>
        <text class="cls-7" transform="translate(1.77 121.74)"><tspan class="cls-6"><tspan class="cls-3" x="0" y="0">M</tspan><tspan class="cls-5" x="72.28" y="0">O</tspan><tspan class="cls-3" x="132.14" y="0">TIF</tspan></tspan><tspan class="cls-2" x="0" y="129.6">S</tspan><tspan class="cls-4" x="82.14" y="129.6">AKR</tspan><tspan class="cls-1" x="263.98" y="129.6">AL</tspan></text>
        <text class="cls-7" transform="translate(1.77 120.74)"><tspan class="cls-6"><tspan class="cls-3" x="0" y="0">M</tspan><tspan class="cls-5" x="72.28" y="0">O</tspan><tspan class="cls-3" x="132.14" y="0">TIF</tspan></tspan><tspan class="cls-2" x="0" y="129.6">S</tspan><tspan class="cls-4" x="82.14" y="129.6">AKR</tspan><tspan class="cls-1" x="263.98" y="129.6">AL</tspan></text>
        <text class="cls-7" transform="translate(1.77 119.74)"><tspan class="cls-6"><tspan class="cls-3" x="0" y="0">M</tspan><tspan class="cls-5" x="72.28" y="0">O</tspan><tspan class="cls-3" x="132.14" y="0">TIF</tspan></tspan><tspan class="cls-2" x="0" y="129.6">S</tspan><tspan class="cls-4" x="82.14" y="129.6">AKR</tspan><tspan class="cls-1" x="263.98" y="129.6">AL</tspan></text>
        <text class="cls-7" transform="translate(1.77 118.74)"><tspan class="cls-6"><tspan class="cls-3" x="0" y="0">M</tspan><tspan class="cls-5" x="72.28" y="0">O</tspan><tspan class="cls-3" x="132.14" y="0">TIF</tspan></tspan><tspan class="cls-2" x="0" y="129.6">S</tspan><tspan class="cls-4" x="82.14" y="129.6">AKR</tspan><tspan class="cls-1" x="263.98" y="129.6">AL</tspan></text>
      </g>
      <text class="cls-8" transform="translate(1.77 118.74)"><tspan class="cls-6"><tspan class="cls-3" x="0" y="0">M</tspan><tspan class="cls-5" x="72.28" y="0">O</tspan><tspan class="cls-3" x="132.14" y="0">TIF</tspan></tspan><tspan class="cls-2" x="0" y="129.6">S</tspan><tspan class="cls-4" x="82.14" y="129.6">AKR</tspan><tspan class="cls-1" x="263.98" y="129.6">AL</tspan></text>
    </g>
  </g>
</svg>