<svg xmlns="http://www.w3.org/2000/svg" viewBox="0 0 2748.55 2748.55"><defs><style>.cls-1{fill:none;stroke:#ffaf00;stroke-miterlimit:10;}</style></defs><g id="Layer_2" data-name="Layer 2"><g id="Layer_2-2" data-name="Layer 2"><rect class="cls-1" x="181.19" y="-7079.42" width="22.75" height="1165.12" transform="matrix(-1, 0.01, -0.01, -1, 1513.45, -4332.97)"/><rect class="cls-1" x="98.45" y="-7082.98" width="22.75" height="1165.12" transform="translate(2027.24 -4298.58) rotate(-174.54)"/><rect class="cls-1" x="16.54" y="-7095.17" width="22.75" height="1165.12" transform="translate(2538.78 -4227.48) rotate(-168.54)"/><rect class="cls-1" x="-63.65" y="-7115.86" width="22.75" height="1165.12" transform="translate(3047.66 -4118.86) rotate(-162.54)"/><rect class="cls-1" x="-141.24" y="-7144.81" width="22.75" height="1165.12" transform="translate(3553.04 -3971.31) rotate(-156.54)"/><rect class="cls-1" x="-215.37" y="-7181.72" width="22.75" height="1165.12" transform="translate(4053.47 -3782.88) rotate(-150.54)"/><rect class="cls-1" x="-285.24" y="-7226.17" width="22.75" height="1165.12" transform="translate(4546.75 -3551.32) rotate(-144.54)"/><rect class="cls-1" x="-350.09" y="-7277.68" width="22.75" height="1165.12" transform="translate(5029.75 -3274.26) rotate(-138.54)"/><rect class="cls-1" x="-409.19" y="-7335.68" width="22.75" height="1165.12" transform="translate(5498.42 -2949.46) rotate(-132.54)"/><rect class="cls-1" x="-461.9" y="-7399.55" width="22.75" height="1165.12" transform="translate(5947.71 -2575.06) rotate(-126.54)"/><rect class="cls-1" x="-507.66" y="-7468.58" width="22.75" height="1165.12" transform="translate(6371.68 -2149.85) rotate(-120.54)"/><rect class="cls-1" x="-545.94" y="-7542.01" width="22.75" height="1165.12" transform="translate(6763.58 -1673.49) rotate(-114.54)"/><rect class="cls-1" x="-576.34" y="-7619.04" width="22.75" height="1165.12" transform="translate(7116.01 -1146.77) rotate(-108.54)"/><rect class="cls-1" x="-598.52" y="-7698.83" width="22.75" height="1165.12" transform="matrix(-0.22, -0.98, 0.98, -0.22, 7421.15, -571.76)"/><rect class="cls-1" x="-612.24" y="-7780.5" width="22.75" height="1165.12" transform="translate(7671.01 48.04) rotate(-96.54)"/><rect class="cls-1" x="-617.35" y="-7863.16" width="22.75" height="1165.12" transform="matrix(-0.01, -1, 1, -0.01, 7857.75, 707.62)"/><rect class="cls-1" x="-613.79" y="-7945.89" width="22.75" height="1165.12" transform="translate(7973.94 1400.4) rotate(-84.54)"/><rect class="cls-1" x="-601.6" y="-8027.8" width="22.75" height="1165.12" transform="translate(8012.91 2118.34) rotate(-78.54)"/><rect class="cls-1" x="-580.91" y="-8107.99" width="22.75" height="1165.12" transform="translate(7969.05 2851.98) rotate(-72.54)"/><rect class="cls-1" x="-551.96" y="-8185.58" width="22.75" height="1165.12" transform="translate(7838.11 3590.68) rotate(-66.54)"/><rect class="cls-1" x="-515.06" y="-8259.71" width="22.75" height="1165.12" transform="translate(7617.42 4322.79) rotate(-60.54)"/><rect class="cls-1" x="-470.61" y="-8329.59" width="22.75" height="1165.12" transform="translate(7306.13 5035.97) rotate(-54.54)"/><rect class="cls-1" x="-419.09" y="-8394.43" width="22.75" height="1165.12" transform="translate(6905.37 5717.49) rotate(-48.54)"/><rect class="cls-1" x="-361.09" y="-8453.53" width="22.75" height="1165.12" transform="translate(6418.29 6354.62) rotate(-42.54)"/><rect class="cls-1" x="-297.22" y="-8506.25" width="22.75" height="1165.12" transform="matrix(0.8, -0.6, 0.6, 0.8, 5850.14, 6934.96)"/><rect class="cls-1" x="-228.19" y="-8552" width="22.75" height="1165.12" transform="translate(5208.16 7446.83) rotate(-30.54)"/><rect class="cls-1" x="-154.76" y="-8590.28" width="22.75" height="1165.12" transform="translate(4501.5 7879.64) rotate(-24.54)"/><rect class="cls-1" x="-77.73" y="-8620.68" width="22.75" height="1165.12" transform="translate(3741 8224.2) rotate(-18.54)"/><rect class="cls-1" x="2.06" y="-8642.86" width="22.75" height="1165.12" transform="translate(2938.96 8473.03) rotate(-12.54)"/><rect class="cls-1" x="83.73" y="-8656.58" width="22.75" height="1165.12" transform="translate(2108.79 8620.62) rotate(-6.54)"/><rect class="cls-1" x="166.38" y="-8661.69" width="22.75" height="1165.12" transform="matrix(1, -0.01, 0.01, 1, 1264.71, 8663.59)"/><rect class="cls-1" x="249.12" y="-8658.13" width="22.75" height="1165.12" transform="translate(421.35 8600.78) rotate(5.46)"/><rect class="cls-1" x="331.03" y="-8645.94" width="22.75" height="1165.12" transform="translate(-406.66 8433.36) rotate(11.46)"/><rect class="cls-1" x="411.22" y="-8625.26" width="22.75" height="1165.12" transform="translate(-1205.06 8164.73) rotate(17.46)"/><rect class="cls-1" x="488.81" y="-8596.3" width="22.75" height="1165.12" transform="translate(-1960.37 7800.47) rotate(23.46)"/><rect class="cls-1" x="562.94" y="-8559.4" width="22.75" height="1165.12" transform="translate(-2660.22 7348.1) rotate(29.46)"/><rect class="cls-1" x="632.81" y="-8514.95" width="22.75" height="1165.12" transform="translate(-3293.67 6816.91) rotate(35.46)"/><rect class="cls-1" x="697.66" y="-8463.44" width="22.75" height="1165.12" transform="translate(-3851.5 6217.63) rotate(41.46)"/><rect class="cls-1" x="756.76" y="-8405.43" width="22.75" height="1165.12" transform="translate(-4326.35 5562.09) rotate(47.46)"/><rect class="cls-1" x="809.47" y="-8341.56" width="22.75" height="1165.12" transform="translate(-4712.93 4862.89) rotate(53.46)"/><rect class="cls-1" x="855.23" y="-8272.53" width="22.75" height="1165.12" transform="translate(-5008.04 4133.01) rotate(59.46)"/><rect class="cls-1" x="893.51" y="-8199.1" width="22.75" height="1165.12" transform="translate(-5210.54 3385.45) rotate(65.46)"/><rect class="cls-1" x="923.91" y="-8122.07" width="22.75" height="1165.12" transform="translate(-5321.32 2632.82) rotate(71.46)"/><rect class="cls-1" x="946.09" y="-8042.28" width="22.75" height="1165.12" transform="translate(-5343.12 1887.07) rotate(77.46)"/><rect class="cls-1" x="959.81" y="-7960.61" width="22.75" height="1165.12" transform="translate(-5280.35 1159.18) rotate(83.46)"/><rect class="cls-1" x="964.92" y="-7877.96" width="22.75" height="1165.12" transform="matrix(0.01, 1, -1, 0.01, -5138.81, 458.88)"/><rect class="cls-1" x="961.36" y="-7795.22" width="22.75" height="1165.12" transform="translate(-4925.42 -205.49) rotate(95.46)"/><rect class="cls-1" x="949.17" y="-7713.31" width="22.75" height="1165.12" transform="translate(-4647.93 -827.11) rotate(101.46)"/><rect class="cls-1" x="928.49" y="-7633.12" width="22.75" height="1165.12" transform="translate(-4314.54 -1400.74) rotate(107.46)"/><rect class="cls-1" x="899.53" y="-7555.54" width="22.75" height="1165.12" transform="translate(-3933.67 -1922.73) rotate(113.46)"/><rect class="cls-1" x="862.63" y="-7481.4" width="22.75" height="1165.12" transform="translate(-3513.56 -2390.91) rotate(119.46)"/><rect class="cls-1" x="818.18" y="-7411.53" width="22.75" height="1165.12" transform="matrix(-0.58, 0.81, -0.81, -0.58, -3062.1, -2804.45)"/><rect class="cls-1" x="766.66" y="-7346.69" width="22.75" height="1165.12" transform="translate(-2586.52 -3163.75) rotate(131.46)"/><rect class="cls-1" x="708.66" y="-7287.58" width="22.75" height="1165.12" transform="translate(-2093.25 -3470.14) rotate(137.46)"/><rect class="cls-1" x="644.79" y="-7234.87" width="22.75" height="1165.12" transform="translate(-1587.81 -3725.68) rotate(143.46)"/><rect class="cls-1" x="575.76" y="-7189.12" width="22.75" height="1165.12" transform="matrix(-0.86, 0.51, -0.51, -0.86, -1074.7, -3932.89)"/><rect class="cls-1" x="502.33" y="-7150.83" width="22.75" height="1165.12" transform="translate(-557.44 -4094.48) rotate(155.46)"/><rect class="cls-1" x="425.3" y="-7120.43" width="22.75" height="1165.12" transform="translate(-38.59 -4213.13) rotate(161.46)"/><rect class="cls-1" x="345.51" y="-7098.25" width="22.75" height="1165.12" transform="translate(480.13 -4291.24) rotate(167.46)"/><rect class="cls-1" x="263.84" y="-7084.53" width="22.75" height="1165.12" transform="translate(997.66 -4330.74) rotate(173.46)"/></g></g></svg>