<?xml version="1.0" encoding="UTF-8"?>
<svg id="Layer_2" data-name="Layer 2" xmlns="http://www.w3.org/2000/svg" viewBox="0 0 114.34 96.35">
  <defs>
    <style>
      .cls-1, .cls-2 {
        stroke: #000;
        stroke-width: 2px;
      }

      .cls-2 {
        fill: #f4f3d3;
      }
    </style>
  </defs>
  <g id="TFX_Expand" data-name="TFX Expand">
    <g>
      <g>
        <path class="cls-1" d="m61.1,12.42c-6.31-7.62-14.64-11.42-25.23-11.42s-19.04,3.81-25.35,11.31C4.21,19.8,1,29.8,1,42.18c0,.17,0,.33,0,.5,0,.17,0,.33,0,.5s0,.33,0,.5c0,.17,0,.33,0,.5s0,.33,0,.5c0,.17,0,.33,0,.5s0,.33,0,.5c0,.17,0,.33,0,.5s0,.33,0,.5c0,.17,0,.33,0,.5s0,.33,0,.5c0,.17,0,.33,0,.5s0,.33,0,.5c0,.17,0,.33,0,.5s0,.33,0,.5c0,.17,0,.33,0,.5s0,.33,0,.5c0,.17,0,.33,0,.5s0,.33,0,.5c0,.17,0,.33,0,.5s0,.33,0,.5c0,.17,0,.33,0,.5s0,.33,0,.5c0,.17,0,.33,0,.5,0,12.26,3.21,22.25,9.52,29.87,6.31,7.5,14.76,11.31,25.35,11.31s18.92-3.81,25.23-11.31c6.31-7.62,9.52-17.61,9.52-29.87,0-.17,0-.33,0-.5,0-.17,0-.33,0-.5s0-.33,0-.5c0-.17,0-.33,0-.5s0-.33,0-.5c0-.17,0-.33,0-.5s0-.33,0-.5c0-.17,0-.33,0-.5s0-.33,0-.5c0-.17,0-.33,0-.5s0-.33,0-.5c0-.17,0-.33,0-.5s0-.33,0-.5c0-.17,0-.33,0-.5s0-.33,0-.5c0-.17,0-.33,0-.5s0-.33,0-.5c0-.17,0-.33,0-.5s0-.33,0-.5c0-.17,0-.33,0-.5s0-.33,0-.5c0-.17,0-.33,0-.5s0-.33,0-.5c0-.17,0-.33,0-.5,0-12.26-3.21-22.25-9.52-29.75Zm-25.23,50.81c-6.34,0-9.95-4.96-10.91-15.06.96-10.1,4.57-15.06,10.91-15.06s9.93,5.11,10.91,15.06c-.97,9.96-4.58,15.06-10.91,15.06Z"/>
        <polygon class="cls-1" points="74.9 7.07 74.9 8.07 74.9 9.07 74.9 10.07 74.9 11.07 74.9 12.07 74.9 13.07 74.9 14.07 74.9 15.07 74.9 16.07 74.9 17.07 74.9 18.07 74.9 19.07 74.9 27.89 74.9 28.89 74.9 29.89 74.9 30.89 74.9 31.89 74.9 32.89 74.9 33.89 74.9 34.89 74.9 35.89 74.9 36.89 74.9 37.89 74.9 38.89 74.9 39.89 88.94 37.63 88.94 81.92 88.94 82.92 88.94 83.92 88.94 84.92 88.94 85.92 88.94 86.92 88.94 87.92 88.94 88.92 88.94 89.92 88.94 90.92 88.94 91.92 88.94 92.92 88.94 93.92 113.34 93.92 113.34 92.92 113.34 91.92 113.34 90.92 113.34 89.92 113.34 88.92 113.34 87.92 113.34 86.92 113.34 85.92 113.34 84.92 113.34 83.92 113.34 82.92 113.34 81.92 113.34 13.36 113.34 12.36 113.34 11.36 113.34 10.36 113.34 9.36 113.34 8.36 113.34 7.36 113.34 6.36 113.34 5.36 113.34 4.36 113.34 3.36 113.34 2.36 113.34 1.36 74.9 7.07"/>
      </g>
      <g>
        <path class="cls-2" d="m10.52,12.31C16.83,4.81,25.28,1,35.87,1s18.92,3.81,25.23,11.42c6.31,7.5,9.52,17.49,9.52,29.75s-3.21,22.25-9.52,29.87c-6.31,7.5-14.76,11.31-25.23,11.31s-19.04-3.81-25.35-11.31c-6.31-7.62-9.52-17.61-9.52-29.87s3.21-22.37,9.52-29.87Zm25.35,50.93c7.5,0,11.19-7.14,11.19-21.06s-3.69-21.06-11.19-21.06-11.19,6.9-11.19,21.06,3.69,21.06,11.19,21.06Z"/>
        <path class="cls-2" d="m113.34,1.36v80.56h-24.4V25.63l-14.04,2.26V7.07L113.34,1.36Z"/>
      </g>
    </g>
  </g>
</svg>