<?xml version="1.0" encoding="UTF-8"?>
<svg id="Layer_2" data-name="Layer 2" xmlns="http://www.w3.org/2000/svg" viewBox="0 0 139.09 96.35">
  <defs>
    <style>
      .cls-1, .cls-2 {
        stroke: #000;
        stroke-width: 2px;
      }

      .cls-2 {
        fill: #f4f3d3;
      }
    </style>
  </defs>
  <g id="TFX_Expand" data-name="TFX Expand">
    <g>
      <g>
        <path class="cls-1" d="m61.1,12.42c-6.31-7.62-14.64-11.42-25.23-11.42s-19.04,3.81-25.35,11.31C4.21,19.8,1,29.8,1,42.18c0,.17,0,.33,0,.5,0,.17,0,.33,0,.5s0,.33,0,.5c0,.17,0,.33,0,.5s0,.33,0,.5c0,.17,0,.33,0,.5s0,.33,0,.5c0,.17,0,.33,0,.5s0,.33,0,.5c0,.17,0,.33,0,.5s0,.33,0,.5c0,.17,0,.33,0,.5s0,.33,0,.5c0,.17,0,.33,0,.5s0,.33,0,.5c0,.17,0,.33,0,.5s0,.33,0,.5c0,.17,0,.33,0,.5s0,.33,0,.5c0,.17,0,.33,0,.5s0,.33,0,.5c0,.17,0,.33,0,.5s0,.33,0,.5c0,.17,0,.33,0,.5,0,12.26,3.21,22.25,9.52,29.87,6.31,7.5,14.76,11.31,25.35,11.31s18.92-3.81,25.23-11.31c6.31-7.62,9.52-17.61,9.52-29.87,0-.17,0-.33,0-.5,0-.17,0-.33,0-.5s0-.33,0-.5c0-.17,0-.33,0-.5s0-.33,0-.5c0-.17,0-.33,0-.5s0-.33,0-.5c0-.17,0-.33,0-.5s0-.33,0-.5c0-.17,0-.33,0-.5s0-.33,0-.5c0-.17,0-.33,0-.5s0-.33,0-.5c0-.17,0-.33,0-.5s0-.33,0-.5c0-.17,0-.33,0-.5s0-.33,0-.5c0-.17,0-.33,0-.5s0-.33,0-.5c0-.17,0-.33,0-.5s0-.33,0-.5c0-.17,0-.33,0-.5s0-.33,0-.5c0-.17,0-.33,0-.5,0-12.26-3.21-22.25-9.52-29.75Zm-25.23,50.81c-6.34,0-9.95-4.96-10.91-15.06.96-10.1,4.57-15.06,10.91-15.06s9.93,5.11,10.91,15.06c-.97,9.96-4.58,15.06-10.91,15.06Z"/>
        <path class="cls-1" d="m126.42,61.69c6.97-6.79,10.71-14.22,10.71-21.8,0-.18,0-.35-.01-.53,0-.16.01-.31.01-.47,0-.18,0-.35-.01-.53,0-.16.01-.31.01-.47,0-.18,0-.35-.01-.53,0-.16.01-.31.01-.47,0-.18,0-.35-.01-.53,0-.16.01-.31.01-.47,0-.18,0-.35-.01-.53,0-.16.01-.31.01-.47,0-.18,0-.35-.01-.53,0-.16.01-.31.01-.47,0-.18,0-.35-.01-.53,0-.16.01-.31.01-.47,0-.18,0-.35-.01-.53,0-.16.01-.31.01-.47,0-.18,0-.35-.01-.53,0-.16.01-.31.01-.47,0-.18,0-.35-.01-.53,0-.16.01-.31.01-.47,0-.18,0-.35-.01-.53,0-.16.01-.31.01-.47,0-.18,0-.35-.01-.53,0-.16.01-.31.01-.47,0-16.3-11.66-26.89-30.35-26.89-9.28,0-16.78,2.5-22.49,7.38-5.71,4.88-8.57,11.07-8.57,18.56,0,.12.01.25.02.37,0,.21-.02.42-.02.63,0,.12.01.25.02.37,0,.21-.02.42-.02.63,0,.12.01.25.02.37,0,.21-.02.42-.02.63,0,.12.01.25.02.37,0,.21-.02.42-.02.63,0,.12.01.25.02.37,0,.21-.02.42-.02.63,0,.12.01.25.02.37,0,.21-.02.42-.02.63,0,.12.01.25.02.37,0,.21-.02.42-.02.63,0,.12.01.25.02.37,0,.21-.02.42-.02.63,0,.12.01.25.02.37,0,.21-.02.42-.02.63,0,.12.01.25.02.37,0,.21-.02.42-.02.63,0,.12.01.25.02.37,0,.21-.02.42-.02.63,0,.12.01.25.02.37,0,.21-.02.42-.02.63,0,5.83,1.9,11.3,5.35,15.11l19.99-8.09c-.2-.27-.38-.52-.55-.78l.55-.22c-.2-.27-.38-.52-.55-.78l.55-.22c-.2-.27-.38-.52-.55-.78l.55-.22c-.2-.27-.38-.52-.55-.78l.55-.22c-.2-.27-.38-.52-.55-.78l.55-.22c-.2-.27-.38-.52-.55-.78l.55-.22c-.2-.27-.38-.52-.55-.78l.55-.22c-.2-.27-.38-.52-.55-.78l.55-.22c-.2-.27-.38-.52-.55-.78l.55-.22c-.2-.27-.38-.52-.55-.78l.55-.22c-.2-.27-.38-.52-.55-.78l.55-.22c-.11-.15-.2-.28-.31-.43,1.19-1.19,2.85-1.9,4.83-1.9,2.34,0,4.25.93,5.5,2.54-2.03,4.03-6.1,8.33-13.12,13.9-1.55,1.31-3.45,2.86-5.59,4.4l-15.59,11.42v29.02h61.29v-32.23h-11.67Z"/>
      </g>
      <g>
        <path class="cls-2" d="m10.52,12.31C16.83,4.81,25.28,1,35.87,1s18.92,3.81,25.23,11.42c6.31,7.5,9.52,17.49,9.52,29.75s-3.21,22.25-9.52,29.87c-6.31,7.5-14.76,11.31-25.23,11.31s-19.04-3.81-25.35-11.31c-6.31-7.62-9.52-17.61-9.52-29.87s3.21-22.37,9.52-29.87Zm25.35,50.93c7.5,0,11.19-7.14,11.19-21.06s-3.69-21.06-11.19-21.06-11.19,6.9-11.19,21.06,3.69,21.06,11.19,21.06Z"/>
        <path class="cls-2" d="m138.09,61.69v20.23h-61.29v-17.02l15.59-11.42c2.14-1.55,4.05-3.09,5.59-4.4,10.95-8.69,14.76-14.28,14.76-20.59,0-4.76-2.86-7.85-7.14-7.85s-6.9,3.09-6.9,7.38c0,1.9.59,3.57,2.38,5.95l-19.99,8.09c-3.45-3.81-5.35-9.28-5.35-15.11,0-7.5,2.86-13.69,8.57-18.56,5.71-4.88,13.21-7.38,22.49-7.38,18.68,0,30.35,10.59,30.35,26.89,0,12.38-10,24.4-27.73,33.8h28.68Z"/>
      </g>
    </g>
  </g>
</svg>