<?xml version="1.0" encoding="UTF-8"?>
<svg id="Layer_2" data-name="Layer 2" xmlns="http://www.w3.org/2000/svg" viewBox="0 0 136.59 96.35">
  <defs>
    <style>
      .cls-1, .cls-2 {
        stroke: #000;
        stroke-width: 2px;
      }

      .cls-2 {
        fill: #f4f3d3;
      }
    </style>
  </defs>
  <g id="TFX_Expand" data-name="TFX Expand">
    <g>
      <g>
        <path class="cls-1" d="m135.57,60.51c0-.2.02-.4.02-.6,0-5.12-1.82-9.64-5.07-12.95,2.19-3.02,3.4-6.92,3.4-11.47,0-.19-.01-.38-.01-.58,0-.14.01-.28.01-.42,0-.19-.01-.38-.01-.58,0-.14.01-.28.01-.42,0-.19-.01-.38-.01-.58,0-.14.01-.28.01-.42,0-.19-.01-.38-.01-.58,0-.14.01-.28.01-.42,0-.19-.01-.38-.01-.58,0-.14.01-.28.01-.42,0-.19-.01-.38-.01-.58,0-.14.01-.28.01-.42,0-.19-.01-.38-.01-.58,0-.14.01-.28.01-.42,0-.19-.01-.38-.01-.58,0-.14.01-.28.01-.42,0-.19-.01-.38-.01-.58,0-.14.01-.28.01-.42,0-.19-.01-.38-.01-.58,0-.14.01-.28.01-.42,0-.19-.01-.38-.01-.58,0-.14.01-.28.01-.42,0-.19-.01-.38-.01-.58,0-.14.01-.28.01-.42,0-13.8-11.07-22.49-28.68-22.49-7.97,0-14.64,2.02-20.11,5.95-5.47,3.93-8.81,9.04-10.12,15.35l.23.09c-.07.31-.17.6-.23.91l.23.09c-.07.31-.17.6-.23.91l.23.09c-.07.31-.17.6-.23.91l.23.09c-.07.31-.17.6-.23.91l.23.09c-.07.31-.17.6-.23.91l.23.09c-.07.31-.17.6-.23.91l.23.09c-.07.31-.17.6-.23.91l.23.09c-.07.31-.17.6-.23.91l.23.09c-.07.31-.17.6-.23.91l.23.09c-.07.31-.17.6-.23.91l.23.09c-.07.31-.17.6-.23.91l.23.09c-.07.31-.17.6-.23.91l18.45,6.9v15.52c-.14-.58-.27-1.18-.36-1.82l-20.95,7.97c.07.31.16.6.24.91l-.24.09c.07.31.16.6.24.91l-.24.09c.07.31.16.6.24.91l-.24.09c.07.31.16.6.24.91l-.24.09c.07.31.16.6.24.91l-.24.09c.07.31.16.6.24.91l-.24.09c.07.31.16.6.24.91l-.24.09c.07.31.16.6.24.91l-.24.09c.07.31.16.6.24.91l-.24.09c.07.31.16.6.24.91l-.24.09c.07.31.16.6.24.91l-.24.09c.07.31.16.6.24.91l-.24.09c1.31,6.07,4.88,11.07,10.71,14.88,5.83,3.69,12.73,5.59,20.94,5.59,9.52,0,17.14-2.14,22.97-6.31,5.83-4.28,8.81-10,8.81-17.14,0-.13-.01-.26-.02-.4,0-.2.02-.4.02-.6,0-.13-.01-.26-.02-.4,0-.2.02-.4.02-.6,0-.13-.01-.26-.02-.4,0-.2.02-.4.02-.6,0-.13-.01-.26-.02-.4,0-.2.02-.4.02-.6,0-.13-.01-.26-.02-.4,0-.2.02-.4.02-.6,0-.13-.01-.26-.02-.4,0-.2.02-.4.02-.6,0-.13-.01-.26-.02-.4,0-.2.02-.4.02-.6,0-.13-.01-.26-.02-.4,0-.2.02-.4.02-.6,0-.13-.01-.26-.02-.4,0-.2.02-.4.02-.6,0-.13-.01-.26-.02-.4,0-.2.02-.4.02-.6,0-.13-.01-.26-.02-.4,0-.2.02-.4.02-.6,0-.13-.01-.26-.02-.4Zm-31.76-28.23c1.69,0,3.13.39,4.27,1.1-1.61,1.1-3.9,1.66-6.89,1.66h-3.55c1.42-1.8,3.48-2.76,6.16-2.76Zm-.36,32.86c-3.18,0-5.72-1.11-7.53-3.23h5.86c3.1,0,5.55.6,7.29,1.73-1.46.98-3.37,1.51-5.62,1.51Z"/>
        <path class="cls-1" d="m61.1,12.42c-6.31-7.62-14.64-11.42-25.23-11.42s-19.04,3.81-25.35,11.31C4.21,19.8,1,29.8,1,42.18c0,.17,0,.33,0,.5,0,.17,0,.33,0,.5s0,.33,0,.5c0,.17,0,.33,0,.5s0,.33,0,.5c0,.17,0,.33,0,.5s0,.33,0,.5c0,.17,0,.33,0,.5s0,.33,0,.5c0,.17,0,.33,0,.5s0,.33,0,.5c0,.17,0,.33,0,.5s0,.33,0,.5c0,.17,0,.33,0,.5s0,.33,0,.5c0,.17,0,.33,0,.5s0,.33,0,.5c0,.17,0,.33,0,.5s0,.33,0,.5c0,.17,0,.33,0,.5s0,.33,0,.5c0,.17,0,.33,0,.5s0,.33,0,.5c0,.17,0,.33,0,.5,0,12.26,3.21,22.25,9.52,29.87,6.31,7.5,14.76,11.31,25.35,11.31s18.92-3.81,25.23-11.31c6.31-7.62,9.52-17.61,9.52-29.87,0-.17,0-.33,0-.5,0-.17,0-.33,0-.5s0-.33,0-.5c0-.17,0-.33,0-.5s0-.33,0-.5c0-.17,0-.33,0-.5s0-.33,0-.5c0-.17,0-.33,0-.5s0-.33,0-.5c0-.17,0-.33,0-.5s0-.33,0-.5c0-.17,0-.33,0-.5s0-.33,0-.5c0-.17,0-.33,0-.5s0-.33,0-.5c0-.17,0-.33,0-.5s0-.33,0-.5c0-.17,0-.33,0-.5s0-.33,0-.5c0-.17,0-.33,0-.5s0-.33,0-.5c0-.17,0-.33,0-.5s0-.33,0-.5c0-.17,0-.33,0-.5,0-12.26-3.21-22.25-9.52-29.75Zm-25.23,50.81c-6.34,0-9.95-4.96-10.91-15.06.96-10.1,4.57-15.06,10.91-15.06s9.93,5.11,10.91,15.06c-.97,9.96-4.58,15.06-10.91,15.06Z"/>
      </g>
      <g>
        <path class="cls-2" d="m10.52,12.31C16.83,4.81,25.28,1,35.87,1s18.92,3.81,25.23,11.42c6.31,7.5,9.52,17.49,9.52,29.75s-3.21,22.25-9.52,29.87c-6.31,7.5-14.76,11.31-25.23,11.31s-19.04-3.81-25.35-11.31c-6.31-7.62-9.52-17.61-9.52-29.87s3.21-22.37,9.52-29.87Zm25.35,50.93c7.5,0,11.19-7.14,11.19-21.06s-3.69-21.06-11.19-21.06-11.19,6.9-11.19,21.06,3.69,21.06,11.19,21.06Z"/>
        <path class="cls-2" d="m120.36,41.34v.36c9.4,1.79,15.23,9.04,15.23,18.21,0,7.14-2.97,12.85-8.81,17.14-5.83,4.17-13.45,6.31-22.97,6.31-8.21,0-15.11-1.9-20.94-5.59-5.83-3.81-9.4-8.81-10.71-14.88l20.95-7.97c.95,6.66,4.64,10.23,10.35,10.23,5.24,0,8.69-2.86,8.69-7.62s-3.69-7.62-10.35-7.62h-8.33v-14.88h7.74c6.54,0,9.76-2.62,9.76-7.97,0-4.17-2.74-6.78-7.14-6.78-5.12,0-7.97,3.45-8.45,9.64l-20.35-7.62c1.31-6.31,4.64-11.42,10.12-15.35,5.47-3.93,12.14-5.95,20.11-5.95,17.61,0,28.68,8.69,28.68,22.49,0,9.4-5.12,16.06-13.57,17.85Z"/>
      </g>
    </g>
  </g>
</svg>