<?xml version="1.0" encoding="UTF-8"?>
<svg id="Layer_2" data-name="Layer 2" xmlns="http://www.w3.org/2000/svg" viewBox="0 0 146.59 96.35">
  <defs>
    <style>
      .cls-1, .cls-2 {
        stroke: #000;
        stroke-width: 2px;
      }

      .cls-2 {
        fill: #f4f3d3;
      }
    </style>
  </defs>
  <g id="TFX_Expand" data-name="TFX Expand">
    <g>
      <g>
        <path class="cls-1" d="m61.1,12.42c-6.31-7.62-14.64-11.42-25.23-11.42s-19.04,3.81-25.35,11.31C4.21,19.8,1,29.8,1,42.18c0,.17,0,.33,0,.5,0,.17,0,.33,0,.5s0,.33,0,.5c0,.17,0,.33,0,.5s0,.33,0,.5c0,.17,0,.33,0,.5s0,.33,0,.5c0,.17,0,.33,0,.5s0,.33,0,.5c0,.17,0,.33,0,.5s0,.33,0,.5c0,.17,0,.33,0,.5s0,.33,0,.5c0,.17,0,.33,0,.5s0,.33,0,.5c0,.17,0,.33,0,.5s0,.33,0,.5c0,.17,0,.33,0,.5s0,.33,0,.5c0,.17,0,.33,0,.5s0,.33,0,.5c0,.17,0,.33,0,.5s0,.33,0,.5c0,.17,0,.33,0,.5,0,12.26,3.21,22.25,9.52,29.87,6.31,7.5,14.76,11.31,25.35,11.31s18.92-3.81,25.23-11.31c6.31-7.62,9.52-17.61,9.52-29.87,0-.17,0-.33,0-.5,0-.17,0-.33,0-.5s0-.33,0-.5c0-.17,0-.33,0-.5s0-.33,0-.5c0-.17,0-.33,0-.5s0-.33,0-.5c0-.17,0-.33,0-.5s0-.33,0-.5c0-.17,0-.33,0-.5s0-.33,0-.5c0-.17,0-.33,0-.5s0-.33,0-.5c0-.17,0-.33,0-.5s0-.33,0-.5c0-.17,0-.33,0-.5s0-.33,0-.5c0-.17,0-.33,0-.5s0-.33,0-.5c0-.17,0-.33,0-.5s0-.33,0-.5c0-.17,0-.33,0-.5s0-.33,0-.5c0-.17,0-.33,0-.5,0-12.26-3.21-22.25-9.52-29.75Zm-25.23,50.81c-6.34,0-9.95-4.96-10.91-15.06.96-10.1,4.57-15.06,10.91-15.06s9.93,5.11,10.91,15.06c-.97,9.96-4.58,15.06-10.91,15.06Z"/>
        <path class="cls-1" d="m133.33,46.34V2.43h-22.97l-34.87,42.84v29.73h34.39v18.92h23.44v-18.92h12.26v-28.66h-12.26Zm-29.98,0l6.06-7.52h.48v7.52h-6.54Z"/>
      </g>
      <g>
        <path class="cls-2" d="m10.52,12.31C16.83,4.81,25.28,1,35.87,1s18.92,3.81,25.23,11.42c6.31,7.5,9.52,17.49,9.52,29.75s-3.21,22.25-9.52,29.87c-6.31,7.5-14.76,11.31-25.23,11.31s-19.04-3.81-25.35-11.31c-6.31-7.62-9.52-17.61-9.52-29.87s3.21-22.37,9.52-29.87Zm25.35,50.93c7.5,0,11.19-7.14,11.19-21.06s-3.69-21.06-11.19-21.06-11.19,6.9-11.19,21.06,3.69,21.06,11.19,21.06Z"/>
        <path class="cls-2" d="m133.33,81.92h-23.44v-18.92h-34.39v-17.73L110.36,2.43h22.97v43.91h12.26v16.66h-12.26v18.92Zm-23.44-55.1h-.48l-15.35,19.04v.48h15.83v-19.52Z"/>
      </g>
    </g>
  </g>
</svg>