<?xml version="1.0" encoding="UTF-8"?>
<svg id="Layer_2" data-name="Layer 2" xmlns="http://www.w3.org/2000/svg" viewBox="0 0 139.09 96.35">
  <defs>
    <style>
      .cls-1, .cls-2 {
        stroke: #000;
        stroke-width: 2px;
      }

      .cls-2 {
        fill: #f4f3d3;
      }
    </style>
  </defs>
  <g id="TFX_Expand" data-name="TFX Expand">
    <g>
      <g>
        <path class="cls-1" d="m138.08,54.84c0-.21.01-.43.01-.64,0-7.26-2.26-13.09-6.67-17.49-.97-1-2.03-1.86-3.14-2.64h4.81V2.43h-50.46l-2.02,46.77h.04l-.04,1h.04l-.04,1h.04l-.04,1h.04l-.04,1h.04l-.04,1h.04l-.04,1h.04l-.04,1h.04l-.04,1h.04l-.04,1h.04l-.04,1h.04l-.02.45-6.57,2.29c.08.31.18.6.27.91l-.27.09c.08.31.18.6.27.91l-.27.09c.08.31.18.6.27.91l-.27.09c.08.31.18.6.27.91l-.27.09c.08.31.18.6.27.91l-.27.09c.08.31.18.6.27.91l-.27.09c.08.31.18.6.27.91l-.27.09c.08.31.18.6.27.91l-.27.09c.08.31.18.6.27.91l-.27.09c.08.31.18.6.27.91l-.27.09c.08.31.18.6.27.91l-.27.09c.08.31.18.6.27.91l-.27.09c3.21,12.97,15.35,21.42,31.66,21.42,9.4,0,17.14-2.62,23.21-7.97,6.07-5.36,9.16-12.38,9.16-21.18,0-.12-.01-.24-.01-.36,0-.21.01-.43.01-.64,0-.12-.01-.24-.01-.36,0-.21.01-.43.01-.64,0-.12-.01-.24-.01-.36,0-.21.01-.43.01-.64,0-.12-.01-.24-.01-.36,0-.21.01-.43.01-.64,0-.12-.01-.24-.01-.36,0-.21.01-.43.01-.64,0-.12-.01-.24-.01-.36,0-.21.01-.43.01-.64,0-.12-.01-.24-.01-.36,0-.21.01-.43.01-.64,0-.12-.01-.24-.01-.36,0-.21.01-.43.01-.64,0-.12-.01-.24-.01-.36,0-.21.01-.43.01-.64,0-.12-.01-.24-.01-.36,0-.21.01-.43.01-.64,0-.12-.01-.24-.01-.36,0-.21.01-.43.01-.64,0-.12-.01-.24-.01-.36Zm-38.19,6.36c1.55-2.26,3.93-3.33,6.78-3.33,2.71,0,4.87,1.16,6.24,3.14-1.51,2.29-4.01,3.54-7.31,3.54-3.08,0-5.65-1.23-7.42-3.35h1.71Z"/>
        <path class="cls-1" d="m61.1,12.42c-6.31-7.62-14.64-11.42-25.23-11.42s-19.04,3.81-25.35,11.31C4.21,19.8,1,29.8,1,42.18c0,.17,0,.33,0,.5,0,.17,0,.33,0,.5s0,.33,0,.5c0,.17,0,.33,0,.5s0,.33,0,.5c0,.17,0,.33,0,.5s0,.33,0,.5c0,.17,0,.33,0,.5s0,.33,0,.5c0,.17,0,.33,0,.5s0,.33,0,.5c0,.17,0,.33,0,.5s0,.33,0,.5c0,.17,0,.33,0,.5s0,.33,0,.5c0,.17,0,.33,0,.5s0,.33,0,.5c0,.17,0,.33,0,.5s0,.33,0,.5c0,.17,0,.33,0,.5s0,.33,0,.5c0,.17,0,.33,0,.5s0,.33,0,.5c0,.17,0,.33,0,.5,0,12.26,3.21,22.25,9.52,29.87,6.31,7.5,14.76,11.31,25.35,11.31s18.92-3.81,25.23-11.31c6.31-7.62,9.52-17.61,9.52-29.87,0-.17,0-.33,0-.5,0-.17,0-.33,0-.5s0-.33,0-.5c0-.17,0-.33,0-.5s0-.33,0-.5c0-.17,0-.33,0-.5s0-.33,0-.5c0-.17,0-.33,0-.5s0-.33,0-.5c0-.17,0-.33,0-.5s0-.33,0-.5c0-.17,0-.33,0-.5s0-.33,0-.5c0-.17,0-.33,0-.5s0-.33,0-.5c0-.17,0-.33,0-.5s0-.33,0-.5c0-.17,0-.33,0-.5s0-.33,0-.5c0-.17,0-.33,0-.5s0-.33,0-.5c0-.17,0-.33,0-.5s0-.33,0-.5c0-.17,0-.33,0-.5,0-12.26-3.21-22.25-9.52-29.75Zm-25.23,50.81c-6.34,0-9.95-4.96-10.91-15.06.96-10.1,4.57-15.06,10.91-15.06s9.93,5.11,10.91,15.06c-.97,9.96-4.58,15.06-10.91,15.06Z"/>
      </g>
      <g>
        <path class="cls-2" d="m10.52,12.31C16.83,4.81,25.28,1,35.87,1s18.92,3.81,25.23,11.42c6.31,7.5,9.52,17.49,9.52,29.75s-3.21,22.25-9.52,29.87c-6.31,7.5-14.76,11.31-25.23,11.31s-19.04-3.81-25.35-11.31c-6.31-7.62-9.52-17.61-9.52-29.87s3.21-22.37,9.52-29.87Zm25.35,50.93c7.5,0,11.19-7.14,11.19-21.06s-3.69-21.06-11.19-21.06-11.19,6.9-11.19,21.06,3.69,21.06,11.19,21.06Z"/>
        <path class="cls-2" d="m80.61,49.2l2.02-46.77h50.46v19.64h-31.66l-.59,11.9c3.33-2.38,8.21-4.05,12.97-4.05,7.26,0,13.21,2.26,17.61,6.78,4.4,4.4,6.67,10.23,6.67,17.49,0,8.81-3.09,15.83-9.16,21.18-6.07,5.36-13.8,7.97-23.21,7.97-16.3,0-28.44-8.45-31.66-21.42l21.54-7.5c.48,6.07,4.4,10.12,10,10.12s8.92-3.57,8.92-9.76c0-5.35-3.09-8.92-7.85-8.92-2.86,0-5.24,1.07-6.78,3.33h-19.28Z"/>
      </g>
    </g>
  </g>
</svg>