<?xml version="1.0" encoding="UTF-8"?>
<svg id="Layer_2" data-name="Layer 2" xmlns="http://www.w3.org/2000/svg" viewBox="0 0 274.72 200.33">
  <defs>
    <style>
      .cls-1 {
        fill: #f4f3d3;
      }

      .cls-1, .cls-2 {
        stroke: #000;
        stroke-width: 1.5px;
      }
    </style>
  </defs>
  <g id="TFX_Expand" data-name="TFX Expand">
    <g>
      <g>
        <path class="cls-2" d="m16.6,66.4l3.01-9.12h17.7l3.01,9.12h16.15l-.36-1h.36l-.36-1h.36l-.36-1h.36l-.36-1h.36l-.36-1h.36l-.36-1h.36l-.36-1h.36l-.36-1h.36l-.36-1h.36L37.78,5.77h-18.08L1.07,57.4h.36l-.36,1h.36l-.36,1h.36l-.36,1h.36l-.36,1h.36l-.36,1h.36l-.36,1h.36l-.36,1h.36l-.36,1h.36l-.36,1h15.53Zm9.8-29.56l1.95-5.84h.15l1.95,5.84h-4.05Z"/>
        <path class="cls-2" d="m50.45,21.12v13.98c4.95,0,8.89-1.39,11.9-4.1,3.01-2.78,4.56-6.34,4.56-10.67,0-.18-.01-.36-.02-.54,0-.16.02-.31.02-.46,0-.18-.01-.36-.02-.54,0-.16.02-.31.02-.46,0-.18-.01-.36-.02-.54,0-.16.02-.31.02-.46,0-.18-.01-.36-.02-.54,0-.16.02-.31.02-.46,0-.18-.01-.36-.02-.54,0-.16.02-.31.02-.46,0-.18-.01-.36-.02-.54,0-.16.02-.31.02-.46,0-.18-.01-.36-.02-.54,0-.16.02-.31.02-.46,0-.18-.01-.36-.02-.54,0-.16.02-.31.02-.46,0-.18-.01-.36-.02-.54,0-.16.02-.31.02-.46,0-6.18-3.86-10.59-9.43-10.59-4.64,0-7.96,3.09-7.96,7.65,0,.18.01.35.02.52,0,.16-.02.32-.02.48,0,.18.01.35.02.52,0,.16-.02.32-.02.48,0,.18.01.35.02.52,0,.16-.02.32-.02.48,0,.18.01.35.02.52,0,.16-.02.32-.02.48,0,.18.01.35.02.52,0,.16-.02.32-.02.48,0,.18.01.35.02.52,0,.16-.02.32-.02.48,0,.18.01.35.02.52,0,.16-.02.32-.02.48,0,.18.01.35.02.52,0,.16-.02.32-.02.48,0,.18.01.35.02.52,0,.16-.02.32-.02.48,0,1.41.34,2.67.93,3.72Z"/>
        <path class="cls-2" d="m85.77,65.4v-15.54h6.26c3.4,0,5.02,1.31,5.64,4.71l1.08,5.8c.62,3.01,1.24,4.41,2.55,6.03h30.3l3.01-9.12h17.7l3.01,9.12h16.15l-.36-1h.36l-.36-1h.36l-.36-1h.36l-.36-1h.36l-.36-1h.36l-.36-1h.36l-.36-1h.36l-.36-1h.36l-.36-1h.36l-1.15-3.17c1.01,2.21,2.32,4.21,3.93,5.99,4.33,4.71,9.89,7.11,16.69,7.11s12.21-2.55,14.3-6.57l1.78,5.64h10.43V28.88h-2.01l1.32-.51c-.09-.3-.2-.59-.3-.88l.3-.12c-.09-.3-.2-.59-.3-.88l.3-.12c-.09-.3-.2-.59-.3-.88l.3-.12c-.09-.3-.2-.59-.3-.88l.3-.12c-.09-.3-.2-.59-.3-.88l.3-.12c-.09-.3-.2-.59-.3-.88l.3-.12c-.09-.3-.2-.59-.3-.88l.3-.12c-.09-.3-.2-.59-.3-.88l.3-.12c-.09-.3-.2-.59-.3-.88l.3-.12c-1.31-4.41-3.94-7.96-8.04-10.59-4.1-2.63-8.96-3.94-14.61-3.94-7.88,0-14.22,2.55-19.09,7.57s-7.26,11.59-7.26,19.86c0,.12.01.23.01.34,0,.22-.01.44-.01.66,0,.12.01.23.01.34,0,.22-.01.44-.01.66,0,.12.01.23.01.34,0,.22-.01.44-.01.66,0,.12.01.23.01.34,0,.22-.01.44-.01.66,0,.12.01.23.01.34,0,.22-.01.44-.01.66,0,.12.01.23.01.34,0,.22-.01.44-.01.66,0,.12.01.23.01.34,0,.22-.01.44-.01.66,0,.12.01.23.01.34,0,.22-.01.44-.01.66,0,.12.01.23.01.34,0,.22-.01.44-.01.66,0,3.41.44,6.52,1.26,9.36l-16.26-44.87h-18.09l-17.94,49.72c-.83-1.27-1.39-2.69-1.85-4.51l-1.93-8.27c-.28-1.16-.65-2.19-1.11-3.1,2.19-2.3,3.51-5.45,3.51-9.08,0-.17-.02-.32-.02-.49,0-.17.02-.34.02-.51s-.02-.32-.02-.49c0-.17.02-.34.02-.51s-.02-.32-.02-.49c0-.17.02-.34.02-.51s-.02-.32-.02-.49c0-.17.02-.34.02-.51s-.02-.32-.02-.49c0-.17.02-.34.02-.51s-.02-.32-.02-.49c0-.17.02-.34.02-.51s-.02-.32-.02-.49c0-.17.02-.34.02-.51s-.02-.32-.02-.49c0-.17.02-.34.02-.51s-.02-.32-.02-.49c0-.17.02-.34.02-.51,0-10.28-7.03-15.77-20.09-15.77h-25.04v60.63h15.53v-1Zm108.58-29.52v9.84c-.1,0-.2.01-.31.01-5.21,0-8.49-3.21-9.53-9.06,1.06-6.13,4.4-9.53,9.45-9.53,2.08,0,3.78.6,5.06,1.74h-4.68v7Zm-51.01-4.88h.16l1.95,5.84h-4.05l1.95-5.84Zm-50-3.56c1.32,0,2.39.22,3.26.63-.86.43-1.94.65-3.26.65h-7.57v-1.28h7.57Z"/>
        <path class="cls-2" d="m38.9,118.85c0-.2-.01-.39-.02-.58,0-.14.02-.28.02-.42,0-.2-.01-.39-.02-.58,0-.14.02-.28.02-.42,0-.2-.01-.39-.02-.58,0-.14.02-.28.02-.42,0-.2-.01-.39-.02-.58,0-.14.02-.28.02-.42,0-.2-.01-.39-.02-.58,0-.14.02-.28.02-.42,0-.2-.01-.39-.02-.58,0-.14.02-.28.02-.42,0-.2-.01-.39-.02-.58,0-.14.02-.28.02-.42,0-.2-.01-.39-.02-.58,0-.14.02-.28.02-.42,0-.2-.01-.39-.02-.58,0-.14.02-.28.02-.42,0-3.09-.77-5.87-2.32-8.35-.98-1.57-2.59-3.3-4.84-5.18l6.85-1.5c-.01-.34-.04-.66-.07-.98l.07-.02c-.01-.34-.04-.66-.07-.98l.07-.02c-.01-.34-.04-.66-.07-.98l.07-.02c-.01-.34-.04-.66-.07-.98l.07-.02c-.01-.34-.04-.66-.07-.98l.07-.02c-.01-.34-.04-.66-.07-.98l.07-.02c-.01-.34-.04-.66-.07-.98l.07-.02c-.01-.34-.04-.66-.07-.98l.07-.02c-.01-.34-.04-.66-.07-.98l.07-.02c-.31-9.04-5.56-14.38-14.3-14.38-4.41,0-7.96,1.31-10.74,4.02s-4.17,6.11-4.17,10.36c0,.2.01.39.02.58,0,.14-.02.28-.02.42,0,.2.01.39.02.58,0,.14-.02.28-.02.42,0,.2.01.39.02.58,0,.14-.02.28-.02.42,0,.2.01.39.02.58,0,.14-.02.28-.02.42,0,.2.01.39.02.58,0,.14-.02.28-.02.42,0,.2.01.39.02.58,0,.14-.02.28-.02.42,0,.2.01.39.02.58,0,.14-.02.28-.02.42,0,.2.01.39.02.58,0,.14-.02.28-.02.42,0,.2.01.39.02.58,0,.14-.02.28-.02.42,0,2.94.7,5.56,2.16,7.96.84,1.32,2.2,2.78,4.04,4.35l-7.06,1.95c0,.34.03.66.05.99h-.05c0,.35.03.67.05,1h-.05c0,.35.03.67.05,1h-.05c0,.35.03.67.05,1h-.05c0,.35.03.67.05,1h-.05c0,.35.03.67.05,1h-.05c0,.35.03.67.05,1h-.05c0,.35.03.67.05,1h-.05c0,.35.03.67.05,1h-.05c.08,9.29,6.11,15.24,15.15,15.24,4.41,0,8.04-1.31,10.9-4.02,2.86-2.71,4.33-6.18,4.33-10.43Zm-11.67-25.93c-1.99-1.38-3.5-2.52-4.55-3.45.51-.2,1.07-.31,1.69-.31,2.23,0,3.84,1.84,4.45,4.88-.51-.37-1.04-.75-1.59-1.13Zm-6.65,17.96c2.35,1.65,4.08,3.03,5.18,4.14-.61.3-1.33.47-2.16.47-2.86,0-4.82-2.4-5.39-6.29.74.55,1.53,1.11,2.38,1.69Z"/>
        <path class="cls-2" d="m74.06,115.99v-43.93h-11.13v35.55c0,5.18-1.55,7.5-4.64,7.5s-4.64-2.24-4.64-7.5v-35.55h-11.13v43.93c0,11.13,5.64,17.31,15.77,17.31s15.77-6.18,15.77-17.31Z"/>
        <polygon class="cls-2" points="179.44 155.53 179.44 154.53 179.44 153.53 179.44 152.53 179.44 151.53 179.44 150.53 179.44 149.53 179.44 148.53 179.44 147.53 179.44 147.34 179.44 146.34 179.44 145.34 179.44 144.34 179.44 143.34 179.44 142.34 179.44 141.34 179.44 140.34 179.44 139.34 179.44 138.34 148.84 138.34 148.84 139.34 148.84 140.34 148.84 141.34 148.84 142.34 148.84 143.34 148.84 144.34 148.84 145.34 148.84 146.34 148.84 147.34 148.84 147.53 148.84 148.53 148.84 149.53 148.84 150.53 148.84 151.53 148.84 152.53 148.84 153.53 148.84 154.53 148.84 155.53 148.84 156.53 158.57 156.53 158.57 189.96 158.57 190.96 158.57 191.96 158.57 192.96 158.57 193.96 158.57 194.96 158.57 195.96 158.57 196.96 158.57 197.96 158.57 198.96 169.7 198.96 169.7 197.96 169.7 196.96 169.7 195.96 169.7 194.96 169.7 193.96 169.7 192.96 169.7 191.96 169.7 190.96 169.7 189.96 169.7 156.53 179.44 156.53 179.44 155.53"/>
        <path class="cls-2" d="m273.29,57.4h.36l-18.7-51.63h-18.08l-18.63,51.63h.36l-.36,1h.36l-.36,1h.36l-.36,1h.36l-.36,1h.36l-.36,1h.36l-.36,1h.36l-.36,1h.36l-.36,1h.36l-.36,1h15.53l3.01-9.12h17.7l3.01,9.12h16.15l-.36-1h.36l-.36-1h.36l-.36-1h.36l-.36-1h.36l-.36-1h.36l-.36-1h.36l-.36-1h.36l-.36-1h.36l-.36-1Zm-27.77-26.4h.16l1.95,5.84h-4.05l1.95-5.84Z"/>
        <polygon class="cls-2" points="90.6 80.05 90.6 79.05 90.6 78.05 90.6 77.05 90.6 76.05 90.6 75.05 90.6 74.05 90.6 73.05 90.6 72.05 79.55 72.05 79.55 73.05 79.55 74.05 79.55 75.05 79.55 76.05 79.55 77.05 79.55 78.05 79.55 79.05 79.55 80.05 79.55 81.05 79.55 123.68 79.55 124.68 79.55 125.68 79.55 126.68 79.55 127.68 79.55 128.68 79.55 129.68 79.55 130.68 79.55 131.68 79.55 132.68 103.97 132.68 103.97 131.68 103.97 130.68 103.97 129.68 103.97 128.68 103.97 127.68 103.97 126.68 103.97 125.68 103.97 124.68 103.97 123.68 103.97 123.48 103.97 122.48 103.97 121.48 103.97 120.48 103.97 119.48 103.97 118.48 103.97 117.48 103.97 116.48 103.97 115.48 103.97 114.48 90.6 114.48 90.6 81.05 90.6 80.05"/>
        <path class="cls-2" d="m130.33,72.05h-13.91l-10.59,51.63h.21l-.21,1h.21l-.21,1h.21l-.21,1h.21l-.21,1h.21l-.21,1h.21l-.21,1h.21l-.21,1h.21l-.21,1h.21l-.21,1h10.43l2.01-11.59h9.89l2.01,11.59h10.74l-.21-1h.21l-.21-1h.21l-.21-1h.21l-.21-1h.21l-.21-1h.21l-.21-1h.21l-.21-1h.21l-.21-1h.21l-.21-1h.21l-10.59-51.63Zm-7.26,21.29h.23l1.82,10.4h-3.84l1.78-10.4Z"/>
        <polygon class="cls-2" points="176.54 72.05 172.68 103.74 172.37 103.74 168.2 72.05 159.62 72.05 155.52 103.74 155.21 103.74 151.35 72.05 140.45 72.05 140.61 73.05 140.45 73.05 140.61 74.05 140.45 74.05 140.61 75.05 140.45 75.05 140.61 76.05 140.45 76.05 140.61 77.05 140.45 77.05 140.61 78.05 140.45 78.05 140.61 79.05 140.45 79.05 140.61 80.05 140.45 80.05 140.61 81.05 140.45 81.05 148.8 132.68 159.31 132.68 163.64 102 163.95 102 168.27 132.68 178.71 132.68 187.05 81.05 186.89 81.05 187.05 80.05 186.89 80.05 187.05 79.05 186.89 79.05 187.05 78.05 186.89 78.05 187.05 77.05 186.89 77.05 187.05 76.05 186.89 76.05 187.05 75.05 186.89 75.05 187.05 74.05 186.89 74.05 187.05 73.05 186.89 73.05 187.05 72.05 176.54 72.05"/>
        <polygon class="cls-2" points="190.53 73.05 190.53 74.05 190.53 75.05 190.53 76.05 190.53 77.05 190.53 78.05 190.53 79.05 190.53 80.05 190.53 81.05 190.53 123.68 190.53 124.68 190.53 125.68 190.53 126.68 190.53 127.68 190.53 128.68 190.53 129.68 190.53 130.68 190.53 131.68 190.53 132.68 215.73 132.68 215.73 131.68 215.73 130.68 215.73 129.68 215.73 128.68 215.73 127.68 215.73 126.68 215.73 125.68 215.73 124.68 215.73 123.68 215.73 123.48 215.73 122.48 215.73 121.48 215.73 120.48 215.73 119.48 215.73 118.48 215.73 117.48 215.73 116.48 215.73 115.48 215.73 114.48 201.43 114.48 201.43 110.89 213.48 110.89 213.48 109.89 213.48 108.89 213.48 107.89 213.48 106.89 213.48 105.89 213.48 104.89 213.48 103.89 213.48 102.89 213.48 102.15 213.48 101.89 213.48 101.15 213.48 100.15 213.48 99.15 213.48 98.15 213.48 97.15 213.48 96.15 213.48 95.15 213.48 94.15 213.48 93.15 201.43 93.15 201.43 90.25 215.73 90.25 215.73 89.25 215.73 88.25 215.73 87.25 215.73 86.25 215.73 85.25 215.73 84.25 215.73 83.25 215.73 82.25 215.73 81.25 215.73 81.05 215.73 80.05 215.73 79.05 215.73 78.05 215.73 77.05 215.73 76.05 215.73 75.05 215.73 74.05 215.73 73.05 215.73 72.05 190.53 72.05 190.53 73.05"/>
        <path class="cls-2" d="m246.41,101.5c-.98-1.57-2.59-3.3-4.84-5.18l6.85-1.5c-.01-.34-.04-.66-.07-.98l.07-.02c-.01-.34-.04-.66-.07-.98l.07-.02c-.01-.34-.04-.66-.07-.98l.07-.02c-.01-.34-.04-.66-.07-.98l.07-.02c-.01-.34-.04-.66-.07-.98l.07-.02c-.01-.34-.04-.66-.07-.98l.07-.02c-.01-.34-.04-.66-.07-.98l.07-.02c-.01-.34-.04-.66-.07-.98l.07-.02c-.01-.34-.04-.66-.07-.98l.07-.02c-.31-9.04-5.56-14.38-14.3-14.38-4.41,0-7.96,1.31-10.74,4.02s-4.17,6.11-4.17,10.36c0,.2.01.39.02.58,0,.14-.02.28-.02.42,0,.2.01.39.02.58,0,.14-.02.28-.02.42,0,.2.01.39.02.58,0,.14-.02.28-.02.42,0,.2.01.39.02.58,0,.14-.02.28-.02.42,0,.2.01.39.02.58,0,.14-.02.28-.02.42,0,.2.01.39.02.58,0,.14-.02.28-.02.42,0,.2.01.39.02.58,0,.14-.02.28-.02.42,0,.2.01.39.02.58,0,.14-.02.28-.02.42,0,.2.01.39.02.58,0,.14-.02.28-.02.42,0,2.94.7,5.56,2.16,7.96.84,1.32,2.2,2.78,4.04,4.35l-7.06,1.95c0,.34.03.66.05.99h-.05c0,.35.03.67.05,1h-.05c0,.35.03.67.05,1h-.05c0,.35.03.67.05,1h-.05c0,.35.03.67.05,1h-.05c0,.35.03.67.05,1h-.05c0,.35.03.67.05,1h-.05c0,.35.03.67.05,1h-.05c0,.35.03.67.05,1h-.05c.08,9.29,6.11,15.24,15.15,15.24,4.41,0,8.04-1.31,10.9-4.02,2.86-2.71,4.33-6.18,4.33-10.43,0-.2-.01-.39-.02-.58,0-.14.02-.28.02-.42,0-.2-.01-.39-.02-.58,0-.14.02-.28.02-.42,0-.2-.01-.39-.02-.58,0-.14.02-.28.02-.42,0-.2-.01-.39-.02-.58,0-.14.02-.28.02-.42,0-.2-.01-.39-.02-.58,0-.14.02-.28.02-.42,0-.2-.01-.39-.02-.58,0-.14.02-.28.02-.42,0-.2-.01-.39-.02-.58,0-.14.02-.28.02-.42,0-.2-.01-.39-.02-.58,0-.14.02-.28.02-.42,0-.2-.01-.39-.02-.58,0-.14.02-.28.02-.42,0-3.09-.77-5.87-2.32-8.35Zm-9.35-8.58c-1.99-1.38-3.5-2.52-4.55-3.45.51-.2,1.07-.31,1.69-.31,2.23,0,3.84,1.84,4.45,4.88-.51-.37-1.04-.75-1.59-1.13Zm-6.65,17.96c2.36,1.65,4.08,3.03,5.18,4.14-.61.3-1.33.47-2.16.47-2.86,0-4.82-2.4-5.39-6.29.74.55,1.53,1.11,2.38,1.69Z"/>
        <polygon class="cls-2" points="252.74 73.05 252.74 74.05 252.74 75.05 252.74 76.05 252.74 77.05 252.74 78.05 252.74 79.05 252.74 80.05 252.74 81.05 252.74 123.68 252.74 124.68 252.74 125.68 252.74 126.68 252.74 127.68 252.74 128.68 252.74 129.68 252.74 130.68 252.74 131.68 252.74 132.68 263.8 132.68 263.8 131.68 263.8 130.68 263.8 129.68 263.8 128.68 263.8 127.68 263.8 126.68 263.8 125.68 263.8 124.68 263.8 123.68 263.8 81.05 263.8 80.05 263.8 79.05 263.8 78.05 263.8 77.05 263.8 76.05 263.8 75.05 263.8 74.05 263.8 73.05 263.8 72.05 252.74 72.05 252.74 73.05"/>
        <path class="cls-2" d="m52.31,167.78c-.98-1.57-2.59-3.3-4.84-5.18l6.85-1.5c-.01-.34-.04-.66-.07-.98l.07-.02c-.01-.34-.04-.66-.07-.98l.07-.02c-.01-.34-.04-.66-.07-.98l.07-.02c-.01-.34-.04-.66-.07-.98l.07-.02c-.01-.34-.04-.66-.07-.98l.07-.02c-.01-.34-.04-.66-.07-.98l.07-.02c-.01-.34-.04-.66-.07-.98l.07-.02c-.01-.34-.04-.66-.07-.98l.07-.02c-.01-.34-.04-.66-.07-.98l.07-.02c-.31-9.04-5.56-14.38-14.3-14.38-4.41,0-7.96,1.31-10.74,4.02s-4.17,6.11-4.17,10.36c0,.2.01.39.02.58,0,.14-.02.28-.02.42,0,.2.01.39.02.58,0,.14-.02.28-.02.42,0,.2.01.39.02.58,0,.14-.02.28-.02.42,0,.2.01.39.02.58,0,.14-.02.28-.02.42,0,.2.01.39.02.58,0,.14-.02.28-.02.42,0,.2.01.39.02.58,0,.14-.02.28-.02.42,0,.2.01.39.02.58,0,.14-.02.28-.02.42,0,.2.01.39.02.58,0,.14-.02.28-.02.42,0,.2.01.39.02.58,0,.14-.02.28-.02.42,0,2.94.7,5.56,2.16,7.96.84,1.32,2.2,2.78,4.04,4.35l-7.06,1.95c0,.34.03.66.05.99h-.05c0,.35.03.67.05,1h-.05c0,.35.03.67.05,1h-.05c0,.35.03.67.05,1h-.05c0,.35.03.67.05,1h-.05c0,.35.03.67.05,1h-.05c0,.35.03.67.05,1h-.05c0,.35.03.67.05,1h-.05c0,.35.03.67.05,1h-.05c.08,9.29,6.11,15.24,15.15,15.24,4.41,0,8.04-1.31,10.9-4.02,2.86-2.71,4.33-6.18,4.33-10.43,0-.2-.01-.39-.02-.58,0-.14.02-.28.02-.42,0-.2-.01-.39-.02-.58,0-.14.02-.28.02-.42,0-.2-.01-.39-.02-.58,0-.14.02-.28.02-.42,0-.2-.01-.39-.02-.58,0-.14.02-.28.02-.42,0-.2-.01-.39-.02-.58,0-.14.02-.28.02-.42,0-.2-.01-.39-.02-.58,0-.14.02-.28.02-.42,0-.2-.01-.39-.02-.58,0-.14.02-.28.02-.42,0-.2-.01-.39-.02-.58,0-.14.02-.28.02-.42,0-.2-.01-.39-.02-.58,0-.14.02-.28.02-.42,0-3.09-.77-5.87-2.32-8.35Zm-9.35-8.58c-1.99-1.38-3.5-2.52-4.55-3.45.51-.2,1.07-.31,1.69-.31,2.23,0,3.84,1.84,4.45,4.88-.51-.37-1.04-.75-1.59-1.13Zm-6.65,17.96c2.35,1.65,4.08,3.03,5.18,4.14-.61.3-1.33.47-2.16.47-2.86,0-4.82-2.4-5.39-6.29.74.55,1.53,1.11,2.38,1.69Z"/>
        <polygon class="cls-2" points="58.65 139.34 58.65 140.34 58.65 141.34 58.65 142.34 58.65 143.34 58.65 144.34 58.65 145.34 58.65 146.34 58.65 147.34 58.65 189.96 58.65 190.96 58.65 191.96 58.65 192.96 58.65 193.96 58.65 194.96 58.65 195.96 58.65 196.96 58.65 197.96 58.65 198.96 83.84 198.96 83.84 197.96 83.84 196.96 83.84 195.96 83.84 194.96 83.84 193.96 83.84 192.96 83.84 191.96 83.84 190.96 83.84 189.96 83.84 189.77 83.84 188.77 83.84 187.77 83.84 186.77 83.84 185.77 83.84 184.77 83.84 183.77 83.84 182.77 83.84 181.77 83.84 180.77 69.54 180.77 69.54 177.17 81.6 177.17 81.6 176.17 81.6 175.17 81.6 174.17 81.6 173.17 81.6 172.17 81.6 171.17 81.6 170.17 81.6 169.17 81.6 168.43 81.6 168.17 81.6 167.43 81.6 166.43 81.6 165.43 81.6 164.43 81.6 163.43 81.6 162.43 81.6 161.43 81.6 160.43 81.6 159.43 69.54 159.43 69.54 156.53 83.84 156.53 83.84 155.53 83.84 154.53 83.84 153.53 83.84 152.53 83.84 151.53 83.84 150.53 83.84 149.53 83.84 148.53 83.84 147.53 83.84 147.34 83.84 146.34 83.84 145.34 83.84 144.34 83.84 143.34 83.84 142.34 83.84 141.34 83.84 140.34 83.84 139.34 83.84 138.34 58.65 138.34 58.65 139.34"/>
        <polygon class="cls-2" points="99.92 147.34 99.92 146.34 99.92 145.34 99.92 144.34 99.92 143.34 99.92 142.34 99.92 141.34 99.92 140.34 99.92 139.34 99.92 138.34 88.86 138.34 88.86 139.34 88.86 140.34 88.86 141.34 88.86 142.34 88.86 143.34 88.86 144.34 88.86 145.34 88.86 146.34 88.86 147.34 88.86 189.96 88.86 190.96 88.86 191.96 88.86 192.96 88.86 193.96 88.86 194.96 88.86 195.96 88.86 196.96 88.86 197.96 88.86 198.96 113.29 198.96 113.29 197.96 113.29 196.96 113.29 195.96 113.29 194.96 113.29 193.96 113.29 192.96 113.29 191.96 113.29 190.96 113.29 189.96 113.29 189.77 113.29 188.77 113.29 187.77 113.29 186.77 113.29 185.77 113.29 184.77 113.29 183.77 113.29 182.77 113.29 181.77 113.29 180.77 99.92 180.77 99.92 147.34"/>
        <path class="cls-2" d="m139.64,138.34h-13.91l-10.59,51.63h.21l-.21,1h.21l-.21,1h.21l-.21,1h.21l-.21,1h.21l-.21,1h.21l-.21,1h.21l-.21,1h.21l-.21,1h.21l-.21,1h10.43l2.01-11.59h9.89l2.01,11.59h10.74l-.21-1h.21l-.21-1h.21l-.21-1h.21l-.21-1h.21l-.21-1h.21l-.21-1h.21l-.21-1h.21l-.21-1h.21l-.21-1h.21l-10.59-51.63Zm-7.27,21.29h.23l1.82,10.4h-3.84l1.78-10.4Z"/>
        <path class="cls-2" d="m202.47,138.34h-13.91l-10.59,51.63h.21l-.21,1h.21l-.21,1h.21l-.21,1h.21l-.21,1h.21l-.21,1h.21l-.21,1h.21l-.21,1h.21l-.21,1h.21l-.21,1h10.43l2.01-11.59h9.89l2.01,11.59h10.74l-.21-1h.21l-.21-1h.21l-.21-1h.21l-.21-1h.21l-.21-1h.21l-.21-1h.21l-.21-1h.21l-.21-1h.21l-.21-1h.21l-10.59-51.63Zm-7.26,21.29h.23l1.82,10.4h-3.84l1.78-10.4Z"/>
        <polygon class="cls-2" points="238.02 139.34 238.02 140.34 238.02 141.34 238.02 142.34 238.02 143.34 238.02 144.34 238.02 145.34 238.02 146.34 238.02 147.34 238.02 166.39 237.71 166.39 226.97 138.34 216.54 138.34 216.54 139.34 216.54 140.34 216.54 141.34 216.54 142.34 216.54 143.34 216.54 144.34 216.54 145.34 216.54 146.34 216.54 147.34 216.54 189.96 216.54 190.96 216.54 191.96 216.54 192.96 216.54 193.96 216.54 194.96 216.54 195.96 216.54 196.96 216.54 197.96 216.54 198.96 226.66 198.96 226.66 197.96 226.66 196.96 226.66 195.96 226.66 194.96 226.66 193.96 226.66 192.96 226.66 191.96 226.66 190.96 226.66 189.96 226.66 169.75 226.89 169.75 238.48 198.96 248.15 198.96 248.15 197.96 248.15 196.96 248.15 195.96 248.15 194.96 248.15 193.96 248.15 192.96 248.15 191.96 248.15 190.96 248.15 189.96 248.15 147.34 248.15 146.34 248.15 145.34 248.15 144.34 248.15 143.34 248.15 142.34 248.15 141.34 248.15 140.34 248.15 139.34 248.15 138.34 238.02 138.34 238.02 139.34"/>
      </g>
      <g>
        <path class="cls-1" d="m56.48,57.4h-16.15l-3.01-9.12h-17.7l-3.01,9.12H1.07L19.69,5.77h18.08l18.7,51.63ZM28.5,22h-.15l-4.95,14.84h10.05l-4.95-14.84Z"/>
        <path class="cls-1" d="m66.92,11.34c0,4.33-1.55,7.88-4.56,10.67-3.01,2.71-6.96,4.1-11.9,4.1v-5.72c4.71-.23,7.65-2.01,7.65-4.71,0-.23,0-.31-.23-.62-.31.23-1,.31-1.62.31-3.94,0-6.72-2.86-6.72-6.96,0-4.56,3.32-7.65,7.96-7.65,5.56,0,9.43,4.41,9.43,10.59Z"/>
        <path class="cls-1" d="m101.31,57.4c-1.31-1.62-1.93-3.01-2.55-6.03l-1.08-5.8c-.62-3.4-2.24-4.71-5.64-4.71h-6.26v16.54h-15.53V5.77h25.04c13.06,0,20.09,5.49,20.09,15.77,0,6.72-4.48,11.82-10.74,12.83v.15c4.41.7,7.19,3.32,8.35,8.19l1.93,8.27c.7,2.78,1.62,4.64,3.4,6.42h-17Zm-7.96-38.95h-7.57v10.28h7.57c3.79,0,5.72-1.78,5.72-5.26s-1.93-5.02-5.72-5.02Z"/>
        <path class="cls-1" d="m171.48,57.4h-16.15l-3.01-9.12h-17.7l-3.01,9.12h-15.53l18.63-51.63h18.09l18.7,51.63Zm-27.98-35.4h-.16l-4.95,14.84h10.05l-4.95-14.84Z"/>
        <path class="cls-1" d="m194.36,38.7v-9.82h23.11v28.52h-10.43l-1.78-5.64c-2.09,4.02-7.57,6.57-14.3,6.57s-12.37-2.4-16.69-7.11c-4.33-4.79-6.49-11.13-6.49-18.94,0-8.27,2.4-14.84,7.26-19.86s11.21-7.57,19.09-7.57c5.64,0,10.51,1.31,14.61,3.94,4.1,2.63,6.72,6.18,8.04,10.59l-15.07,5.8c-.85-4.56-3.48-7.03-7.73-7.03-6.18,0-9.82,5.1-9.82,14.07s3.48,13.53,9.89,13.53c4.64,0,7.5-2.4,7.5-6.11v-.93h-7.19Z"/>
        <path class="cls-1" d="m273.65,57.4h-16.15l-3.01-9.12h-17.7l-3.01,9.12h-15.53l18.63-51.63h18.08l18.7,51.63Zm-27.98-35.4h-.16l-4.95,14.84h10.05l-4.95-14.84Z"/>
        <path class="cls-1" d="m34.57,120.28c-2.86,2.71-6.49,4.02-10.9,4.02-9.04,0-15.07-5.95-15.15-15.23l9.51-2.63c-.08,5.49,2.09,9.04,5.56,9.04,2.78,0,4.41-1.7,4.41-4.71,0-1.31-.46-2.63-1.39-3.79-.93-1.24-2.94-2.94-6.03-5.1-4.56-3.09-7.57-5.8-9.04-8.11-1.47-2.4-2.16-5.02-2.16-7.96,0-4.25,1.39-7.65,4.17-10.36s6.34-4.02,10.74-4.02c8.73,0,13.99,5.33,14.3,14.38l-9.51,2.09c0-4.71-1.85-7.73-4.71-7.73-2.55,0-4.25,1.78-4.25,4.56,0,1.16.46,2.32,1.31,3.48.85,1.08,2.78,2.63,5.8,4.71,4.71,3.25,7.81,6.11,9.35,8.58,1.55,2.47,2.32,5.25,2.32,8.35,0,4.25-1.47,7.73-4.33,10.43Z"/>
        <path class="cls-1" d="m62.94,107.61v-35.55h11.13v34.93c0,11.13-5.56,17.31-15.77,17.31s-15.77-6.18-15.77-17.31v-34.93h11.13v35.55c0,5.25,1.47,7.5,4.64,7.5s4.64-2.32,4.64-7.5Z"/>
        <path class="cls-1" d="m79.55,123.68v-51.63h11.05v42.43h13.37v9.2h-24.42Z"/>
        <path class="cls-1" d="m140.92,123.68h-10.74l-2.01-11.59h-9.89l-2.01,11.59h-10.43l10.59-51.63h13.91l10.59,51.63Zm-17.62-39.34h-.23l-3.32,19.4h6.96l-3.4-19.4Z"/>
        <path class="cls-1" d="m155.52,103.74l4.1-31.69h8.58l4.17,31.69h.31l3.86-31.69h10.51l-8.35,51.63h-10.43l-4.33-30.68h-.31l-4.33,30.68h-10.51l-8.35-51.63h10.9l3.86,31.69h.31Z"/>
        <path class="cls-1" d="m201.43,114.48h14.3v9.2h-25.2v-51.63h25.2v9.2h-14.3v11.9h12.06v8.73h-12.06v12.6Z"/>
        <path class="cls-1" d="m244.4,120.28c-2.86,2.71-6.49,4.02-10.9,4.02-9.04,0-15.07-5.95-15.15-15.23l9.51-2.63c-.08,5.49,2.09,9.04,5.56,9.04,2.78,0,4.41-1.7,4.41-4.71,0-1.31-.46-2.63-1.39-3.79-.93-1.24-2.94-2.94-6.03-5.1-4.56-3.09-7.57-5.8-9.04-8.11-1.47-2.4-2.16-5.02-2.16-7.96,0-4.25,1.39-7.65,4.17-10.36s6.34-4.02,10.74-4.02c8.73,0,13.99,5.33,14.3,14.38l-9.51,2.09c0-4.71-1.86-7.73-4.71-7.73-2.55,0-4.25,1.78-4.25,4.56,0,1.16.46,2.32,1.31,3.48.85,1.08,2.78,2.63,5.8,4.71,4.71,3.25,7.81,6.11,9.35,8.58,1.55,2.47,2.32,5.25,2.32,8.35,0,4.25-1.47,7.73-4.33,10.43Z"/>
        <path class="cls-1" d="m252.74,123.68v-51.63h11.05v51.63h-11.05Z"/>
        <path class="cls-1" d="m50.3,186.56c-2.86,2.71-6.49,4.02-10.9,4.02-9.04,0-15.07-5.95-15.15-15.23l9.51-2.63c-.08,5.49,2.09,9.04,5.56,9.04,2.78,0,4.41-1.7,4.41-4.71,0-1.31-.46-2.63-1.39-3.79-.93-1.24-2.94-2.94-6.03-5.1-4.56-3.09-7.57-5.8-9.04-8.11-1.47-2.4-2.16-5.02-2.16-7.96,0-4.25,1.39-7.65,4.17-10.36s6.34-4.02,10.74-4.02c8.73,0,13.99,5.33,14.3,14.38l-9.51,2.09c0-4.71-1.85-7.73-4.71-7.73-2.55,0-4.25,1.78-4.25,4.56,0,1.16.46,2.32,1.31,3.48.85,1.08,2.78,2.63,5.8,4.71,4.71,3.25,7.81,6.11,9.35,8.58,1.55,2.47,2.32,5.25,2.32,8.35,0,4.25-1.47,7.73-4.33,10.43Z"/>
        <path class="cls-1" d="m69.54,180.77h14.3v9.2h-25.19v-51.63h25.19v9.2h-14.3v11.9h12.06v8.73h-12.06v12.6Z"/>
        <path class="cls-1" d="m88.86,189.96v-51.63h11.05v42.43h13.37v9.2h-24.42Z"/>
        <path class="cls-1" d="m150.23,189.96h-10.74l-2.01-11.59h-9.89l-2.01,11.59h-10.43l10.59-51.63h13.91l10.59,51.63Zm-17.62-39.34h-.23l-3.32,19.4h6.96l-3.4-19.4Z"/>
        <path class="cls-1" d="m169.7,147.53v42.43h-11.13v-42.43h-9.74v-9.2h30.61v9.2h-9.74Z"/>
        <path class="cls-1" d="m213.06,189.96h-10.74l-2.01-11.59h-9.89l-2.01,11.59h-10.43l10.59-51.63h13.91l10.59,51.63Zm-17.62-39.34h-.23l-3.32,19.4h6.96l-3.4-19.4Z"/>
        <path class="cls-1" d="m237.71,166.39h.31v-28.05h10.12v51.63h-9.66l-11.59-29.21h-.23v29.21h-10.12v-51.63h10.43l10.74,28.05Z"/>
      </g>
    </g>
  </g>
</svg>