<?xml version="1.0" encoding="utf-8"?>
<!-- Generator: Adobe Illustrator 27.3.1, SVG Export Plug-In . SVG Version: 6.00 Build 0)  -->
<svg version="1.1" id="Layer_2_00000048470507121719760290000008358685610991312809_"
	 xmlns="http://www.w3.org/2000/svg" xmlns:xlink="http://www.w3.org/1999/xlink" x="0px" y="0px" viewBox="0 0 85.5 93.5"
	 style="enable-background:new 0 0 85.5 93.5;" xml:space="preserve">
<style type="text/css">
	.st0{fill:#FFAF00;}
</style>
<g id="Layer_1-2">
	<g>
		<g>
			<g>
				<path d="M84.8,43.8c0-23.2-18.8-42-42-42l0,0c-23.2,0-42,18.8-42,42l0,0c0,0.2,0,0.3,0,0.5s0,0.3,0,0.5l0,0c0,0.2,0,0.3,0,0.5
					s0,0.3,0,0.5l0,0c0,0.2,0,0.3,0,0.5s0,0.3,0,0.5l0,0c0,0.2,0,0.3,0,0.5s0,0.3,0,0.5l0,0c0,0.2,0,0.3,0,0.5s0,0.3,0,0.5l0,0
					c0,0.2,0,0.3,0,0.5s0,0.3,0,0.5l0,0c0,0.2,0,0.3,0,0.5s0,0.3,0,0.5l0,0c0,23.2,18.8,42,42,42l0,0c23.2,0,42-18.8,42-42l0,0
					c0-0.2,0-0.3,0-0.5s0-0.3,0-0.5l0,0c0-0.2,0-0.3,0-0.5s0-0.3,0-0.5l0,0c0-0.2,0-0.3,0-0.5s0-0.3,0-0.5l0,0c0-0.2,0-0.3,0-0.5
					s0-0.3,0-0.5l0,0c0-0.2,0-0.3,0-0.5s0-0.3,0-0.5l0,0c0-0.2,0-0.3,0-0.5s0-0.3,0-0.5l0,0c0-0.2,0-0.3,0-0.5S84.8,43.9,84.8,43.8
					L84.8,43.8z"/>
				<path d="M42.8,93.5C19.2,93.5,0,74.3,0,50.8v-0.5v-0.5v-0.5v-0.5v-0.5v-0.5v-0.5v-0.5v-0.5v-0.5v-0.5v-0.5v-0.5v-0.5
					C0,20.2,19.2,1,42.8,1s42.8,19.2,42.8,42.8v0.5v0.5v0.5v0.5v0.5v0.5v0.5v0.5v0.5v0.5v0.5v0.5v0.5v0.5
					C85.5,74.3,66.3,93.5,42.8,93.5z M42.8,2.5C20,2.5,1.5,21,1.5,43.8v0.5v0.5v0.5v0.5v0.5v0.5v0.5v0.5v0.5v0.5v0.5v0.5v0.5v0.5
					C1.5,73.5,20,92,42.8,92S84,73.5,84,50.8v-0.5v-0.5v-0.5v-0.5v-0.5v-0.5v-0.5v-0.5v-0.5v-0.5v-0.5v-0.5v-0.5v-0.5
					C84,21,65.5,2.5,42.8,2.5z"/>
			</g>
			<g>
				<g>
					<path class="st0" d="M42.8,0.8L42.8,0.8c23.2,0,42,18.8,42,42l0,0c0,23.2-18.8,42-42,42l0,0c-23.2,0-42-18.8-42-42l0,0
						C0.8,19.6,19.6,0.8,42.8,0.8z"/>
				</g>
				<g>
					<path d="M42.8,85.5C19.2,85.5,0,66.3,0,42.8S19.2,0,42.8,0s42.8,19.2,42.8,42.8S66.3,85.5,42.8,85.5z M42.8,1.5
						C20,1.5,1.5,20,1.5,42.8S20,84,42.8,84S84,65.5,84,42.8S65.5,1.5,42.8,1.5z"/>
				</g>
			</g>
		</g>
		<g>
			<g>
				<rect x="27" y="41.2" width="35.8" height="3"/>
			</g>
			<g>
				<polygon points="43.8,61.7 45.9,59.6 29.1,42.8 45.9,25.9 43.8,23.8 24.8,42.8 				"/>
			</g>
		</g>
	</g>
</g>
</svg>
