<?xml version="1.0" encoding="UTF-8"?>
<svg id="Layer_2" data-name="Layer 2" xmlns="http://www.w3.org/2000/svg" viewBox="0 0 914.87 95.4">
  <defs>
    <style>
      .cls-1, .cls-2 {
        stroke: #000;
        stroke-width: 2px;
      }

      .cls-2 {
        fill: #f4f3d3;
      }
    </style>
  </defs>
  <g id="TFX_Expand" data-name="TFX Expand">
    <g>
      <g>
        <path class="cls-1" d="m342.2,13.95l-.36-1h-.14l-.36-1h-.14l-.36-1h-.14l-.36-1h-.14l-.36-1h-.14l-.36-1h-.14l-.36-1h-.14l-.36-1h-.14l-.36-1h-.14l-.36-1h-.14l-.36-1h-.14l-.36-1h-22.73l-20.05,55.11c.07-1.14.11-2.3.11-3.48,0-8.26-1.56-15.33-4.55-21.13-.16-.34-.33-.67-.5-1-.16-.34-.33-.67-.5-1-.16-.34-.33-.67-.5-1-.16-.34-.33-.67-.5-1-.16-.34-.33-.67-.5-1-.16-.34-.33-.67-.5-1-.16-.34-.33-.67-.5-1-.16-.34-.33-.67-.5-1-.16-.34-.33-.67-.5-1-.16-.34-.33-.67-.5-1-.16-.34-.33-.67-.5-1-6-12.64-18.49-19.5-36.3-19.5h-29.99v79.49h.5v1h.5v1h.5v1h.5v1h.5v1h.5v1h.5v1h.5v1h.5v1h.5v1h.5v1h.5v1h29.99c13.85,0,24.6-4.35,31.51-12.42l-.15.42h.86l-.36,1h.86l-.36,1h.86l-.36,1h.86l-.36,1h.86l-.36,1h.86l-.36,1h.86l-.36,1h.86l-.36,1h.86l-.36,1h.86l-.36,1h.86l-.36,1h.86l-.36,1h19.64l5.71-16.54h27.3l1.57,4.54h.15l.35,1h.15l.35,1h.15l.35,1h.15l.35,1h.15l.35,1h.15l.35,1h.15l.35,1h.15l.35,1h.15l.35,1h.15l.35,1h.15l.35,1h.15l.35,1h20.35l-28.92-79.49h-.14Zm-17.06,36.2l4.47-13.07,4.47,13.07h-8.94Zm-81.81-19.54h9.04c5.93,0,10.65,1.61,14.07,4.7.33,1.94.52,4.02.52,6.27,0,15.11-7.5,23.21-20.71,23.21h-2.93V30.61Z"/>
        <polygon class="cls-1" points="518.45 13.95 517.95 13.95 517.95 12.95 517.45 12.95 517.45 11.95 516.95 11.95 516.95 10.95 516.45 10.95 516.45 9.95 515.95 9.95 515.95 8.95 515.45 8.95 515.45 7.95 514.95 7.95 514.95 6.95 514.45 6.95 514.45 5.95 513.95 5.95 513.95 4.95 513.45 4.95 513.45 3.95 512.95 3.95 512.95 2.95 512.45 2.95 512.45 1.95 465.33 1.95 465.33 16.11 465.83 16.11 465.83 17.11 466.33 17.11 466.33 18.11 466.83 18.11 466.83 19.11 467.33 19.11 467.33 20.11 467.83 20.11 467.83 21.11 468.33 21.11 468.33 22.11 468.83 22.11 468.83 23.11 469.33 23.11 469.33 24.11 469.83 24.11 469.83 25.11 470.33 25.11 470.33 26.11 470.83 26.11 470.83 27.11 471.33 27.11 471.33 28.11 480.32 28.11 480.32 81.45 480.82 81.45 480.82 82.45 481.32 82.45 481.32 83.45 481.82 83.45 481.82 84.45 482.32 84.45 482.32 85.45 482.82 85.45 482.82 86.45 483.32 86.45 483.32 87.45 483.82 87.45 483.82 88.45 484.32 88.45 484.32 89.45 484.82 89.45 484.82 90.45 485.32 90.45 485.32 91.45 485.82 91.45 485.82 92.45 486.32 92.45 486.32 93.45 503.46 93.45 503.46 28.11 518.45 28.11 518.45 13.95"/>
        <path class="cls-1" d="m553.62,13.95l-.21-1h-.29l-.21-1h-.29l-.21-1h-.29l-.21-1h-.29l-.21-1h-.29l-.21-1h-.29l-.21-1h-.29l-.21-1h-.29l-.21-1h-.29l-.21-1h-.29l-.21-1h-.29l-.21-1h-21.42l-16.3,79.49h.71l-.21,1h.71l-.21,1h.71l-.21,1h.71l-.21,1h.71l-.21,1h.71l-.21,1h.71l-.21,1h.71l-.21,1h.71l-.21,1h.71l-.21,1h.71l-.21,1h.71l-.21,1h16.07l3.09-17.85h11.31l1.01,5.85h.33l.17,1h.33l.17,1h.33l.17,1h.33l.17,1h.33l.17,1h.33l.17,1h.33l.17,1h.33l.17,1h.33l.17,1h.33l.17,1h.33l.17,1h.33l.17,1h16.54l-16.3-79.49h-.29Zm-13.95,36.79l1.31-7.66,1.34,7.66h-2.65Z"/>
        <polygon class="cls-1" points="625.67 13.95 624.79 13.95 625.17 12.95 624.29 12.95 624.67 11.95 623.79 11.95 624.17 10.95 623.29 10.95 623.67 9.95 622.79 9.95 623.17 8.95 622.29 8.95 622.67 7.95 621.79 7.95 622.17 6.95 621.29 6.95 621.67 5.95 620.79 5.95 621.17 4.95 620.29 4.95 620.67 3.95 619.79 3.95 620.17 2.95 619.29 2.95 619.67 1.95 601.35 1.95 592.59 26.23 592.59 13.95 592.09 13.95 592.09 12.95 591.59 12.95 591.59 11.95 591.09 11.95 591.09 10.95 590.59 10.95 590.59 9.95 590.09 9.95 590.09 8.95 589.59 8.95 589.59 7.95 589.09 7.95 589.09 6.95 588.59 6.95 588.59 5.95 588.09 5.95 588.09 4.95 587.59 4.95 587.59 3.95 587.09 3.95 587.09 2.95 586.59 2.95 586.59 1.95 569.57 1.95 569.57 81.45 570.07 81.45 570.07 82.45 570.57 82.45 570.57 83.45 571.07 83.45 571.07 84.45 571.57 84.45 571.57 85.45 572.07 85.45 572.07 86.45 572.57 86.45 572.57 87.45 573.07 87.45 573.07 88.45 573.57 88.45 573.57 89.45 574.07 89.45 574.07 90.45 574.57 90.45 574.57 91.45 575.07 91.45 575.07 92.45 575.57 92.45 575.57 93.45 592.59 93.45 592.59 60.48 594.31 60.48 602.18 81.45 602.3 81.45 602.68 82.45 602.8 82.45 603.18 83.45 603.3 83.45 603.68 84.45 603.8 84.45 604.18 85.45 604.3 85.45 604.68 86.45 604.8 86.45 605.18 87.45 605.3 87.45 605.68 88.45 605.8 88.45 606.18 89.45 606.3 89.45 606.68 90.45 606.8 90.45 607.18 91.45 607.3 91.45 607.68 92.45 607.8 92.45 608.18 93.45 626.74 93.45 610.8 52.63 625.67 13.95"/>
        <path class="cls-1" d="m913.65,93.45l-16.3-79.49h-.29l-.21-1h-.29l-.21-1h-.29l-.21-1h-.29l-.21-1h-.29l-.21-1h-.29l-.21-1h-.29l-.21-1h-.29l-.21-1h-.29l-.21-1h-.29l-.21-1h-.29l-.21-1h-.29l-.21-1h-21.42l-11.17,54.47c.02-.86.04-1.72.04-2.61,0-10.9-1.72-19.6-5.11-26.07-.16-.34-.33-.67-.5-1-.16-.34-.33-.67-.5-1-.16-.34-.33-.67-.5-1-.16-.34-.33-.67-.5-1-.16-.34-.33-.67-.5-1-.16-.34-.33-.67-.5-1-.16-.34-.33-.67-.5-1-.16-.34-.33-.67-.5-1-.16-.34-.33-.67-.5-1-.16-.34-.33-.67-.5-1-.16-.34-.33-.67-.5-1-4.71-9.8-13.02-14.8-24.78-14.8h-20.59v79.49h.5v1h.5v1h.5v1h.5v1h.5v1h.5v1h.5v1h.5v1h.5v1h.5v1h.5v1h.5v1h20.59c11.76,0,20.06-4.95,24.78-14.68l-.55,2.68h.71l-.21,1h.71l-.21,1h.71l-.21,1h.71l-.21,1h.71l-.21,1h.71l-.21,1h.71l-.21,1h.71l-.21,1h.71l-.21,1h.71l-.21,1h.71l-.21,1h.71l-.21,1h16.07l3.09-17.85h11.31l1.01,5.85h.33l.17,1h.33l.17,1h.33l.17,1h.33l.17,1h.33l.17,1h.33l.17,1h.33l.17,1h.33l.17,1h.33l.17,1h.33l.17,1h.33l.17,1h.33l.17,1h16.54Zm-30.55-42.7l1.31-7.66,1.34,7.66h-2.65Zm-57.39-22.75h3.57c1.89,0,3.52.37,4.91,1.14.51,3.45.75,7.65.75,12.68,0,16.56-2.59,24-9.23,25.35V27.99Z"/>
        <path class="cls-1" d="m68.36,61.36c-.15-.34-.32-.67-.5-1-.15-.34-.32-.67-.5-1-.15-.34-.32-.67-.5-1-.15-.34-.32-.67-.5-1-.15-.34-.32-.67-.5-1-.15-.34-.32-.67-.5-1-.15-.34-.32-.67-.5-1-.15-.34-.32-.67-.5-1-.15-.34-.32-.67-.5-1-.15-.34-.32-.67-.5-1-.36-.8-.78-1.55-1.25-2.27,3.77-3.19,5.94-8.1,5.94-14.07,0-4.17-.91-7.79-2.64-10.8-.17-.33-.32-.68-.5-1-.17-.33-.32-.68-.5-1-.17-.33-.32-.68-.5-1-.17-.33-.32-.68-.5-1-.17-.33-.32-.68-.5-1-.17-.33-.32-.68-.5-1-.17-.33-.32-.68-.5-1-.17-.33-.32-.68-.5-1-.17-.33-.32-.68-.5-1-.17-.33-.32-.68-.5-1-.17-.33-.32-.68-.5-1-3.58-7.23-11.53-11.26-22.85-11.26H1v79.49h.5v1h.5v1h.5v1h.5v1h.5v1h.5v1h.5v1h.5v1h.5v1h.5v1h.5v1h.5v1h36.42c17.61,0,27.61-8.21,27.61-22.02,0-3.41-.76-6.46-2.16-9.07-.15-.34-.32-.67-.5-1Zm-41.96-1.35h13.21c1.78,0,3.36.2,4.73.58-1.22,4.03-4.9,6.11-10.73,6.11h-7.21v-6.68Zm5.42-24.38h-5.42v-6.68h11.54c1.49,0,2.82.17,4,.48-1.06,4.11-4.54,6.21-10.12,6.21Z"/>
        <polygon class="cls-1" points="133.35 75.79 132.85 75.79 132.85 74.79 132.35 74.79 132.35 73.79 131.85 73.79 131.85 72.79 131.35 72.79 131.35 71.79 130.85 71.79 130.85 70.79 130.35 70.79 130.35 69.79 129.85 69.79 129.85 68.79 129.35 68.79 129.35 67.79 128.85 67.79 128.85 66.79 128.35 66.79 128.35 65.79 127.85 65.79 127.85 64.79 96.73 64.79 96.73 60.84 129.45 60.84 129.45 45.84 128.95 45.84 128.95 44.84 128.45 44.84 128.45 43.84 127.95 43.84 127.95 42.84 127.45 42.84 127.45 41.84 126.95 41.84 126.95 40.84 126.45 40.84 126.45 39.84 125.95 39.84 125.95 38.84 125.45 38.84 125.45 37.84 124.95 37.84 124.95 36.84 124.45 36.84 124.45 35.84 123.95 35.84 123.95 34.84 123.45 34.84 123.45 33.84 96.73 33.84 96.73 30.61 133.62 30.61 133.62 13.95 133.12 13.95 133.12 12.95 132.62 12.95 132.62 11.95 132.12 11.95 132.12 10.95 131.62 10.95 131.62 9.95 131.12 9.95 131.12 8.95 130.62 8.95 130.62 7.95 130.12 7.95 130.12 6.95 129.62 6.95 129.62 5.95 129.12 5.95 129.12 4.95 128.62 4.95 128.62 3.95 128.12 3.95 128.12 2.95 127.62 2.95 127.62 1.95 71.45 1.95 71.45 81.45 71.95 81.45 71.95 82.45 72.45 82.45 72.45 83.45 72.95 83.45 72.95 84.45 73.45 84.45 73.45 85.45 73.95 85.45 73.95 86.45 74.45 86.45 74.45 87.45 74.95 87.45 74.95 88.45 75.45 88.45 75.45 89.45 75.95 89.45 75.95 90.45 76.45 90.45 76.45 91.45 76.95 91.45 76.95 92.45 77.45 92.45 77.45 93.45 133.85 93.45 133.85 76.79 133.35 76.79 133.35 75.79"/>
        <polygon class="cls-1" points="211.89 12.95 211.39 12.95 211.39 11.95 210.89 11.95 210.89 10.95 210.39 10.95 210.39 9.95 209.89 9.95 209.89 8.95 209.39 8.95 209.39 7.95 208.89 7.95 208.89 6.95 208.39 6.95 208.39 5.95 207.89 5.95 207.89 4.95 207.39 4.95 207.39 3.95 206.89 3.95 206.89 2.95 206.39 2.95 206.39 1.95 187.23 1.95 187.23 50.74 187 50.74 155.58 1.95 136.66 1.95 136.66 81.45 137.16 81.45 137.16 82.45 137.66 82.45 137.66 83.45 138.16 83.45 138.16 84.45 138.66 84.45 138.66 85.45 139.16 85.45 139.16 86.45 139.66 86.45 139.66 87.45 140.16 87.45 140.16 88.45 140.66 88.45 140.66 89.45 141.16 89.45 141.16 90.45 141.66 90.45 141.66 91.45 142.16 91.45 142.16 92.45 142.66 92.45 142.66 93.45 161.82 93.45 161.82 44.42 162.06 44.42 194.66 93.45 212.39 93.45 212.39 13.95 211.89 13.95 211.89 12.95"/>
        <path class="cls-1" d="m448.34,92.45l-.65-1h.15l-.65-1h.15l-.65-1h.15l-.65-1h.15l-.65-1h.15l-.65-1h.15l-.65-1h.15l-.65-1h.15l-.65-1h.15l-.65-1h.15l-.65-1h.15l-3.28-5.06c3.89-6.87,6.22-15.07,6.66-23.41l-.57-.15c.02-.28.06-.56.07-.85l-.57-.15c.02-.28.06-.56.07-.85l-.57-.15c.02-.28.06-.56.07-.85l-.57-.15c.02-.28.06-.56.07-.85l-.57-.15c.02-.28.06-.56.07-.85l-.57-.15c.02-.28.06-.56.07-.85l-.57-.15c.02-.28.06-.56.07-.85l-.57-.15c.02-.28.06-.56.07-.85l-.57-.15c.02-.28.06-.56.07-.85l-.57-.15c.02-.28.06-.56.07-.85l-.57-.15c.02-.28.06-.56.07-.85l-.57-.15c.02-.28.06-.56.07-.85l-5.49-1.47c.98-2.42,1.49-5,1.49-7.71,0-3.67-.84-6.93-2.35-9.67-.16-.34-.32-.68-.5-1-.16-.34-.32-.68-.5-1-.16-.34-.32-.68-.5-1-.16-.34-.32-.68-.5-1-.16-.34-.32-.68-.5-1-.16-.34-.32-.68-.5-1-.16-.34-.32-.68-.5-1-.16-.34-.32-.68-.5-1-.16-.34-.32-.68-.5-1-.16-.34-.32-.68-.5-1-.16-.34-.32-.68-.5-1-2.96-6.3-9.28-10.13-17.43-10.13-5.59,0-10.23,1.79-13.92,5.47-3.57,3.69-5.36,8.21-5.36,13.8,0,4.64.91,8.38,3.44,13.32.16.33.33.66.5,1,.16.33.33.66.5,1,.16.33.33.66.5,1,.16.33.33.66.5,1,.03.06.06.13.09.19-7.5,5.35-11.6,12.91-11.6,22,0,4.53.97,8.52,2.74,11.85.16.34.33.67.5,1,.16.34.33.67.5,1,.16.34.33.67.5,1,.16.34.33.67.5,1,.16.34.33.67.5,1,.16.34.33.67.5,1,.16.34.33.67.5,1,.16.34.33.67.5,1,.16.34.33.67.5,1,.16.34.33.67.5,1,.16.34.33.67.5,1,3.41,7.35,10.53,11.76,20.13,11.76,5.36,0,10.59-1.9,14.99-5.36l2.86,4.4h17.02l-.65-1h.15Zm-38.65-32.92l5.23,8.02c-1.65.99-3.39,1.52-5.28,1.52-1.18,0-2.26-.2-3.24-.55.2-3.91,1.26-6.74,3.29-8.99Zm14.71-6.53l-.81-1.26c.5-.31.99-.63,1.46-.95-.2.75-.42,1.48-.65,2.21Z"/>
        <path class="cls-1" d="m695.25,60.15c-.16-.34-.33-.67-.5-1-.16-.34-.33-.67-.5-1-.16-.34-.33-.67-.5-1-.16-.34-.33-.67-.5-1-.16-.34-.33-.67-.5-1-.16-.34-.33-.67-.5-1-.16-.34-.33-.67-.5-1-.16-.34-.33-.67-.5-1-.16-.34-.33-.67-.5-1-.16-.34-.33-.67-.5-1-.01-.03-.02-.06-.04-.09,3.94-3.13,6.02-8.37,6.02-15.28,0-4.42-.87-8.17-2.53-11.24-.16-.34-.32-.67-.5-1-.16-.34-.32-.67-.5-1-.16-.34-.32-.67-.5-1-.16-.34-.32-.67-.5-1-.16-.34-.32-.67-.5-1-.16-.34-.32-.67-.5-1-.16-.34-.32-.67-.5-1-.16-.34-.32-.67-.5-1-.16-.34-.32-.67-.5-1-.16-.34-.32-.67-.5-1-.16-.34-.32-.67-.5-1-3.19-6.89-10.13-10.59-20.46-10.59h-22.02v79.49h.5v1h.5v1h.5v1h.5v1h.5v1h.5v1h.5v1h.5v1h.5v1h.5v1h.5v1h.5v1h22.25c15.71,0,24.16-7.74,24.16-21.66,0-4.15-.83-7.72-2.39-10.64-.16-.34-.33-.67-.5-1Zm-27.34-.62h5c.86,0,1.64.08,2.37.21-.43,5.43-2.77,7.92-7.37,8.22v-8.44Zm0-24.27v-7.86h4.05c.72,0,1.38.04,2,.13-.42,4.82-2.28,7.17-6.04,7.73Z"/>
        <polygon class="cls-1" points="742.98 12.95 742.48 12.95 742.48 11.95 741.98 11.95 741.98 10.95 741.48 10.95 741.48 9.95 740.98 9.95 740.98 8.95 740.48 8.95 740.48 7.95 739.98 7.95 739.98 6.95 739.48 6.95 739.48 5.95 738.98 5.95 738.98 4.95 738.48 4.95 738.48 3.95 737.98 3.95 737.98 2.95 737.48 2.95 737.48 1.95 698.68 1.95 698.68 81.45 699.18 81.45 699.18 82.45 699.68 82.45 699.68 83.45 700.18 83.45 700.18 84.45 700.68 84.45 700.68 85.45 701.18 85.45 701.18 86.45 701.68 86.45 701.68 87.45 702.18 87.45 702.18 88.45 702.68 88.45 702.68 89.45 703.18 89.45 703.18 90.45 703.68 90.45 703.68 91.45 704.18 91.45 704.18 92.45 704.68 92.45 704.68 93.45 743.48 93.45 743.48 79.28 742.98 79.28 742.98 78.28 742.48 78.28 742.48 77.28 741.98 77.28 741.98 76.28 741.48 76.28 741.48 75.28 740.98 75.28 740.98 74.28 740.48 74.28 740.48 73.28 739.98 73.28 739.98 72.28 739.48 72.28 739.48 71.28 738.98 71.28 738.98 70.28 738.48 70.28 738.48 69.28 737.98 69.28 737.98 68.28 737.48 68.28 737.48 67.28 721.46 67.28 721.46 59.89 740.03 59.89 740.03 46.44 739.53 46.44 739.53 45.44 739.03 45.44 739.03 44.44 738.53 44.44 738.53 43.44 738.03 43.44 738.03 42.44 737.53 42.44 737.53 41.44 737.03 41.44 737.03 40.44 736.53 40.44 736.53 39.44 736.03 39.44 736.03 38.44 735.53 38.44 735.53 37.44 735.03 37.44 735.03 36.44 734.53 36.44 734.53 35.44 734.03 35.44 734.03 34.44 721.46 34.44 721.46 28.11 743.48 28.11 743.48 13.95 742.98 13.95 742.98 12.95"/>
        <polygon class="cls-1" points="799.38 12.95 798.88 12.95 798.88 11.95 798.38 11.95 798.38 10.95 797.88 10.95 797.88 9.95 797.38 9.95 797.38 8.95 796.88 8.95 796.88 7.95 796.38 7.95 796.38 6.95 795.88 6.95 795.88 5.95 795.38 5.95 795.38 4.95 794.88 4.95 794.88 3.95 794.38 3.95 794.38 2.95 793.88 2.95 793.88 1.95 778.29 1.95 778.29 42.72 767.28 13.95 767.16 13.95 766.78 12.95 766.66 12.95 766.28 11.95 766.16 11.95 765.78 10.95 765.66 10.95 765.28 9.95 765.16 9.95 764.78 8.95 764.66 8.95 764.28 7.95 764.16 7.95 763.78 6.95 763.66 6.95 763.28 5.95 763.16 5.95 762.78 4.95 762.66 4.95 762.28 3.95 762.16 3.95 761.78 2.95 761.66 2.95 761.28 1.95 745.21 1.95 745.21 81.45 745.71 81.45 745.71 82.45 746.21 82.45 746.21 83.45 746.71 83.45 746.71 84.45 747.21 84.45 747.21 85.45 747.71 85.45 747.71 86.45 748.21 86.45 748.21 87.45 748.71 87.45 748.71 88.45 749.21 88.45 749.21 89.45 749.71 89.45 749.71 90.45 750.21 90.45 750.21 91.45 750.71 91.45 750.71 92.45 751.21 92.45 751.21 93.45 766.8 93.45 766.8 50.68 779.01 81.45 779.11 81.45 779.51 82.45 779.61 82.45 780.01 83.45 780.11 83.45 780.51 84.45 780.61 84.45 781.01 85.45 781.11 85.45 781.51 86.45 781.61 86.45 782.01 87.45 782.11 87.45 782.51 88.45 782.61 88.45 783.01 89.45 783.11 89.45 783.51 90.45 783.61 90.45 784.01 91.45 784.11 91.45 784.51 92.45 784.61 92.45 785.01 93.45 799.88 93.45 799.88 13.95 799.38 13.95 799.38 12.95"/>
      </g>
      <g>
        <path class="cls-2" d="m48.13,40.75v.24c10.47,1.43,16.9,8.45,16.9,18.45,0,13.8-10,22.02-27.61,22.02H1V1.95h36.06c15.71,0,24.99,7.74,24.99,21.06,0,9.4-5.35,16.18-13.92,17.73Zm-27.73-23.8v18.68h11.42c6.78,0,10.47-3.09,10.47-9.16s-3.57-9.52-10.35-9.52h-11.54Zm0,31.06v18.68h13.21c7.26,0,11.19-3.21,11.19-9.4s-3.93-9.28-11.19-9.28h-13.21Z"/>
        <path class="cls-2" d="m90.73,64.79h37.13v16.66h-56.41V1.95h56.17v16.66h-36.89v15.23h32.73v14.99h-32.73v15.95Z"/>
        <path class="cls-2" d="m187,50.74h.24V1.95h19.16v79.49h-17.73l-32.61-49.03h-.24v49.03h-19.16V1.95h18.92l31.42,48.79Z"/>
        <path class="cls-2" d="m217.34,81.45V1.95h29.99c25.7,0,40.34,14.28,40.34,39.63s-14.99,39.87-40.34,39.87h-29.99Zm19.99-62.83v46.17h8.93c13.21,0,20.71-8.09,20.71-23.21s-7.26-22.97-20.59-22.97h-9.04Z"/>
        <path class="cls-2" d="m365.26,81.45h-20.35l-5.71-16.54h-29.16l-5.71,16.54h-19.64L313.61,1.95h22.73l28.92,79.49Zm-40.58-58.79h-.24l-9.4,27.49h19.04l-9.4-27.49Z"/>
        <path class="cls-2" d="m442.84,81.45h-17.02l-2.86-4.4c-4.4,3.45-9.64,5.36-14.99,5.36-13.69,0-22.37-8.93-22.37-22.61,0-9.16,4.17-16.78,11.78-22.13-4.28-7.14-5.71-11.54-5.71-17.37s1.79-10.12,5.36-13.8c3.69-3.69,8.33-5.47,13.92-5.47,11.42,0,19.28,7.5,19.28,18.8,0,8.45-4.88,15.59-13.92,20.71l8.09,12.5c1.55-4.76,2.38-10,2.5-15.59l13.33,3.57c-.48,8.93-3.09,17.73-7.5,24.87l10.12,15.59Zm-33.2-12.38c2.38,0,4.52-.83,6.55-2.38l-12.5-19.16c-2.26,2.5-3.33,5.71-3.33,10.35,0,6.78,3.57,11.19,9.28,11.19Zm-3.21-48.91c0,3.21.83,6.19,3.57,10.59,4.4-3.21,6.43-6.43,6.43-10.83,0-3.81-2.02-6.31-5-6.31s-5,2.62-5,6.55Z"/>
        <path class="cls-2" d="m497.46,16.11v65.33h-17.14V16.11h-14.99V1.95h47.12v14.16h-14.99Z"/>
        <path class="cls-2" d="m564.22,81.45h-16.54l-3.09-17.85h-15.23l-3.09,17.85h-16.07L526.5,1.95h21.42l16.3,79.49Zm-27.13-60.57h-.36l-5.12,29.87h10.71l-5.24-29.87Z"/>
        <path class="cls-2" d="m604.8,40.63l15.95,40.82h-18.56l-12.38-32.96h-3.21v32.96h-17.02V1.95h17.02v32.01h3.21l11.54-32.01h18.33l-14.88,38.68Z"/>
        <path class="cls-2" d="m678.69,40.75v.24c8.57,1.9,13.45,8.69,13.45,18.8,0,13.92-8.45,21.66-24.16,21.66h-22.25V1.95h22.02c14.64,0,22.49,7.38,22.49,20.83,0,9.64-4.05,16.07-11.54,17.97Zm-16.78-25.35v19.99h4.05c5.71,0,8.09-2.86,8.09-10.12s-2.38-9.88-8.09-9.88h-4.05Zm0,32.13v20.47h5c5.83,0,8.45-2.98,8.45-10.23s-2.62-10.23-8.45-10.23h-5Z"/>
        <path class="cls-2" d="m715.46,67.28h22.02v14.16h-38.8V1.95h38.8v14.16h-22.02v18.33h18.56v13.45h-18.56v19.4Z"/>
        <path class="cls-2" d="m777.82,45.15h.48V1.95h15.59v79.49h-14.88l-17.85-44.98h-.36v44.98h-15.59V1.95h16.07l16.54,43.2Z"/>
        <path class="cls-2" d="m802.81,81.45V1.95h20.59c19.4,0,29.39,13.57,29.39,39.87s-10,39.63-29.39,39.63h-20.59Zm16.9-65.45v51.41h3.57c8.45,0,11.66-7.14,11.66-25.59s-3.21-25.82-11.66-25.82h-3.57Z"/>
        <path class="cls-2" d="m907.65,81.45h-16.54l-3.09-17.85h-15.23l-3.09,17.85h-16.07L869.92,1.95h21.42l16.3,79.49Zm-27.13-60.57h-.36l-5.12,29.87h10.71l-5.24-29.87Z"/>
      </g>
    </g>
  </g>
</svg>