<?xml version="1.0" encoding="UTF-8"?>
<svg id="Layer_2" data-name="Layer 2" xmlns="http://www.w3.org/2000/svg" viewBox="0 0 720.25 382.05">
  <defs>
    <style>
      .cls-1, .cls-2 {
        stroke: #000;
        stroke-miterlimit: 10;
        stroke-width: 3px;
      }

      .cls-2 {
        fill: #f4f3d3;
      }
    </style>
  </defs>
  <g id="TFX_Expand" data-name="TFX Expand">
    <g>
      <g>
        <path class="cls-1" d="m54.54,81.23c0-.19-.01-.37-.02-.56,0-.15.02-.29.02-.44,0-.19-.01-.37-.02-.56,0-.15.02-.29.02-.44,0-.19-.01-.37-.02-.56,0-.15.02-.29.02-.44,0-.19-.01-.37-.02-.56,0-.15.02-.29.02-.44,0-.19-.01-.37-.02-.56,0-.15.02-.29.02-.44,0-.19-.01-.37-.02-.56,0-.15.02-.29.02-.44,0-.19-.01-.37-.02-.56,0-.15.02-.29.02-.44,0-.19-.01-.37-.02-.56,0-.15.02-.29.02-.44,0-.19-.01-.37-.02-.56,0-.15.02-.29.02-.44,0-.19-.01-.37-.02-.56,0-.15.02-.29.02-.44,0-.19-.01-.37-.02-.56,0-.15.02-.29.02-.44,0-.19-.01-.37-.02-.56,0-.15.02-.29.02-.44,0-6.98-2.04-12.55-5.8-16.37,2.38-3.53,3.63-8.23,3.63-13.93,0-.14-.01-.27-.02-.42,0-.2.02-.38.02-.58,0-.14-.01-.27-.02-.42,0-.2.02-.38.02-.58,0-.14-.01-.27-.02-.42,0-.2.02-.38.02-.58,0-.14-.01-.27-.02-.42,0-.2.02-.38.02-.58,0-.14-.01-.27-.02-.42,0-.2.02-.38.02-.58,0-.14-.01-.27-.02-.42,0-.2.02-.38.02-.58,0-.14-.01-.27-.02-.42,0-.2.02-.38.02-.58,0-.14-.01-.27-.02-.42,0-.2.02-.38.02-.58,0-.14-.01-.27-.02-.42,0-.2.02-.38.02-.58,0-.14-.01-.27-.02-.42,0-.2.02-.38.02-.58,0-.14-.01-.27-.02-.42,0-.2.02-.38.02-.58,0-.14-.01-.27-.02-.42,0-.2.02-.38.02-.58,0-15.37-8.98-23.8-25.7-23.8H1.5v102.85h25.43c17.95,0,27.61-8.84,27.61-24.75ZM24.62,30.5c4.6,0,7.31,1.57,8.5,5.35-1.2,3.87-3.9,5.5-8.5,5.5h-4.62v-10.85h4.62Zm1.09,36.72c4.72,0,7.59,1.79,8.87,5.73-1.28,3.95-4.15,5.67-8.87,5.67h-5.71v-11.39h5.71Z"/>
        <polygon class="cls-1" points="82.83 104.98 82.83 103.98 82.83 102.98 82.83 101.98 82.83 100.98 82.83 99.98 82.83 98.98 82.83 97.98 82.83 96.98 82.83 95.98 82.83 94.98 82.83 93.98 82.83 15.13 82.83 14.13 82.83 13.13 82.83 12.13 82.83 11.13 82.83 10.13 82.83 9.13 82.83 8.13 82.83 7.13 82.83 6.13 82.83 5.13 82.83 4.13 82.83 3.13 63.38 3.13 63.38 4.13 63.38 5.13 63.38 6.13 63.38 7.13 63.38 8.13 63.38 9.13 63.38 10.13 63.38 11.13 63.38 12.13 63.38 13.13 63.38 14.13 63.38 15.13 63.38 93.98 63.38 94.98 63.38 95.98 63.38 96.98 63.38 97.98 63.38 98.98 63.38 99.98 63.38 100.98 63.38 101.98 63.38 102.98 63.38 103.98 63.38 104.98 63.38 105.98 82.83 105.98 82.83 104.98"/>
        <path class="cls-1" d="m122,107.07c14.82,0,23.94-10.2,25.43-28.02l-.1-.02c.03-.32.07-.65.1-.98l-.1-.02c.03-.32.07-.65.1-.98l-.1-.02c.03-.32.07-.65.1-.98l-.1-.02c.03-.32.07-.65.1-.98l-.1-.02c.03-.32.07-.65.1-.98l-.1-.02c.03-.32.07-.65.1-.98l-.1-.02c.03-.32.07-.65.1-.98l-.1-.02c.03-.32.07-.65.1-.98l-.1-.02c.03-.32.07-.65.1-.98l-.1-.02c.03-.32.07-.65.1-.98l-.1-.02c.03-.32.07-.65.1-.98l-.1-.02c.03-.32.07-.65.1-.98l-17.82-4.62c-.54,10.74-2.99,15.78-7.75,15.78-5.72,0-8.83-7.85-9.41-23.84.58-15.86,3.57-23.46,9.28-23.46,4.9,0,7.34,5.03,7.75,15.5l17.82-4.62c-.03-.33-.06-.65-.1-.98l.1-.02c-.03-.33-.06-.65-.1-.98l.1-.02c-.03-.33-.06-.65-.1-.98l.1-.02c-.03-.33-.06-.65-.1-.98l.1-.02c-.03-.33-.06-.65-.1-.98l.1-.02c-.03-.33-.06-.65-.1-.98l.1-.02c-.03-.33-.06-.65-.1-.98l.1-.02c-.03-.33-.06-.65-.1-.98l.1-.02c-.03-.33-.06-.65-.1-.98l.1-.02c-.03-.33-.06-.65-.1-.98l.1-.02c-.03-.33-.06-.65-.1-.98l.1-.02c-.03-.33-.06-.65-.1-.98l.1-.02c-1.5-17.82-10.47-27.75-25.3-27.75-19.18,0-29.78,16.46-29.78,46.38,0,.17,0,.33,0,.5,0,.17,0,.33,0,.5s0,.33,0,.5c0,.17,0,.33,0,.5s0,.33,0,.5c0,.17,0,.33,0,.5s0,.33,0,.5c0,.17,0,.33,0,.5s0,.33,0,.5c0,.17,0,.33,0,.5s0,.33,0,.5c0,.17,0,.33,0,.5s0,.33,0,.5c0,.17,0,.33,0,.5s0,.33,0,.5c0,.17,0,.33,0,.5s0,.33,0,.5c0,.17,0,.33,0,.5s0,.33,0,.5c0,.17,0,.33,0,.5s0,.33,0,.5c0,.17,0,.33,0,.5s0,.33,0,.5c0,.17,0,.33,0,.5,0,30.06,10.61,46.65,29.78,46.65Z"/>
        <path class="cls-1" d="m169.87,105.98l3.54-20.4h17.41l3.54,20.4h18.9l-.21-1h.21l-.21-1h.21l-.21-1h.21l-.21-1h.21l-.21-1h.21l-.21-1h.21l-.21-1h.21l-.21-1h.21l-.21-1h.21l-.21-1h.21l-.21-1h.21l-.21-1h.21L194.62,3.13h-24.48l-18.63,90.85h.21l-.21,1h.21l-.21,1h.21l-.21,1h.21l-.21,1h.21l-.21,1h.21l-.21,1h.21l-.21,1h.21l-.21,1h.21l-.21,1h.21l-.21,1h.21l-.21,1h.21l-.21,1h18.36Zm12.38-69.22l3.88,22.14h-8.08l3.79-22.14h.41Z"/>
        <path class="cls-1" d="m240.04,104.98v-33.68h5.03c5.03,0,7.34,2.31,8.3,8.16l1.9,16.73c.68,4.76,1.63,7.75,2.86,9.79h20.4c-.21-.32-.41-.66-.61-1h.61c-.21-.32-.41-.66-.61-1h.61c-.21-.32-.41-.66-.61-1h.61c-.21-.32-.41-.66-.61-1h.61c-.21-.32-.41-.66-.61-1h.61c-.21-.32-.41-.66-.61-1h.61c-.21-.32-.41-.66-.61-1h.61c-.21-.32-.41-.66-.61-1h.61c-.21-.32-.41-.66-.61-1h.61c-.21-.32-.41-.66-.61-1h.61c-.21-.32-.41-.66-.61-1h.61c-.21-.32-.41-.66-.61-1h.61c-1.77-2.72-2.99-5.98-3.54-10.34l-2.45-17.82c-.41-2.94-1.25-5.46-2.49-7.55,3.79-3.97,6.02-9.81,6.02-16.77,0-.17-.02-.32-.02-.49,0-.17.02-.34.02-.51s-.02-.32-.02-.49c0-.17.02-.34.02-.51s-.02-.32-.02-.49c0-.17.02-.34.02-.51s-.02-.32-.02-.49c0-.17.02-.34.02-.51s-.02-.32-.02-.49c0-.17.02-.34.02-.51s-.02-.32-.02-.49c0-.17.02-.34.02-.51s-.02-.32-.02-.49c0-.17.02-.34.02-.51s-.02-.32-.02-.49c0-.17.02-.34.02-.51s-.02-.32-.02-.49c0-.17.02-.34.02-.51s-.02-.32-.02-.49c0-.17.02-.34.02-.51s-.02-.32-.02-.49c0-.17.02-.34.02-.51s-.02-.32-.02-.49c0-.17.02-.34.02-.51,0-17.41-9.38-26.38-27.74-26.38h-27.61v102.85h19.31v-1Zm5.85-74.07c5.37,0,8.4,1.97,9.59,6.79-1.19,4.82-4.19,6.78-9.46,6.78h-5.98v-13.57h5.85Z"/>
        <path class="cls-1" d="m300.29,105.98l3.54-20.4h17.41l3.54,20.4h18.9l-.21-1h.21l-.21-1h.21l-.21-1h.21l-.21-1h.21l-.21-1h.21l-.21-1h.21l-.21-1h.21l-.21-1h.21l-.21-1h.21l-.21-1h.21l-.21-1h.21l-.21-1h.21L325.04,3.13h-24.48l-18.63,90.85h.21l-.21,1h.21l-.21,1h.21l-.21,1h.21l-.21,1h.21l-.21,1h.21l-.21,1h.21l-.21,1h.21l-.21,1h.21l-.21,1h.21l-.21,1h.21l-.21,1h.21l-.21,1h18.36Zm12.38-69.22l3.88,22.14h-8.08l3.79-22.14h.41Z"/>
        <path class="cls-1" d="m409.76,107.61c11.56,0,20.94-2.72,28.15-8.16,7.21-5.44,10.88-12.78,10.88-21.9,0-.18,0-.35-.01-.53,0-.16.01-.31.01-.47,0-.18,0-.35-.01-.53,0-.16.01-.31.01-.47,0-.18,0-.35-.01-.53,0-.16.01-.31.01-.47,0-.18,0-.35-.01-.53,0-.16.01-.31.01-.47,0-.18,0-.35-.01-.53,0-.16.01-.31.01-.47,0-.18,0-.35-.01-.53,0-.16.01-.31.01-.47,0-.18,0-.35-.01-.53,0-.16.01-.31.01-.47,0-.18,0-.35-.01-.53,0-.16.01-.31.01-.47,0-.18,0-.35-.01-.53,0-.16.01-.31.01-.47,0-.18,0-.35-.01-.53,0-.16.01-.31.01-.47,0-.18,0-.35-.01-.53,0-.16.01-.31.01-.47,0-.18,0-.35-.01-.53,0-.16.01-.31.01-.47,0-9.25-3.26-16.18-9.79-20.94-2.18-1.54-4.74-2.83-7.65-4l16.63-4.8c-.08-.31-.2-.61-.29-.92l.29-.08c-.08-.31-.2-.61-.29-.92l.29-.08c-.08-.31-.2-.61-.29-.92l.29-.08c-.08-.31-.2-.61-.29-.92l.29-.08c-.08-.31-.2-.61-.29-.92l.29-.08c-.08-.31-.2-.61-.29-.92l.29-.08c-.08-.31-.2-.61-.29-.92l.29-.08c-.08-.31-.2-.61-.29-.92l.29-.08c-.08-.31-.2-.61-.29-.92l.29-.08c-.08-.31-.2-.61-.29-.92l.29-.08c-.08-.31-.2-.61-.29-.92l.29-.08c-.08-.31-.2-.61-.29-.92l.29-.08c-3.94-14.69-16.73-22.3-36.86-22.3-10.88,0-19.86,2.86-26.93,8.43-7.07,5.58-10.61,12.92-10.61,22.03,0,.18,0,.35.01.52,0,.16-.01.32-.01.48,0,.18,0,.35.01.52,0,.16-.01.32-.01.48,0,.18,0,.35.01.52,0,.16-.01.32-.01.48,0,.18,0,.35.01.52,0,.16-.01.32-.01.48,0,.18,0,.35.01.52,0,.16-.01.32-.01.48,0,.18,0,.35.01.52,0,.16-.01.32-.01.48,0,.18,0,.35.01.52,0,.16-.01.32-.01.48,0,.18,0,.35.01.52,0,.16-.01.32-.01.48,0,.18,0,.35.01.52,0,.16-.01.32-.01.48,0,.18,0,.35.01.52,0,.16-.01.32-.01.48,0,.18,0,.35.01.52,0,.16-.01.32-.01.48,0,.18,0,.35.01.52,0,.16-.01.32-.01.48,0,9.25,3.26,16.05,9.93,20.54,1.28.83,2.66,1.61,4.16,2.36l-17.35,7.54c.11.29.24.56.36.84l-.36.16c.11.29.24.56.36.84l-.36.16c.11.29.24.56.36.84l-.36.16c.11.29.24.56.36.84l-.36.16c.11.29.24.56.36.84l-.36.16c.11.29.24.56.36.84l-.36.16c.11.29.24.56.36.84l-.36.16c.11.29.24.56.36.84l-.36.16c.11.29.24.56.36.84l-.36.16c.11.29.24.56.36.84l-.36.16c.11.29.24.56.36.84l-.36.16c.11.29.24.56.36.84l-.36.16c5.03,13.46,19.45,21.22,39.44,21.22Zm-4.08-35.5c3.51.67,6.27,1.34,8.35,1.99-1.21.27-2.55.42-4,.42-4.94,0-9.17-1.5-12.08-4.1,2.22.55,4.78,1.11,7.73,1.68Zm10.74-35.39c-3.46-.68-6.22-1.35-8.33-2.01.92-.18,1.93-.27,3.02-.27,3.78,0,7.02,1.1,9.28,3.09-1.25-.27-2.57-.54-3.97-.81Z"/>
        <path class="cls-1" d="m468.38,94.96c8.02,8.43,19.04,12.65,32.78,12.65s24.62-4.22,32.64-12.65c8.02-8.57,12.1-19.99,12.1-34.41,0-.17,0-.33,0-.5,0-.17,0-.33,0-.5s0-.33,0-.5c0-.17,0-.33,0-.5s0-.33,0-.5c0-.17,0-.33,0-.5s0-.33,0-.5c0-.17,0-.33,0-.5s0-.33,0-.5c0-.17,0-.33,0-.5s0-.33,0-.5c0-.17,0-.33,0-.5s0-.33,0-.5c0-.17,0-.33,0-.5s0-.33,0-.5c0-.17,0-.33,0-.5s0-.33,0-.5c0-.17,0-.33,0-.5s0-.33,0-.5c0-.17,0-.33,0-.5s0-.33,0-.5c0-.17,0-.33,0-.5s0-.33,0-.5c0-.17,0-.33,0-.5,0-14.42-4.08-25.84-12.1-34.27-8.02-8.57-18.9-12.78-32.64-12.78s-24.75,4.22-32.78,12.78c-8.02,8.43-12.1,19.86-12.1,34.27,0,.17,0,.33,0,.5,0,.17,0,.33,0,.5s0,.33,0,.5c0,.17,0,.33,0,.5s0,.33,0,.5c0,.17,0,.33,0,.5s0,.33,0,.5c0,.17,0,.33,0,.5s0,.33,0,.5c0,.17,0,.33,0,.5s0,.33,0,.5c0,.17,0,.33,0,.5s0,.33,0,.5c0,.17,0,.33,0,.5s0,.33,0,.5c0,.17,0,.33,0,.5s0,.33,0,.5c0,.17,0,.33,0,.5s0,.33,0,.5c0,.17,0,.33,0,.5s0,.33,0,.5c0,.17,0,.33,0,.5s0,.33,0,.5c0,.17,0,.33,0,.5,0,14.42,4.08,25.84,12.1,34.41Zm32.78-22.61c-8.76,0-14.29-6.43-15.69-17.8,1.39-11.37,6.93-17.8,15.69-17.8s14.29,6.43,15.69,17.8c-1.39,11.37-6.93,17.8-15.69,17.8Z"/>
        <path class="cls-1" d="m573.5,105.98l5.3-16.05h31.14l5.3,16.05h28.42l-.36-1h.36l-.36-1h.36l-.36-1h.36l-.36-1h.36l-.36-1h.36l-.36-1h.36l-.36-1h.36l-.36-1h.36l-.36-1h.36l-.36-1h.36l-.36-1h.36l-.36-1h.36L610.77,3.13h-31.82l-32.78,90.85h.36l-.36,1h.36l-.36,1h.36l-.36,1h.36l-.36,1h.36l-.36,1h.36l-.36,1h.36l-.36,1h.36l-.36,1h.36l-.36,1h.36l-.36,1h.36l-.36,1h.36l-.36,1h27.34Zm20.94-62.29l4.7,14.11h-9.68l4.7-14.11h.27Z"/>
        <polygon class="cls-1" points="19.59 234.58 19.59 233.58 19.59 232.58 19.59 231.58 19.59 230.58 19.59 229.58 19.59 228.58 19.59 227.58 19.59 226.58 19.59 225.58 19.59 224.58 19.59 223.58 19.59 195.6 19.59 194.6 19.59 193.6 19.59 192.6 19.59 191.6 19.59 190.6 19.59 189.6 19.59 188.6 19.59 187.6 19.59 186.6 19.59 185.6 19.59 184.6 19.59 183.6 19.5 177.78 19.86 177.78 28.97 212.6 38.63 212.6 47.88 177.78 48.1 177.78 48.01 183.6 48.01 184.6 48.01 185.6 48.01 186.6 48.01 187.6 48.01 188.6 48.01 189.6 48.01 190.6 48.01 191.6 48.01 192.6 48.01 193.6 48.01 194.6 48.01 195.6 48.01 223.58 48.01 224.58 48.01 225.58 48.01 226.58 48.01 227.58 48.01 228.58 48.01 229.58 48.01 230.58 48.01 231.58 48.01 232.58 48.01 233.58 48.01 234.58 48.01 235.58 66.24 235.58 66.24 234.58 66.24 233.58 66.24 232.58 66.24 231.58 66.24 230.58 66.24 229.58 66.24 228.58 66.24 227.58 66.24 226.58 66.24 225.58 66.24 224.58 66.24 223.58 66.24 144.73 66.24 143.73 66.24 142.73 66.24 141.73 66.24 140.73 66.24 139.73 66.24 138.73 66.24 137.73 66.24 136.73 66.24 135.73 66.24 134.73 66.24 133.73 66.24 132.73 45.56 132.73 34.28 171.49 33.87 171.49 22.72 132.73 1.5 132.73 1.5 133.73 1.5 134.73 1.5 135.73 1.5 136.73 1.5 137.73 1.5 138.73 1.5 139.73 1.5 140.73 1.5 141.73 1.5 142.73 1.5 143.73 1.5 144.73 1.5 223.58 1.5 224.58 1.5 225.58 1.5 226.58 1.5 227.58 1.5 228.58 1.5 229.58 1.5 230.58 1.5 231.58 1.5 232.58 1.5 233.58 1.5 234.58 1.5 235.58 19.59 235.58 19.59 234.58"/>
        <polygon class="cls-1" points="122.27 160.92 122.27 159.92 122.27 158.92 122.27 157.92 122.27 156.92 122.27 155.92 122.27 154.92 122.27 153.92 122.27 152.92 122.27 151.92 122.27 150.92 122.27 149.92 122.27 148.92 122.27 144.73 122.27 143.73 122.27 142.73 122.27 141.73 122.27 140.73 122.27 139.73 122.27 138.73 122.27 137.73 122.27 136.73 122.27 135.73 122.27 134.73 122.27 133.73 122.27 132.73 77.93 132.73 77.93 133.73 77.93 134.73 77.93 135.73 77.93 136.73 77.93 137.73 77.93 138.73 77.93 139.73 77.93 140.73 77.93 141.73 77.93 142.73 77.93 143.73 77.93 144.73 77.93 223.58 77.93 224.58 77.93 225.58 77.93 226.58 77.93 227.58 77.93 228.58 77.93 229.58 77.93 230.58 77.93 231.58 77.93 232.58 77.93 233.58 77.93 234.58 77.93 235.58 122.27 235.58 122.27 234.58 122.27 233.58 122.27 232.58 122.27 231.58 122.27 230.58 122.27 229.58 122.27 228.58 122.27 227.58 122.27 226.58 122.27 225.58 122.27 224.58 122.27 223.58 122.27 219.4 122.27 218.4 122.27 217.4 122.27 216.4 122.27 215.4 122.27 214.4 122.27 213.4 122.27 212.4 122.27 211.4 122.27 210.4 122.27 209.4 122.27 208.4 122.27 207.4 97.11 207.4 97.11 197.23 118.32 197.23 118.32 196.23 118.32 195.23 118.32 194.23 118.32 193.23 118.32 192.23 118.32 191.23 118.32 190.23 118.32 189.23 118.32 188.23 118.32 187.23 118.32 186.23 118.32 185.23 118.32 181.86 118.32 180.86 118.32 179.86 118.32 178.86 118.32 177.86 118.32 176.86 118.32 175.86 118.32 174.86 118.32 173.86 118.32 172.86 118.32 171.86 118.32 170.86 118.32 169.86 97.11 169.86 97.11 160.92 122.27 160.92"/>
        <polygon class="cls-1" points="228.62 160.92 228.62 159.92 228.62 158.92 228.62 157.92 228.62 156.92 228.62 155.92 228.62 154.92 228.62 153.92 228.62 152.92 228.62 151.92 228.62 150.92 228.62 149.92 228.62 148.92 228.62 144.73 228.62 143.73 228.62 142.73 228.62 141.73 228.62 140.73 228.62 139.73 228.62 138.73 228.62 137.73 228.62 136.73 228.62 135.73 228.62 134.73 228.62 133.73 228.62 132.73 184.28 132.73 184.28 133.73 184.28 134.73 184.28 135.73 184.28 136.73 184.28 137.73 184.28 138.73 184.28 139.73 184.28 140.73 184.28 141.73 184.28 142.73 184.28 143.73 184.28 144.73 184.28 223.58 184.28 224.58 184.28 225.58 184.28 226.58 184.28 227.58 184.28 228.58 184.28 229.58 184.28 230.58 184.28 231.58 184.28 232.58 184.28 233.58 184.28 234.58 184.28 235.58 228.62 235.58 228.62 234.58 228.62 233.58 228.62 232.58 228.62 231.58 228.62 230.58 228.62 229.58 228.62 228.58 228.62 227.58 228.62 226.58 228.62 225.58 228.62 224.58 228.62 223.58 228.62 219.4 228.62 218.4 228.62 217.4 228.62 216.4 228.62 215.4 228.62 214.4 228.62 213.4 228.62 212.4 228.62 211.4 228.62 210.4 228.62 209.4 228.62 208.4 228.62 207.4 203.46 207.4 203.46 197.23 224.67 197.23 224.67 196.23 224.67 195.23 224.67 194.23 224.67 193.23 224.67 192.23 224.67 191.23 224.67 190.23 224.67 189.23 224.67 188.23 224.67 187.23 224.67 186.23 224.67 185.23 224.67 181.86 224.67 180.86 224.67 179.86 224.67 178.86 224.67 177.86 224.67 176.86 224.67 175.86 224.67 174.86 224.67 173.86 224.67 172.86 224.67 171.86 224.67 170.86 224.67 169.86 203.46 169.86 203.46 160.92 228.62 160.92"/>
        <path class="cls-1" d="m256.76,319.25c0-.17,0-.33,0-.5s0-.33,0-.5c0-.17,0-.33,0-.5s0-.33,0-.5c0-.17,0-.33,0-.5s0-.33,0-.5c0-.17,0-.33,0-.5s0-.33,0-.5c0-.17,0-.33,0-.5s0-.33,0-.5c0-.17,0-.33,0-.5s0-.33,0-.5c0-.17,0-.33,0-.5s0-.33,0-.5c0-.17,0-.33,0-.5s0-.33,0-.5c0-.17,0-.33,0-.5s0-.33,0-.5c0-.17,0-.33,0-.5s0-.33,0-.5c0-.17,0-.33,0-.5s0-.33,0-.5c0-.17,0-.33,0-.5,0-29.24-17.14-45.42-46.65-45.42h-37.54v102.85h37.54c29.51,0,46.65-16.46,46.65-45.42,0-.17,0-.33,0-.5Zm-48.41-21.8c10.78,0,17.39,5.55,19.12,16.28-1.72,10.68-8.34,16.33-19.12,16.33h-7.89v-32.61h7.89Z"/>
        <polygon class="cls-1" points="420.92 274.33 421.47 273.33 420.92 273.33 421.47 272.33 420.92 272.33 421.47 271.33 420.92 271.33 421.47 270.33 420.92 270.33 421.47 269.33 420.92 269.33 421.47 268.33 420.92 268.33 421.47 267.33 420.92 267.33 421.47 266.33 420.92 266.33 421.47 265.33 420.92 265.33 421.47 264.33 420.92 264.33 421.47 263.33 420.92 263.33 421.47 262.33 392.36 262.33 376.86 292.93 376.45 292.93 360.81 262.33 330.48 262.33 331.03 263.33 330.48 263.33 331.03 264.33 330.48 264.33 331.03 265.33 330.48 265.33 331.03 266.33 330.48 266.33 331.03 267.33 330.48 267.33 331.03 268.33 330.48 268.33 331.03 269.33 330.48 269.33 331.03 270.33 330.48 270.33 331.03 271.33 330.48 271.33 331.03 272.33 330.48 272.33 331.03 273.33 330.48 273.33 331.03 274.33 330.48 274.33 362.17 332.41 362.17 353.18 362.17 354.18 362.17 355.18 362.17 356.18 362.17 357.18 362.17 358.18 362.17 359.18 362.17 360.18 362.17 361.18 362.17 362.18 362.17 363.18 362.17 364.18 362.17 365.18 389.92 365.18 389.92 364.18 389.92 363.18 389.92 362.18 389.92 361.18 389.92 360.18 389.92 359.18 389.92 358.18 389.92 357.18 389.92 356.18 389.92 355.18 389.92 354.18 389.92 353.18 389.92 332.41 421.47 274.33 420.92 274.33"/>
        <polygon class="cls-1" points="680.81 71 680.81 15.13 680.81 14.13 680.81 13.13 680.81 12.13 680.81 11.13 680.81 10.13 680.81 9.13 680.81 8.13 680.81 7.13 680.81 6.13 680.81 5.13 680.81 4.13 680.81 3.13 652.93 3.13 652.93 4.13 652.93 5.13 652.93 6.13 652.93 7.13 652.93 8.13 652.93 9.13 652.93 10.13 652.93 11.13 652.93 12.13 652.93 13.13 652.93 14.13 652.93 15.13 652.93 93.98 652.93 94.98 652.93 95.98 652.93 96.98 652.93 97.98 652.93 98.98 652.93 99.98 652.93 100.98 652.93 101.98 652.93 102.98 652.93 103.98 652.93 104.98 652.93 105.98 718.75 105.98 718.75 104.98 718.75 103.98 718.75 102.98 718.75 101.98 718.75 100.98 718.75 99.98 718.75 98.98 718.75 97.98 718.75 96.98 718.75 95.98 718.75 94.98 718.75 93.98 718.75 83 718.75 82 718.75 81 718.75 80 718.75 79 718.75 78 718.75 77 718.75 76 718.75 75 718.75 74 718.75 73 718.75 72 718.75 71 680.81 71"/>
        <polygon class="cls-1" points="151.91 143.73 151.91 142.73 151.91 141.73 151.91 140.73 151.91 139.73 151.91 138.73 151.91 137.73 151.91 136.73 151.91 135.73 151.91 134.73 151.91 133.73 151.91 132.73 132.46 132.73 132.46 133.73 132.46 134.73 132.46 135.73 132.46 136.73 132.46 137.73 132.46 138.73 132.46 139.73 132.46 140.73 132.46 141.73 132.46 142.73 132.46 143.73 132.46 144.73 132.46 223.58 132.46 224.58 132.46 225.58 132.46 226.58 132.46 227.58 132.46 228.58 132.46 229.58 132.46 230.58 132.46 231.58 132.46 232.58 132.46 233.58 132.46 234.58 132.46 235.58 175.44 235.58 175.44 234.58 175.44 233.58 175.44 232.58 175.44 231.58 175.44 230.58 175.44 229.58 175.44 228.58 175.44 227.58 175.44 226.58 175.44 225.58 175.44 224.58 175.44 223.58 175.44 219.4 175.44 218.4 175.44 217.4 175.44 216.4 175.44 215.4 175.44 214.4 175.44 213.4 175.44 212.4 175.44 211.4 175.44 210.4 175.44 209.4 175.44 208.4 175.44 207.4 151.91 207.4 151.91 144.73 151.91 143.73"/>
        <path class="cls-1" d="m243.44,138.72c-4.9,4.76-7.34,10.74-7.34,18.22,0,.14.01.27.01.41,0,.2-.01.39-.01.59,0,.14.01.27.01.41,0,.2-.01.39-.01.59,0,.14.01.27.01.41,0,.2-.01.39-.01.59,0,.14.01.27.01.41,0,.2-.01.39-.01.59,0,.14.01.27.01.41,0,.2-.01.39-.01.59,0,.14.01.27.01.41,0,.2-.01.39-.01.59,0,.14.01.27.01.41,0,.2-.01.39-.01.59,0,.14.01.27.01.41,0,.2-.01.39-.01.59,0,.14.01.27.01.41,0,.2-.01.39-.01.59,0,.14.01.27.01.41,0,.2-.01.39-.01.59,0,.14.01.27.01.41,0,.2-.01.39-.01.59,0,.14.01.27.01.41,0,.2-.01.39-.01.59,0,5.17,1.22,9.79,3.81,14.01,1.97,3.11,5.53,6.62,10.66,10.52l-15.96,4.41c0,.33.02.66.03.99h-.03c0,.34.02.67.03,1h-.03c0,.34.02.67.03,1h-.03c0,.34.02.67.03,1h-.03c0,.34.02.67.03,1h-.03c0,.34.02.67.03,1h-.03c0,.34.02.67.03,1h-.03c0,.34.02.67.03,1h-.03c0,.34.02.67.03,1h-.03c0,.34.02.67.03,1h-.03c0,.34.02.67.03,1h-.03c0,.34.02.67.03,1h-.03c.14,16.33,10.74,26.8,26.66,26.8,7.75,0,14.14-2.31,19.18-7.07,5.03-4.76,7.62-10.88,7.62-18.36,0-.14-.01-.27-.01-.41,0-.2.01-.39.01-.59,0-.14-.01-.27-.01-.41,0-.2.01-.39.01-.59,0-.14-.01-.27-.01-.41,0-.2.01-.39.01-.59,0-.14-.01-.27-.01-.41,0-.2.01-.39.01-.59,0-.14-.01-.27-.01-.41,0-.2.01-.39.01-.59,0-.14-.01-.27-.01-.41,0-.2.01-.39.01-.59,0-.14-.01-.27-.01-.41,0-.2.01-.39.01-.59,0-.14-.01-.27-.01-.41,0-.2.01-.39.01-.59,0-.14-.01-.27-.01-.41,0-.2.01-.39.01-.59,0-.14-.01-.27-.01-.41,0-.2.01-.39.01-.59,0-.14-.01-.27-.01-.41,0-.2.01-.39.01-.59,0-.14-.01-.27-.01-.41,0-.2.01-.39.01-.59,0-5.44-1.36-10.34-4.08-14.69-2.24-3.58-6.32-7.62-12.32-12.13l15.86-3.48c-.01-.34-.05-.65-.07-.98l.07-.02c-.01-.34-.05-.65-.07-.98l.07-.02c-.01-.34-.05-.65-.07-.98l.07-.02c-.01-.34-.05-.65-.07-.98l.07-.02c-.01-.34-.05-.65-.07-.98l.07-.02c-.01-.34-.05-.65-.07-.98l.07-.02c-.01-.34-.05-.65-.07-.98l.07-.02c-.01-.34-.05-.65-.07-.98l.07-.02c-.01-.34-.05-.65-.07-.98l.07-.02c-.01-.34-.05-.65-.07-.98l.07-.02c-.01-.34-.05-.65-.07-.98l.07-.02c-.01-.34-.05-.65-.07-.98l.07-.02c-.54-15.91-9.79-25.3-25.16-25.3-7.75,0-14.01,2.31-18.9,7.07Zm12.38,58.51c5.44,3.81,8.98,6.8,10.61,8.98.18.22.35.45.51.68-1.33,1.48-3.3,2.28-5.81,2.28-5.95,0-9.7-5.92-9.78-15.11,1.39,1.03,2.88,2.09,4.48,3.18Zm11.7-27.78c-5.3-3.67-8.7-6.39-10.2-8.3-.03-.04-.06-.08-.09-.13,1.3-1.29,3.1-2.02,5.26-2.02,4.86,0,8.06,4.95,8.28,12.75-1.03-.76-2.11-1.53-3.24-2.31Z"/>
        <polygon class="cls-1" points="293.35 133.73 293.35 134.73 293.35 135.73 293.35 136.73 293.35 137.73 293.35 138.73 293.35 139.73 293.35 140.73 293.35 141.73 293.35 142.73 293.35 143.73 293.35 144.73 293.35 148.92 293.35 149.92 293.35 150.92 293.35 151.92 293.35 152.92 293.35 153.92 293.35 154.92 293.35 155.92 293.35 156.92 293.35 157.92 293.35 158.92 293.35 159.92 293.35 160.92 310.48 160.92 310.48 223.58 310.48 224.58 310.48 225.58 310.48 226.58 310.48 227.58 310.48 228.58 310.48 229.58 310.48 230.58 310.48 231.58 310.48 232.58 310.48 233.58 310.48 234.58 310.48 235.58 330.07 235.58 330.07 234.58 330.07 233.58 330.07 232.58 330.07 231.58 330.07 230.58 330.07 229.58 330.07 228.58 330.07 227.58 330.07 226.58 330.07 225.58 330.07 224.58 330.07 223.58 330.07 160.92 347.21 160.92 347.21 159.92 347.21 158.92 347.21 157.92 347.21 156.92 347.21 155.92 347.21 154.92 347.21 153.92 347.21 152.92 347.21 151.92 347.21 150.92 347.21 149.92 347.21 148.92 347.21 144.73 347.21 143.73 347.21 142.73 347.21 141.73 347.21 140.73 347.21 139.73 347.21 138.73 347.21 137.73 347.21 136.73 347.21 135.73 347.21 134.73 347.21 133.73 347.21 132.73 293.35 132.73 293.35 133.73"/>
        <path class="cls-1" d="m346.18,223.58l-.21,1h.21l-.21,1h.21l-.21,1h.21l-.21,1h.21l-.21,1h.21l-.21,1h.21l-.21,1h.21l-.21,1h.21l-.21,1h.21l-.21,1h.21l-.21,1h.21l-.21,1h18.36l3.54-20.4h17.41l3.54,20.4h18.9l-.21-1h.21l-.21-1h.21l-.21-1h.21l-.21-1h.21l-.21-1h.21l-.21-1h.21l-.21-1h.21l-.21-1h.21l-.21-1h.21l-.21-1h.21l-.21-1h.21l-.21-1h.21l-18.63-90.85h-24.48l-18.63,90.85h.21Zm30.53-57.22l3.88,22.14h-8.08l3.79-22.14h.41Z"/>
        <path class="cls-1" d="m469.47,213.25l-2.45-17.82c-.41-2.94-1.25-5.46-2.49-7.55,3.79-3.97,6.02-9.81,6.02-16.77,0-.17-.02-.32-.02-.49,0-.17.02-.34.02-.51s-.02-.32-.02-.49c0-.17.02-.34.02-.51s-.02-.32-.02-.49c0-.17.02-.34.02-.51s-.02-.32-.02-.49c0-.17.02-.34.02-.51s-.02-.32-.02-.49c0-.17.02-.34.02-.51s-.02-.32-.02-.49c0-.17.02-.34.02-.51s-.02-.32-.02-.49c0-.17.02-.34.02-.51s-.02-.32-.02-.49c0-.17.02-.34.02-.51s-.02-.32-.02-.49c0-.17.02-.34.02-.51s-.02-.32-.02-.49c0-.17.02-.34.02-.51s-.02-.32-.02-.49c0-.17.02-.34.02-.51s-.02-.32-.02-.49c0-.17.02-.34.02-.51,0-17.41-9.38-26.38-27.74-26.38h-27.61v102.85h19.31v-34.68h5.03c5.03,0,7.34,2.31,8.3,8.16l1.9,16.73c.68,4.76,1.63,7.75,2.86,9.79h20.4c-.21-.32-.41-.66-.61-1h.61c-.21-.32-.41-.66-.61-1h.61c-.21-.32-.41-.66-.61-1h.61c-.21-.32-.41-.66-.61-1h.61c-.21-.32-.41-.66-.61-1h.61c-.21-.32-.41-.66-.61-1h.61c-.21-.32-.41-.66-.61-1h.61c-.21-.32-.41-.66-.61-1h.61c-.21-.32-.41-.66-.61-1h.61c-.21-.32-.41-.66-.61-1h.61c-.21-.32-.41-.66-.61-1h.61c-.21-.32-.41-.66-.61-1h.61c-1.77-2.72-2.99-5.98-3.54-10.34Zm-29.1-52.74c5.37,0,8.4,1.97,9.59,6.79-1.19,4.82-4.19,6.78-9.46,6.78h-5.98v-13.57h5.85Z"/>
        <polygon class="cls-1" points="480.62 134.73 480.62 135.73 480.62 136.73 480.62 137.73 480.62 138.73 480.62 139.73 480.62 140.73 480.62 141.73 480.62 142.73 480.62 143.73 480.62 144.73 480.62 223.58 480.62 224.58 480.62 225.58 480.62 226.58 480.62 227.58 480.62 228.58 480.62 229.58 480.62 230.58 480.62 231.58 480.62 232.58 480.62 233.58 480.62 234.58 480.62 235.58 500.06 235.58 500.06 234.58 500.06 233.58 500.06 232.58 500.06 231.58 500.06 230.58 500.06 229.58 500.06 228.58 500.06 227.58 500.06 226.58 500.06 225.58 500.06 224.58 500.06 223.58 500.06 144.73 500.06 143.73 500.06 142.73 500.06 141.73 500.06 140.73 500.06 139.73 500.06 138.73 500.06 137.73 500.06 136.73 500.06 135.73 500.06 134.73 500.06 133.73 500.06 132.73 480.62 132.73 480.62 133.73 480.62 134.73"/>
        <polygon class="cls-1" points="554.34 182.89 569.02 144.73 568.63 144.73 569.02 143.73 568.63 143.73 569.02 142.73 568.63 142.73 569.02 141.73 568.63 141.73 569.02 140.73 568.63 140.73 569.02 139.73 568.63 139.73 569.02 138.73 568.63 138.73 569.02 137.73 568.63 137.73 569.02 136.73 568.63 136.73 569.02 135.73 568.63 135.73 569.02 134.73 568.63 134.73 569.02 133.73 568.63 133.73 569.02 132.73 548.07 132.73 534.88 169.32 531.21 169.32 531.21 144.73 531.21 143.73 531.21 142.73 531.21 141.73 531.21 140.73 531.21 139.73 531.21 138.73 531.21 137.73 531.21 136.73 531.21 135.73 531.21 134.73 531.21 133.73 531.21 132.73 511.76 132.73 511.76 133.73 511.76 134.73 511.76 135.73 511.76 136.73 511.76 137.73 511.76 138.73 511.76 139.73 511.76 140.73 511.76 141.73 511.76 142.73 511.76 143.73 511.76 144.73 511.76 223.58 511.76 224.58 511.76 225.58 511.76 226.58 511.76 227.58 511.76 228.58 511.76 229.58 511.76 230.58 511.76 231.58 511.76 232.58 511.76 233.58 511.76 234.58 511.76 235.58 531.21 235.58 531.21 234.58 531.21 233.58 531.21 232.58 531.21 231.58 531.21 230.58 531.21 229.58 531.21 228.58 531.21 227.58 531.21 226.58 531.21 225.58 531.21 224.58 531.21 223.58 531.21 197.91 534.88 197.91 549.02 235.58 570.24 235.58 569.85 234.58 570.24 234.58 569.85 233.58 570.24 233.58 569.85 232.58 570.24 232.58 569.85 231.58 570.24 231.58 569.85 230.58 570.24 230.58 569.85 229.58 570.24 229.58 569.85 228.58 570.24 228.58 569.85 227.58 570.24 227.58 569.85 226.58 570.24 226.58 569.85 225.58 570.24 225.58 569.85 224.58 570.24 224.58 569.85 223.58 570.24 223.58 554.34 182.89"/>
        <path class="cls-1" d="m615.8,132.73h-24.48l-18.63,90.85h.21l-.21,1h.21l-.21,1h.21l-.21,1h.21l-.21,1h.21l-.21,1h.21l-.21,1h.21l-.21,1h.21l-.21,1h.21l-.21,1h.21l-.21,1h.21l-.21,1h.21l-.21,1h18.36l3.54-20.4h17.41l3.54,20.4h18.9l-.21-1h.21l-.21-1h.21l-.21-1h.21l-.21-1h.21l-.21-1h.21l-.21-1h.21l-.21-1h.21l-.21-1h.21l-.21-1h.21l-.21-1h.21l-.21-1h.21l-.21-1h.21l-18.63-90.85Zm-12.38,33.62l3.88,22.14h-8.08l3.79-22.14h.41Z"/>
        <polygon class="cls-1" points="679.72 133.73 679.72 134.73 679.72 135.73 679.72 136.73 679.72 137.73 679.72 138.73 679.72 139.73 679.72 140.73 679.72 141.73 679.72 142.73 679.72 143.73 679.72 144.73 679.72 182.1 679.17 182.1 660.27 132.73 641.91 132.73 641.91 133.73 641.91 134.73 641.91 135.73 641.91 136.73 641.91 137.73 641.91 138.73 641.91 139.73 641.91 140.73 641.91 141.73 641.91 142.73 641.91 143.73 641.91 144.73 641.91 223.58 641.91 224.58 641.91 225.58 641.91 226.58 641.91 227.58 641.91 228.58 641.91 229.58 641.91 230.58 641.91 231.58 641.91 232.58 641.91 233.58 641.91 234.58 641.91 235.58 659.73 235.58 659.73 234.58 659.73 233.58 659.73 232.58 659.73 231.58 659.73 230.58 659.73 229.58 659.73 228.58 659.73 227.58 659.73 226.58 659.73 225.58 659.73 224.58 659.73 223.58 659.73 184.17 660.13 184.17 680.53 235.58 697.53 235.58 697.53 234.58 697.53 233.58 697.53 232.58 697.53 231.58 697.53 230.58 697.53 229.58 697.53 228.58 697.53 227.58 697.53 226.58 697.53 225.58 697.53 224.58 697.53 223.58 697.53 144.73 697.53 143.73 697.53 142.73 697.53 141.73 697.53 140.73 697.53 139.73 697.53 138.73 697.53 137.73 697.53 136.73 697.53 135.73 697.53 134.73 697.53 133.73 697.53 132.73 679.72 132.73 679.72 133.73"/>
        <path class="cls-1" d="m73.62,311.48c2.53-3.42,3.9-7.82,3.9-12.94,0-.2,0-.4-.01-.61,0-.13.01-.26.01-.39,0-.2,0-.4-.01-.61,0-.13.01-.26.01-.39,0-.2,0-.4-.01-.61,0-.13.01-.26.01-.39,0-.2,0-.4-.01-.61,0-.13.01-.26.01-.39,0-.2,0-.4-.01-.61,0-.13.01-.26.01-.39,0-.2,0-.4-.01-.61,0-.13.01-.26.01-.39,0-.2,0-.4-.01-.61,0-.13.01-.26.01-.39,0-.2,0-.4-.01-.61,0-.13.01-.26.01-.39,0-.2,0-.4-.01-.61,0-.13.01-.26.01-.39,0-.2,0-.4-.01-.61,0-.13.01-.26.01-.39,0-.2,0-.4-.01-.61,0-.13.01-.26.01-.39,0-.2,0-.4-.01-.61,0-.13.01-.26.01-.39,0-15.1-10.74-24.21-28.29-24.21H3.68v102.85h45.7c20.13,0,31.96-9.52,31.96-25.16,0-.13-.01-.25-.02-.37,0-.21.02-.42.02-.63,0-.13-.01-.25-.02-.37,0-.21.02-.42.02-.63,0-.13-.01-.25-.02-.37,0-.21.02-.42.02-.63,0-.13-.01-.25-.02-.37,0-.21.02-.42.02-.63,0-.13-.01-.25-.02-.37,0-.21.02-.42.02-.63,0-.13-.01-.25-.02-.37,0-.21.02-.42.02-.63,0-.13-.01-.25-.02-.37,0-.21.02-.42.02-.63,0-.13-.01-.25-.02-.37,0-.21.02-.42.02-.63,0-.13-.01-.25-.02-.37,0-.21.02-.42.02-.63,0-.13-.01-.25-.02-.37,0-.21.02-.42.02-.63,0-.13-.01-.25-.02-.37,0-.21.02-.42.02-.63,0-.13-.01-.25-.02-.37,0-.21.02-.42.02-.63,0-7.04-2.8-12.78-7.71-16.54Zm-32.41-16.75c3.21,0,5.59.83,7.11,2.5-1.57,1.65-4.05,2.51-7.39,2.51h-10.34v-5h10.61Zm1.9,33.18c3.51,0,6.11.91,7.74,2.64-1.6,1.6-4.16,2.36-7.74,2.36h-12.51v-5h12.51Z"/>
        <path class="cls-1" d="m136.55,263.33v51.77c0,11.02-4.08,16.59-12.24,16.59s-12.24-5.58-12.24-16.59v-52.77h-28.02v66.67c0,24.48,14.55,37.81,40.26,37.81s40.26-13.33,40.26-37.81v-66.67h-28.02v1Z"/>
        <path class="cls-1" d="m314.84,262.33h-31.82l-32.78,90.85h.36l-.36,1h.36l-.36,1h.36l-.36,1h.36l-.36,1h.36l-.36,1h.36l-.36,1h.36l-.36,1h.36l-.36,1h.36l-.36,1h.36l-.36,1h.36l-.36,1h.36l-.36,1h27.34l5.3-16.05h31.14l5.3,16.05h28.42l-.36-1h.36l-.36-1h.36l-.36-1h.36l-.36-1h.36l-.36-1h.36l-.36-1h.36l-.36-1h.36l-.36-1h.36l-.36-1h.36l-.36-1h.36l-.36-1h.36l-.36-1h.36l-32.91-90.85Zm-16.32,40.56l4.7,14.11h-9.68l4.7-14.11h.27Z"/>
        <path class="cls-1" d="m511.63,331.42c-5.98,0-10.61,4.49-10.61,10.61,0,.18.01.35.02.52,0,.16-.02.31-.02.48,0,.18.01.35.02.52,0,.16-.02.31-.02.48,0,.18.01.35.02.52,0,.16-.02.31-.02.48,0,.18.01.35.02.52,0,.16-.02.31-.02.48,0,.18.01.35.02.52,0,.16-.02.31-.02.48,0,.18.01.35.02.52,0,.16-.02.31-.02.48,0,.1.01.2.01.3l-31.16-86h-31.82l-32.78,90.85h.36l-.36,1h.36l-.36,1h.36l-.36,1h.36l-.36,1h.36l-.36,1h.36l-.36,1h.36l-.36,1h.36l-.36,1h.36l-.36,1h.36l-.36,1h.36l-.36,1h.36l-.36,1h27.34l5.3-16.05h31.14l5.3,16.05h28.01v15.37c13.19,0,21.76-8.57,21.76-22.03,0-.19-.01-.36-.02-.54,0-.15.02-.3.02-.46,0-.19-.01-.36-.02-.54,0-.15.02-.3.02-.46,0-.19-.01-.36-.02-.54,0-.15.02-.3.02-.46,0-.19-.01-.36-.02-.54,0-.15.02-.3.02-.46,0-.19-.01-.36-.02-.54,0-.15.02-.3.02-.46,0-.19-.01-.36-.02-.54,0-.15.02-.3.02-.46,0-.19-.01-.36-.02-.54,0-.15.02-.3.02-.46,0-.19-.01-.36-.02-.54,0-.15.02-.3.02-.46,0-.19-.01-.36-.02-.54,0-.15.02-.3.02-.46,0-.19-.01-.36-.02-.54,0-.15.02-.3.02-.46,0-.19-.01-.36-.02-.54,0-.15.02-.3.02-.46,0-.19-.01-.36-.02-.54,0-.15.02-.3.02-.46,0-9.11-4.9-15.1-12.51-15.1Zm-58.07-28.53l4.7,14.11h-9.68l4.7-14.11h.27Zm48.94,57.49l-.07-.2h.36l-.18-.49c.15.23.3.45.47.66-.19.01-.38.02-.58.03Z"/>
      </g>
      <g>
        <path class="cls-2" d="m39.17,47.47v.27c9.79,2.18,15.37,9.93,15.37,21.49,0,15.91-9.66,24.75-27.61,24.75H1.5V3.13h25.16c16.73,0,25.7,8.43,25.7,23.8,0,11.02-4.62,18.36-13.19,20.54Zm-19.18-28.97v22.85h4.62c6.53,0,9.25-3.26,9.25-11.56s-2.72-11.29-9.25-11.29h-4.62Zm0,36.72v23.39h5.71c6.66,0,9.66-3.4,9.66-11.7s-2.99-11.7-9.66-11.7h-5.71Z"/>
        <path class="cls-2" d="m63.38,93.98V3.13h19.45v90.85h-19.45Z"/>
        <path class="cls-2" d="m92.21,48.42c0-29.92,10.61-46.38,29.78-46.38,14.82,0,23.8,9.93,25.3,27.75l-17.82,4.62c-.41-10.47-2.86-15.5-7.75-15.5-6.39,0-9.38,9.52-9.38,29.51s3.13,29.78,9.52,29.78c4.76,0,7.21-5.03,7.75-15.78l17.82,4.62c-1.5,17.82-10.61,28.02-25.43,28.02-19.18,0-29.78-16.59-29.78-46.65Z"/>
        <path class="cls-2" d="m213.25,93.98h-18.9l-3.54-20.4h-17.41l-3.54,20.4h-18.36L170.14,3.13h24.48l18.63,90.85Zm-31.01-69.22h-.41l-5.85,34.14h12.24l-5.98-34.14Z"/>
        <path class="cls-2" d="m258.13,93.98c-1.22-2.04-2.18-5.03-2.86-9.79l-1.9-16.73c-.95-5.85-3.26-8.16-8.3-8.16h-5.03v34.68h-19.31V3.13h27.61c18.36,0,27.74,8.98,27.74,26.38,0,11.42-5.98,19.86-15.1,21.9v.27c6.39,1.5,10.47,6.39,11.56,14.14l2.45,17.82c.54,4.35,1.77,7.62,3.54,10.34h-20.4Zm-12.24-75.07h-5.85v25.57h5.98c7.07,0,10.06-3.54,10.06-12.78s-2.99-12.78-10.2-12.78Z"/>
        <path class="cls-2" d="m343.67,93.98h-18.9l-3.54-20.4h-17.41l-3.54,20.4h-18.36L300.56,3.13h24.48l18.63,90.85Zm-31.01-69.22h-.41l-5.85,34.14h12.24l-5.98-34.14Z"/>
        <path class="cls-2" d="m437.92,87.45c-7.21,5.44-16.59,8.16-28.15,8.16-19.99,0-34.41-7.75-39.44-21.22l23.8-10.34c1.5,6.39,7.75,10.47,15.91,10.47,6.12,0,10.47-2.58,10.47-6.8,0-1.77-.95-3.13-2.72-4.08-1.77-1.09-5.71-2.31-12.1-3.54-6.39-1.22-11.02-2.45-14.14-3.54-3.13-1.22-5.71-2.58-8.02-4.08-6.66-4.49-9.93-11.29-9.93-20.54s3.54-16.46,10.61-22.03c7.07-5.58,16.05-8.43,26.93-8.43,20.13,0,32.91,7.62,36.86,22.3l-24.48,7.07c-1.09-5.3-5.98-8.43-12.38-8.43-5.85,0-9.38,2.72-9.38,6.66,0,1.63.82,2.99,2.58,4.08,1.77,1.09,5.85,2.31,12.1,3.54,6.39,1.22,11.29,2.45,14.42,3.67,3.13,1.22,5.85,2.58,8.16,4.22,6.53,4.76,9.79,11.7,9.79,20.94s-3.67,16.46-10.88,21.9Z"/>
        <path class="cls-2" d="m468.38,14.28c8.02-8.57,19.04-12.78,32.78-12.78s24.62,4.22,32.64,12.78c8.02,8.43,12.1,19.86,12.1,34.27s-4.08,25.84-12.1,34.41c-8.02,8.43-18.9,12.65-32.64,12.65s-24.75-4.22-32.78-12.65c-8.02-8.57-12.1-19.99-12.1-34.41s4.08-25.84,12.1-34.27Zm32.78,10.47c-10.2,0-16.05,8.7-16.05,23.8s5.85,23.8,16.05,23.8,16.05-8.7,16.05-23.8-5.85-23.8-16.05-23.8Z"/>
        <path class="cls-2" d="m643.68,93.98h-28.42l-5.3-16.05h-31.14l-5.3,16.05h-27.34L578.94,3.13h31.82l32.91,90.85Zm-49.23-62.29h-.27l-8.7,26.11h17.68l-8.7-26.11Z"/>
        <path class="cls-2" d="m652.93,93.98V3.13h27.88v67.86h37.94v22.98h-65.83Z"/>
        <path class="cls-2" d="m48.28,165.78h-.41l-9.25,34.82h-9.66l-9.11-34.82h-.54l.27,17.82v39.98H1.5v-90.85h21.22l11.15,38.76h.41l11.29-38.76h20.67v90.85h-18.22v-39.98l.27-17.82Z"/>
        <path class="cls-2" d="m97.11,207.4h25.16v16.18h-44.34v-90.85h44.34v16.18h-25.16v20.94h21.22v15.37h-21.22v22.17Z"/>
        <path class="cls-2" d="m132.46,223.58v-90.85h19.45v74.66h23.53v16.18h-42.98Z"/>
        <path class="cls-2" d="m203.46,207.4h25.16v16.18h-44.34v-90.85h44.34v16.18h-25.16v20.94h21.22v15.37h-21.22v22.17Z"/>
        <path class="cls-2" d="m280.43,217.6c-5.03,4.76-11.42,7.07-19.18,7.07-15.91,0-26.52-10.47-26.66-26.79l16.73-4.62c-.14,9.66,3.67,15.91,9.79,15.91,4.9,0,7.75-2.99,7.75-8.3,0-2.31-.82-4.62-2.45-6.66-1.63-2.18-5.17-5.17-10.61-8.98-8.02-5.44-13.33-10.2-15.91-14.28-2.58-4.22-3.81-8.84-3.81-14.01,0-7.48,2.45-13.46,7.34-18.22,4.9-4.76,11.15-7.07,18.9-7.07,15.37,0,24.62,9.38,25.16,25.3l-16.73,3.67c0-8.3-3.26-13.6-8.3-13.6-4.49,0-7.48,3.13-7.48,8.02,0,2.04.82,4.08,2.31,6.12,1.5,1.9,4.9,4.62,10.2,8.3,8.3,5.71,13.74,10.74,16.46,15.1,2.72,4.35,4.08,9.25,4.08,14.69,0,7.48-2.58,13.6-7.62,18.36Z"/>
        <path class="cls-2" d="m330.07,148.92v74.67h-19.58v-74.67h-17.14v-16.18h53.86v16.18h-17.14Z"/>
        <path class="cls-2" d="m407.72,223.58h-18.9l-3.54-20.4h-17.41l-3.54,20.4h-18.36l18.63-90.85h24.48l18.63,90.85Zm-31.01-69.22h-.41l-5.85,34.14h12.24l-5.98-34.14Z"/>
        <path class="cls-2" d="m452.6,223.58c-1.22-2.04-2.18-5.03-2.86-9.79l-1.9-16.73c-.95-5.85-3.26-8.16-8.3-8.16h-5.03v34.68h-19.31v-90.85h27.61c18.36,0,27.74,8.98,27.74,26.38,0,11.42-5.98,19.86-15.1,21.9v.27c6.39,1.5,10.47,6.39,11.56,14.14l2.45,17.82c.54,4.35,1.77,7.62,3.54,10.34h-20.4Zm-12.24-75.07h-5.85v25.57h5.98c7.07,0,10.06-3.54,10.06-12.78s-2.99-12.78-10.2-12.78Z"/>
        <path class="cls-2" d="m480.62,223.58v-90.85h19.45v90.85h-19.45Z"/>
        <path class="cls-2" d="m552.02,176.93l18.22,46.65h-21.22l-14.14-37.67h-3.67v37.67h-19.45v-90.85h19.45v36.58h3.67l13.19-36.58h20.94l-17,44.2Z"/>
        <path class="cls-2" d="m634.43,223.58h-18.9l-3.54-20.4h-17.41l-3.54,20.4h-18.36l18.63-90.85h24.48l18.63,90.85Zm-31.01-69.22h-.41l-5.85,34.14h12.24l-5.98-34.14Z"/>
        <path class="cls-2" d="m679.17,182.1h.54v-49.37h17.82v90.85h-17l-20.4-51.41h-.41v51.41h-17.82v-90.85h18.36l18.9,49.37Z"/>
        <path class="cls-2" d="m62.16,306.67v.27c11.83,1.63,19.18,9.66,19.18,21.08,0,15.64-11.83,25.16-31.96,25.16H3.68v-90.85h45.56c17.54,0,28.29,9.11,28.29,24.21,0,10.47-5.71,17.95-15.37,20.13Zm-31.55-23.94v17h10.34c6.12,0,9.38-2.86,9.38-8.3,0-5.85-3.13-8.7-9.11-8.7h-10.61Zm0,33.18v17h12.51c6.66,0,9.79-2.58,9.79-8.43s-3.4-8.57-9.79-8.57h-12.51Z"/>
        <path class="cls-2" d="m136.55,315.1v-52.77h28.02v54.67c0,24.48-14.55,37.81-40.26,37.81s-40.26-13.33-40.26-37.81v-54.67h28.02v52.77c0,11.02,4.08,16.59,12.24,16.59s12.24-5.58,12.24-16.59Z"/>
        <path class="cls-2" d="m172.59,353.18v-90.85h37.54c29.51,0,46.65,16.18,46.65,45.42s-17.14,45.42-46.65,45.42h-37.54Zm27.88-67.73v44.61h7.89c12.65,0,19.58-7.75,19.58-22.3s-6.94-22.3-19.58-22.3h-7.89Z"/>
        <path class="cls-2" d="m347.76,353.18h-28.42l-5.3-16.05h-31.14l-5.3,16.05h-27.34l32.78-90.85h31.82l32.91,90.85Zm-49.23-62.29h-.27l-8.7,26.11h17.68l-8.7-26.11Z"/>
        <path class="cls-2" d="m360.81,262.33l15.64,30.6h.41l15.5-30.6h29.1l-31.55,58.07v32.78h-27.74v-32.78l-31.69-58.07h30.33Z"/>
        <path class="cls-2" d="m502.8,353.18h-28.42l-5.3-16.05h-31.14l-5.3,16.05h-27.34l32.78-90.85h31.82l32.91,90.85Zm-49.23-62.29h-.27l-8.7,26.11h17.68l-8.7-26.11Z"/>
        <path class="cls-2" d="m524.15,346.52c0,13.46-8.57,22.03-21.76,22.03v-8.16c6.53-.14,10.47-3.26,10.47-8.02,0-.68,0-.82-.14-1.22-.95.41-1.9.54-2.58.54-5.3,0-9.11-4.08-9.11-9.66,0-6.12,4.62-10.61,10.61-10.61,7.62,0,12.51,5.98,12.51,15.1Z"/>
      </g>
    </g>
  </g>
</svg>