<?xml version="1.0" encoding="UTF-8"?>
<svg id="Layer_2" data-name="Layer 2" xmlns="http://www.w3.org/2000/svg" viewBox="0 0 320.72 94.45">
  <defs>
    <style>
      .cls-1 {
        fill: #f4f3d3;
      }

      .cls-1, .cls-2 {
        stroke: #000;
        stroke-miterlimit: 10;
        stroke-width: 2px;
      }
    </style>
  </defs>
  <g id="TFX_Expand" data-name="TFX Expand">
    <g>
      <g>
        <path class="cls-2" d="m204.6,13l-.21-1h-.29l-.21-1h-.29l-.21-1h-.29l-.21-1h-.29l-.21-1h-.29l-.21-1h-.29l-.21-1h-.29l-.21-1h-.29l-.21-1h-.29l-.21-1h-.29l-.21-1h-.29l-.21-1h-21.42l-11.17,54.47c.02-.86.04-1.72.04-2.61,0-10.9-1.72-19.6-5.11-26.07-.16-.34-.33-.67-.5-1-.16-.34-.33-.67-.5-1-.16-.34-.33-.67-.5-1-.16-.34-.33-.67-.5-1-.16-.34-.33-.67-.5-1-.16-.34-.33-.67-.5-1-.16-.34-.33-.67-.5-1-.16-.34-.33-.67-.5-1-.16-.34-.33-.67-.5-1-.16-.34-.33-.67-.5-1-.16-.34-.33-.67-.5-1-4.71-9.8-13.02-14.8-24.78-14.8h-20.59v79.49h.5v1h.5v1h.5v1h.5v1h.5v1h.5v1h.5v1h.5v1h.5v1h.5v1h.5v1h.5v1h20.59c11.76,0,20.06-4.95,24.78-14.68l-.55,2.68h.71l-.21,1h.71l-.21,1h.71l-.21,1h.71l-.21,1h.71l-.21,1h.71l-.21,1h.71l-.21,1h.71l-.21,1h.71l-.21,1h.71l-.21,1h.71l-.21,1h.71l-.21,1h16.07l3.09-17.85h11.31l1.01,5.85h.33l.17,1h.33l.17,1h.33l.17,1h.33l.17,1h.33l.17,1h.33l.17,1h.33l.17,1h.33l.17,1h.33l.17,1h.33l.17,1h.33l.17,1h.33l.17,1h16.54l-16.3-79.49h-.29Zm-13.95,36.79l1.31-7.66,1.34,7.66h-2.65Zm-57.39-22.75h3.57c1.89,0,3.52.37,4.91,1.14.51,3.45.75,7.65.75,12.68,0,16.56-2.59,24-9.23,25.35V27.04Z"/>
        <polygon class="cls-2" points="268.91 13 269.25 12 268.41 12 268.75 11 267.91 11 268.25 10 267.41 10 267.75 9 266.91 9 267.25 8 266.41 8 266.75 7 265.91 7 266.25 6 265.41 6 265.75 5 264.91 5 265.25 4 264.41 4 264.75 3 263.91 3 264.25 2 263.41 2 263.75 1 246.86 1 238.75 27.22 234.41 13 234.22 13 233.91 12 233.72 12 233.41 11 233.22 11 232.91 10 232.72 10 232.41 9 232.22 9 231.91 8 231.72 8 231.41 7 231.22 7 230.91 6 230.72 6 230.41 5 230.22 5 229.91 4 229.72 4 229.41 3 229.22 3 228.91 2 228.72 2 228.41 1 210.92 1 229 52.53 229 80.49 229.5 80.49 229.5 81.49 230 81.49 230 82.49 230.5 82.49 230.5 83.49 231 83.49 231 84.49 231.5 84.49 231.5 85.49 232 85.49 232 86.49 232.5 86.49 232.5 87.49 233 87.49 233 88.49 233.5 88.49 233.5 89.49 234 89.49 234 90.49 234.5 90.49 234.5 91.49 235 91.49 235 92.49 251.78 92.49 251.78 64.53 269.75 13 268.91 13"/>
        <path class="cls-2" d="m319.5,92.49l-16.3-79.49h-.29l-.21-1h-.29l-.21-1h-.29l-.21-1h-.29l-.21-1h-.29l-.21-1h-.29l-.21-1h-.29l-.21-1h-.29l-.21-1h-.29l-.21-1h-.29l-.21-1h-.29l-.21-1h-.29l-.21-1h-21.42l-16.3,79.49h.71l-.21,1h.71l-.21,1h.71l-.21,1h.71l-.21,1h.71l-.21,1h.71l-.21,1h.71l-.21,1h.71l-.21,1h.71l-.21,1h.71l-.21,1h.71l-.21,1h.71l-.21,1h16.07l3.09-17.85h11.31l1.01,5.85h.33l.17,1h.33l.17,1h.33l.17,1h.33l.17,1h.33l.17,1h.33l.17,1h.33l.17,1h.33l.17,1h.33l.17,1h.33l.17,1h.33l.17,1h.33l.17,1h16.54Zm-30.55-42.7l1.31-7.66,1.34,7.66h-2.66Z"/>
        <path class="cls-2" d="m50.52,59.2c-.16-.34-.33-.67-.5-1-.16-.34-.33-.67-.5-1-.16-.34-.33-.67-.5-1-.16-.34-.33-.67-.5-1-.16-.34-.33-.67-.5-1-.16-.34-.33-.67-.5-1-.16-.34-.33-.67-.5-1-.16-.34-.33-.67-.5-1-.16-.34-.33-.67-.5-1-.16-.34-.33-.67-.5-1-.01-.03-.02-.06-.04-.09,3.94-3.13,6.02-8.37,6.02-15.28,0-4.42-.87-8.17-2.53-11.24-.16-.34-.32-.67-.5-1-.16-.34-.32-.67-.5-1-.16-.34-.32-.67-.5-1-.16-.34-.32-.67-.5-1-.16-.34-.32-.67-.5-1-.16-.34-.32-.67-.5-1-.16-.34-.32-.67-.5-1-.16-.34-.32-.67-.5-1-.16-.34-.32-.67-.5-1-.16-.34-.32-.67-.5-1-.16-.34-.32-.67-.5-1-3.2-6.89-10.13-10.59-20.46-10.59H1v79.49h.5v1h.5v1h.5v1h.5v1h.5v1h.5v1h.5v1h.5v1h.5v1h.5v1h.5v1h.5v1h22.25c15.71,0,24.16-7.74,24.16-21.66,0-4.15-.83-7.72-2.39-10.64-.16-.34-.33-.67-.5-1Zm-27.34-.62h5c.86,0,1.64.08,2.37.21-.43,5.43-2.77,7.92-7.37,8.22v-8.44Zm0-24.27v-7.86h4.05c.72,0,1.38.04,2,.13-.42,4.82-2.28,7.17-6.04,7.73Z"/>
        <path class="cls-2" d="m107.41,12h-.5v-1h-.5v-1h-.5v-1h-.5v-1h-.5v-1h-.5v-1h-.5v-1h-.5v-1h-.5v-1h-.5v-1h-.5v-1h-17.14v54.74c0,7.97-2.38,11.54-7.14,11.54-.4,0-.78-.03-1.14-.08V13h-.5v-1h-.5v-1h-.5v-1h-.5v-1h-.5v-1h-.5v-1h-.5v-1h-.5v-1h-.5v-1h-.5v-1h-.5v-1h-.5v-1h-17.14v53.79c0,6.45,1.23,11.82,3.6,16.01.17.33.32.68.5,1,.17.33.32.68.5,1,.17.33.32.68.5,1,.17.33.32.68.5,1,.17.33.32.68.5,1,.17.33.32.68.5,1,.17.33.32.68.5,1,.17.33.32.68.5,1,.17.33.32.68.5,1,.17.33.32.68.5,1,.17.33.32.68.5,1,3.8,7.57,11.01,11.65,21.18,11.65,15.71,0,24.28-9.52,24.28-26.66V13h-.5v-1Z"/>
      </g>
      <g>
        <path class="cls-1" d="m33.96,39.79v.24c8.57,1.9,13.45,8.69,13.45,18.8,0,13.92-8.45,21.66-24.16,21.66H1V1h22.02c14.64,0,22.49,7.38,22.49,20.83,0,9.64-4.05,16.07-11.54,17.97ZM17.18,14.45v19.99h4.05c5.71,0,8.09-2.86,8.09-10.12s-2.38-9.88-8.09-9.88h-4.05Zm0,32.13v20.47h5c5.83,0,8.45-2.98,8.45-10.23s-2.62-10.23-8.45-10.23h-5Z"/>
        <path class="cls-1" d="m84.78,55.74V1h17.14v53.79c0,17.14-8.57,26.66-24.28,26.66s-24.28-9.52-24.28-26.66V1h17.14v54.74c0,8.09,2.26,11.54,7.14,11.54s7.14-3.57,7.14-11.54Z"/>
        <path class="cls-1" d="m110.36,80.49V1h20.59c19.4,0,29.39,13.57,29.39,39.87s-10,39.63-29.39,39.63h-20.59ZM127.26,15.04v51.41h3.57c8.45,0,11.66-7.14,11.66-25.59s-3.21-25.82-11.66-25.82h-3.57Z"/>
        <path class="cls-1" d="m215.2,80.49h-16.54l-3.09-17.85h-15.23l-3.09,17.85h-16.07L177.48,1h21.42l16.3,79.49Zm-27.13-60.57h-.36l-5.12,29.87h10.71l-5.24-29.87Z"/>
        <path class="cls-1" d="m228.41,1l9.04,29.63h.24l9.16-29.63h16.9l-17.97,51.53v27.97h-16.78v-27.97L210.92,1h17.49Z"/>
        <path class="cls-1" d="m313.5,80.49h-16.54l-3.09-17.85h-15.23l-3.09,17.85h-16.07L275.77,1h21.42l16.3,79.49Zm-27.13-60.57h-.36l-5.12,29.87h10.71l-5.24-29.87Z"/>
      </g>
    </g>
  </g>
</svg>