<?xml version="1.0" encoding="UTF-8"?>
<svg id="Layer_2" data-name="Layer 2" xmlns="http://www.w3.org/2000/svg" viewBox="0 0 591.99 96.35">
  <defs>
    <style>
      .cls-1, .cls-2 {
        stroke: #000;
        stroke-width: 2px;
      }

      .cls-2 {
        fill: #ef4f55;
      }
    </style>
  </defs>
  <g id="TFX_Expand" data-name="TFX Expand">
    <g>
      <g>
        <path class="cls-1" d="m258.48,73.75c.17-.33.34-.66.5-1,.17-.33.34-.66.5-1,.17-.33.34-.66.5-1,.17-.33.34-.66.5-1,.17-.33.34-.66.5-1,.17-.33.34-.66.5-1,.17-.33.34-.66.5-1,.17-.33.34-.66.5-1,.17-.33.34-.66.5-1,3.3-6.28,4.98-13.79,4.98-22.57,0-12.61-3.45-22.61-10.23-29.99-6.78-7.5-16.07-11.19-27.73-11.19s-20.83,3.69-27.61,11.19c-2.32,2.52-4.24,5.36-5.78,8.5-.17.33-.34.66-.5,1-.17.33-.34.66-.5,1-.17.33-.34.66-.5,1-.17.33-.34.66-.5,1-.17.33-.34.66-.5,1-.17.33-.34.66-.5,1-.17.33-.34.66-.5,1-.17.33-.34.66-.5,1-.17.33-.34.66-.5,1-.17.33-.34.66-.5,1-.17.33-.34.66-.5,1-.91,1.73-1.7,3.55-2.36,5.47-1.8-22.28-16.15-34.73-40.14-34.73h-29.99v1h-.5v1h-.5v1h-.5v1h-.5v1h-.5v1h-.5v1h-.5v1h-.5v1h-.5v1h-.5v1h-.5v1h-.5v79.49h29.99c17.59,0,30.18-6.99,36.25-19.74.17-.33.34-.66.5-1,.17-.33.34-.66.5-1,.17-.33.34-.66.5-1,.17-.33.34-.66.5-1,.17-.33.34-.66.5-1,.17-.33.34-.66.5-1,.17-.33.34-.66.5-1,.17-.33.34-.66.5-1,.17-.33.34-.66.5-1,.17-.33.34-.66.5-1,.17-.33.34-.66.5-1,.74-1.43,1.39-2.93,1.95-4.51.74,10.52,4.12,19.03,10.08,25.61,6.78,7.38,16.07,11.07,27.61,11.07s20.94-3.69,27.73-11.07c2.31-2.55,4.22-5.4,5.75-8.54.17-.33.34-.66.5-1,.17-.33.34-.66.5-1Zm-34.48-44.09c10.83,0,17.26,9.16,17.26,24.51,0,3.12-.28,5.98-.79,8.56-2.75,2.57-6.27,3.95-10.46,3.95-10.83,0-17.14-9.16-17.14-24.51,0-3.16.28-6.04.8-8.65,2.72-2.52,6.19-3.87,10.34-3.87Zm-76.46,35.6h-8.93V31.09h3.04c13.33,0,20.59,8.09,20.59,22.97,0,2.3-.19,4.42-.54,6.39-3.47,3.17-8.24,4.82-14.17,4.82Z"/>
        <path class="cls-1" d="m471.87,78.17c.18-.33.34-.66.5-1,.18-.33.34-.66.5-1,.18-.33.34-.66.5-1,.18-.33.34-.66.5-1,.18-.33.34-.66.5-1,.18-.33.34-.66.5-1,.18-.33.34-.66.5-1,.18-.33.34-.66.5-1,.18-.33.34-.66.5-1,1.71-3.21,2.58-6.85,2.58-10.93,0-7.74-2.62-13.57-8.33-17.73-2.34-1.73-4.87-3.04-9.17-4.4l10.9-3c-.06-.28-.15-.53-.22-.8l.72-.2c-.06-.28-.15-.53-.22-.8l.72-.2c-.06-.28-.15-.53-.22-.8l.72-.2c-.06-.28-.15-.53-.22-.8l.72-.2c-.06-.28-.15-.53-.22-.8l.72-.2c-.06-.28-.15-.53-.22-.8l.72-.2c-.06-.28-.15-.53-.22-.8l.72-.2c-.06-.28-.15-.53-.22-.8l.72-.2c-.06-.28-.15-.53-.22-.8l.72-.2c-.06-.28-.15-.53-.22-.8l.72-.2c-.06-.28-.15-.53-.22-.8l.72-.2c-.06-.28-.15-.53-.22-.8l.72-.2c-2.98-13.21-13.69-20.11-30.7-20.11-8.93,0-16.3,2.38-22.13,7.02-2.95,2.35-5.14,5.09-6.58,8.2-.17.33-.34.66-.5,1-.17.33-.34.66-.5,1-.17.33-.34.66-.5,1-.17.33-.34.66-.5,1-.17.33-.34.66-.5,1-.17.33-.34.66-.5,1-.17.33-.34.66-.5,1-.17.33-.34.66-.5,1-.17.33-.34.66-.5,1-.17.33-.34.66-.5,1-.17.33-.34.66-.5,1-1.74,3.29-2.61,7.01-2.61,11.12,0,7.62,2.74,13.45,8.33,17.26,1.57,1.15,3.53,2.21,5.68,3.18l-10.98,4.58c.07.24.16.46.24.69l-.74.31c.07.24.16.46.24.69l-.74.31c.07.24.16.46.24.69l-.74.31c.07.24.16.46.24.69l-.74.31c.07.24.16.46.24.69l-.26.11v-2.9h-37.13v-3.95h26.73v-1h.5v-1h.5v-1h.5v-1h.5v-1h.5v-1h.5v-1h.5v-1h.5v-1h.5v-1h.5v-1h.5v-1h.5v-15h-32.73v-3.23h30.89v-1h.5v-1h.5v-1h.5v-1h.5v-1h.5v-1h.5v-1h.5v-1h.5v-1h.5v-1h.5v-1h.5v-1h.5V2.43h-56.17v1h-.5v1h-.5v1h-.5v1h-.5v1h-.5v1h-.5v1h-.5v1h-.5v1h-.5v1h-.5v1h-.5v1h-.5v79.49h56.41v-1h.5v-1h.5v-1h.5v-1h.5v-1h.5v-1h.5v-1h.5v-1h.5v-1h.5v-1h.5v-1h.5v-.34c5.64,8.1,16.09,12.77,29.6,12.77,9.4,0,17.14-2.26,23.09-6.78,3.09-2.41,5.36-5.2,6.85-8.39.18-.33.34-.66.5-1,.18-.33.34-.66.5-1Zm-21.77-11.5c.39.29.74.6,1.05.92-1.25.26-2.61.41-4.09.41-6.02,0-11.14-2.51-13.96-6.66,1.42.37,2.95.75,4.63,1.16,6.43,1.43,10.59,2.86,12.38,4.17Zm-10.42-37.23c-.39-.29-.74-.6-1.05-.92.98-.19,2.02-.29,3.14-.29,5.08,0,9.23,2.07,11.39,5.66-.4-.1-.8-.19-1.22-.29-6.31-1.55-10.47-2.86-12.26-4.17Z"/>
        <polygon class="cls-1" points="503.98 83.92 504.48 83.92 504.48 82.92 504.98 82.92 504.98 81.92 505.48 81.92 505.48 2.43 485.49 2.43 485.49 3.43 484.99 3.43 484.99 4.43 484.49 4.43 484.49 5.43 483.99 5.43 483.99 6.43 483.49 6.43 483.49 7.43 482.99 7.43 482.99 8.43 482.49 8.43 482.49 9.43 481.99 9.43 481.99 10.43 481.49 10.43 481.49 11.43 480.99 11.43 480.99 12.43 480.49 12.43 480.49 13.43 479.99 13.43 479.99 14.43 479.49 14.43 479.49 93.92 499.48 93.92 499.48 92.92 499.98 92.92 499.98 91.92 500.48 91.92 500.48 90.92 500.98 90.92 500.98 89.92 501.48 89.92 501.48 88.92 501.98 88.92 501.98 87.92 502.48 87.92 502.48 86.92 502.98 86.92 502.98 85.92 503.48 85.92 503.48 84.92 503.98 84.92 503.98 83.92"/>
        <path class="cls-1" d="m589.7,81.92h.86l-28.92-79.49h-22.73l-.36,1h-.14l-.36,1h-.14l-.36,1h-.14l-.36,1h-.14l-.36,1h-.14l-.36,1h-.14l-.36,1h-.14l-.36,1h-.14l-.36,1h-.14l-.36,1h-.14l-.36,1h-.14l-.36,1h-.14l-28.92,79.49h19.64l.35-1h.15l.35-1h.15l.35-1h.15l.35-1h.15l.35-1h.15l.35-1h.15l.35-1h.15l.35-1h.15l.35-1h.15l.35-1h.15l.35-1h.15l.35-1h.15l1.57-4.54h27.3l5.71,16.54h20.35l-.36-1h.86l-.36-1h.86l-.36-1h.86l-.36-1h.86l-.36-1h.86l-.36-1h.86l-.36-1h.86l-.36-1h.86l-.36-1h.86l-.36-1h.86l-.36-1h.86l-.36-1Zm-49.36-31.3l4.47-13.07,4.47,13.07h-8.94Z"/>
        <polygon class="cls-1" points="7 3.43 6.5 3.43 6.5 4.43 6 4.43 6 5.43 5.5 5.43 5.5 6.43 5 6.43 5 7.43 4.5 7.43 4.5 8.43 4 8.43 4 9.43 3.5 9.43 3.5 10.43 3 10.43 3 11.43 2.5 11.43 2.5 12.43 2 12.43 2 13.43 1.5 13.43 1.5 14.43 1 14.43 1 93.92 20.99 93.92 20.99 92.92 21.49 92.92 21.49 91.92 21.99 91.92 21.99 90.92 22.49 90.92 22.49 89.92 22.99 89.92 22.99 88.92 23.49 88.92 23.49 87.92 23.99 87.92 23.99 86.92 24.49 86.92 24.49 85.92 24.99 85.92 24.99 84.92 25.49 84.92 25.49 83.92 25.99 83.92 25.99 82.92 26.49 82.92 26.49 81.92 26.99 81.92 26.99 2.43 7 2.43 7 3.43"/>
        <polygon class="cls-1" points="88.52 3.43 88.02 3.43 88.02 4.43 87.52 4.43 87.52 5.43 87.02 5.43 87.02 6.43 86.52 6.43 86.52 7.43 86.02 7.43 86.02 8.43 85.52 8.43 85.52 9.43 85.02 9.43 85.02 10.43 84.52 10.43 84.52 11.43 84.02 11.43 84.02 12.43 83.52 12.43 83.52 13.43 83.02 13.43 83.02 14.43 82.52 14.43 82.52 42.27 56.86 2.43 37.94 2.43 37.94 3.43 37.44 3.43 37.44 4.43 36.94 4.43 36.94 5.43 36.44 5.43 36.44 6.43 35.94 6.43 35.94 7.43 35.44 7.43 35.44 8.43 34.94 8.43 34.94 9.43 34.44 9.43 34.44 10.43 33.94 10.43 33.94 11.43 33.44 11.43 33.44 12.43 32.94 12.43 32.94 13.43 32.44 13.43 32.44 14.43 31.94 14.43 31.94 93.92 51.1 93.92 51.1 92.92 51.6 92.92 51.6 91.92 52.1 91.92 52.1 90.92 52.6 90.92 52.6 89.92 53.1 89.92 53.1 88.92 53.6 88.92 53.6 87.92 54.1 87.92 54.1 86.92 54.6 86.92 54.6 85.92 55.1 85.92 55.1 84.92 55.6 84.92 55.6 83.92 56.1 83.92 56.1 82.92 56.6 82.92 56.6 81.92 57.1 81.92 57.1 53.56 83.94 93.92 101.67 93.92 101.67 92.92 102.17 92.92 102.17 91.92 102.67 91.92 102.67 90.92 103.17 90.92 103.17 89.92 103.67 89.92 103.67 88.92 104.17 88.92 104.17 87.92 104.67 87.92 104.67 86.92 105.17 86.92 105.17 85.92 105.67 85.92 105.67 84.92 106.17 84.92 106.17 83.92 106.67 83.92 106.67 82.92 107.17 82.92 107.17 81.92 107.67 81.92 107.67 2.43 88.52 2.43 88.52 3.43"/>
        <polygon class="cls-1" points="325.32 3.43 324.82 3.43 324.82 4.43 324.32 4.43 324.32 5.43 323.82 5.43 323.82 6.43 323.32 6.43 323.32 7.43 322.82 7.43 322.82 8.43 322.32 8.43 322.32 9.43 321.82 9.43 321.82 10.43 321.32 10.43 321.32 11.43 320.82 11.43 320.82 12.43 320.32 12.43 320.32 13.43 319.82 13.43 319.82 14.43 319.32 14.43 319.32 42.27 293.67 2.43 274.74 2.43 274.74 3.43 274.24 3.43 274.24 4.43 273.74 4.43 273.74 5.43 273.24 5.43 273.24 6.43 272.74 6.43 272.74 7.43 272.24 7.43 272.24 8.43 271.74 8.43 271.74 9.43 271.24 9.43 271.24 10.43 270.74 10.43 270.74 11.43 270.24 11.43 270.24 12.43 269.74 12.43 269.74 13.43 269.24 13.43 269.24 14.43 268.74 14.43 268.74 93.92 287.9 93.92 287.9 92.92 288.4 92.92 288.4 91.92 288.9 91.92 288.9 90.92 289.4 90.92 289.4 89.92 289.9 89.92 289.9 88.92 290.4 88.92 290.4 87.92 290.9 87.92 290.9 86.92 291.4 86.92 291.4 85.92 291.9 85.92 291.9 84.92 292.4 84.92 292.4 83.92 292.9 83.92 292.9 82.92 293.4 82.92 293.4 81.92 293.9 81.92 293.9 53.56 320.75 93.92 338.48 93.92 338.48 92.92 338.98 92.92 338.98 91.92 339.48 91.92 339.48 90.92 339.98 90.92 339.98 89.92 340.48 89.92 340.48 88.92 340.98 88.92 340.98 87.92 341.48 87.92 341.48 86.92 341.98 86.92 341.98 85.92 342.48 85.92 342.48 84.92 342.98 84.92 342.98 83.92 343.48 83.92 343.48 82.92 343.98 82.92 343.98 81.92 344.48 81.92 344.48 2.43 325.32 2.43 325.32 3.43"/>
      </g>
      <g>
        <path class="cls-2" d="m7,81.92V2.43h19.99v79.49H7Z"/>
        <path class="cls-2" d="m88.28,51.22h.24V2.43h19.16v79.49h-17.73l-32.61-49.03h-.24v49.03h-19.16V2.43h18.92l31.42,48.79Z"/>
        <path class="cls-2" d="m118.62,81.92V2.43h29.99c25.7,0,40.34,14.28,40.34,39.63s-14.99,39.87-40.34,39.87h-29.99Zm19.99-62.83v46.17h8.93c13.21,0,20.71-8.09,20.71-23.21s-7.26-22.97-20.59-22.97h-9.04Z"/>
        <path class="cls-2" d="m202.39,12.19c6.78-7.5,16.07-11.19,27.61-11.19s20.94,3.69,27.73,11.19c6.78,7.38,10.23,17.37,10.23,29.99s-3.45,22.61-10.23,30.11c-6.78,7.38-16.07,11.07-27.73,11.07s-20.83-3.69-27.61-11.07c-6.78-7.5-10.23-17.49-10.23-30.11s3.45-22.61,10.23-29.99Zm27.61,5.47c-10.83,0-17.14,9.16-17.14,24.51s6.31,24.51,17.14,24.51,17.26-9.16,17.26-24.51-6.43-24.51-17.26-24.51Z"/>
        <path class="cls-2" d="m325.08,51.22h.24V2.43h19.16v79.49h-17.73l-32.61-49.03h-.24v49.03h-19.16V2.43h18.92l31.42,48.79Z"/>
        <path class="cls-2" d="m374.7,65.26h37.13v16.66h-56.41V2.43h56.17v16.66h-36.89v15.23h32.73v15h-32.73v15.95Z"/>
        <path class="cls-2" d="m470.02,76.57c-5.95,4.52-13.69,6.78-23.09,6.78-17.14,0-29.39-7.5-33.08-19.99l17.14-7.14c1.31,7.14,7.85,11.78,16.07,11.78,7.14,0,11.78-3.21,11.78-8.33,0-2.02-.95-3.69-2.74-5-1.79-1.31-5.95-2.74-12.38-4.17-5.35-1.31-9.4-2.38-12.02-3.33-2.5-1.07-4.76-2.26-6.54-3.57-5.59-3.81-8.33-9.64-8.33-17.26s2.86-13.69,8.69-18.33c5.83-4.64,13.21-7.02,22.13-7.02,17.02,0,27.73,6.9,30.7,20.11l-17.73,4.88c-.95-6.07-6.07-9.76-12.85-9.76s-10.83,3.33-10.83,8.21c0,2.02.95,3.69,2.74,5,1.79,1.31,5.95,2.62,12.26,4.17,10.83,2.5,14.99,4.17,18.68,6.9,5.71,4.17,8.33,10,8.33,17.73s-2.98,13.69-8.93,18.33Z"/>
        <path class="cls-2" d="m485.49,81.92V2.43h19.99v79.49h-19.99Z"/>
        <path class="cls-2" d="m590.57,81.92h-20.35l-5.71-16.54h-29.16l-5.71,16.54h-19.64l28.92-79.49h22.73l28.92,79.49Zm-40.58-58.79h-.24l-9.4,27.49h19.04l-9.4-27.49Z"/>
      </g>
    </g>
  </g>
</svg>