<?xml version="1.0" encoding="UTF-8"?>
<svg id="Layer_2" data-name="Layer 2" xmlns="http://www.w3.org/2000/svg" viewBox="0 0 1167.37 125.62">
  <defs>
    <style>
      .cls-1, .cls-2 {
        stroke-miterlimit: 10;
        stroke-width: 3px;
      }

      .cls-1, .cls-2, .cls-3 {
        stroke: #000;
      }

      .cls-1, .cls-3 {
        fill: #ffaf00;
      }

      .cls-3 {
        stroke-width: 2px;
      }
    </style>
  </defs>
  <g id="TFX_Expand" data-name="TFX Expand">
    <g>
      <g>
        <path class="cls-2" d="m296.27,41.13c0-.17,0-.33,0-.5,0-.17,0-.33,0-.5s0-.33,0-.5c0-.17,0-.33,0-.5s0-.33,0-.5c0-.17,0-.33,0-.5s0-.33,0-.5c0-.17,0-.33,0-.5s0-.33,0-.5c0-.17,0-.33,0-.5s0-.33,0-.5c0-.17,0-.33,0-.5s0-.33,0-.5c0-.17,0-.33,0-.5s0-.33,0-.5c0-.17,0-.33,0-.5s0-.33,0-.5c0-.17,0-.33,0-.5,0-20.19-10.17-30.63-29.51-30.63h-25.83v103.3h19.91v-32.89h5.93c19.34,0,29.51-10.45,29.51-30.78Zm-30.63-14.26c6.26,0,9.34,2.88,10.19,9.84-.86,7-4.03,10.1-10.19,10.1h-4.8v-19.94h4.8Z"/>
        <polygon class="cls-2" points="839.2 35.94 839.2 34.94 839.2 33.94 839.2 32.94 839.2 31.94 839.2 30.94 839.2 29.94 839.2 28.94 839.2 27.94 839.2 13.96 839.2 12.96 839.2 11.96 839.2 10.96 839.2 9.96 839.2 8.96 839.2 7.96 839.2 6.96 839.2 5.96 839.2 4.96 756.11 4.96 756.11 5.96 756.11 6.96 756.11 7.96 756.11 8.96 756.11 9.96 756.11 10.96 756.11 11.96 756.11 12.96 756.11 13.96 756.11 27.94 756.11 28.94 756.11 29.94 756.11 30.94 756.11 31.94 756.11 32.94 756.11 33.94 756.11 34.94 756.11 35.94 756.11 36.94 783.71 36.94 783.71 95.8 783.71 96.8 783.71 97.8 783.71 98.8 783.71 99.8 783.71 100.8 783.71 101.8 783.71 102.8 783.71 103.8 783.71 104.8 811.59 104.8 811.59 103.8 811.59 102.8 811.59 101.8 811.59 100.8 811.59 99.8 811.59 98.8 811.59 97.8 811.59 96.8 811.59 95.8 811.59 36.94 839.2 36.94 839.2 35.94"/>
        <path class="cls-2" d="m1122.49,37.89c-.09-.3-.19-.59-.29-.89l.29-.11c-.09-.3-.19-.59-.29-.89l.29-.11c-.09-.3-.19-.59-.29-.89l.29-.11c-.09-.3-.19-.59-.29-.89l.29-.11c-.09-.3-.19-.59-.29-.89l.29-.11c-.09-.3-.19-.59-.29-.89l.29-.11c-.09-.3-.19-.59-.29-.89l.29-.11c-.09-.3-.19-.59-.29-.89l.29-.11c-.09-.3-.19-.59-.29-.89l.29-.11c-2.31-7.75-6.94-14.01-14.14-18.63s-15.78-6.94-25.71-6.94c-13.87,0-25.02,4.49-33.59,13.33-8.57,8.84-12.78,20.4-12.78,34.95,0,.17,0,.34,0,.51,0,.16,0,.32,0,.49s0,.34,0,.51c0,.16,0,.32,0,.49s0,.34,0,.51c0,.16,0,.32,0,.49s0,.34,0,.51c0,.16,0,.32,0,.49s0,.34,0,.51c0,.16,0,.32,0,.49s0,.34,0,.51c0,.16,0,.32,0,.49s0,.34,0,.51c0,.16,0,.32,0,.49s0,.34,0,.51c0,.16,0,.32,0,.49s0,.34,0,.51c0,.16,0,.32,0,.49,0,13.74,3.81,24.89,11.42,33.32,7.62,8.3,17.41,12.51,29.38,12.51s21.49-4.49,25.16-11.56l3.13,9.93h18.36v-59.18h-21.32l20.09-7.73Zm-39.44,11.73v22.27h9.61c-2.28,2.15-5.76,3.38-10.15,3.38-10.13,0-16.08-6.91-17.2-19.33,1.14-12.94,7.28-20.22,17.06-20.22,6.67,0,11.06,3.47,13,9.9h-12.32v4Z"/>
        <path class="cls-2" d="m1165.86,86.54c0-.22.01-.44.01-.66,0-11.02-6.94-18.9-16.32-18.9-7.75,0-14.01,5.98-14.01,13.74,0,.18.02.35.02.53,0,.16-.02.31-.02.47,0,.18.02.35.02.53,0,.16-.02.31-.02.47,0,.18.02.35.02.53,0,.16-.02.31-.02.47,0,.18.02.35.02.53,0,.16-.02.31-.02.47,0,.18.02.35.02.53,0,.16-.02.31-.02.47,0,.18.02.35.02.53,0,.16-.02.31-.02.47,0,.18.02.35.02.53,0,.16-.02.31-.02.47,0,.18.02.35.02.53,0,.16-.02.31-.02.47,0,.18.02.35.02.53,0,.16-.02.31-.02.47,0,6.72,4.29,11.35,10.3,12.22-2.32,1.35-5.39,2.12-9.07,2.18v20.02c8.7,0,15.78-2.72,21.08-8.16,5.3-5.44,8.02-12.51,8.02-21.08,0-.11-.01-.22-.01-.34,0-.22.01-.44.01-.66,0-.11-.01-.22-.01-.34,0-.22.01-.44.01-.66,0-.11-.01-.22-.01-.34,0-.22.01-.44.01-.66,0-.11-.01-.22-.01-.34,0-.22.01-.44.01-.66,0-.11-.01-.22-.01-.34,0-.22.01-.44.01-.66,0-.11-.01-.22-.01-.34,0-.22.01-.44.01-.66,0-.11-.01-.22-.01-.34,0-.22.01-.44.01-.66,0-.11-.01-.22-.01-.34,0-.22.01-.44.01-.66,0-.11-.01-.22-.01-.34Z"/>
        <path class="cls-2" d="m102.44,1.5h-25.41l-17.79,86.72-14.21-36.38,15.9-41.35h-.38l.38-1h-.38l.38-1h-.38l.38-1h-.38l.38-1h-.38l.38-1h-.38l.38-1h-.38l.38-1h-.38l.38-1h-.38l.38-1h-21.74l-13.69,37.98h-3.81V1.5H1.5v103.3h20.19v-39.11h3.81l14.68,39.11h36.56l3.67-21.18h18.07l3.67,21.18h19.62l-.21-1h.21l-.21-1h.21l-.21-1h.21l-.21-1h.21l-.21-1h.21l-.21-1h.21l-.21-1h.21l-.21-1h.21l-.21-1h.21L102.44,1.5Zm-13.27,31.45h.42l4.63,26.43h-9.59l4.53-26.43Z"/>
        <path class="cls-2" d="m169.93,51.68c3.51-3.79,5.35-9.4,5.35-16.48,0-.14-.01-.27-.02-.42,0-.2.02-.38.02-.58,0-.14-.01-.27-.02-.42,0-.2.02-.38.02-.58,0-.14-.01-.27-.02-.42,0-.2.02-.38.02-.58,0-.14-.01-.27-.02-.42,0-.2.02-.38.02-.58,0-.14-.01-.27-.02-.42,0-.2.02-.38.02-.58,0-.14-.01-.27-.02-.42,0-.2.02-.38.02-.58,0-.14-.01-.27-.02-.42,0-.2.02-.38.02-.58,0-.14-.01-.27-.02-.42,0-.2.02-.38.02-.58,0-.14-.01-.27-.02-.42,0-.2.02-.38.02-.58,0-15.95-9.32-24.71-26.68-24.71h-26.12v103.3h26.4c18.63,0,28.66-9.18,28.66-25.69,0-.13-.01-.25-.01-.39,0-.21.01-.41.01-.61,0-.13-.01-.25-.01-.39,0-.21.01-.41.01-.61,0-.13-.01-.25-.01-.39,0-.21.01-.41.01-.61,0-.13-.01-.25-.01-.39,0-.21.01-.41.01-.61,0-.13-.01-.25-.01-.39,0-.21.01-.41.01-.61,0-.13-.01-.25-.01-.39,0-.21.01-.41.01-.61,0-.13-.01-.25-.01-.39,0-.21.01-.41.01-.61,0-.13-.01-.25-.01-.39,0-.21.01-.41.01-.61,0-.13-.01-.25-.01-.39,0-.21.01-.41.01-.61,0-8.17-2.69-14.5-7.61-18.43Zm-23.45-25.23c5.42,0,8.31,2.09,9.25,7.26-.94,5.28-3.82,7.46-9.25,7.46h-4.8v-14.72h4.8Zm1.13,38.12c5.55,0,8.64,2.37,9.65,7.67-1.01,5.34-4.1,7.61-9.65,7.61h-5.93v-15.28h5.93Z"/>
        <path class="cls-2" d="m216.23,2.5v63.94c0,9.46-2.82,13.69-8.47,13.69s-8.47-4.09-8.47-13.69V1.5h-20.33v72.81c0,20.33,10.31,31.62,28.8,31.62s28.8-11.29,28.8-31.62V1.5h-20.33v1Z"/>
        <path class="cls-2" d="m332.7,1.5h-25.41l-19.34,94.3h.21l-.21,1h.21l-.21,1h.21l-.21,1h.21l-.21,1h.21l-.21,1h.21l-.21,1h.21l-.21,1h.21l-.21,1h.21l-.21,1h19.06l3.67-21.18h18.07l3.67,21.18h19.62l-.21-1h.21l-.21-1h.21l-.21-1h.21l-.21-1h.21l-.21-1h.21l-.21-1h.21l-.21-1h.21l-.21-1h.21l-.21-1h.21L332.7,1.5Zm-13.27,31.45h.42l4.63,26.43h-9.59l4.53-26.43Z"/>
        <polygon class="cls-2" points="343.85 2.5 343.85 3.5 343.85 4.5 343.85 5.5 343.85 6.5 343.85 7.5 343.85 8.5 343.85 9.5 343.85 10.5 343.85 18.3 343.85 19.3 343.85 20.3 343.85 21.3 343.85 22.3 343.85 23.3 343.85 24.3 343.85 25.3 343.85 26.3 343.85 27.3 361.64 27.3 361.64 95.8 361.64 96.8 361.64 97.8 361.64 98.8 361.64 99.8 361.64 100.8 361.64 101.8 361.64 102.8 361.64 103.8 361.64 104.8 381.97 104.8 381.97 103.8 381.97 102.8 381.97 101.8 381.97 100.8 381.97 99.8 381.97 98.8 381.97 97.8 381.97 96.8 381.97 95.8 381.97 27.3 399.76 27.3 399.76 26.3 399.76 25.3 399.76 24.3 399.76 23.3 399.76 22.3 399.76 21.3 399.76 20.3 399.76 19.3 399.76 18.3 399.76 10.5 399.76 9.5 399.76 8.5 399.76 7.5 399.76 6.5 399.76 5.5 399.76 4.5 399.76 3.5 399.76 2.5 399.76 1.5 343.85 1.5 343.85 2.5"/>
        <polygon class="cls-2" points="401.45 2.5 401.45 3.5 401.45 4.5 401.45 5.5 401.45 6.5 401.45 7.5 401.45 8.5 401.45 9.5 401.45 10.5 401.45 95.8 401.45 96.8 401.45 97.8 401.45 98.8 401.45 99.8 401.45 100.8 401.45 101.8 401.45 102.8 401.45 103.8 401.45 104.8 447.47 104.8 447.47 103.8 447.47 102.8 447.47 101.8 447.47 100.8 447.47 99.8 447.47 98.8 447.47 97.8 447.47 96.8 447.47 95.8 447.47 88 447.47 87 447.47 86 447.47 85 447.47 84 447.47 83 447.47 82 447.47 81 447.47 80 447.47 79 421.36 79 421.36 64.99 443.38 64.99 443.38 63.99 443.38 62.99 443.38 61.99 443.38 60.99 443.38 59.99 443.38 58.99 443.38 57.99 443.38 56.99 443.38 55.99 443.38 49.04 443.38 48.04 443.38 47.04 443.38 46.04 443.38 45.04 443.38 44.04 443.38 43.04 443.38 42.04 443.38 41.04 443.38 40.04 421.36 40.04 421.36 27.3 447.47 27.3 447.47 26.3 447.47 25.3 447.47 24.3 447.47 23.3 447.47 22.3 447.47 21.3 447.47 20.3 447.47 19.3 447.47 18.3 447.47 10.5 447.47 9.5 447.47 8.5 447.47 7.5 447.47 6.5 447.47 5.5 447.47 4.5 447.47 3.5 447.47 2.5 447.47 1.5 401.45 1.5 401.45 2.5"/>
        <polygon class="cls-2" points="490.25 2.5 490.25 3.5 490.25 4.5 490.25 5.5 490.25 6.5 490.25 7.5 490.25 8.5 490.25 9.5 490.25 10.5 490.25 52.75 489.68 52.75 470.06 1.5 451 1.5 451 2.5 451 3.5 451 4.5 451 5.5 451 6.5 451 7.5 451 8.5 451 9.5 451 10.5 451 95.8 451 96.8 451 97.8 451 98.8 451 99.8 451 100.8 451 101.8 451 102.8 451 103.8 451 104.8 469.5 104.8 469.5 103.8 469.5 102.8 469.5 101.8 469.5 100.8 469.5 99.8 469.5 98.8 469.5 97.8 469.5 96.8 469.5 95.8 469.5 51.44 469.92 51.44 491.1 104.8 508.74 104.8 508.74 103.8 508.74 102.8 508.74 101.8 508.74 100.8 508.74 99.8 508.74 98.8 508.74 97.8 508.74 96.8 508.74 95.8 508.74 10.5 508.74 9.5 508.74 8.5 508.74 7.5 508.74 6.5 508.74 5.5 508.74 4.5 508.74 3.5 508.74 2.5 508.74 1.5 490.25 1.5 490.25 2.5"/>
        <path class="cls-2" d="m595.22,46.44c-2.31-1.63-5.03-2.99-8.16-4.22-1.19-.46-2.63-.93-4.32-1.39l21.45-6.2c-.08-.32-.2-.61-.29-.92l.29-.08c-.08-.32-.2-.61-.29-.92l.29-.08c-.08-.32-.2-.61-.29-.92l.29-.08c-.08-.32-.2-.61-.29-.92l.29-.08c-.08-.32-.2-.61-.29-.92l.29-.08c-.08-.32-.2-.61-.29-.92l.29-.08c-.08-.32-.2-.61-.29-.92l.29-.08c-.08-.32-.2-.61-.29-.92l.29-.08c-.08-.32-.2-.61-.29-.92l.29-.08c-3.94-14.69-16.73-22.3-36.86-22.3-10.88,0-19.86,2.86-26.93,8.43-7.07,5.58-10.61,12.92-10.61,22.03,0,.18,0,.35.01.52,0,.16-.01.32-.01.48,0,.18,0,.35.01.52,0,.16-.01.32-.01.48,0,.18,0,.35.01.52,0,.16-.01.32-.01.48,0,.18,0,.35.01.52,0,.16-.01.32-.01.48,0,.18,0,.35.01.52,0,.16-.01.32-.01.48,0,.18,0,.35.01.52,0,.16-.01.32-.01.48,0,.18,0,.35.01.52,0,.16-.01.32-.01.48,0,.18,0,.35.01.52,0,.16-.01.32-.01.48,0,.18,0,.35.01.52,0,.16-.01.32-.01.48,0,9.25,3.26,16.05,9.93,20.54,2.19,1.42,4.65,2.71,7.56,3.88l-20.75,9.01c.11.29.24.56.36.84l-.36.16c.11.29.24.56.36.84l-.36.16c.11.29.24.56.36.84l-.36.16c.11.29.24.56.36.84l-.36.16c.11.29.24.56.36.84l-.36.16c.11.29.24.56.36.84l-.36.16c.11.29.24.56.36.84l-.36.16c.11.29.24.56.36.84l-.36.16c.11.29.24.56.36.84l-.36.16c5.03,13.46,19.45,21.22,39.44,21.22,11.56,0,20.94-2.72,28.15-8.16,7.21-5.44,10.88-12.78,10.88-21.9,0-.18,0-.35-.01-.53,0-.16.01-.31.01-.47,0-.18,0-.35-.01-.53,0-.16.01-.31.01-.47,0-.18,0-.35-.01-.53,0-.16.01-.31.01-.47,0-.18,0-.35-.01-.53,0-.16.01-.31.01-.47,0-.18,0-.35-.01-.53,0-.16.01-.31.01-.47,0-.18,0-.35-.01-.53,0-.16.01-.31.01-.47,0-.18,0-.35-.01-.53,0-.16.01-.31.01-.47,0-.18,0-.35-.01-.53,0-.16.01-.31.01-.47,0-.18,0-.35-.01-.53,0-.16.01-.31.01-.47,0-9.25-3.26-16.18-9.79-20.94Zm-34.64-11.4c1.61-1.12,3.9-1.77,6.75-1.77,5.64,0,10.11,2.44,11.83,6.65-1.96-.46-4.14-.92-6.53-1.37-6.21-1.21-10.27-2.43-12.06-3.51Zm1.31,35.9c6.31,1.21,10.23,2.42,12.03,3.49-1.86,1.24-4.53,1.92-7.68,1.92-6.98,0-12.56-2.99-14.96-7.86,2.79.79,6.29,1.61,10.61,2.44Z"/>
        <polygon class="cls-2" points="616.3 5.96 616.3 6.96 616.3 7.96 616.3 8.96 616.3 9.96 616.3 10.96 616.3 11.96 616.3 12.96 616.3 13.96 616.3 95.8 616.3 96.8 616.3 97.8 616.3 98.8 616.3 99.8 616.3 100.8 616.3 101.8 616.3 102.8 616.3 103.8 616.3 104.8 644.18 104.8 644.18 103.8 644.18 102.8 644.18 101.8 644.18 100.8 644.18 99.8 644.18 98.8 644.18 97.8 644.18 96.8 644.18 95.8 644.18 13.96 644.18 12.96 644.18 11.96 644.18 10.96 644.18 9.96 644.18 8.96 644.18 7.96 644.18 6.96 644.18 5.96 644.18 4.96 616.3 4.96 616.3 5.96"/>
        <polygon class="cls-2" points="717.76 5.96 717.76 6.96 717.76 7.96 717.76 8.96 717.76 9.96 717.76 10.96 717.76 11.96 717.76 12.96 717.76 13.96 717.76 53.78 717.48 53.78 686.34 4.96 660.23 4.96 660.23 5.96 660.23 6.96 660.23 7.96 660.23 8.96 660.23 9.96 660.23 10.96 660.23 11.96 660.23 12.96 660.23 13.96 660.23 95.8 660.23 96.8 660.23 97.8 660.23 98.8 660.23 99.8 660.23 100.8 660.23 101.8 660.23 102.8 660.23 103.8 660.23 104.8 686.88 104.8 686.88 103.8 686.88 102.8 686.88 101.8 686.88 100.8 686.88 99.8 686.88 98.8 686.88 97.8 686.88 96.8 686.88 95.8 686.88 55.98 687.16 55.98 719.66 104.8 744.28 104.8 744.28 103.8 744.28 102.8 744.28 101.8 744.28 100.8 744.28 99.8 744.28 98.8 744.28 97.8 744.28 96.8 744.28 95.8 744.28 13.96 744.28 12.96 744.28 11.96 744.28 10.96 744.28 9.96 744.28 8.96 744.28 7.96 744.28 6.96 744.28 5.96 744.28 4.96 717.76 4.96 717.76 5.96"/>
        <path class="cls-2" d="m898.36,4.96h-31.82l-32.78,90.85h.36l-.36,1h.36l-.36,1h.36l-.36,1h.36l-.36,1h.36l-.36,1h.36l-.36,1h.36l-.36,1h.36l-.36,1h.36l-.36,1h27.34l5.3-16.05h31.14l5.3,16.05h28.42l-.36-1h.36l-.36-1h.36l-.36-1h.36l-.36-1h.36l-.36-1h.36l-.36-1h.36l-.36-1h.36l-.36-1h.36l-.36-1h.36l-32.91-90.85Zm-16.59,37.56h.27l5.7,17.11h-11.68l5.7-17.11Z"/>
        <polygon class="cls-2" points="998.05 5.96 998.05 6.96 998.05 7.96 998.05 8.96 998.05 9.96 998.05 10.96 998.05 11.96 998.05 12.96 998.05 13.96 998.05 53.78 997.78 53.78 966.63 4.96 940.52 4.96 940.52 5.96 940.52 6.96 940.52 7.96 940.52 8.96 940.52 9.96 940.52 10.96 940.52 11.96 940.52 12.96 940.52 13.96 940.52 95.8 940.52 96.8 940.52 97.8 940.52 98.8 940.52 99.8 940.52 100.8 940.52 101.8 940.52 102.8 940.52 103.8 940.52 104.8 967.18 104.8 967.18 103.8 967.18 102.8 967.18 101.8 967.18 100.8 967.18 99.8 967.18 98.8 967.18 97.8 967.18 96.8 967.18 95.8 967.18 55.98 967.45 55.98 999.95 104.8 1024.57 104.8 1024.57 103.8 1024.57 102.8 1024.57 101.8 1024.57 100.8 1024.57 99.8 1024.57 98.8 1024.57 97.8 1024.57 96.8 1024.57 95.8 1024.57 13.96 1024.57 12.96 1024.57 11.96 1024.57 10.96 1024.57 9.96 1024.57 8.96 1024.57 7.96 1024.57 6.96 1024.57 5.96 1024.57 4.96 998.05 4.96 998.05 5.96"/>
      </g>
      <g>
        <path class="cls-3" d="m43.29,47.38l18.92,48.42h-22.02l-14.68-39.11h-3.81v39.11H1.5V1.5h20.19v37.98h3.81L39.19,1.5h21.74l-17.65,45.88Z"/>
        <path class="cls-3" d="m121.78,95.8h-19.62l-3.67-21.18h-18.07l-3.67,21.18h-19.06L77.03,1.5h25.41l19.34,94.3ZM89.59,23.95h-.42l-6.07,35.43h12.71l-6.21-35.43Z"/>
        <path class="cls-3" d="m161.59,47.52v.28c10.16,2.26,15.95,10.31,15.95,22.31,0,16.52-10.02,25.69-28.66,25.69h-26.4V1.5h26.12c17.37,0,26.68,8.75,26.68,24.71,0,11.43-4.8,19.06-13.69,21.32Zm-19.91-30.07v23.72h4.8c6.78,0,9.6-3.39,9.6-12s-2.82-11.72-9.6-11.72h-4.8Zm0,38.12v24.28h5.93c6.92,0,10.02-3.53,10.02-12.14s-3.11-12.14-10.02-12.14h-5.93Z"/>
        <path class="cls-3" d="m216.23,66.44V1.5h20.33v63.81c0,20.33-10.16,31.62-28.8,31.62s-28.8-11.29-28.8-31.62V1.5h20.33v64.94c0,9.6,2.68,13.69,8.47,13.69s8.47-4.24,8.47-13.69Z"/>
        <path class="cls-3" d="m266.77,62.91h-5.93v32.89h-19.91V1.5h25.83c19.34,0,29.51,10.45,29.51,30.63s-10.17,30.78-29.51,30.78Zm-1.13-45.04h-4.8v28.94h4.8c7.34,0,10.45-4.38,10.45-14.54s-2.96-14.4-10.45-14.4Z"/>
        <path class="cls-3" d="m352.04,95.8h-19.62l-3.67-21.18h-18.07l-3.67,21.18h-19.06L307.29,1.5h25.41l19.34,94.3Zm-32.19-71.86h-.42l-6.07,35.43h12.71l-6.21-35.43Z"/>
        <path class="cls-3" d="m381.97,18.3v77.5h-20.33V18.3h-17.79V1.5h55.91v16.8h-17.79Z"/>
        <path class="cls-3" d="m421.36,79h26.12v16.8h-46.02V1.5h46.02v16.8h-26.12v21.74h22.02v15.95h-22.02v23.01Z"/>
        <path class="cls-3" d="m489.68,52.75h.57V1.5h18.49v94.3h-17.65l-21.18-53.36h-.42v53.36h-18.49V1.5h19.06l19.62,51.25Z"/>
        <path class="cls-1" d="m594.13,89.28c-7.21,5.44-16.59,8.16-28.15,8.16-19.99,0-34.41-7.75-39.44-21.22l23.8-10.34c1.5,6.39,7.75,10.47,15.91,10.47,6.12,0,10.47-2.58,10.47-6.8,0-1.77-.95-3.13-2.72-4.08-1.77-1.09-5.71-2.31-12.1-3.54-6.39-1.22-11.02-2.45-14.14-3.54-3.13-1.22-5.71-2.58-8.02-4.08-6.66-4.49-9.93-11.29-9.93-20.54s3.54-16.46,10.61-22.03c7.07-5.58,16.05-8.43,26.93-8.43,20.13,0,32.91,7.62,36.86,22.3l-24.48,7.07c-1.09-5.3-5.98-8.43-12.38-8.43-5.85,0-9.38,2.72-9.38,6.66,0,1.63.82,2.99,2.58,4.08,1.77,1.09,5.85,2.31,12.1,3.54,6.39,1.22,11.29,2.45,14.42,3.67,3.13,1.22,5.85,2.58,8.16,4.22,6.53,4.76,9.79,11.7,9.79,20.94s-3.67,16.46-10.88,21.9Z"/>
        <path class="cls-1" d="m616.3,95.8V4.96h27.88v90.85h-27.88Z"/>
        <path class="cls-1" d="m717.48,53.78h.27V4.96h26.52v90.85h-24.62l-32.5-48.82h-.27v48.82h-26.66V4.96h26.11l31.14,48.82Z"/>
        <path class="cls-1" d="m811.59,27.94v67.87h-27.88V27.94h-27.61V4.96h83.1v22.98h-27.61Z"/>
        <path class="cls-1" d="m931.28,95.8h-28.42l-5.3-16.05h-31.14l-5.3,16.05h-27.34l32.78-90.85h31.82l32.91,90.85Zm-49.23-62.29h-.27l-8.7,26.11h17.68l-8.7-26.11Z"/>
        <path class="cls-1" d="m997.78,53.78h.27V4.96h26.52v90.85h-24.62l-32.5-48.82h-.27v48.82h-26.66V4.96h26.11l31.14,48.82Z"/>
        <path class="cls-1" d="m1083.05,62.89v-17.27h40.67v50.18h-18.36l-3.13-9.93c-3.67,7.07-13.33,11.56-25.16,11.56s-21.76-4.22-29.38-12.51c-7.62-8.43-11.42-19.58-11.42-33.32,0-14.55,4.22-26.11,12.78-34.95,8.57-8.84,19.72-13.33,33.59-13.33,9.93,0,18.5,2.31,25.71,6.94s11.83,10.88,14.14,18.63l-26.52,10.2c-1.5-8.02-6.12-12.38-13.6-12.38-10.88,0-17.27,8.98-17.27,24.75s6.12,23.8,17.41,23.8c8.16,0,13.19-4.22,13.19-10.74v-1.63h-12.65Z"/>
        <path class="cls-1" d="m1165.87,85.88c0,8.57-2.72,15.64-8.02,21.08-5.3,5.44-12.38,8.16-21.08,8.16v-11.02c8.7-.14,14.01-4.22,14.01-10.61v-.82c-1.63.14-2.45.41-2.86.41-7.07,0-12.38-4.9-12.38-12.38s6.26-13.74,14.01-13.74c9.38,0,16.32,7.89,16.32,18.9Z"/>
      </g>
    </g>
  </g>
</svg>