<?xml version="1.0" encoding="UTF-8"?>
<svg id="Layer_2" data-name="Layer 2" xmlns="http://www.w3.org/2000/svg" viewBox="0 0 1164.3 95.88">
  <defs>
    <style>
      .cls-1, .cls-2 {
        stroke: #000;
        stroke-width: 2px;
      }

      .cls-2 {
        fill: #f4f3d3;
      }
    </style>
  </defs>
  <g id="TFX_Expand" data-name="TFX Expand">
    <g>
      <g>
        <path class="cls-1" d="m466.65,53.6c.17-.33.34-.66.5-1,.17-.33.34-.66.5-1,.17-.33.34-.66.5-1,.17-.33.34-.66.5-1,.17-.33.34-.66.5-1,.17-.33.34-.66.5-1,.17-.33.34-.66.5-1,.17-.33.34-.66.5-1,.17-.33.34-.66.5-1,.17-.33.34-.66.5-1,.17-.33.34-.66.5-1,2-3.79,2.99-8.21,2.99-13.28,0-17.26-11.07-27.37-30.46-27.37h-32.96v1h-.5v1h-.5v1h-.5v1h-.5v1h-.5v1h-.5v1h-.5v1h-.5v1h-.5v1h-.5v1h-.5v1h-.5v79.49h19.99v-1h.5v-1h.5v-1h.5v-1h.5v-1h.5v-1h.5v-1h.5v-1h.5v-1h.5v-1h.5v-1h.5v-1h.5v-12.87h6.97c9.28,0,16.66-2.38,22.13-7.26,2.53-2.2,4.47-4.78,5.84-7.71Zm-34.94-23.82h4.59c7.56,0,11.69,3.43,12.2,10.19-1.71.67-3.77,1.02-6.2,1.02h-10.59v-11.21Z"/>
        <path class="cls-1" d="m687.61,80.16c.18-.33.34-.67.5-1,.18-.33.34-.67.5-1,.18-.33.34-.67.5-1,.18-.33.34-.67.5-1,.18-.33.34-.67.5-1,.18-.33.34-.67.5-1,.18-.33.34-.67.5-1,.18-.33.34-.67.5-1,.18-.33.34-.67.5-1,1.79-3.19,2.7-6.86,2.7-11.01,0-4.76-1.19-9.04-3.57-12.85-1.94-3.1-5.44-6.59-10.59-10.47l7.69-1.69c-.01-.3-.04-.58-.06-.88l.56-.12c-.01-.3-.04-.58-.06-.88l.56-.12c-.01-.3-.04-.58-.06-.88l.56-.12c-.01-.3-.04-.58-.06-.88l.56-.12c-.01-.3-.04-.58-.06-.88l.56-.12c-.01-.3-.04-.58-.06-.88l.56-.12c-.01-.3-.04-.58-.06-.88l.56-.12c-.01-.3-.04-.58-.06-.88l.56-.12c-.01-.3-.04-.58-.06-.88l.56-.12c-.01-.3-.04-.58-.06-.88l.56-.12c-.01-.3-.04-.58-.06-.88l.56-.12c-.01-.3-.04-.58-.06-.88l.56-.12c-.48-13.92-8.57-22.13-22.02-22.13-6.78,0-12.26,2.02-16.54,6.19-1.82,1.77-3.23,3.75-4.28,5.92-.18.33-.34.66-.5,1-.18.33-.34.66-.5,1-.18.33-.34.66-.5,1-.18.33-.34.66-.5,1-.18.33-.34.66-.5,1-.18.33-.34.66-.5,1-.18.33-.34.66-.5,1-.18.33-.34.66-.5,1-.18.33-.34.66-.5,1-.18.33-.34.66-.5,1-.18.33-.34.66-.5,1-1.76,3.18-2.65,6.83-2.65,11.03,0,4.52,1.07,8.57,3.33,12.26,1.74,2.75,4.91,5.86,9.48,9.32l-8.12,2.25c0,.29.03.56.04.85l-.54.15c0,.29.03.56.04.85l-.54.15c0,.29.03.56.04.85l-.54.15c0,.29.03.56.04.85l-.54.15c0,.29.03.56.04.85l-.54.15c0,.29.03.56.04.85l-.54.15c0,.29.03.56.04.85l-.54.15c0,.29.03.56.04.85l-.54.15c0,.29.03.56.04.85l-.54.15c0,.29.03.56.04.85l-.54.15c0,.29.03.56.04.85l-.54.15c0,.29.03.56.04.85l-.54.15c.12,14.28,9.4,23.44,23.33,23.44,6.78,0,12.38-2.02,16.78-6.19,1.9-1.79,3.37-3.82,4.46-6.05.18-.33.34-.67.5-1,.18-.33.34-.67.5-1Zm-19.69-53.33c-.05-.07-.1-.14-.15-.21,1.94.46,3.5,1.92,4.53,4.19-2.11-1.62-3.57-2.93-4.38-3.97Zm1.97,40.92c.27.34.51.69.73,1.05-3.31-.28-5.78-2.73-7.03-6.74,3.09,2.32,5.19,4.22,6.3,5.69Z"/>
        <polygon class="cls-1" points="796.51 82.45 797.01 82.45 797.01 81.45 797.51 81.45 797.51 1.95 780.37 1.95 780.37 2.95 779.87 2.95 779.87 3.95 779.37 3.95 779.37 4.95 778.87 4.95 778.87 5.95 778.37 5.95 778.37 6.95 777.87 6.95 777.87 7.95 777.37 7.95 777.37 8.95 776.87 8.95 776.87 9.95 776.37 9.95 776.37 10.95 775.87 10.95 775.87 11.95 775.37 11.95 775.37 12.95 774.87 12.95 774.87 13.95 774.37 13.95 774.37 34.2 764.54 34.2 764.54 1.95 747.52 1.95 747.52 2.95 747.02 2.95 747.02 3.95 746.52 3.95 746.52 4.95 746.02 4.95 746.02 5.95 745.52 5.95 745.52 6.95 745.02 6.95 745.02 7.95 744.52 7.95 744.52 8.95 744.02 8.95 744.02 9.95 743.52 9.95 743.52 10.95 743.02 10.95 743.02 11.95 742.52 11.95 742.52 12.95 742.02 12.95 742.02 13.95 741.52 13.95 741.52 93.45 758.54 93.45 758.54 92.45 759.04 92.45 759.04 91.45 759.54 91.45 759.54 90.45 760.04 90.45 760.04 89.45 760.54 89.45 760.54 88.45 761.04 88.45 761.04 87.45 761.54 87.45 761.54 86.45 762.04 86.45 762.04 85.45 762.54 85.45 762.54 84.45 763.04 84.45 763.04 83.45 763.54 83.45 763.54 82.45 764.04 82.45 764.04 81.45 764.54 81.45 764.54 60.24 774.37 60.24 774.37 93.45 791.51 93.45 791.51 92.45 792.01 92.45 792.01 91.45 792.51 91.45 792.51 90.45 793.01 90.45 793.01 89.45 793.51 89.45 793.51 88.45 794.01 88.45 794.01 87.45 794.51 87.45 794.51 86.45 795.01 86.45 795.01 85.45 795.51 85.45 795.51 84.45 796.01 84.45 796.01 83.45 796.51 83.45 796.51 82.45"/>
        <polygon class="cls-1" points="1024.62 82.45 1025.12 82.45 1025.12 81.45 1025.62 81.45 1025.62 1.95 1008.49 1.95 1008.49 2.95 1007.99 2.95 1007.99 3.95 1007.49 3.95 1007.49 4.95 1006.99 4.95 1006.99 5.95 1006.49 5.95 1006.49 6.95 1005.99 6.95 1005.99 7.95 1005.49 7.95 1005.49 8.95 1004.99 8.95 1004.99 9.95 1004.49 9.95 1004.49 10.95 1003.99 10.95 1003.99 11.95 1003.49 11.95 1003.49 12.95 1002.99 12.95 1002.99 13.95 1002.49 13.95 1002.49 34.2 992.66 34.2 992.66 1.95 975.64 1.95 975.64 2.95 975.14 2.95 975.14 3.95 974.64 3.95 974.64 4.95 974.14 4.95 974.14 5.95 973.64 5.95 973.64 6.95 973.14 6.95 973.14 7.95 972.64 7.95 972.64 8.95 972.14 8.95 972.14 9.95 971.64 9.95 971.64 10.95 971.14 10.95 971.14 11.95 970.64 11.95 970.64 12.95 970.14 12.95 970.14 13.95 969.64 13.95 969.64 93.45 986.66 93.45 986.66 92.45 987.16 92.45 987.16 91.45 987.66 91.45 987.66 90.45 988.16 90.45 988.16 89.45 988.66 89.45 988.66 88.45 989.16 88.45 989.16 87.45 989.66 87.45 989.66 86.45 990.16 86.45 990.16 85.45 990.66 85.45 990.66 84.45 991.16 84.45 991.16 83.45 991.66 83.45 991.66 82.45 992.16 82.45 992.16 81.45 992.66 81.45 992.66 60.24 1002.49 60.24 1002.49 93.45 1019.62 93.45 1019.62 92.45 1020.12 92.45 1020.12 91.45 1020.62 91.45 1020.62 90.45 1021.12 90.45 1021.12 89.45 1021.62 89.45 1021.62 88.45 1022.12 88.45 1022.12 87.45 1022.62 87.45 1022.62 86.45 1023.12 86.45 1023.12 85.45 1023.62 85.45 1023.62 84.45 1024.12 84.45 1024.12 83.45 1024.62 83.45 1024.62 82.45"/>
        <path class="cls-1" d="m100.89,60.84h26.73v-1h.5v-1h.5v-1h.5v-1h.5v-1h.5v-1h.5v-1h.5v-1h.5v-1h.5v-1h.5v-1h.5v-1h.5v-15h-32.73v-3.23h30.89v-1h.5v-1h.5v-1h.5v-1h.5v-1h.5v-1h.5v-1h.5v-1h.5v-1h.5v-1h.5v-1h.5v-1h.5V1.95h-56.17v1h-.5v1h-.5v1h-.5v1h-.5v1h-.5v1h-.5v1h-.5v1h-.5v1h-.5v1h-.5v1h-.5v1h-.5v63.77l-24.38-35.58,18.91-28.19h-.17l.67-1h-.17l.67-1h-.17l.67-1h-.17l.67-1h-.17l.67-1h-.17l.67-1h-.17l.67-1h-.17l.67-1h-.17l.67-1h-.17l.67-1h-.17l.67-1h-.17l.67-1h-22.25l-20.71,30.94h-6.19V1.95H7v1h-.5v1h-.5v1h-.5v1h-.5v1h-.5v1h-.5v1h-.5v1h-.5v1h-.5v1h-.5v1h-.5v1h-.5v79.49h19.99v-1h.5v-1h.5v-1h.5v-1h.5v-1h.5v-1h.5v-1h.5v-1h.5v-1h.5v-1h.5v-1h.5v-1h.5v-19.7l21.61,31.7h23.56l-.69-1h1.19l-.69-1h1.19l-.69-1h1.19l-.69-1h1.19l-.69-1h1.19l-.69-1h1.19l-.69-1h1.13v7h56.41v-1h.5v-1h.5v-1h.5v-1h.5v-1h.5v-1h.5v-1h.5v-1h.5v-1h.5v-1h.5v-1h.5v-1h.5v-16.66h-37.13v-3.95Zm-25.28,23.61v.19l-.13-.19h.13Zm-.63,1h.63v.92l-.63-.92Z"/>
        <polygon class="cls-1" points="197.04 2.95 196.54 2.95 196.54 3.95 196.04 3.95 196.04 4.95 195.54 4.95 195.54 5.95 195.04 5.95 195.04 6.95 194.54 6.95 194.54 7.95 194.04 7.95 194.04 8.95 193.54 8.95 193.54 9.95 193.04 9.95 193.04 10.95 192.54 10.95 192.54 11.95 192.04 11.95 192.04 12.95 191.54 12.95 191.54 13.95 191.04 13.95 191.04 32.66 166.82 32.66 166.82 1.95 146.82 1.95 146.82 2.95 146.32 2.95 146.32 3.95 145.82 3.95 145.82 4.95 145.32 4.95 145.32 5.95 144.82 5.95 144.82 6.95 144.32 6.95 144.32 7.95 143.82 7.95 143.82 8.95 143.32 8.95 143.32 9.95 142.82 9.95 142.82 10.95 142.32 10.95 142.32 11.95 141.82 11.95 141.82 12.95 141.32 12.95 141.32 13.95 140.82 13.95 140.82 93.45 160.82 93.45 160.82 92.45 161.32 92.45 161.32 91.45 161.82 91.45 161.82 90.45 162.32 90.45 162.32 89.45 162.82 89.45 162.82 88.45 163.32 88.45 163.32 87.45 163.82 87.45 163.82 86.45 164.32 86.45 164.32 85.45 164.82 85.45 164.82 84.45 165.32 84.45 165.32 83.45 165.82 83.45 165.82 82.45 166.32 82.45 166.32 81.45 166.82 81.45 166.82 61.79 191.04 61.79 191.04 93.45 211.04 93.45 211.04 92.45 211.54 92.45 211.54 91.45 212.04 91.45 212.04 90.45 212.54 90.45 212.54 89.45 213.04 89.45 213.04 88.45 213.54 88.45 213.54 87.45 214.04 87.45 214.04 86.45 214.54 86.45 214.54 85.45 215.04 85.45 215.04 84.45 215.54 84.45 215.54 83.45 216.04 83.45 216.04 82.45 216.54 82.45 216.54 81.45 217.04 81.45 217.04 1.95 197.04 1.95 197.04 2.95"/>
        <polygon class="cls-1" points="227.98 2.95 227.48 2.95 227.48 3.95 226.98 3.95 226.98 4.95 226.48 4.95 226.48 5.95 225.98 5.95 225.98 6.95 225.48 6.95 225.48 7.95 224.98 7.95 224.98 8.95 224.48 8.95 224.48 9.95 223.98 9.95 223.98 10.95 223.48 10.95 223.48 11.95 222.98 11.95 222.98 12.95 222.48 12.95 222.48 13.95 221.98 13.95 221.98 93.45 241.97 93.45 241.97 92.45 242.47 92.45 242.47 91.45 242.97 91.45 242.97 90.45 243.47 90.45 243.47 89.45 243.97 89.45 243.97 88.45 244.47 88.45 244.47 87.45 244.97 87.45 244.97 86.45 245.47 86.45 245.47 85.45 245.97 85.45 245.97 84.45 246.47 84.45 246.47 83.45 246.97 83.45 246.97 82.45 247.47 82.45 247.47 81.45 247.97 81.45 247.97 1.95 227.98 1.95 227.98 2.95"/>
        <path class="cls-1" d="m381.85,2.95h-.5v1h-.5v1h-.5v1h-.5v1h-.5v1h-.5v1h-.5v1h-.5v1h-.5v1h-.5v1h-.5v1h-.5v47.24c0,1.13-.06,2.18-.15,3.2-1.97,1.2-4.4,1.82-7.3,1.82-8.92,0-13.33-5.71-13.33-17.02V1.95h-20.11v1h-.5v1h-.5v1h-.5v1h-.5v1h-.5v1h-.5v1h-.5v1h-.5v1h-.5v1h-.5v1h-.5v1h-.5v21.75c-2.14-21.66-16.41-33.75-40.05-33.75h-29.99v1h-.5v1h-.5v1h-.5v1h-.5v1h-.5v1h-.5v1h-.5v1h-.5v1h-.5v1h-.5v1h-.5v1h-.5v79.49h29.99c17.59,0,30.18-6.99,36.25-19.74.17-.33.34-.66.5-1,.17-.33.34-.66.5-1,.17-.33.34-.66.5-1,.17-.33.34-.66.5-1,.17-.33.34-.66.5-1,.17-.33.34-.66.5-1,.17-.33.34-.66.5-1,.17-.33.34-.66.5-1,.17-.33.34-.66.5-1,.17-.33.34-.66.5-1,.17-.33.34-.66.5-1,2.27-4.4,3.72-9.52,4.3-15.31v15.23c0,20.83,12.14,32.25,33.44,32.25,14.85,0,25.24-5.56,30.17-15.97.17-.33.34-.66.5-1,.17-.33.34-.66.5-1,.17-.33.34-.66.5-1,.17-.33.34-.66.5-1,.17-.33.34-.66.5-1,.17-.33.34-.66.5-1,.17-.33.34-.66.5-1,.17-.33.34-.66.5-1,.17-.33.34-.66.5-1,.17-.33.34-.66.5-1,.17-.33.34-.66.5-1,2.47-4.72,3.77-10.5,3.77-17.28V1.95h-19.99v1Zm-94.01,61.83h-8.93V30.61h3.04c13.33,0,20.59,8.09,20.59,22.97,0,2.3-.19,4.42-.54,6.39-3.47,3.17-8.24,4.82-14.17,4.82Z"/>
        <path class="cls-1" d="m603.06,2.95h-.5v1h-.5v1h-.5v1h-.5v1h-.5v1h-.5v1h-.5v1h-.5v1h-.5v1h-.5v1h-.5v1h-.5v27.84l-25.65-39.84h-18.92v1h-.5v1h-.5v1h-.5v1h-.5v1h-.5v1h-.5v1h-.5v1h-.5v1h-.5v1h-.5v1h-.5v1h-.5v63.42L519.05,1.95h-22.73l-.36,1h-.14l-.36,1h-.14l-.36,1h-.14l-.36,1h-.14l-.36,1h-.14l-.36,1h-.14l-.36,1h-.14l-.36,1h-.14l-.36,1h-.14l-.36,1h-.14l-.36,1h-.14l-.36,1h-.14l-28.92,79.49h19.64l.35-1h.15l.35-1h.15l.35-1h.15l.35-1h.15l.35-1h.15l.35-1h.15l.35-1h.15l.35-1h.15l.35-1h.15l.35-1h.15l.35-1h.15l.35-1h.15l1.57-4.54h27.3l5.71,16.54h20.35l-.36-1h.86l-.36-1h.86l-.36-1h.86l-.36-1h.86l-.36-1h.86l-.36-1h.86l-.36-1h.86l-.36-1h.86l-.36-1h.86l-.36-1h.38v10h19.16v-1h.5v-1h.5v-1h.5v-1h.5v-1h.5v-1h.5v-1h.5v-1h.5v-1h.5v-1h.5v-1h.5v-1h.5v-28.37l26.85,40.37h17.73v-1h.5v-1h.5v-1h.5v-1h.5v-1h.5v-1h.5v-1h.5v-1h.5v-1h.5v-1h.5v-1h.5v-1h.5V1.95h-19.16v1Zm-105.31,47.2l4.47-13.07,4.47,13.07h-8.94Z"/>
        <polygon class="cls-1" points="701 2.95 700.5 2.95 700.5 3.95 700 3.95 700 4.95 699.5 4.95 699.5 5.95 699 5.95 699 6.95 698.5 6.95 698.5 7.95 698 7.95 698 8.95 697.5 8.95 697.5 9.95 697 9.95 697 10.95 696.5 10.95 696.5 11.95 696 11.95 696 12.95 695.5 12.95 695.5 13.95 695 13.95 695 93.45 733.79 93.45 733.79 92.45 734.29 92.45 734.29 91.45 734.79 91.45 734.79 90.45 735.29 90.45 735.29 89.45 735.79 89.45 735.79 88.45 736.29 88.45 736.29 87.45 736.79 87.45 736.79 86.45 737.29 86.45 737.29 85.45 737.79 85.45 737.79 84.45 738.29 84.45 738.29 83.45 738.79 83.45 738.79 82.45 739.29 82.45 739.29 81.45 739.79 81.45 739.79 67.29 717.78 67.29 717.78 59.89 730.34 59.89 730.34 58.89 730.84 58.89 730.84 57.89 731.34 57.89 731.34 56.89 731.84 56.89 731.84 55.89 732.34 55.89 732.34 54.89 732.84 54.89 732.84 53.89 733.34 53.89 733.34 52.89 733.84 52.89 733.84 51.89 734.34 51.89 734.34 50.89 734.84 50.89 734.84 49.89 735.34 49.89 735.34 48.89 735.84 48.89 735.84 47.89 736.34 47.89 736.34 34.44 717.78 34.44 717.78 28.11 733.79 28.11 733.79 27.11 734.29 27.11 734.29 26.11 734.79 26.11 734.79 25.11 735.29 25.11 735.29 24.11 735.79 24.11 735.79 23.11 736.29 23.11 736.29 22.11 736.79 22.11 736.79 21.11 737.29 21.11 737.29 20.11 737.79 20.11 737.79 19.11 738.29 19.11 738.29 18.11 738.79 18.11 738.79 17.11 739.29 17.11 739.29 16.11 739.79 16.11 739.79 1.95 701 1.95 701 2.95"/>
        <path class="cls-1" d="m918.17,2.95h-.5v1h-.5v1h-.5v1h-.5v1h-.5v1h-.5v1h-.5v1h-.5v1h-.5v1h-.5v1h-.5v1h-.5v66.63c-1.26-2.2-2.15-4.82-2.57-8.18l-2.14-15.59c-.61-4.37-2.32-7.7-4.95-9.87.02-.04.04-.09.05-.13.17-.33.34-.66.5-1,.17-.33.34-.66.5-1,.17-.33.34-.66.5-1,.17-.33.34-.66.5-1,.17-.33.34-.66.5-1,.17-.33.34-.66.5-1,.17-.33.34-.66.5-1,.17-.33.34-.66.5-1,.17-.33.34-.66.5-1,.17-.33.34-.66.5-1,.17-.33.34-.66.5-1,1.59-3.02,2.49-6.67,2.49-10.78,0-15.23-8.21-23.09-24.28-23.09h-24.16v1h-.5v1h-.5v1h-.5v1h-.5v1h-.5v1h-.5v1h-.5v1h-.5v1h-.5v1h-.5v1h-.5v1h-.5v64.33l-15.66-76.33h-21.42l-.21,1h-.29l-.21,1h-.29l-.21,1h-.29l-.21,1h-.29l-.21,1h-.29l-.21,1h-.29l-.21,1h-.29l-.21,1h-.29l-.21,1h-.29l-.21,1h-.29l-.21,1h-.29l-.21,1h-.29l-16.3,79.49h16.07l.17-1h.33l.17-1h.33l.17-1h.33l.17-1h.33l.17-1h.33l.17-1h.33l.17-1h.33l.17-1h.33l.17-1h.33l.17-1h.33l.17-1h.33l.17-1h.33l1.01-5.85h11.31l3.09,17.85h16.54l-.21-1h.71l-.21-1h.71l-.21-1h.71l-.21-1h.71l-.21-1h.71l-.21-1h.71l-.21-1h.71l-.21-1h.71l-.21-1h.71l-.21-1h.71l-.21-1h.56v11h16.9v-1h.5v-1h.5v-1h.5v-1h.5v-1h.5v-1h.5v-1h.5v-1h.5v-1h.5v-1h.5v-1h.5v-1h.5v-18.24c3.31.47,4.94,2.58,5.66,7.03l1.67,14.64c.59,4.17,1.43,6.78,2.5,8.57h17.85c-.21-.32-.41-.66-.6-1h1.1c-.21-.32-.41-.66-.6-1h1.1c-.21-.32-.41-.66-.6-1h1.1c-.21-.32-.41-.66-.6-1h1.1c-.21-.32-.41-.66-.6-1h1.1c-.21-.32-.41-.66-.6-1h1.1c-.21-.32-.41-.66-.6-1h1.1c-.21-.32-.41-.66-.6-1h1.1c-.21-.32-.41-.66-.6-1h1.1c-.21-.32-.41-.66-.6-1h1.1c-.21-.32-.41-.66-.6-1h1.07v11h17.02v-1h.5v-1h.5v-1h.5v-1h.5v-1h.5v-1h.5v-1h.5v-1h.5v-1h.5v-1h.5v-1h.5v-1h.5V1.95h-17.02v1Zm-31.13,34.9c-.84.18-1.76.27-2.78.27h-5.24v-10.34c5.39.28,7.8,3.16,8.02,10.07Zm-62.88,12.89l1.29-7.52,1.32,7.52h-2.61Zm31.9,30.7h.06v.28l-.06-.28Zm55.53,0h.57v.95c-.2-.31-.39-.63-.57-.95Z"/>
        <polygon class="cls-1" points="942.68 35.44 942.18 35.44 942.18 36.44 941.68 36.44 941.68 37.44 941.18 37.44 941.18 38.44 940.68 38.44 940.68 39.44 940.18 39.44 940.18 40.44 939.68 40.44 939.68 41.44 939.18 41.44 939.18 42.44 938.68 42.44 938.68 43.44 938.18 43.44 938.18 44.44 937.68 44.44 937.68 45.44 937.18 45.44 937.18 46.44 936.68 46.44 936.68 61.32 962.15 61.32 962.15 60.32 962.65 60.32 962.65 59.32 963.15 59.32 963.15 58.32 963.65 58.32 963.65 57.32 964.15 57.32 964.15 56.32 964.65 56.32 964.65 55.32 965.15 55.32 965.15 54.32 965.65 54.32 965.65 53.32 966.15 53.32 966.15 52.32 966.65 52.32 966.65 51.32 967.15 51.32 967.15 50.32 967.65 50.32 967.65 49.32 968.15 49.32 968.15 34.44 942.68 34.44 942.68 35.44"/>
        <path class="cls-1" d="m1163.3,1.95h-17.02v1h-.5v1h-.5v1h-.5v1h-.5v1h-.5v1h-.5v1h-.5v1h-.5v1h-.5v1h-.5v1h-.5v1h-.5v66.63c-1.26-2.2-2.15-4.82-2.57-8.18l-2.14-15.59c-.61-4.37-2.32-7.7-4.95-9.87.02-.04.04-.09.05-.13.17-.33.34-.66.5-1,.17-.33.34-.66.5-1,.17-.33.34-.66.5-1,.17-.33.34-.66.5-1,.17-.33.34-.66.5-1,.17-.33.34-.66.5-1,.17-.33.34-.66.5-1,.17-.33.34-.66.5-1,.17-.33.34-.66.5-1,.17-.33.34-.66.5-1,.17-.33.34-.66.5-1,1.59-3.02,2.49-6.67,2.49-10.78,0-15.23-8.21-23.09-24.28-23.09h-24.16v1h-.5v1h-.5v1h-.5v1h-.5v1h-.5v1h-.5v1h-.5v1h-.5v1h-.5v1h-.5v1h-.5v1h-.5v64.33l-15.66-76.33h-21.42l-.21,1h-.29l-.21,1h-.29l-.21,1h-.29l-.21,1h-.29l-.21,1h-.29l-.21,1h-.29l-.21,1h-.29l-.21,1h-.29l-.21,1h-.29l-.21,1h-.29l-.21,1h-.29l-.21,1h-.29l-16.3,79.49h16.07l.17-1h.33l.17-1h.33l.17-1h.33l.17-1h.33l.17-1h.33l.17-1h.33l.17-1h.33l.17-1h.33l.17-1h.33l.17-1h.33l.17-1h.33l.17-1h.33l1.01-5.85h11.31l3.09,17.85h16.54l-.21-1h.71l-.21-1h.71l-.21-1h.71l-.21-1h.71l-.21-1h.71l-.21-1h.71l-.21-1h.71l-.21-1h.71l-.21-1h.71l-.21-1h.71l-.21-1h.56v11h16.9v-1h.5v-1h.5v-1h.5v-1h.5v-1h.5v-1h.5v-1h.5v-1h.5v-1h.5v-1h.5v-1h.5v-1h.5v-18.24c3.31.47,4.94,2.58,5.66,7.03l1.67,14.64c.59,4.17,1.43,6.78,2.5,8.57h17.85c-.21-.32-.41-.66-.6-1h1.1c-.21-.32-.41-.66-.6-1h1.1c-.21-.32-.41-.66-.6-1h1.1c-.21-.32-.41-.66-.6-1h1.1c-.21-.32-.41-.66-.6-1h1.1c-.21-.32-.41-.66-.6-1h1.1c-.21-.32-.41-.66-.6-1h1.1c-.21-.32-.41-.66-.6-1h1.1c-.21-.32-.41-.66-.6-1h1.1c-.21-.32-.41-.66-.6-1h1.1c-.21-.32-.41-.66-.6-1h1.07v11h17.02v-1h.5v-1h.5v-1h.5v-1h.5v-1h.5v-1h.5v-1h.5v-1h.5v-1h.5v-1h.5v-1h.5v-1h.5V1.95Zm-48.15,35.9c-.84.18-1.76.27-2.78.27h-5.24v-10.34c5.39.28,7.8,3.16,8.02,10.07Zm-62.88,12.89l1.29-7.52,1.32,7.52h-2.61Zm31.9,30.7h.06v.28l-.06-.28Zm55.53,0h.57v.95c-.2-.31-.39-.63-.57-.95Z"/>
      </g>
      <g>
        <path class="cls-2" d="m50.2,40.63l27.97,40.82h-23.56l-21.66-31.77h-5.95v31.77H7V1.95h19.99v30.94h6.19L53.89,1.95h22.25l-25.94,38.68Z"/>
        <path class="cls-2" d="m100.89,64.79h37.13v16.66h-56.41V1.95h56.17v16.66h-36.89v15.23h32.73v15h-32.73v15.95Z"/>
        <path class="cls-2" d="m166.82,49.79v31.65h-19.99V1.95h19.99v30.7h30.23V1.95h19.99v79.49h-19.99v-31.65h-30.23Z"/>
        <path class="cls-2" d="m227.98,81.45V1.95h19.99v79.49h-19.99Z"/>
        <path class="cls-2" d="m258.92,81.45V1.95h29.99c25.7,0,40.34,14.28,40.34,39.63s-14.99,39.87-40.34,39.87h-29.99Zm19.99-62.83v46.17h8.93c13.21,0,20.71-8.09,20.71-23.21s-7.26-22.97-20.59-22.97h-9.04Z"/>
        <path class="cls-2" d="m381.85,49.2V1.95h19.99v48.67c0,20.83-12.14,32.25-33.44,32.25s-33.44-11.42-33.44-32.25V1.95h20.11v47.24c0,11.31,4.4,17.02,13.33,17.02s13.45-5.71,13.45-17.02Z"/>
        <path class="cls-2" d="m466.81,49.32c-5.47,4.88-12.85,7.26-22.13,7.26h-12.97v24.87h-19.99V1.95h32.96c19.4,0,30.46,10.12,30.46,27.37,0,8.45-2.74,15.11-8.33,19.99Zm-24.51-31.54h-10.59v23.21h10.59c8.21,0,12.26-3.81,12.26-11.54s-4.17-11.66-12.26-11.66Z"/>
        <path class="cls-2" d="m547.97,81.45h-20.35l-5.71-16.54h-29.16l-5.71,16.54h-19.64L496.32,1.95h22.73l28.92,79.49Zm-40.58-58.79h-.24l-9.4,27.49h19.04l-9.4-27.49Z"/>
        <path class="cls-2" d="m602.83,50.74h.24V1.95h19.16v79.49h-17.73l-32.61-49.03h-.24v49.03h-19.16V1.95h18.92l31.42,48.79Z"/>
        <path class="cls-2" d="m688.15,76.21c-4.4,4.17-10,6.19-16.78,6.19-13.92,0-23.21-9.16-23.33-23.44l14.64-4.05c-.12,8.45,3.21,13.92,8.57,13.92,4.28,0,6.78-2.62,6.78-7.26,0-2.02-.71-4.05-2.14-5.83-1.43-1.9-4.52-4.52-9.28-7.85-7.02-4.76-11.66-8.93-13.92-12.5-2.26-3.69-3.33-7.74-3.33-12.26,0-6.54,2.14-11.78,6.43-15.95s9.76-6.19,16.54-6.19c13.45,0,21.54,8.21,22.02,22.13l-14.64,3.21c0-7.26-2.86-11.9-7.26-11.9-3.93,0-6.54,2.74-6.54,7.02,0,1.79.71,3.57,2.02,5.36,1.31,1.67,4.28,4.05,8.92,7.26,7.26,5,12.02,9.4,14.4,13.21,2.38,3.81,3.57,8.09,3.57,12.85,0,6.55-2.26,11.9-6.66,16.07Z"/>
        <path class="cls-2" d="m717.78,67.29h22.02v14.16h-38.8V1.95h38.8v14.16h-22.02v18.33h18.56v13.45h-18.56v19.4Z"/>
        <path class="cls-2" d="m764.54,48.24v33.2h-17.02V1.95h17.02v32.25h15.83V1.95h17.14v79.49h-17.14v-33.2h-15.83Z"/>
        <path class="cls-2" d="m856.77,81.45h-16.54l-3.09-17.85h-15.23l-3.09,17.85h-16.07L819.04,1.95h21.42l16.3,79.49Zm-27.13-60.57h-.36l-5.12,29.87h10.71l-5.24-29.87Z"/>
        <path class="cls-2" d="m894.85,81.45c-1.07-1.79-1.9-4.4-2.5-8.57l-1.67-14.64c-.83-5.12-2.86-7.14-7.26-7.14h-4.4v30.35h-16.9V1.95h24.16c16.07,0,24.28,7.85,24.28,23.09,0,10-5.24,17.37-13.21,19.16v.24c5.59,1.31,9.16,5.59,10.12,12.38l2.14,15.59c.48,3.81,1.55,6.66,3.09,9.04h-17.85Zm-10.71-65.69h-5.12v22.37h5.24c6.19,0,8.81-3.09,8.81-11.19s-2.62-11.19-8.93-11.19Z"/>
        <path class="cls-2" d="m918.17,81.45V1.95h17.02v79.49h-17.02Z"/>
        <path class="cls-2" d="m968.15,49.32h-25.47v-14.88h25.47v14.88Z"/>
        <path class="cls-2" d="m992.66,48.24v33.2h-17.02V1.95h17.02v32.25h15.83V1.95h17.14v79.49h-17.14v-33.2h-15.83Z"/>
        <path class="cls-2" d="m1084.89,81.45h-16.54l-3.09-17.85h-15.23l-3.09,17.85h-16.07l16.3-79.49h21.42l16.3,79.49Zm-27.13-60.57h-.36l-5.12,29.87h10.71l-5.24-29.87Z"/>
        <path class="cls-2" d="m1122.96,81.45c-1.07-1.79-1.9-4.4-2.5-8.57l-1.67-14.64c-.83-5.12-2.86-7.14-7.26-7.14h-4.4v30.35h-16.9V1.95h24.16c16.07,0,24.28,7.85,24.28,23.09,0,10-5.24,17.37-13.21,19.16v.24c5.59,1.31,9.16,5.59,10.12,12.38l2.14,15.59c.48,3.81,1.55,6.66,3.09,9.04h-17.85Zm-10.71-65.69h-5.12v22.37h5.24c6.19,0,8.81-3.09,8.81-11.19s-2.62-11.19-8.93-11.19Z"/>
        <path class="cls-2" d="m1146.29,81.45V1.95h17.02v79.49h-17.02Z"/>
      </g>
    </g>
  </g>
</svg>