<?xml version="1.0" encoding="UTF-8"?>
<svg id="Layer_2" data-name="Layer 2" xmlns="http://www.w3.org/2000/svg" viewBox="0 0 539.08 89.47">
  <defs>
    <style>
      .cls-1, .cls-2 {
        stroke: #000;
        stroke-width: 2px;
      }

      .cls-2 {
        fill: #f4f3d3;
      }
    </style>
  </defs>
  <g id="TFX_Expand" data-name="TFX Expand">
    <g>
      <g>
        <path class="cls-1" d="m279.87,48.74c0-.17,0-.33,0-.5s0-.33,0-.5c0-.17,0-.33,0-.5s0-.33,0-.5c0-.17,0-.33,0-.5s0-.33,0-.5c0-.17,0-.33,0-.5s0-.33,0-.5c0-.17,0-.33,0-.5s0-.33,0-.5c0-.17,0-.33,0-.5s0-.33,0-.5c0-.17,0-.33,0-.5s0-.33,0-.5c0-.17,0-.33,0-.5s0-.33,0-.5c0-.17,0-.33,0-.5,0-25.26-14.8-39.24-40.29-39.24h-32.42v87.47h32.42c25.49,0,40.29-14.21,40.29-39.24,0-.17,0-.33,0-.5Zm-41.81-18.76c9.54,0,15.32,5.02,16.63,14.75-1.31,9.67-7.09,14.78-16.63,14.78h-6.81v-29.53h6.81Z"/>
        <path class="cls-1" d="m51.4,2v77.17l-13.88-35.52,12.94-33.64h-.38l.38-1h-.38l.38-1h-.38l.38-1h-.38l.38-1h-.38l.38-1h-.38l.38-1h-.38l.38-1h-.38l.38-1h-.38l.38-1h-18.09l-11.4,31.6h-3.17V1H1v87.47h16.8v-32.54h3.17l12.22,32.54h56.5v-22.98h-21.73v-10.15h18.33v-22.27h-18.33v-9.09h21.73V1h-38.3v1Zm0,78.17l-.27-.69h.27v.69Zm0,1l-.27-.69h.27v.69Zm0,1l-.27-.69h.27v.69Zm0,1l-.27-.69h.27v.69Zm0,1l-.27-.69h.27v.69Zm0,1l-.27-.69h.27v.69Zm0,1l-.27-.69h.27v.69Zm0,1l-.27-.69h.27v.69Zm-.27.31h.27v.69l-.27-.69Z"/>
        <polygon class="cls-1" points="94.51 2 94.51 3 94.51 4 94.51 5 94.51 6 94.51 7 94.51 8 94.51 9 94.51 10 94.51 79.47 94.51 80.47 94.51 81.47 94.51 82.47 94.51 83.47 94.51 84.47 94.51 85.47 94.51 86.47 94.51 87.47 94.51 88.47 118.59 88.47 118.59 87.47 118.59 86.47 118.59 85.47 118.59 84.47 118.59 83.47 118.59 82.47 118.59 81.47 118.59 80.47 118.59 79.47 118.59 10 118.59 9 118.59 8 118.59 7 118.59 6 118.59 5 118.59 4 118.59 3 118.59 2 118.59 1 94.51 1 94.51 2"/>
        <polygon class="cls-1" points="176.27 2 176.27 3 176.27 4 176.27 5 176.27 6 176.27 7 176.27 8 176.27 9 176.27 10 176.27 43.17 176.03 43.17 149.13 1 126.58 1 126.58 2 126.58 3 126.58 4 126.58 5 126.58 6 126.58 7 126.58 8 126.58 9 126.58 10 126.58 79.47 126.58 80.47 126.58 81.47 126.58 82.47 126.58 83.47 126.58 84.47 126.58 85.47 126.58 86.47 126.58 87.47 126.58 88.47 149.6 88.47 149.6 87.47 149.6 86.47 149.6 85.47 149.6 84.47 149.6 83.47 149.6 82.47 149.6 81.47 149.6 80.47 149.6 79.47 149.6 46.3 149.84 46.3 177.91 88.47 199.18 88.47 199.18 87.47 199.18 86.47 199.18 85.47 199.18 84.47 199.18 83.47 199.18 82.47 199.18 81.47 199.18 80.47 199.18 79.47 199.18 10 199.18 9 199.18 8 199.18 7 199.18 6 199.18 5 199.18 4 199.18 3 199.18 2 199.18 1 176.27 1 176.27 2"/>
        <path class="cls-1" d="m330.04,1h-27.49l-28.31,78.47h.36l-.36,1h.36l-.36,1h.36l-.36,1h.36l-.36,1h.36l-.36,1h.36l-.36,1h.36l-.36,1h.36l-.36,1h.36l-.36,1h23.61l4.58-13.86h26.9l4.58,13.86h24.55l-.36-1h.36l-.36-1h.36l-.36-1h.36l-.36-1h.36l-.36-1h.36l-.36-1h.36l-.36-1h.36l-.36-1h.36l-.36-1h.36L330.04,1Zm-14.33,33.67h.24l4.52,13.56h-9.27l4.52-13.56Z"/>
        <polygon class="cls-1" points="409.57 2 409.57 3 409.57 4 409.57 5 409.57 6 409.57 7 409.57 8 409.57 9 409.57 10 409.57 29.43 384.66 29.43 384.66 10 384.66 9 384.66 8 384.66 7 384.66 6 384.66 5 384.66 4 384.66 3 384.66 2 384.66 1 360.58 1 360.58 2 360.58 3 360.58 4 360.58 5 360.58 6 360.58 7 360.58 8 360.58 9 360.58 10 360.58 79.47 360.58 80.47 360.58 81.47 360.58 82.47 360.58 83.47 360.58 84.47 360.58 85.47 360.58 86.47 360.58 87.47 360.58 88.47 384.66 88.47 384.66 87.47 384.66 86.47 384.66 85.47 384.66 84.47 384.66 83.47 384.66 82.47 384.66 81.47 384.66 80.47 384.66 79.47 384.66 59.11 409.57 59.11 409.57 79.47 409.57 80.47 409.57 81.47 409.57 82.47 409.57 83.47 409.57 84.47 409.57 85.47 409.57 86.47 409.57 87.47 409.57 88.47 433.65 88.47 433.65 87.47 433.65 86.47 433.65 85.47 433.65 84.47 433.65 83.47 433.65 82.47 433.65 81.47 433.65 80.47 433.65 79.47 433.65 10 433.65 9 433.65 8 433.65 7 433.65 6 433.65 5 433.65 4 433.65 3 433.65 2 433.65 1 409.57 1 409.57 2"/>
        <path class="cls-1" d="m473.36,1h-21.15l-16.09,78.47h.21l-.21,1h.21l-.21,1h.21l-.21,1h.21l-.21,1h.21l-.21,1h.21l-.21,1h.21l-.21,1h.21l-.21,1h.21l-.21,1h15.86l3.05-17.62h15.04l3.05,17.62h16.33l-.21-1h.21l-.21-1h.21l-.21-1h.21l-.21-1h.21l-.21-1h.21l-.21-1h.21l-.21-1h.21l-.21-1h.21l-.21-1h.21L473.36,1Zm-11.04,27.68h.35l3.59,20.49h-7.45l3.51-20.49Z"/>
        <polygon class="cls-1" points="522.69 1 522.69 2 522.69 3 522.69 4 522.69 5 522.69 6 522.69 7 522.69 8 522.69 9 522.69 10 522.69 43.64 522.22 43.64 505.89 1 490.03 1 490.03 2 490.03 3 490.03 4 490.03 5 490.03 6 490.03 7 490.03 8 490.03 9 490.03 10 490.03 79.47 490.03 80.47 490.03 81.47 490.03 82.47 490.03 83.47 490.03 84.47 490.03 85.47 490.03 86.47 490.03 87.47 490.03 88.47 505.42 88.47 505.42 87.47 505.42 86.47 505.42 85.47 505.42 84.47 505.42 83.47 505.42 82.47 505.42 81.47 505.42 80.47 505.42 79.47 505.42 44.07 505.78 44.07 523.4 88.47 538.08 88.47 538.08 87.47 538.08 86.47 538.08 85.47 538.08 84.47 538.08 83.47 538.08 82.47 538.08 81.47 538.08 80.47 538.08 79.47 538.08 10 538.08 9 538.08 8 538.08 7 538.08 6 538.08 5 538.08 4 538.08 3 538.08 2 538.08 1 522.69 1"/>
      </g>
      <g>
        <path class="cls-2" d="m35.77,39.18l15.74,40.29h-18.33l-12.22-32.54h-3.17v32.54H1V1h16.8v31.6h3.17L32.37,1h18.09l-14.68,38.18Z"/>
        <path class="cls-2" d="m67.96,65.5h21.73v13.98h-38.3V1h38.3v13.98h-21.73v18.09h18.33v13.27h-18.33v19.15Z"/>
        <path class="cls-2" d="m94.51,79.47V1h24.08v78.47h-24.08Z"/>
        <path class="cls-2" d="m176.03,43.17h.24V1h22.91v78.47h-21.26l-28.08-42.17h-.24v42.17h-23.03V1h22.56l26.9,42.17Z"/>
        <path class="cls-2" d="m207.16,79.47V1h32.42c25.49,0,40.29,13.98,40.29,39.24s-14.8,39.24-40.29,39.24h-32.42Zm24.08-58.5v38.53h6.81c10.93,0,16.92-6.7,16.92-19.27s-5.99-19.27-16.92-19.27h-6.81Z"/>
        <path class="cls-2" d="m358.47,79.47h-24.55l-4.58-13.86h-26.9l-4.58,13.86h-23.61L302.55,1h27.49l28.43,78.47Zm-42.53-53.8h-.24l-7.52,22.56h15.27l-7.52-22.56Z"/>
        <path class="cls-2" d="m384.66,50.11v29.37h-24.08V1h24.08v28.43h24.91V1h24.08v78.47h-24.08v-29.37h-24.91Z"/>
        <path class="cls-2" d="m489.45,79.47h-16.33l-3.05-17.62h-15.04l-3.05,17.62h-15.86L452.21,1h21.15l16.09,78.47Zm-26.79-59.8h-.35l-5.05,29.49h10.57l-5.17-29.49Z"/>
        <path class="cls-2" d="m522.22,43.64h.47V1h15.39v78.47h-14.68l-17.62-44.41h-.35v44.41h-15.39V1h15.86l16.33,42.64Z"/>
      </g>
    </g>
  </g>
</svg>