<?xml version="1.0" encoding="UTF-8"?>
<svg id="Layer_2" data-name="Layer 2" xmlns="http://www.w3.org/2000/svg" viewBox="0 0 583.49 104.16">
  <defs>
    <style>
      .cls-1, .cls-2 {
        stroke: #000;
        stroke-width: 2px;
      }

      .cls-2 {
        fill: #f4f3d3;
      }
    </style>
  </defs>
  <g id="TFX_Expand" data-name="TFX Expand">
    <g>
      <g>
        <path class="cls-1" d="m304.77,67.78c0-.21.02-.42.02-.63,0-.13-.01-.25-.02-.37,0-.21.02-.42.02-.63,0-.13-.01-.25-.02-.37,0-.21.02-.42.02-.63,0-.13-.01-.25-.02-.37,0-.21.02-.42.02-.63,0-.13-.01-.25-.02-.37,0-.21.02-.42.02-.63,0-.13-.01-.25-.02-.37,0-.21.02-.42.02-.63,0-.13-.01-.25-.02-.37,0-.21.02-.42.02-.63,0-.13-.01-.25-.02-.37,0-.21.02-.42.02-.63,0-.13-.01-.25-.02-.37,0-.21.02-.42.02-.63,0-6.41-2.69-11.56-7.36-14.78,2.62-3.06,4.07-7.17,4.07-12.05,0-.15-.02-.29-.02-.43,0-.19.02-.38.02-.57,0-.15-.02-.29-.02-.43,0-.19.02-.38.02-.57,0-.15-.02-.29-.02-.43,0-.19.02-.38.02-.57,0-.15-.02-.29-.02-.43,0-.19.02-.38.02-.57,0-.15-.02-.29-.02-.43,0-.19.02-.38.02-.57,0-.15-.02-.29-.02-.43,0-.19.02-.38.02-.57,0-.15-.02-.29-.02-.43,0-.19.02-.38.02-.57,0-.15-.02-.29-.02-.43,0-.19.02-.38.02-.57,0-.15-.02-.29-.02-.43,0-.19.02-.38.02-.57,0-13.04-9.28-20.91-24.44-20.91h-39.35v87.47h39.47c17.39,0,27.61-8.22,27.61-21.73,0-.13-.01-.25-.02-.37Zm-34.64-38.75c3.19,0,5.44.94,6.7,2.86-1.29,1.87-3.63,2.83-6.93,2.83h-8.93v-5.68h9.16Zm1.64,28.67c3.47,0,5.92,1.02,7.26,2.98-1.31,1.85-3.7,2.71-7.26,2.71h-10.81v-5.68h10.81Z"/>
        <path class="cls-1" d="m582.47,75.59c0-.15.02-.3.02-.46,0-7.87-4.23-13.04-10.81-13.04-5.17,0-9.16,3.88-9.16,9.16,0,.18.01.35.02.52,0,.16-.02.31-.02.48,0,.18.01.35.02.52,0,.16-.02.31-.02.48,0,.18.01.35.02.52,0,.16-.02.31-.02.48,0,.18.01.35.02.52,0,.16-.02.31-.02.48,0,.18.01.35.02.52,0,.16-.02.31-.02.48,0,.18.01.35.02.52,0,.16-.02.31-.02.48,0,.18.01.35.02.52,0,.16-.02.31-.02.48,0,.18.01.35.02.52,0,.16-.02.31-.02.48,0,.18.01.35.02.52,0,.16-.02.31-.02.48,0,2.84,1.15,5.23,3.04,6.71-.59.08-1.21.13-1.86.15v16.05c11.4,0,18.8-7.4,18.8-19.03,0-.18-.01-.36-.02-.54,0-.15.02-.3.02-.46,0-.18-.01-.36-.02-.54,0-.15.02-.3.02-.46,0-.18-.01-.36-.02-.54,0-.15.02-.3.02-.46,0-.18-.01-.36-.02-.54,0-.15.02-.3.02-.46,0-.18-.01-.36-.02-.54,0-.15.02-.3.02-.46,0-.18-.01-.36-.02-.54,0-.15.02-.3.02-.46,0-.18-.01-.36-.02-.54,0-.15.02-.3.02-.46,0-.18-.01-.36-.02-.54,0-.15.02-.3.02-.46,0-.18-.01-.36-.02-.54Z"/>
        <path class="cls-1" d="m207.17,2.41h-27.49l-24.36,67.53c.26-1.47.4-3.01.4-4.61,0-.18,0-.35-.01-.53,0-.16.01-.31.01-.47,0-.18,0-.35-.01-.53,0-.16.01-.31.01-.47,0-.18,0-.35-.01-.53,0-.16.01-.31.01-.47,0-.18,0-.35-.01-.53,0-.16.01-.31.01-.47,0-.18,0-.35-.01-.53,0-.16.01-.31.01-.47,0-.18,0-.35-.01-.53,0-.16.01-.31.01-.47,0-.18,0-.35-.01-.53,0-.16.01-.31.01-.47,0-.18,0-.35-.01-.53,0-.16.01-.31.01-.47,0-.18,0-.35-.01-.53,0-.16.01-.31.01-.47,0-7.99-2.82-13.98-8.46-18.09-2-1.41-4.35-2.58-7.05-3.64-.49-.19-1.06-.39-1.65-.58l16.45-4.75c-.08-.31-.2-.61-.29-.92l.29-.08c-.08-.31-.2-.61-.29-.92l.29-.08c-.08-.31-.2-.61-.29-.92l.29-.08c-.08-.31-.2-.61-.29-.92l.29-.08c-.08-.31-.2-.61-.29-.92l.29-.08c-.08-.31-.2-.61-.29-.92l.29-.08c-.08-.31-.2-.61-.29-.92l.29-.08c-.08-.31-.2-.61-.29-.92l.29-.08c-.08-.31-.2-.61-.29-.92l.29-.08c-3.41-12.69-14.45-19.27-31.84-19.27-9.4,0-17.15,2.47-23.26,7.28-6.11,4.82-9.16,11.16-9.16,19.03,0,.18,0,.35.01.52,0,.16-.01.32-.01.48,0,.18,0,.35.01.52,0,.16-.01.32-.01.48,0,.18,0,.35.01.52,0,.16-.01.32-.01.48,0,.18,0,.35.01.52,0,.16-.01.32-.01.48,0,.18,0,.35.01.52,0,.16-.01.32-.01.48,0,.18,0,.35.01.52,0,.16-.01.32-.01.48,0,.18,0,.35.01.52,0,.16-.01.32-.01.48,0,.18,0,.35.01.52,0,.16-.01.32-.01.48,0,.18,0,.35.01.52,0,.16-.01.32-.01.48,0,7.99,2.82,13.86,8.58,17.74,1.52.99,3.19,1.9,5.09,2.75l-16.49,7.16c.11.29.24.56.36.84l-.36.16c.11.29.24.56.36.84l-.36.16c.11.29.24.56.36.84l-.22.09h-20.11v-10.15h18.33v-22.27h-18.33v-9.09h21.73V2.41h-38.3v78.17l-13.88-35.52,12.94-33.64h-.38l.38-1h-.38l.38-1h-.38l.38-1h-.38l.38-1h-.38l.38-1h-.38l.38-1h-.38l.38-1h-.38l.38-1h-.38l.38-1h-18.09l-11.4,31.6h-3.17V2.41H1v87.47h16.8v-32.54h3.17l12.22,32.54h56.5v-13.23c5.43,9.34,16.96,14.64,32.3,14.64,9.99,0,18.09-2.35,24.32-7.05,2.71-2.05,4.84-4.41,6.39-7.07l-1.34,3.71h.36l-.36,1h.36l-.36,1h.36l-.36,1h.36l-.36,1h.36l-.36,1h.36l-.36,1h.36l-.36,1h.36l-.36,1h.36l-.36,1h23.61l4.58-13.86h26.9l4.58,13.86h24.55l-.36-1h.36l-.36-1h.36l-.36-1h.36l-.36-1h.36l-.36-1h.36l-.36-1h.36l-.36-1h.36l-.36-1h.36l-.36-1h.36L207.17,2.41Zm-14.33,33.67h.24l4.52,13.56h-9.27l4.52-13.56Zm-65.16,26.99c-1.48.66-3.34,1.02-5.44,1.02-5.3,0-9.66-1.99-12.06-5.32,2.26.61,5,1.24,8.3,1.87,4.34.83,7.36,1.66,9.2,2.44Zm.08-31.64c-4.3-.84-7.38-1.68-9.24-2.46,1.26-.56,2.83-.87,4.66-.87,4.21,0,7.67,1.58,9.49,4.36-1.5-.34-3.13-.68-4.91-1.02Zm-76.36,50.15l-.27-.69h.27v.69Zm0,1l-.27-.69h.27v.69Zm0,1l-.27-.69h.27v.69Zm0,1l-.27-.69h.27v.69Zm0,1l-.27-.69h.27v.69Zm0,1l-.27-.69h.27v.69Zm0,1l-.27-.69h.27v.69Zm0,1l-.27-.69h.27v.69Zm-.27.31h.27v.69l-.27-.69Z"/>
        <path class="cls-1" d="m357.65,2.41h-27.49l-28.31,78.47h.36l-.36,1h.36l-.36,1h.36l-.36,1h.36l-.36,1h.36l-.36,1h.36l-.36,1h.36l-.36,1h.36l-.36,1h.36l-.36,1h23.61l4.58-13.86h26.9l4.58,13.86h24.55l-.36-1h.36l-.36-1h.36l-.36-1h.36l-.36-1h.36l-.36-1h.36l-.36-1h.36l-.36-1h.36l-.36-1h.36l-.36-1h.36L357.65,2.41Zm-14.33,33.67h.24l4.52,13.56h-9.27l4.52-13.56Z"/>
        <path class="cls-1" d="m495.44,2.41h-21.15l-15.48,75.47c-1.22-1.9-2.05-4.03-2.73-6.74l-2.94-12.57c-.75-3.15-1.95-5.68-3.6-7.64,4.47-3.54,7.24-9.04,7.24-15.55,0-.22,0-.44-.01-.66,0-.11.01-.23.01-.34,0-.22,0-.44-.01-.66,0-.11.01-.23.01-.34,0-.22,0-.44-.01-.66,0-.11.01-.23.01-.34,0-.22,0-.44-.01-.66,0-.11.01-.23.01-.34,0-.22,0-.44-.01-.66,0-.11.01-.23.01-.34,0-.22,0-.44-.01-.66,0-.11.01-.23.01-.34,0-.22,0-.44-.01-.66,0-.11.01-.23.01-.34,0-.22,0-.44-.01-.66,0-.11.01-.23.01-.34,0-.22,0-.44-.01-.66,0-.11.01-.23.01-.34,0-15.62-10.69-23.96-30.54-23.96h-38.06v87.47h23.61v-25.14h9.52c5.17,0,7.64,2,8.58,7.17l1.65,8.81c.94,4.58,1.88,6.7,3.88,9.16h38.65l3.05-17.62h15.04l3.05,17.62h16.33l-.21-1h.21l-.21-1h.21l-.21-1h.21l-.21-1h.21l-.21-1h.21l-.21-1h.21l-.21-1h.21l-.21-1h.21l-.21-1h.21L495.44,2.41Zm-11.04,27.68h.35l3.59,20.49h-7.45l3.51-20.49Zm-61.08.59c3.73,0,6.27,1.09,7.6,3.24-1.33,2.24-3.87,3.39-7.6,3.39h-11.51v-6.62h11.51Z"/>
        <polygon class="cls-1" points="544.78 3.41 544.78 4.41 544.78 5.41 544.78 6.41 544.78 7.41 544.78 8.41 544.78 9.41 544.78 10.41 544.78 11.41 544.78 45.05 544.31 45.05 527.98 2.41 512.12 2.41 512.12 3.41 512.12 4.41 512.12 5.41 512.12 6.41 512.12 7.41 512.12 8.41 512.12 9.41 512.12 10.41 512.12 11.41 512.12 80.88 512.12 81.88 512.12 82.88 512.12 83.88 512.12 84.88 512.12 85.88 512.12 86.88 512.12 87.88 512.12 88.88 512.12 89.88 527.51 89.88 527.51 88.88 527.51 87.88 527.51 86.88 527.51 85.88 527.51 84.88 527.51 83.88 527.51 82.88 527.51 81.88 527.51 80.88 527.51 45.48 527.86 45.48 545.49 89.88 560.17 89.88 560.17 88.88 560.17 87.88 560.17 86.88 560.17 85.88 560.17 84.88 560.17 83.88 560.17 82.88 560.17 81.88 560.17 80.88 560.17 11.41 560.17 10.41 560.17 9.41 560.17 8.41 560.17 7.41 560.17 6.41 560.17 5.41 560.17 4.41 560.17 3.41 560.17 2.41 544.78 2.41 544.78 3.41"/>
      </g>
      <g>
        <path class="cls-2" d="m35.77,40.59l15.74,40.29h-18.33l-12.22-32.54h-3.17v32.54H1V2.41h16.8v31.6h3.17L32.37,2.41h18.09l-14.68,38.18Z"/>
        <path class="cls-2" d="m67.96,66.91h21.73v13.98h-38.3V2.41h38.3v13.98h-21.73v18.09h18.33v13.27h-18.33v19.15Z"/>
        <path class="cls-2" d="m146.31,75.25c-6.23,4.7-14.33,7.05-24.32,7.05-17.27,0-29.72-6.7-34.07-18.33l20.56-8.93c1.29,5.52,6.7,9.05,13.75,9.05,5.29,0,9.05-2.23,9.05-5.87,0-1.53-.82-2.7-2.35-3.52-1.53-.94-4.93-2-10.46-3.05s-9.52-2.11-12.22-3.05c-2.7-1.06-4.93-2.23-6.93-3.52-5.76-3.88-8.58-9.75-8.58-17.74s3.05-14.21,9.16-19.03c6.11-4.82,13.86-7.28,23.26-7.28,17.39,0,28.43,6.58,31.84,19.27l-21.15,6.11c-.94-4.58-5.17-7.28-10.69-7.28-5.05,0-8.11,2.35-8.11,5.76,0,1.41.71,2.58,2.23,3.52,1.53.94,5.05,2,10.46,3.05,5.52,1.06,9.75,2.11,12.45,3.17,2.7,1.06,5.05,2.23,7.05,3.64,5.64,4.11,8.46,10.1,8.46,18.09s-3.17,14.21-9.4,18.91Z"/>
        <path class="cls-2" d="m235.6,80.88h-24.55l-4.58-13.86h-26.9l-4.58,13.86h-23.61L179.68,2.41h27.49l28.43,78.47Zm-42.53-53.8h-.24l-7.52,22.56h15.27l-7.52-22.56Z"/>
        <path class="cls-2" d="m288.22,40.71v.24c10.22,1.41,16.56,8.34,16.56,18.21,0,13.51-10.22,21.73-27.61,21.73h-39.47V2.41h39.35c15.16,0,24.44,7.87,24.44,20.91,0,9.04-4.93,15.51-13.27,17.39Zm-27.25-20.68v14.68h8.93c5.29,0,8.11-2.47,8.11-7.17,0-5.05-2.7-7.52-7.87-7.52h-9.16Zm0,28.67v14.68h10.81c5.76,0,8.46-2.23,8.46-7.28s-2.94-7.4-8.46-7.4h-10.81Z"/>
        <path class="cls-2" d="m386.08,80.88h-24.55l-4.58-13.86h-26.9l-4.58,13.86h-23.61L330.16,2.41h27.49l28.43,78.47Zm-42.53-53.8h-.24l-7.52,22.56h15.27l-7.52-22.56Z"/>
        <path class="cls-2" d="m435.41,80.88c-2-2.47-2.94-4.58-3.88-9.16l-1.65-8.81c-.94-5.17-3.41-7.17-8.58-7.17h-9.52v25.14h-23.61V2.41h38.06c19.85,0,30.54,8.34,30.54,23.96,0,10.22-6.81,17.97-16.33,19.5v.23c6.7,1.06,10.93,5.05,12.69,12.45l2.94,12.57c1.06,4.23,2.47,7.05,5.17,9.75h-25.85Zm-12.1-59.21h-11.51v15.62h11.51c5.76,0,8.69-2.7,8.69-7.99s-2.94-7.64-8.69-7.64Z"/>
        <path class="cls-2" d="m511.54,80.88h-16.33l-3.05-17.62h-15.04l-3.05,17.62h-15.86L474.3,2.41h21.15l16.09,78.47Zm-26.79-59.8h-.35l-5.05,29.49h10.57l-5.17-29.49Z"/>
        <path class="cls-2" d="m544.31,45.05h.47V2.41h15.39v78.47h-14.68l-17.62-44.41h-.35v44.41h-15.39V2.41h15.86l16.33,42.64Z"/>
        <path class="cls-2" d="m582.49,75.13c0,11.63-7.4,19.03-18.8,19.03v-7.05c5.64-.12,9.05-2.82,9.05-6.93,0-.59,0-.71-.12-1.06-.82.35-1.64.47-2.23.47-4.58,0-7.87-3.52-7.87-8.34,0-5.29,3.99-9.16,9.16-9.16,6.58,0,10.81,5.17,10.81,13.04Z"/>
      </g>
    </g>
  </g>
</svg>