<?xml version="1.0" encoding="UTF-8"?>
<svg id="Layer_2" data-name="Layer 2" xmlns="http://www.w3.org/2000/svg" viewBox="0 0 549.77 102.75">
  <defs>
    <style>
      .cls-1, .cls-2 {
        stroke: #000;
        stroke-width: 2px;
      }

      .cls-2 {
        fill: #f4f3d3;
      }
    </style>
  </defs>
  <g id="TFX_Expand" data-name="TFX Expand">
    <g>
      <g>
        <path class="cls-1" d="m548.75,74.18c0-.15.02-.3.02-.46,0-7.87-4.23-13.04-10.81-13.04-5.17,0-9.16,3.88-9.16,9.16,0,.18.01.35.02.52,0,.16-.02.31-.02.48,0,.18.01.35.02.52,0,.16-.02.31-.02.48,0,.18.01.35.02.52,0,.16-.02.31-.02.48,0,.18.01.35.02.52,0,.16-.02.31-.02.48,0,.18.01.35.02.52,0,.16-.02.31-.02.48,0,.18.01.35.02.52,0,.16-.02.31-.02.48,0,.18.01.35.02.52,0,.16-.02.31-.02.48,0,.18.01.35.02.52,0,.16-.02.31-.02.48,0,.18.01.35.02.52,0,.16-.02.31-.02.48,0,2.84,1.15,5.23,3.04,6.71-.59.08-1.21.13-1.86.15v16.05c11.4,0,18.8-7.4,18.8-19.03,0-.18-.01-.36-.02-.54,0-.15.02-.3.02-.46,0-.18-.01-.36-.02-.54,0-.15.02-.3.02-.46,0-.18-.01-.36-.02-.54,0-.15.02-.3.02-.46,0-.18-.01-.36-.02-.54,0-.15.02-.3.02-.46,0-.18-.01-.36-.02-.54,0-.15.02-.3.02-.46,0-.18-.01-.36-.02-.54,0-.15.02-.3.02-.46,0-.18-.01-.36-.02-.54,0-.15.02-.3.02-.46,0-.18-.01-.36-.02-.54,0-.15.02-.3.02-.46,0-.18-.01-.36-.02-.54Z"/>
        <path class="cls-1" d="m51.4,2v77.17l-13.88-35.52,12.94-33.64h-.38l.38-1h-.38l.38-1h-.38l.38-1h-.38l.38-1h-.38l.38-1h-.38l.38-1h-.38l.38-1h-.38l.38-1h-.38l.38-1h-18.09l-11.4,31.6h-3.17V1H1v87.47h16.8v-32.54h3.17l12.22,32.54h56.5v-22.98h-21.73v-10.15h18.33v-22.27h-18.33v-9.09h21.73V1h-38.3v1Zm0,78.17l-.27-.69h.27v.69Zm0,1l-.27-.69h.27v.69Zm0,1l-.27-.69h.27v.69Zm0,1l-.27-.69h.27v.69Zm0,1l-.27-.69h.27v.69Zm0,1l-.27-.69h.27v.69Zm0,1l-.27-.69h.27v.69Zm0,1l-.27-.69h.27v.69Zm-.27.31h.27v.69l-.27-.69Z"/>
        <polygon class="cls-1" points="90.87 2 90.87 3 90.87 4 90.87 5 90.87 6 90.87 7 90.87 8 90.87 9 90.87 10 90.87 20.85 90.87 21.85 90.87 22.85 90.87 23.85 90.87 24.85 90.87 25.85 90.87 26.85 90.87 27.85 90.87 28.85 90.87 29.85 114.71 29.85 114.71 79.47 114.71 80.47 114.71 81.47 114.71 82.47 114.71 83.47 114.71 84.47 114.71 85.47 114.71 86.47 114.71 87.47 114.71 88.47 138.8 88.47 138.8 87.47 138.8 86.47 138.8 85.47 138.8 84.47 138.8 83.47 138.8 82.47 138.8 81.47 138.8 80.47 138.8 79.47 138.8 29.85 162.64 29.85 162.64 28.85 162.64 27.85 162.64 26.85 162.64 25.85 162.64 24.85 162.64 23.85 162.64 22.85 162.64 21.85 162.64 20.85 162.64 10 162.64 9 162.64 8 162.64 7 162.64 6 162.64 5 162.64 4 162.64 3 162.64 2 162.64 1 90.87 1 90.87 2"/>
        <polygon class="cls-1" points="190.13 57.81 221.15 57.81 221.15 56.81 221.15 55.81 221.15 54.81 221.15 53.81 221.15 52.81 221.15 51.81 221.15 50.81 221.15 49.81 221.15 48.81 221.15 40.19 221.15 39.19 221.15 38.19 221.15 37.19 221.15 36.19 221.15 35.19 221.15 34.19 221.15 33.19 221.15 32.19 221.15 31.19 190.13 31.19 190.13 29.85 225.14 29.85 225.14 28.85 225.14 27.85 225.14 26.85 225.14 25.85 225.14 24.85 225.14 23.85 225.14 22.85 225.14 21.85 225.14 20.85 225.14 10 225.14 9 225.14 8 225.14 7 225.14 6 225.14 5 225.14 4 225.14 3 225.14 2 225.14 1 166.99 1 166.99 2 166.99 3 166.99 4 166.99 5 166.99 6 166.99 7 166.99 8 166.99 9 166.99 10 166.99 79.47 166.99 80.47 166.99 81.47 166.99 82.47 166.99 83.47 166.99 84.47 166.99 85.47 166.99 86.47 166.99 87.47 166.99 88.47 225.38 88.47 225.38 87.47 225.38 86.47 225.38 85.47 225.38 84.47 225.38 83.47 225.38 82.47 225.38 81.47 225.38 80.47 225.38 79.47 225.38 68.62 225.38 67.62 225.38 66.62 225.38 65.62 225.38 64.62 225.38 63.62 225.38 62.62 225.38 61.62 225.38 60.62 225.38 59.62 190.13 59.62 190.13 57.81"/>
        <polygon class="cls-1" points="255.92 10 255.92 9 255.92 8 255.92 7 255.92 6 255.92 5 255.92 4 255.92 3 255.92 2 255.92 1 231.83 1 231.83 2 231.83 3 231.83 4 231.83 5 231.83 6 231.83 7 231.83 8 231.83 9 231.83 10 231.83 79.47 231.83 80.47 231.83 81.47 231.83 82.47 231.83 83.47 231.83 84.47 231.83 85.47 231.83 86.47 231.83 87.47 231.83 88.47 288.69 88.47 288.69 87.47 288.69 86.47 288.69 85.47 288.69 84.47 288.69 83.47 288.69 82.47 288.69 81.47 288.69 80.47 288.69 79.47 288.69 68.62 288.69 67.62 288.69 66.62 288.69 65.62 288.69 64.62 288.69 63.62 288.69 62.62 288.69 61.62 288.69 60.62 288.69 59.62 255.92 59.62 255.92 10"/>
        <polygon class="cls-1" points="293.39 2 293.39 3 293.39 4 293.39 5 293.39 6 293.39 7 293.39 8 293.39 9 293.39 10 293.39 79.47 293.39 80.47 293.39 81.47 293.39 82.47 293.39 83.47 293.39 84.47 293.39 85.47 293.39 86.47 293.39 87.47 293.39 88.47 317.47 88.47 317.47 87.47 317.47 86.47 317.47 85.47 317.47 84.47 317.47 83.47 317.47 82.47 317.47 81.47 317.47 80.47 317.47 79.47 317.47 10 317.47 9 317.47 8 317.47 7 317.47 6 317.47 5 317.47 4 317.47 3 317.47 2 317.47 1 293.39 1 293.39 2"/>
        <polygon class="cls-1" points="321.81 2 321.81 3 321.81 4 321.81 5 321.81 6 321.81 7 321.81 8 321.81 9 321.81 10 321.81 20.85 321.81 21.85 321.81 22.85 321.81 23.85 321.81 24.85 321.81 25.85 321.81 26.85 321.81 27.85 321.81 28.85 321.81 29.85 345.66 29.85 345.66 79.47 345.66 80.47 345.66 81.47 345.66 82.47 345.66 83.47 345.66 84.47 345.66 85.47 345.66 86.47 345.66 87.47 345.66 88.47 369.75 88.47 369.75 87.47 369.75 86.47 369.75 85.47 369.75 84.47 369.75 83.47 369.75 82.47 369.75 81.47 369.75 80.47 369.75 79.47 369.75 29.85 393.59 29.85 393.59 28.85 393.59 27.85 393.59 26.85 393.59 25.85 393.59 24.85 393.59 23.85 393.59 22.85 393.59 21.85 393.59 20.85 393.59 10 393.59 9 393.59 8 393.59 7 393.59 6 393.59 5 393.59 4 393.59 3 393.59 2 393.59 1 321.81 1 321.81 2"/>
        <polygon class="cls-1" points="397.94 2 397.94 3 397.94 4 397.94 5 397.94 6 397.94 7 397.94 8 397.94 9 397.94 10 397.94 79.47 397.94 80.47 397.94 81.47 397.94 82.47 397.94 83.47 397.94 84.47 397.94 85.47 397.94 86.47 397.94 87.47 397.94 88.47 422.02 88.47 422.02 87.47 422.02 86.47 422.02 85.47 422.02 84.47 422.02 83.47 422.02 82.47 422.02 81.47 422.02 80.47 422.02 79.47 422.02 10 422.02 9 422.02 8 422.02 7 422.02 6 422.02 5 422.02 4 422.02 3 422.02 2 422.02 1 397.94 1 397.94 2"/>
        <path class="cls-1" d="m461.72,1h-21.15l-16.09,78.47h.21l-.21,1h.21l-.21,1h.21l-.21,1h.21l-.21,1h.21l-.21,1h.21l-.21,1h.21l-.21,1h.21l-.21,1h.21l-.21,1h15.86l3.05-17.62h15.04l3.05,17.62h16.33l-.21-1h.21l-.21-1h.21l-.21-1h.21l-.21-1h.21l-.21-1h.21l-.21-1h.21l-.21-1h.21l-.21-1h.21l-.21-1h.21L461.72,1Zm-11.04,27.68h.35l3.59,20.49h-7.45l3.51-20.49Z"/>
        <polygon class="cls-1" points="511.06 2 511.06 3 511.06 4 511.06 5 511.06 6 511.06 7 511.06 8 511.06 9 511.06 10 511.06 43.64 510.59 43.64 494.26 1 478.4 1 478.4 2 478.4 3 478.4 4 478.4 5 478.4 6 478.4 7 478.4 8 478.4 9 478.4 10 478.4 79.47 478.4 80.47 478.4 81.47 478.4 82.47 478.4 83.47 478.4 84.47 478.4 85.47 478.4 86.47 478.4 87.47 478.4 88.47 493.79 88.47 493.79 87.47 493.79 86.47 493.79 85.47 493.79 84.47 493.79 83.47 493.79 82.47 493.79 81.47 493.79 80.47 493.79 79.47 493.79 44.07 494.15 44.07 511.77 88.47 526.45 88.47 526.45 87.47 526.45 86.47 526.45 85.47 526.45 84.47 526.45 83.47 526.45 82.47 526.45 81.47 526.45 80.47 526.45 79.47 526.45 10 526.45 9 526.45 8 526.45 7 526.45 6 526.45 5 526.45 4 526.45 3 526.45 2 526.45 1 511.06 1 511.06 2"/>
      </g>
      <g>
        <path class="cls-2" d="m35.77,39.18l15.74,40.29h-18.33l-12.22-32.54h-3.17v32.54H1V1h16.8v31.6h3.17L32.37,1h18.09l-14.68,38.18Z"/>
        <path class="cls-2" d="m67.96,65.5h21.73v13.98h-38.3V1h38.3v13.98h-21.73v18.09h18.33v13.27h-18.33v19.15Z"/>
        <path class="cls-2" d="m138.8,20.85v58.62h-24.08V20.85h-23.85V1h71.78v19.85h-23.85Z"/>
        <path class="cls-2" d="m190.13,59.62h35.24v19.85h-58.39V1h58.15v19.85h-35.01v10.34h31.01v17.62h-31.01v10.81Z"/>
        <path class="cls-2" d="m231.83,79.47V1h24.08v58.62h32.78v19.85h-56.86Z"/>
        <path class="cls-2" d="m293.39,79.47V1h24.08v78.47h-24.08Z"/>
        <path class="cls-2" d="m369.75,20.85v58.62h-24.08V20.85h-23.85V1h71.78v19.85h-23.85Z"/>
        <path class="cls-2" d="m397.94,79.47V1h24.08v78.47h-24.08Z"/>
        <path class="cls-2" d="m477.82,79.47h-16.33l-3.05-17.62h-15.04l-3.05,17.62h-15.86L440.58,1h21.15l16.09,78.47Zm-26.79-59.8h-.35l-5.05,29.49h10.57l-5.17-29.49Z"/>
        <path class="cls-2" d="m510.59,43.64h.47V1h15.39v78.47h-14.68l-17.62-44.41h-.35v44.41h-15.39V1h15.86l16.33,42.64Z"/>
        <path class="cls-2" d="m548.77,73.72c0,11.63-7.4,19.03-18.8,19.03v-7.05c5.64-.12,9.05-2.82,9.05-6.93,0-.59,0-.71-.12-1.06-.82.35-1.64.47-2.23.47-4.58,0-7.87-3.52-7.87-8.34,0-5.29,3.99-9.16,9.16-9.16,6.58,0,10.81,5.17,10.81,13.04Z"/>
      </g>
    </g>
  </g>
</svg>