<?xml version="1.0" encoding="UTF-8"?>
<svg id="Layer_2" data-name="Layer 2" xmlns="http://www.w3.org/2000/svg" viewBox="0 0 440.78 243.14">
  <defs>
    <style>
      .cls-1, .cls-2 {
        stroke-miterlimit: 10;
        stroke-width: 3px;
      }

      .cls-1, .cls-2, .cls-3 {
        stroke: #000;
      }

      .cls-1, .cls-3 {
        fill: #ffaf00;
      }

      .cls-3 {
        stroke-width: 2px;
      }
    </style>
  </defs>
  <g id="TFX_Expand" data-name="TFX Expand">
    <g>
      <g>
        <polygon class="cls-2" points="26.32 104.93 26.32 103.93 26.32 102.93 26.32 101.93 26.32 100.93 26.32 99.93 26.32 98.93 26.32 97.93 26.32 96.93 26.32 64.43 26.32 63.43 26.32 62.43 26.32 61.43 26.32 60.43 26.32 59.43 26.32 58.43 26.32 57.43 26.32 56.43 26.32 55.43 26.17 45.93 26.6 45.93 36.06 82.08 46.08 82.08 55.68 45.93 55.97 45.93 55.82 55.43 55.82 56.43 55.82 57.43 55.82 58.43 55.82 59.43 55.82 60.43 55.82 61.43 55.82 62.43 55.82 63.43 55.82 64.43 55.82 96.93 55.82 97.93 55.82 98.93 55.82 99.93 55.82 100.93 55.82 101.93 55.82 102.93 55.82 103.93 55.82 104.93 55.82 105.93 74.74 105.93 74.74 104.93 74.74 103.93 74.74 102.93 74.74 101.93 74.74 100.93 74.74 99.93 74.74 98.93 74.74 97.93 74.74 96.93 74.74 11.63 74.74 10.63 74.74 9.63 74.74 8.63 74.74 7.63 74.74 6.63 74.74 5.63 74.74 4.63 74.74 3.63 74.74 2.63 53.28 2.63 41.56 42.86 41.14 42.86 29.56 2.63 7.54 2.63 7.54 3.63 7.54 4.63 7.54 5.63 7.54 6.63 7.54 7.63 7.54 8.63 7.54 9.63 7.54 10.63 7.54 11.63 7.54 96.93 7.54 97.93 7.54 98.93 7.54 99.93 7.54 100.93 7.54 101.93 7.54 102.93 7.54 103.93 7.54 104.93 7.54 105.93 26.32 105.93 26.32 104.93"/>
        <path class="cls-2" d="m108.62,107.06c20.33,0,31.34-17.08,31.34-48.28,0-.17,0-.33,0-.5,0-.17,0-.33,0-.5s0-.33,0-.5c0-.17,0-.33,0-.5s0-.33,0-.5c0-.17,0-.33,0-.5s0-.33,0-.5c0-.17,0-.33,0-.5s0-.33,0-.5c0-.17,0-.33,0-.5s0-.33,0-.5c0-.17,0-.33,0-.5s0-.33,0-.5c0-.17,0-.33,0-.5s0-.33,0-.5c0-.17,0-.33,0-.5s0-.33,0-.5c0-.17,0-.33,0-.5,0-8.09-.75-15.21-2.2-21.35h16.46v77.5h20.33V28.43h17.79V2.63h-55.91v21.05c-4.74-14.48-14.18-22.18-27.81-22.18-20.19,0-31.2,17.08-31.2,48.28,0,.17,0,.33,0,.5,0,.17,0,.33,0,.5s0,.33,0,.5c0,.17,0,.33,0,.5s0,.33,0,.5c0,.17,0,.33,0,.5s0,.33,0,.5c0,.17,0,.33,0,.5s0,.33,0,.5c0,.17,0,.33,0,.5s0,.33,0,.5c0,.17,0,.33,0,.5s0,.33,0,.5c0,.17,0,.33,0,.5s0,.33,0,.5c0,.17,0,.33,0,.5s0,.33,0,.5c0,.17,0,.33,0,.5,0,31.2,11.01,48.28,31.2,48.28Zm0-79.62c6.82,0,9.86,7.93,10.26,26.84-.4,18.91-3.44,26.84-10.26,26.84s-9.86-7.93-10.26-26.84c.4-18.91,3.44-26.84,10.26-26.84Z"/>
        <polygon class="cls-2" points="214.22 104.93 214.22 103.93 214.22 102.93 214.22 101.93 214.22 100.93 214.22 99.93 214.22 98.93 214.22 97.93 214.22 96.93 214.22 11.63 214.22 10.63 214.22 9.63 214.22 8.63 214.22 7.63 214.22 6.63 214.22 5.63 214.22 4.63 214.22 3.63 214.22 2.63 194.03 2.63 194.03 3.63 194.03 4.63 194.03 5.63 194.03 6.63 194.03 7.63 194.03 8.63 194.03 9.63 194.03 10.63 194.03 11.63 194.03 96.93 194.03 97.93 194.03 98.93 194.03 99.93 194.03 100.93 194.03 101.93 194.03 102.93 194.03 103.93 194.03 104.93 194.03 105.93 214.22 105.93 214.22 104.93"/>
        <polygon class="cls-2" points="239.35 104.93 239.35 103.93 239.35 102.93 239.35 101.93 239.35 100.93 239.35 99.93 239.35 98.93 239.35 97.93 239.35 96.93 239.35 68.52 260.53 68.52 260.53 67.52 260.53 66.52 260.53 65.52 260.53 64.52 260.53 63.52 260.53 62.52 260.53 61.52 260.53 60.52 260.53 59.52 260.53 52.29 260.53 51.29 260.53 50.29 260.53 49.29 260.53 48.29 260.53 47.29 260.53 46.29 260.53 45.29 260.53 44.29 260.53 43.29 239.35 43.29 239.35 28.43 263.77 28.43 263.77 27.43 263.77 26.43 263.77 25.43 263.77 24.43 263.77 23.43 263.77 22.43 263.77 21.43 263.77 20.43 263.77 19.43 263.77 11.63 263.77 10.63 263.77 9.63 263.77 8.63 263.77 7.63 263.77 6.63 263.77 5.63 263.77 4.63 263.77 3.63 263.77 2.63 219.3 2.63 219.3 3.63 219.3 4.63 219.3 5.63 219.3 6.63 219.3 7.63 219.3 8.63 219.3 9.63 219.3 10.63 219.3 11.63 219.3 96.93 219.3 97.93 219.3 98.93 219.3 99.93 219.3 100.93 219.3 101.93 219.3 102.93 219.3 103.93 219.3 104.93 219.3 105.93 239.35 105.93 239.35 104.93"/>
        <path class="cls-2" d="m70.58,177.17c-2.31-1.63-5.03-2.99-8.16-4.22-1.19-.46-2.63-.93-4.32-1.39l21.45-6.2c-.08-.31-.2-.61-.29-.92l.29-.08c-.08-.31-.2-.61-.29-.92l.29-.08c-.08-.31-.2-.61-.29-.92l.29-.08c-.08-.31-.2-.61-.29-.92l.29-.08c-.08-.31-.2-.61-.29-.92l.29-.08c-.08-.31-.2-.61-.29-.92l.29-.08c-.08-.31-.2-.61-.29-.92l.29-.08c-.08-.31-.2-.61-.29-.92l.29-.08c-.08-.31-.2-.61-.29-.92l.29-.08c-3.94-14.69-16.73-22.3-36.86-22.3-10.88,0-19.86,2.86-26.93,8.43s-10.61,12.92-10.61,22.03c0,.18,0,.35.01.52,0,.16-.01.32-.01.48,0,.18,0,.35.01.52,0,.16-.01.32-.01.48,0,.18,0,.35.01.52,0,.16-.01.32-.01.48,0,.18,0,.35.01.52,0,.16-.01.32-.01.48,0,.18,0,.35.01.52,0,.16-.01.32-.01.48,0,.18,0,.35.01.52,0,.16-.01.32-.01.48,0,.18,0,.35.01.52,0,.16-.01.32-.01.48,0,.18,0,.35.01.52,0,.16-.01.32-.01.48,0,.18,0,.35.01.52,0,.16-.01.32-.01.48,0,9.25,3.26,16.05,9.93,20.54,2.19,1.42,4.65,2.71,7.56,3.88l-20.75,9.01c.11.29.24.56.36.84l-.36.16c.11.29.24.56.36.84l-.36.16c.11.29.24.56.36.84l-.36.16c.11.29.24.56.36.84l-.36.16c.11.29.24.56.36.84l-.36.16c.11.29.24.56.36.84l-.36.16c.11.29.24.56.36.84l-.36.16c.11.29.24.56.36.84l-.36.16c.11.29.24.56.36.84l-.36.16c5.03,13.46,19.45,21.22,39.44,21.22,11.56,0,20.94-2.72,28.15-8.16,7.21-5.44,10.88-12.78,10.88-21.9,0-.18,0-.35-.01-.53,0-.16.01-.31.01-.47,0-.18,0-.35-.01-.53,0-.16.01-.31.01-.47,0-.18,0-.35-.01-.53,0-.16.01-.31.01-.47,0-.18,0-.35-.01-.53,0-.16.01-.31.01-.47,0-.18,0-.35-.01-.53,0-.16.01-.31.01-.47,0-.18,0-.35-.01-.53,0-.16.01-.31.01-.47,0-.18,0-.35-.01-.53,0-.16.01-.31.01-.47,0-.18,0-.35-.01-.53,0-.16.01-.31.01-.47,0-.18,0-.35-.01-.53,0-.16.01-.31.01-.47,0-9.25-3.26-16.18-9.79-20.94Zm-34.63-11.4c1.61-1.12,3.9-1.77,6.75-1.77,5.64,0,10.11,2.44,11.83,6.65-1.96-.46-4.14-.92-6.53-1.37-6.21-1.21-10.27-2.43-12.06-3.51Zm1.31,35.9c6.31,1.21,10.23,2.42,12.03,3.49-1.86,1.24-4.53,1.92-7.68,1.92-6.98,0-12.56-2.99-14.96-7.86,2.79.79,6.29,1.61,10.61,2.44Z"/>
        <path class="cls-2" d="m130.06,132.23h-25.41l-19.34,94.3h.21l-.21,1h.21l-.21,1h.21l-.21,1h.21l-.21,1h.21l-.21,1h.21l-.21,1h.21l-.21,1h.21l-.21,1h.21l-.21,1h19.06l3.67-21.18h18.07l3.67,21.18h19.62l-.21-1h.21l-.21-1h.21l-.21-1h.21l-.21-1h.21l-.21-1h.21l-.21-1h.21l-.21-1h.21l-.21-1h.21l-.21-1h.21l-19.34-94.3Zm-13.27,31.45h.42l4.63,26.43h-9.59l4.53-26.43Z"/>
        <path class="cls-2" d="m331.3,135.68h-31.82l-31.09,86.18c-.63-1.78-1.1-3.78-1.38-6.06l-2.54-18.49c-.57-4.09-1.96-7.42-4.05-9.9,4.83-4.08,7.72-10.71,7.72-18.79,0-.22,0-.44-.01-.66,0-.12.01-.23.01-.34,0-.22,0-.44-.01-.66,0-.12.01-.23.01-.34,0-.22,0-.44-.01-.66,0-.12.01-.23.01-.34,0-.22,0-.44-.01-.66,0-.12.01-.23.01-.34,0-.22,0-.44-.01-.66,0-.12.01-.23.01-.34,0-.22,0-.44-.01-.66,0-.12.01-.23.01-.34,0-.22,0-.44-.01-.66,0-.12.01-.23.01-.34,0-.22,0-.44-.01-.66,0-.12.01-.23.01-.34,0-.22,0-.44-.01-.66,0-.12.01-.23.01-.34,0-18.07-9.74-27.39-28.8-27.39h-28.66v93.94l-17.03-43.6,15.9-41.35h-.38l.38-1h-.38l.38-1h-.38l.38-1h-.38l.38-1h-.38l.38-1h-.38l.38-1h-.38l.38-1h-.38l.38-1h-.38l.38-1h-21.74l-13.69,37.98h-3.81v-37.98h-20.19v103.3h20.19v-39.11h3.81l14.68,39.11h41.93v-36h5.22c5.22,0,7.62,2.4,8.61,8.47l1.98,17.36c.71,4.94,1.7,8.05,2.96,10.17h44.54l5.3-16.05h31.14l5.3,16.05h28.43l-.36-1h.36l-.36-1h.36l-.36-1h.36l-.36-1h.36l-.36-1h.36l-.36-1h.36l-.36-1h.36l-.36-1h.36l-.36-1h.36l-32.91-90.85Zm-16.59,37.56h.27l5.7,17.11h-11.68l5.7-17.11Zm-77.92-15.64c6.17,0,9.36,2.51,10.29,8.77-.93,6.26-4.09,8.77-10.15,8.77h-6.21v-17.54h6.07Zm-26.12,69.57l-.25-.64h.25v.64Zm0,1l-.25-.64h.25v.64Zm0,1l-.25-.64h.25v.64Zm0,1l-.25-.64h.25v.64Zm0,1l-.25-.64h.25v.64Zm0,1l-.25-.64h.25v.64Zm0,1l-.25-.64h.25v.64Zm0,1l-.25-.64h.25v.64Zm-.25.36h.25v.64l-.25-.64Z"/>
        <polygon class="cls-2" points="401.34 203.55 401.34 144.68 401.34 143.68 401.34 142.68 401.34 141.68 401.34 140.68 401.34 139.68 401.34 138.68 401.34 137.68 401.34 136.68 401.34 135.68 373.46 135.68 373.46 136.68 373.46 137.68 373.46 138.68 373.46 139.68 373.46 140.68 373.46 141.68 373.46 142.68 373.46 143.68 373.46 144.68 373.46 226.53 373.46 227.53 373.46 228.53 373.46 229.53 373.46 230.53 373.46 231.53 373.46 232.53 373.46 233.53 373.46 234.53 373.46 235.53 439.28 235.53 439.28 234.53 439.28 233.53 439.28 232.53 439.28 231.53 439.28 230.53 439.28 229.53 439.28 228.53 439.28 227.53 439.28 226.53 439.28 212.55 439.28 211.55 439.28 210.55 439.28 209.55 439.28 208.55 439.28 207.55 439.28 206.55 439.28 205.55 439.28 204.55 439.28 203.55 401.34 203.55"/>
      </g>
      <g>
        <path class="cls-3" d="m56.1,36.93h-.42l-9.6,36.14h-10.02l-9.46-36.14h-.57l.28,18.49v41.5H7.54V2.63h22.02l11.58,40.24h.42L53.28,2.63h21.46v94.3h-18.92v-41.5l.28-18.49Z"/>
        <path class="cls-3" d="m108.62,1.5c20.33,0,31.34,17.08,31.34,48.28s-11.01,48.28-31.34,48.28-31.2-17.08-31.2-48.28S88.43,1.5,108.62,1.5Zm0,16.94c-7.34,0-10.31,9.18-10.31,31.34s2.96,31.34,10.31,31.34,10.3-9.18,10.3-31.34-2.96-31.34-10.3-31.34Z"/>
        <path class="cls-3" d="m174.55,19.43v77.5h-20.33V19.43h-17.79V2.63h55.91v16.8h-17.79Z"/>
        <path class="cls-3" d="m194.03,96.93V2.63h20.19v94.3h-20.19Z"/>
        <path class="cls-3" d="m239.35,59.52v37.41h-20.05V2.63h44.47v16.8h-24.42v23.86h21.18v16.24h-21.18Z"/>
        <path class="cls-1" d="m69.5,220c-7.21,5.44-16.59,8.16-28.15,8.16-19.99,0-34.41-7.75-39.44-21.22l23.8-10.34c1.5,6.39,7.75,10.47,15.91,10.47,6.12,0,10.47-2.58,10.47-6.8,0-1.77-.95-3.13-2.72-4.08-1.77-1.09-5.71-2.31-12.1-3.54-6.39-1.22-11.02-2.45-14.14-3.54-3.13-1.22-5.71-2.58-8.02-4.08-6.66-4.49-9.93-11.29-9.93-20.54s3.54-16.46,10.61-22.03,16.05-8.43,26.93-8.43c20.13,0,32.91,7.62,36.86,22.3l-24.48,7.07c-1.09-5.3-5.98-8.43-12.38-8.43-5.85,0-9.38,2.72-9.38,6.66,0,1.63.82,2.99,2.58,4.08,1.77,1.09,5.85,2.31,12.1,3.54,6.39,1.22,11.29,2.45,14.42,3.67,3.13,1.22,5.85,2.58,8.16,4.22,6.53,4.76,9.79,11.7,9.79,20.94s-3.67,16.46-10.88,21.9Z"/>
        <path class="cls-3" d="m149.4,226.53h-19.62l-3.67-21.18h-18.07l-3.67,21.18h-19.06l19.34-94.3h25.41l19.34,94.3Zm-32.19-71.86h-.42l-6.07,35.43h12.71l-6.21-35.43Z"/>
        <path class="cls-3" d="m191.89,178.11l18.92,48.42h-22.02l-14.68-39.11h-3.81v39.11h-20.19v-94.3h20.19v37.98h3.81l13.69-37.98h21.74l-17.65,45.88Z"/>
        <path class="cls-3" d="m249.49,226.53c-1.27-2.12-2.26-5.22-2.96-10.17l-1.98-17.36c-.99-6.07-3.39-8.47-8.61-8.47h-5.22v36h-20.05v-94.3h28.66c19.06,0,28.8,9.32,28.8,27.39,0,11.86-6.21,20.61-15.67,22.73v.28c6.63,1.55,10.87,6.63,12,14.68l2.54,18.49c.56,4.52,1.84,7.91,3.67,10.73h-21.18Zm-12.71-77.93h-6.07v26.54h6.21c7.34,0,10.45-3.67,10.45-13.27s-3.11-13.27-10.59-13.27Z"/>
        <path class="cls-1" d="m364.21,226.53h-28.43l-5.3-16.05h-31.14l-5.3,16.05h-27.34l32.78-90.85h31.82l32.91,90.85Zm-49.23-62.29h-.27l-8.7,26.11h17.68l-8.71-26.11Z"/>
        <path class="cls-1" d="m373.46,226.53v-90.85h27.88v67.86h37.94v22.98h-65.82Z"/>
      </g>
    </g>
  </g>
</svg>