<?xml version="1.0" encoding="UTF-8"?>
<svg id="Layer_2" data-name="Layer 2" xmlns="http://www.w3.org/2000/svg" viewBox="0 0 315.8 238.67">
  <defs>
    <style>
      .cls-1, .cls-2 {
        stroke-miterlimit: 10;
        stroke-width: 3px;
      }

      .cls-1, .cls-2, .cls-3 {
        stroke: #000;
      }

      .cls-1, .cls-3 {
        fill: #ffaf00;
      }

      .cls-3 {
        stroke-width: 2px;
      }
    </style>
  </defs>
  <g id="TFX_Expand" data-name="TFX Expand">
    <g>
      <g>
        <polygon class="cls-2" points="22.51 104.93 22.51 103.93 22.51 102.93 22.51 101.93 22.51 100.93 22.51 99.93 22.51 98.93 22.51 97.93 22.51 96.93 22.51 64.43 22.51 63.43 22.51 62.43 22.51 61.43 22.51 60.43 22.51 59.43 22.51 58.43 22.51 57.43 22.51 56.43 22.51 55.43 22.37 45.94 22.8 45.94 32.25 82.08 42.28 82.08 51.88 45.94 52.16 45.94 52.02 55.43 52.02 56.43 52.02 57.43 52.02 58.43 52.02 59.43 52.02 60.43 52.02 61.43 52.02 62.43 52.02 63.43 52.02 64.43 52.02 96.93 52.02 97.93 52.02 98.93 52.02 99.93 52.02 100.93 52.02 101.93 52.02 102.93 52.02 103.93 52.02 104.93 52.02 105.93 70.94 105.93 70.94 104.93 70.94 103.93 70.94 102.93 70.94 101.93 70.94 100.93 70.94 99.93 70.94 98.93 70.94 97.93 70.94 96.93 70.94 11.63 70.94 10.63 70.94 9.63 70.94 8.63 70.94 7.63 70.94 6.63 70.94 5.63 70.94 4.63 70.94 3.63 70.94 2.63 49.48 2.63 37.76 42.87 37.34 42.87 25.76 2.63 3.74 2.63 3.74 3.63 3.74 4.63 3.74 5.63 3.74 6.63 3.74 7.63 3.74 8.63 3.74 9.63 3.74 10.63 3.74 11.63 3.74 96.93 3.74 97.93 3.74 98.93 3.74 99.93 3.74 100.93 3.74 101.93 3.74 102.93 3.74 103.93 3.74 104.93 3.74 105.93 22.51 105.93 22.51 104.93"/>
        <path class="cls-2" d="m136.16,58.78c0-.17,0-.33,0-.5,0-.17,0-.33,0-.5s0-.33,0-.5c0-.17,0-.33,0-.5s0-.33,0-.5c0-.17,0-.33,0-.5s0-.33,0-.5c0-.17,0-.33,0-.5s0-.33,0-.5c0-.17,0-.33,0-.5s0-.33,0-.5c0-.17,0-.33,0-.5s0-.33,0-.5c0-.17,0-.33,0-.5s0-.33,0-.5c0-.17,0-.33,0-.5s0-.33,0-.5c0-.17,0-.33,0-.5,0-8.09-.75-15.21-2.2-21.35h16.46v77.5h20.33V28.43h17.79V2.63h-55.9v21.05c-4.74-14.48-14.18-22.18-27.81-22.18-20.19,0-31.2,17.08-31.2,48.28,0,.17,0,.33,0,.5,0,.17,0,.33,0,.5s0,.33,0,.5c0,.17,0,.33,0,.5s0,.33,0,.5c0,.17,0,.33,0,.5s0,.33,0,.5c0,.17,0,.33,0,.5s0,.33,0,.5c0,.17,0,.33,0,.5s0,.33,0,.5c0,.17,0,.33,0,.5s0,.33,0,.5c0,.17,0,.33,0,.5s0,.33,0,.5c0,.17,0,.33,0,.5s0,.33,0,.5c0,.17,0,.33,0,.5,0,31.2,11.01,48.28,31.2,48.28s31.34-17.08,31.34-48.28Zm-31.34-31.34c6.82,0,9.86,7.93,10.26,26.84-.4,18.91-3.44,26.84-10.26,26.84s-9.86-7.93-10.26-26.84c.4-18.91,3.44-26.84,10.26-26.84Z"/>
        <polygon class="cls-2" points="210.42 104.93 210.42 103.93 210.42 102.93 210.42 101.93 210.42 100.93 210.42 99.93 210.42 98.93 210.42 97.93 210.42 96.93 210.42 11.63 210.42 10.63 210.42 9.63 210.42 8.63 210.42 7.63 210.42 6.63 210.42 5.63 210.42 4.63 210.42 3.63 210.42 2.63 190.23 2.63 190.23 3.63 190.23 4.63 190.23 5.63 190.23 6.63 190.23 7.63 190.23 8.63 190.23 9.63 190.23 10.63 190.23 11.63 190.23 96.93 190.23 97.93 190.23 98.93 190.23 99.93 190.23 100.93 190.23 101.93 190.23 102.93 190.23 103.93 190.23 104.93 190.23 105.93 210.42 105.93 210.42 104.93"/>
        <polygon class="cls-2" points="235.55 104.93 235.55 103.93 235.55 102.93 235.55 101.93 235.55 100.93 235.55 99.93 235.55 98.93 235.55 97.93 235.55 96.93 235.55 68.52 256.72 68.52 256.72 67.52 256.72 66.52 256.72 65.52 256.72 64.52 256.72 63.52 256.72 62.52 256.72 61.52 256.72 60.52 256.72 59.52 256.72 52.29 256.72 51.29 256.72 50.29 256.72 49.29 256.72 48.29 256.72 47.29 256.72 46.29 256.72 45.29 256.72 44.29 256.72 43.29 235.55 43.29 235.55 28.43 259.97 28.43 259.97 27.43 259.97 26.43 259.97 25.43 259.97 24.43 259.97 23.43 259.97 22.43 259.97 21.43 259.97 20.43 259.97 19.43 259.97 11.63 259.97 10.63 259.97 9.63 259.97 8.63 259.97 7.63 259.97 6.63 259.97 5.63 259.97 4.63 259.97 3.63 259.97 2.63 215.5 2.63 215.5 3.63 215.5 4.63 215.5 5.63 215.5 6.63 215.5 7.63 215.5 8.63 215.5 9.63 215.5 10.63 215.5 11.63 215.5 96.93 215.5 97.93 215.5 98.93 215.5 99.93 215.5 100.93 215.5 101.93 215.5 102.93 215.5 103.93 215.5 104.93 215.5 105.93 235.55 105.93 235.55 104.93"/>
        <polygon class="cls-2" points="1.5 136.69 1.5 137.69 1.5 138.69 1.5 139.69 1.5 140.69 1.5 141.69 1.5 142.69 1.5 143.69 1.5 144.69 1.5 158.67 1.5 159.67 1.5 160.67 1.5 161.67 1.5 162.67 1.5 163.67 1.5 164.67 1.5 165.67 1.5 166.67 1.5 167.67 29.11 167.67 29.11 226.53 29.11 227.53 29.11 228.53 29.11 229.53 29.11 230.53 29.11 231.53 29.11 232.53 29.11 233.53 29.11 234.53 29.11 235.53 56.99 235.53 56.99 234.53 56.99 233.53 56.99 232.53 56.99 231.53 56.99 230.53 56.99 229.53 56.99 228.53 56.99 227.53 56.99 226.53 56.99 167.67 84.6 167.67 84.6 166.67 84.6 165.67 84.6 164.67 84.6 163.67 84.6 162.67 84.6 161.67 84.6 160.67 84.6 159.67 84.6 158.67 84.6 144.69 84.6 143.69 84.6 142.69 84.6 141.69 84.6 140.69 84.6 139.69 84.6 138.69 84.6 137.69 84.6 136.69 84.6 135.69 1.5 135.69 1.5 136.69"/>
        <path class="cls-2" d="m147.7,136.69v51.77c0,11.02-4.08,16.59-12.24,16.59s-12.24-5.58-12.24-16.59v-52.77h-28.02v63.67c0,24.48,14.55,37.81,40.26,37.81s40.26-13.33,40.26-37.81v-63.67h-28.02v1Z"/>
        <path class="cls-2" d="m244.26,135.69h-31.82l-32.78,90.85h.36l-.36,1h.36l-.36,1h.36l-.36,1h.36l-.36,1h.36l-.36,1h.36l-.36,1h.36l-.36,1h.36l-.36,1h.36l-.36,1h27.34l5.3-16.05h31.14l5.3,16.05h28.42l-.36-1h.36l-.36-1h.36l-.36-1h.36l-.36-1h.36l-.36-1h.36l-.36-1h.36l-.36-1h.36l-.36-1h.36l-.36-1h.36l-32.91-90.85Zm-16.59,37.56h.27l5.7,17.11h-11.68l5.7-17.11Z"/>
        <polygon class="cls-2" points="286.42 135.69 286.42 136.69 286.42 137.69 286.42 138.69 286.42 139.69 286.42 140.69 286.42 141.69 286.42 142.69 286.42 143.69 286.42 144.69 286.42 226.53 286.42 227.53 286.42 228.53 286.42 229.53 286.42 230.53 286.42 231.53 286.42 232.53 286.42 233.53 286.42 234.53 286.42 235.53 314.3 235.53 314.3 234.53 314.3 233.53 314.3 232.53 314.3 231.53 314.3 230.53 314.3 229.53 314.3 228.53 314.3 227.53 314.3 226.53 314.3 144.69 314.3 143.69 314.3 142.69 314.3 141.69 314.3 140.69 314.3 139.69 314.3 138.69 314.3 137.69 314.3 136.69 314.3 135.69 286.42 135.69"/>
      </g>
      <g>
        <path class="cls-3" d="m52.3,36.94h-.42l-9.6,36.14h-10.02l-9.46-36.14h-.57l.28,18.49v41.5H3.74V2.63h22.02l11.58,40.24h.42L49.48,2.63h21.46v94.3h-18.92v-41.5l.28-18.49Z"/>
        <path class="cls-3" d="m104.82,1.5c20.33,0,31.34,17.08,31.34,48.28s-11.01,48.28-31.34,48.28-31.2-17.08-31.2-48.28S84.63,1.5,104.82,1.5Zm0,16.94c-7.34,0-10.31,9.18-10.31,31.34s2.96,31.34,10.31,31.34,10.31-9.18,10.31-31.34-2.96-31.34-10.31-31.34Z"/>
        <path class="cls-3" d="m170.75,19.43v77.5h-20.33V19.43h-17.79V2.63h55.9v16.8h-17.79Z"/>
        <path class="cls-3" d="m190.23,96.93V2.63h20.19v94.3h-20.19Z"/>
        <path class="cls-3" d="m235.55,59.52v37.41h-20.05V2.63h44.47v16.8h-24.42v23.86h21.18v16.24h-21.18Z"/>
        <path class="cls-1" d="m56.99,158.67v67.87h-27.88v-67.87H1.5v-22.98h83.1v22.98h-27.61Z"/>
        <path class="cls-1" d="m147.7,188.45v-52.77h28.02v54.67c0,24.48-14.55,37.81-40.26,37.81s-40.26-13.33-40.26-37.81v-54.67h28.02v52.77c0,11.02,4.08,16.59,12.24,16.59s12.24-5.58,12.24-16.59Z"/>
        <path class="cls-1" d="m277.17,226.53h-28.42l-5.3-16.05h-31.14l-5.3,16.05h-27.34l32.78-90.85h31.82l32.91,90.85Zm-49.23-62.29h-.27l-8.7,26.11h17.68l-8.7-26.11Z"/>
        <path class="cls-1" d="m286.42,226.53v-90.85h27.88v90.85h-27.88Z"/>
      </g>
    </g>
  </g>
</svg>