<?xml version="1.0" encoding="UTF-8"?>
<svg id="Layer_2" data-name="Layer 2" xmlns="http://www.w3.org/2000/svg" viewBox="0 0 246.03 196.54">
  <defs>
    <style>
      .cls-1 {
        fill: #f4f3d3;
      }

      .cls-1, .cls-2 {
        stroke: #000;
        stroke-width: 1.5px;
      }
    </style>
  </defs>
  <g id="TFX_Expand" data-name="TFX Expand">
    <g>
      <g>
        <polygon class="cls-2" points="15.9 61.3 15.9 60.3 15.9 59.3 15.9 58.3 15.9 57.3 15.9 56.3 15.9 55.3 15.9 54.3 15.9 53.3 15.9 34.56 16.05 34.56 34.52 62.3 48.51 62.3 48.51 61.3 48.51 60.3 48.51 59.3 48.51 58.3 48.51 57.3 48.51 56.3 48.51 55.3 48.51 54.3 48.51 53.3 48.51 10.68 48.51 9.68 48.51 8.68 48.51 7.68 48.51 6.68 48.51 5.68 48.51 4.68 48.51 3.68 48.51 2.68 48.51 1.68 33.44 1.68 33.44 2.68 33.44 3.68 33.44 4.68 33.44 5.68 33.44 6.68 33.44 7.68 33.44 8.68 33.44 9.68 33.44 10.68 33.44 29.42 33.29 29.42 15.59 1.68 .75 1.68 .75 2.68 .75 3.68 .75 4.68 .75 5.68 .75 6.68 .75 7.68 .75 8.68 .75 9.68 .75 10.68 .75 53.3 .75 54.3 .75 55.3 .75 56.3 .75 57.3 .75 58.3 .75 59.3 .75 60.3 .75 61.3 .75 62.3 15.9 62.3 15.9 61.3"/>
        <path class="cls-2" d="m58.17,56.04c4.56,4.79,10.82,7.19,18.63,7.19s13.99-2.4,18.55-7.19c4.56-4.87,6.88-11.36,6.88-19.55,0-.17-.02-.33-.02-.5,0-.17.02-.33.02-.5s-.02-.33-.02-.5c0-.17.02-.33.02-.5s-.02-.33-.02-.5c0-.17.02-.33.02-.5s-.02-.33-.02-.5c0-.17.02-.33.02-.5s-.02-.33-.02-.5c0-.17.02-.33.02-.5s-.02-.33-.02-.5c0-.17.02-.33.02-.5s-.02-.33-.02-.5c0-.17.02-.33.02-.5s-.02-.33-.02-.5c0-.17.02-.33.02-.5s-.02-.33-.02-.5c0-.17.02-.33.02-.5,0-8.19-2.32-14.68-6.88-19.48-4.56-4.87-10.74-7.27-18.55-7.27s-14.07,2.4-18.63,7.27c-4.56,4.79-6.88,11.28-6.88,19.48,0,.17.02.33.02.5,0,.17-.02.33-.02.5s.02.33.02.5c0,.17-.02.33-.02.5s.02.33.02.5c0,.17-.02.33-.02.5s.02.33.02.5c0,.17-.02.33-.02.5s.02.33.02.5c0,.17-.02.33-.02.5s.02.33.02.5c0,.17-.02.33-.02.5s.02.33.02.5c0,.17-.02.33-.02.5s.02.33.02.5c0,.17-.02.33-.02.5s.02.33.02.5c0,.17-.02.33-.02.5,0,8.19,2.32,14.68,6.88,19.55Zm18.63-33.08c4.69,0,7.76,3.24,8.76,9.03-1,5.78-4.07,9.03-8.76,9.03s-7.76-3.24-8.76-9.03c1-5.78,4.07-9.03,8.76-9.03Z"/>
        <polygon class="cls-2" points="120.85 61.3 120.85 60.3 120.85 59.3 120.85 58.3 120.85 57.3 120.85 56.3 120.85 55.3 120.85 54.3 120.85 53.3 120.85 42.75 124.02 42.75 135.61 62.3 154.08 62.3 153.47 61.3 154.08 61.3 153.47 60.3 154.08 60.3 153.47 59.3 154.08 59.3 153.47 58.3 154.08 58.3 153.47 57.3 154.08 57.3 153.47 56.3 154.08 56.3 153.47 55.3 154.08 55.3 153.47 54.3 154.08 54.3 153.47 53.3 154.08 53.3 140.5 31.16 152.77 10.68 152.17 10.68 152.77 9.68 152.17 9.68 152.77 8.68 152.17 8.68 152.77 7.68 152.17 7.68 152.77 6.68 152.17 6.68 152.77 5.68 152.17 5.68 152.77 4.68 152.17 4.68 152.77 3.68 152.17 3.68 152.77 2.68 152.17 2.68 152.77 1.68 135.3 1.68 124.17 20.61 120.85 20.61 120.85 10.68 120.85 9.68 120.85 8.68 120.85 7.68 120.85 6.68 120.85 5.68 120.85 4.68 120.85 3.68 120.85 2.68 120.85 1.68 105.01 1.68 105.01 2.68 105.01 3.68 105.01 4.68 105.01 5.68 105.01 6.68 105.01 7.68 105.01 8.68 105.01 9.68 105.01 10.68 105.01 53.3 105.01 54.3 105.01 55.3 105.01 56.3 105.01 57.3 105.01 58.3 105.01 59.3 105.01 60.3 105.01 61.3 105.01 62.3 120.85 62.3 120.85 61.3"/>
        <polygon class="cls-2" points="193.27 61.3 193.27 60.3 193.27 59.3 193.27 58.3 193.27 57.3 193.27 56.3 193.27 55.3 193.27 54.3 193.27 53.3 193.27 49.24 193.27 48.24 193.27 47.24 193.27 46.24 193.27 45.24 193.27 44.24 193.27 43.24 193.27 42.24 193.27 41.24 193.27 40.24 190.48 40.24 190.48 40.13 190.48 39.13 190.48 38.13 190.48 37.13 190.48 36.13 190.48 35.13 190.48 34.13 190.48 33.13 190.48 30.54 190.48 29.54 190.48 28.54 190.48 27.54 190.48 26.54 190.48 25.54 190.48 24.54 190.48 23.74 193.11 23.74 193.11 22.74 193.11 21.74 193.11 20.74 193.11 19.74 193.11 18.74 193.11 17.74 193.11 16.74 193.11 15.74 193.11 14.74 193.11 10.68 193.11 9.68 193.11 8.68 193.11 7.68 193.11 6.68 193.11 5.68 193.11 4.68 193.11 3.68 193.11 2.68 193.11 1.68 154.85 1.68 154.85 2.68 154.85 3.68 154.85 4.68 154.85 5.68 154.85 6.68 154.85 7.68 154.85 8.68 154.85 9.68 154.85 10.68 154.85 53.3 154.85 54.3 154.85 55.3 154.85 56.3 154.85 57.3 154.85 58.3 154.85 59.3 154.85 60.3 154.85 61.3 154.85 62.3 193.27 62.3 193.27 61.3"/>
        <path class="cls-2" d="m49.36,161.87c0-.17-.02-.34-.02-.51,0-.17.02-.32.02-.49s-.02-.34-.02-.51c0-.17.02-.32.02-.49s-.02-.34-.02-.51c0-.17.02-.32.02-.49s-.02-.34-.02-.51c0-.17.02-.32.02-.49s-.02-.34-.02-.51c0-.17.02-.32.02-.49s-.02-.34-.02-.51c0-.17.02-.32.02-.49s-.02-.34-.02-.51c0-.17.02-.32.02-.49s-.02-.34-.02-.51c0-.17.02-.32.02-.49s-.02-.34-.02-.51c0-.17.02-.32.02-.49,0-11.83-7.5-18.63-20.48-18.63H5.62v60.63h15.84v-14.61h7.42c6.11,0,11.05-1.62,14.84-4.95s5.64-7.81,5.64-13.45Zm-22.41-6.11c2.05,0,3.62.57,4.66,1.66-1.04,1.07-2.61,1.62-4.66,1.62h-5.49v-3.29h5.49Z"/>
        <path class="cls-2" d="m190.48,173.31v-39.07h-15.92v29.99c0,6.26-2.32,9.43-6.96,9.43s-6.96-3.17-6.96-9.43v-29.99h-15.92v40.07c0,13.91,8.27,21.49,22.88,21.49s22.88-7.57,22.88-21.49v-1Z"/>
        <polygon class="cls-2" points="112.2 120.59 112.2 121.59 112.2 122.59 112.2 123.59 112.2 124.59 112.2 125.59 112.2 126.59 112.2 127.59 112.2 128.59 123.32 128.59 123.32 127.59 123.32 126.59 123.32 125.59 123.32 124.59 123.32 123.59 123.32 122.59 123.32 121.59 123.32 120.59 123.32 119.59 123.32 76.96 123.32 75.96 123.32 74.96 123.32 73.96 123.32 72.96 123.32 71.96 123.32 70.96 123.32 69.96 123.32 68.96 123.32 67.96 112.2 67.96 112.2 68.96 112.2 69.96 112.2 70.96 112.2 71.96 112.2 72.96 112.2 73.96 112.2 74.96 112.2 75.96 112.2 76.96 112.2 88.9 101.92 88.9 101.92 76.96 101.92 75.96 101.92 74.96 101.92 73.96 101.92 72.96 101.92 71.96 101.92 70.96 101.92 69.96 101.92 68.96 101.92 67.96 90.86 67.96 90.86 68.96 90.86 69.96 90.86 70.96 90.86 71.96 90.86 72.96 90.86 73.96 90.86 74.96 90.86 75.96 90.86 76.96 90.86 119.59 90.86 120.59 90.86 121.59 90.86 122.59 90.86 123.59 90.86 124.59 90.86 125.59 90.86 126.59 90.86 127.59 90.86 128.59 101.92 128.59 101.92 127.59 101.92 126.59 101.92 125.59 101.92 124.59 101.92 123.59 101.92 122.59 101.92 121.59 101.92 120.59 101.92 119.59 101.92 107.02 112.2 107.02 112.2 119.59 112.2 120.59"/>
        <polygon class="cls-2" points="230.21 1.68 230.21 2.68 230.21 3.68 230.21 4.68 230.21 5.68 230.21 6.68 230.21 7.68 230.21 8.68 230.21 9.68 230.21 10.68 230.21 29.42 230.05 29.42 212.35 1.68 197.52 1.68 197.52 2.68 197.52 3.68 197.52 4.68 197.52 5.68 197.52 6.68 197.52 7.68 197.52 8.68 197.52 9.68 197.52 10.68 197.52 53.3 197.52 54.3 197.52 55.3 197.52 56.3 197.52 57.3 197.52 58.3 197.52 59.3 197.52 60.3 197.52 61.3 197.52 62.3 212.66 62.3 212.66 61.3 212.66 60.3 212.66 59.3 212.66 58.3 212.66 57.3 212.66 56.3 212.66 55.3 212.66 54.3 212.66 53.3 212.66 34.56 212.82 34.56 231.29 62.3 245.28 62.3 245.28 61.3 245.28 60.3 245.28 59.3 245.28 58.3 245.28 57.3 245.28 56.3 245.28 55.3 245.28 54.3 245.28 53.3 245.28 10.68 245.28 9.68 245.28 8.68 245.28 7.68 245.28 6.68 245.28 5.68 245.28 4.68 245.28 3.68 245.28 2.68 245.28 1.68 230.21 1.68"/>
        <polygon class="cls-2" points="79.24 97.54 87.16 76.96 86.77 76.96 87.16 75.96 86.77 75.96 87.16 74.96 86.77 74.96 87.16 73.96 86.77 73.96 87.16 72.96 86.77 72.96 87.16 71.96 86.77 71.96 87.16 70.96 86.77 70.96 87.16 69.96 86.77 69.96 87.16 68.96 86.77 68.96 87.16 67.96 75.25 67.96 67.76 88.75 65.67 88.75 65.67 76.96 65.67 75.96 65.67 74.96 65.67 73.96 65.67 72.96 65.67 71.96 65.67 70.96 65.67 69.96 65.67 68.96 65.67 67.96 54.62 67.96 54.62 68.96 54.62 69.96 54.62 70.96 54.62 71.96 54.62 72.96 54.62 73.96 54.62 74.96 54.62 75.96 54.62 76.96 54.62 119.59 54.62 120.59 54.62 121.59 54.62 122.59 54.62 123.59 54.62 124.59 54.62 125.59 54.62 126.59 54.62 127.59 54.62 128.59 65.67 128.59 65.67 127.59 65.67 126.59 65.67 125.59 65.67 124.59 65.67 123.59 65.67 122.59 65.67 121.59 65.67 120.59 65.67 119.59 65.67 107.18 67.76 107.18 75.79 128.59 87.85 128.59 87.46 127.59 87.85 127.59 87.46 126.59 87.85 126.59 87.46 125.59 87.85 125.59 87.46 124.59 87.85 124.59 87.46 123.59 87.85 123.59 87.46 122.59 87.85 122.59 87.46 121.59 87.85 121.59 87.46 120.59 87.85 120.59 87.46 119.59 87.85 119.59 79.24 97.54"/>
        <path class="cls-2" d="m151.22,67.96h-13.91l-10.59,51.63h.21l-.21,1h.21l-.21,1h.21l-.21,1h.21l-.21,1h.21l-.21,1h.21l-.21,1h.21l-.21,1h.21l-.21,1h.21l-.21,1h10.43l2.01-11.59h9.89l2.01,11.59h10.74l-.21-1h.21l-.21-1h.21l-.21-1h.21l-.21-1h.21l-.21-1h.21l-.21-1h.21l-.21-1h.21l-.21-1h.21l-.21-1h.21l-10.59-51.63Zm-7.26,21.29h.23l1.82,10.4h-3.84l1.78-10.4Z"/>
        <path class="cls-2" d="m190.95,97.41c-.98-1.57-2.59-3.3-4.85-5.18l6.85-1.5c-.01-.34-.04-.66-.07-.98l.07-.02c-.01-.34-.04-.66-.07-.98l.07-.02c-.01-.34-.04-.66-.07-.98l.07-.02c-.01-.34-.04-.66-.07-.98l.07-.02c-.01-.34-.04-.66-.07-.98l.07-.02c-.01-.34-.04-.66-.07-.98l.07-.02c-.01-.34-.04-.66-.07-.98l.07-.02c-.01-.34-.04-.66-.07-.98l.07-.02c-.01-.34-.04-.66-.07-.98l.07-.02c-.31-9.04-5.56-14.38-14.3-14.38-4.41,0-7.96,1.31-10.74,4.02s-4.17,6.11-4.17,10.36c0,.2.01.39.02.58,0,.14-.02.28-.02.42,0,.2.01.39.02.58,0,.14-.02.28-.02.42,0,.2.01.39.02.58,0,.14-.02.28-.02.42,0,.2.01.39.02.58,0,.14-.02.28-.02.42,0,.2.01.39.02.58,0,.14-.02.28-.02.42,0,.2.01.39.02.58,0,.14-.02.28-.02.42,0,.2.01.39.02.58,0,.14-.02.28-.02.42,0,.2.01.39.02.58,0,.14-.02.28-.02.42,0,.2.01.39.02.58,0,.14-.02.28-.02.42,0,2.94.7,5.56,2.16,7.96.84,1.32,2.2,2.78,4.04,4.35l-7.06,1.95c0,.34.03.66.05.99h-.05c0,.35.03.67.05,1h-.05c0,.35.03.67.05,1h-.05c0,.35.03.67.05,1h-.05c0,.35.03.67.05,1h-.05c0,.35.03.67.05,1h-.05c0,.35.03.67.05,1h-.05c0,.35.03.67.05,1h-.05c0,.35.03.67.05,1h-.05c.08,9.29,6.11,15.24,15.15,15.24,4.41,0,8.04-1.31,10.9-4.02s4.33-6.18,4.33-10.43c0-.2-.01-.39-.02-.58,0-.14.02-.28.02-.42,0-.2-.01-.39-.02-.58,0-.14.02-.28.02-.42,0-.2-.01-.39-.02-.58,0-.14.02-.28.02-.42,0-.2-.01-.39-.02-.58,0-.14.02-.28.02-.42,0-.2-.01-.39-.02-.58,0-.14.02-.28.02-.42,0-.2-.01-.39-.02-.58,0-.14.02-.28.02-.42,0-.2-.01-.39-.02-.58,0-.14.02-.28.02-.42,0-.2-.01-.39-.02-.58,0-.14.02-.28.02-.42,0-.2-.01-.39-.02-.58,0-.14.02-.28.02-.42,0-3.09-.77-5.87-2.32-8.35Zm-9.35-8.58c-1.99-1.38-3.5-2.52-4.55-3.45.51-.2,1.07-.31,1.69-.31,2.23,0,3.84,1.84,4.45,4.88-.51-.37-1.04-.74-1.59-1.13Zm-6.65,17.96c2.35,1.65,4.08,3.03,5.18,4.14-.61.3-1.33.47-2.16.47-2.85,0-4.82-2.4-5.39-6.29.74.55,1.53,1.11,2.38,1.69Z"/>
        <path class="cls-2" d="m79.43,134.24h-18.08l-18.63,51.63h.36l-.36,1h.36l-.36,1h.36l-.36,1h.36l-.36,1h.36l-.36,1h.36l-.36,1h.36l-.36,1h.36l-.36,1h.36l-.36,1h15.54l3.01-9.12h17.7l3.01,9.12h16.15l-.36-1h.36l-.36-1h.36l-.36-1h.36l-.36-1h.36l-.36-1h.36l-.36-1h.36l-.36-1h.36l-.36-1h.36l-.36-1h.36l-18.7-51.63Zm-9.43,25.23h.15l1.95,5.84h-4.05l1.95-5.84Z"/>
        <path class="cls-2" d="m122.78,134.24h-23.26v60.63h15.84v-14.61h7.42c6.11,0,11.05-1.62,14.84-4.95s5.64-7.81,5.64-13.45c0-.17-.02-.34-.02-.51,0-.17.02-.32.02-.49s-.02-.34-.02-.51c0-.17.02-.32.02-.49s-.02-.34-.02-.51c0-.17.02-.32.02-.49s-.02-.34-.02-.51c0-.17.02-.32.02-.49s-.02-.34-.02-.51c0-.17.02-.32.02-.49s-.02-.34-.02-.51c0-.17.02-.32.02-.49s-.02-.34-.02-.51c0-.17.02-.32.02-.49s-.02-.34-.02-.51c0-.17.02-.32.02-.49s-.02-.34-.02-.51c0-.17.02-.32.02-.49,0-11.83-7.5-18.63-20.48-18.63Zm-1.93,21.52c2.05,0,3.62.57,4.66,1.66-1.04,1.07-2.61,1.62-4.66,1.62h-5.49v-3.29h5.49Z"/>
        <path class="cls-2" d="m225.57,134.24h-18.08l-18.63,51.63h.36l-.36,1h.36l-.36,1h.36l-.36,1h.36l-.36,1h.36l-.36,1h.36l-.36,1h.36l-.36,1h.36l-.36,1h.36l-.36,1h15.54l3.01-9.12h17.7l3.01,9.12h16.15l-.36-1h.36l-.36-1h.36l-.36-1h.36l-.36-1h.36l-.36-1h.36l-.36-1h.36l-.36-1h.36l-.36-1h.36l-.36-1h.36l-18.7-51.63Zm-9.43,25.23h.15l1.95,5.84h-4.05l1.95-5.84Z"/>
      </g>
      <g>
        <path class="cls-1" d="m33.29,29.42h.15V1.68h15.07v51.63h-13.99l-18.47-27.75h-.15v27.75H.75V1.68h14.84l17.7,27.75Z"/>
        <path class="cls-1" d="m58.17,8.02c4.56-4.87,10.82-7.27,18.63-7.27s13.99,2.4,18.55,7.27c4.56,4.79,6.88,11.28,6.88,19.48s-2.32,14.68-6.88,19.55c-4.56,4.79-10.74,7.19-18.55,7.19s-14.07-2.4-18.63-7.19c-4.56-4.87-6.88-11.36-6.88-19.55s2.32-14.68,6.88-19.48Zm18.63,5.95c-5.8,0-9.12,4.95-9.12,13.53s3.32,13.53,9.12,13.53,9.12-4.95,9.12-13.53-3.32-13.53-9.12-13.53Z"/>
        <path class="cls-1" d="m137.78,26.72l16.31,26.59h-18.47l-11.59-19.55h-3.17v19.55h-15.84V1.68h15.84v18.94h3.32l11.13-18.94h17.47l-14.99,25.04Z"/>
        <path class="cls-1" d="m170.08,40.24h23.19v13.06h-38.41V1.68h38.26v13.06h-23.03v6.8h20.4v11.59h-20.4v7.11Z"/>
        <path class="cls-1" d="m230.05,29.42h.15V1.68h15.07v51.63h-13.99l-18.47-27.75h-.16v27.75h-15.15V1.68h14.84l17.7,27.75Z"/>
        <path class="cls-1" d="m77.5,93.08l10.36,26.51h-12.06l-8.04-21.41h-2.09v21.41h-11.05v-51.63h11.05v20.79h2.09l7.5-20.79h11.9l-9.66,25.12Z"/>
        <path class="cls-1" d="m101.92,98.02v21.56h-11.05v-51.63h11.05v20.94h10.28v-20.94h11.13v51.63h-11.13v-21.56h-10.28Z"/>
        <path class="cls-1" d="m161.81,119.59h-10.74l-2.01-11.59h-9.89l-2.01,11.59h-10.43l10.59-51.63h13.91l10.59,51.63Zm-17.62-39.34h-.23l-3.32,19.4h6.96l-3.4-19.4Z"/>
        <path class="cls-1" d="m188.94,116.19c-2.86,2.71-6.49,4.02-10.9,4.02-9.04,0-15.07-5.95-15.15-15.23l9.51-2.63c-.08,5.49,2.09,9.04,5.56,9.04,2.78,0,4.41-1.7,4.41-4.71,0-1.31-.46-2.63-1.39-3.79-.93-1.24-2.94-2.94-6.03-5.1-4.56-3.09-7.57-5.8-9.04-8.11-1.47-2.4-2.16-5.02-2.16-7.96,0-4.25,1.39-7.65,4.17-10.36s6.34-4.02,10.74-4.02c8.73,0,13.99,5.33,14.3,14.38l-9.51,2.09c0-4.71-1.85-7.73-4.71-7.73-2.55,0-4.25,1.78-4.25,4.56,0,1.16.46,2.32,1.31,3.48.85,1.08,2.78,2.63,5.8,4.71,4.71,3.25,7.81,6.11,9.35,8.58,1.55,2.47,2.32,5.25,2.32,8.35,0,4.25-1.47,7.73-4.33,10.43Z"/>
        <path class="cls-1" d="m43.72,166.31c-3.79,3.32-8.73,4.95-14.84,4.95h-7.42v14.61H5.62v-51.63h23.26c12.98,0,20.48,6.8,20.48,18.63,0,5.64-1.85,10.12-5.64,13.45Zm-16.77-19.55h-5.49v12.29h5.49c4.02,0,6.18-2.09,6.18-6.11s-2.16-6.18-6.18-6.18Z"/>
        <path class="cls-1" d="m98.13,185.87h-16.15l-3.01-9.12h-17.7l-3.01,9.12h-15.54l18.63-51.63h18.08l18.7,51.63Zm-27.98-35.4h-.15l-4.95,14.84h10.05l-4.95-14.84Z"/>
        <path class="cls-1" d="m137.62,166.31c-3.79,3.32-8.73,4.95-14.84,4.95h-7.42v14.61h-15.84v-51.63h23.26c12.98,0,20.48,6.8,20.48,18.63,0,5.64-1.85,10.12-5.64,13.45Zm-16.77-19.55h-5.49v12.29h5.49c4.02,0,6.18-2.09,6.18-6.11s-2.16-6.18-6.18-6.18Z"/>
        <path class="cls-1" d="m174.56,164.23v-29.99h15.92v31.07c0,13.91-8.27,21.49-22.88,21.49s-22.88-7.57-22.88-21.49v-31.07h15.92v29.99c0,6.26,2.32,9.43,6.96,9.43s6.96-3.17,6.96-9.43Z"/>
        <path class="cls-1" d="m244.27,185.87h-16.15l-3.01-9.12h-17.7l-3.01,9.12h-15.54l18.63-51.63h18.08l18.7,51.63Zm-27.98-35.4h-.15l-4.95,14.84h10.05l-4.95-14.84Z"/>
      </g>
    </g>
  </g>
</svg>