<?xml version="1.0" encoding="UTF-8"?>
<svg id="Layer_2" data-name="Layer 2" xmlns="http://www.w3.org/2000/svg" viewBox="0 0 1483.79 108.69">
  <defs>
    <style>
      .cls-1, .cls-2 {
        stroke: #000;
        stroke-width: 2px;
      }

      .cls-2 {
        fill: #f4f3d3;
      }
    </style>
  </defs>
  <g id="TFX_Expand" data-name="TFX Expand">
    <g>
      <g>
        <g>
          <path class="cls-1" d="m56.48,80.32c0-.2.01-.39.01-.59,0-.14-.01-.27-.01-.41,0-.2.01-.39.01-.59,0-.14-.01-.27-.01-.41,0-.2.01-.39.01-.59,0-.14-.01-.27-.01-.41,0-.2.01-.39.01-.59,0-.14-.01-.27-.01-.41,0-.2.01-.39.01-.59,0-.14-.01-.27-.01-.41,0-.2.01-.39.01-.59,0-.14-.01-.27-.01-.41,0-.2.01-.39.01-.59,0-.14-.01-.27-.01-.41,0-.2.01-.39.01-.59,0-.14-.01-.27-.01-.41,0-.2.01-.39.01-.59,0-5.65-1.41-10.73-4.24-15.25-2.82-4.52-8.47-9.74-17.08-15.67-5.51-3.81-9.04-6.63-10.59-8.61-.5-.68-.92-1.36-1.27-2.04,1.3-2.3,3.64-3.64,6.63-3.64,5.22,0,8.61,5.51,8.61,14.12l17.36-3.81c-.01-.33-.03-.66-.05-.99h.05c-.01-.35-.03-.67-.05-1h.05c-.01-.35-.03-.67-.05-1h.05c-.01-.35-.03-.67-.05-1h.05c-.01-.35-.03-.67-.05-1h.05c-.01-.35-.03-.67-.05-1h.05c-.01-.35-.03-.67-.05-1h.05c-.01-.35-.03-.67-.05-1h.05c-.01-.35-.03-.67-.05-1h.05C55.36,11.31,45.76,1.57,29.81,1.57c-8.05,0-14.54,2.4-19.62,7.34-5.08,4.94-7.62,11.15-7.62,18.92,0,.14.01.27.01.41,0,.2-.01.39-.01.59,0,.14.01.27.01.41,0,.2-.01.39-.01.59,0,.14.01.27.01.41,0,.2-.01.39-.01.59,0,.14.01.27.01.41,0,.2-.01.39-.01.59,0,.14.01.27.01.41,0,.2-.01.39-.01.59,0,.14.01.27.01.41,0,.2-.01.39-.01.59,0,.14.01.27.01.41,0,.2-.01.39-.01.59,0,.14.01.27.01.41,0,.2-.01.39-.01.59,0,.14.01.27.01.41,0,.2-.01.39-.01.59,0,5.37,1.27,10.17,3.95,14.54,2.68,4.24,8.19,9.18,16.52,14.82,5.65,3.95,9.32,7.06,11.01,9.32.66.82,1.18,1.69,1.58,2.57-1.25,2.56-3.7,3.95-7.09,3.95-6.35,0-10.31-6.49-10.17-16.52l-17.36,4.8c0,.33.02.66.03.99h-.03c0,.34.02.67.03,1h-.03c0,.34.02.67.03,1h-.03c0,.34.02.67.03,1h-.03c0,.34.02.67.03,1h-.03c0,.34.02.67.03,1h-.03c0,.34.02.67.03,1h-.03c0,.34.02.67.03,1h-.03c0,.34.02.67.03,1h-.03c.14,16.95,11.15,27.82,27.67,27.82,8.05,0,14.68-2.4,19.91-7.34,5.22-4.94,7.91-11.29,7.91-19.06,0-.14-.01-.27-.01-.41Z"/>
          <path class="cls-1" d="m584.63,36.54c-.09-.3-.19-.59-.29-.89l.29-.11c-.09-.3-.19-.59-.29-.89l.29-.11c-.09-.3-.19-.59-.29-.89l.29-.11c-.09-.3-.19-.59-.29-.89l.29-.11c-.09-.3-.19-.59-.29-.89l.29-.11c-.09-.3-.19-.59-.29-.89l.29-.11c-.09-.3-.19-.59-.29-.89l.29-.11c-.09-.3-.19-.59-.29-.89l.29-.11c-.09-.3-.19-.59-.29-.89l.29-.11c-2.4-8.05-7.2-14.54-14.68-19.34-7.48-4.8-16.38-7.2-26.68-7.2-14.4,0-25.98,4.66-34.87,13.84-8.89,9.18-13.27,21.18-13.27,36.28,0,.17,0,.34,0,.51,0,.16,0,.32,0,.49s0,.34,0,.51c0,.16,0,.32,0,.49s0,.34,0,.51c0,.16,0,.32,0,.49s0,.34,0,.51c0,.16,0,.32,0,.49s0,.34,0,.51c0,.16,0,.32,0,.49s0,.34,0,.51c0,.16,0,.32,0,.49s0,.34,0,.51c0,.16,0,.32,0,.49s0,.34,0,.51c0,.16,0,.32,0,.49s0,.34,0,.51c0,.16,0,.32,0,.49,0,14.26,3.95,25.83,11.86,34.59,7.91,8.61,18.07,12.99,30.49,12.99s22.31-4.66,26.12-12l3.25,10.31h19.06v-61.09h-23.02l21.75-8.36Zm-40.94,12.36v22.93h10.33c-2.36,2.44-6.11,3.85-10.9,3.85-10.56,0-16.74-7.24-17.87-20.24,1.14-13.54,7.52-21.16,17.73-21.16,7.04,0,11.63,3.72,13.59,10.62h-12.88v4Z"/>
          <path class="cls-1" d="m679.36,36.54c-.09-.3-.19-.59-.29-.89l.29-.11c-.09-.3-.19-.59-.29-.89l.29-.11c-.09-.3-.19-.59-.29-.89l.29-.11c-.09-.3-.19-.59-.29-.89l.29-.11c-.09-.3-.19-.59-.29-.89l.29-.11c-.09-.3-.19-.59-.29-.89l.29-.11c-.09-.3-.19-.59-.29-.89l.29-.11c-.09-.3-.19-.59-.29-.89l.29-.11c-.09-.3-.19-.59-.29-.89l.29-.11c-2.4-8.05-7.2-14.54-14.68-19.34-7.48-4.8-16.38-7.2-26.68-7.2-14.4,0-25.98,4.66-34.87,13.84-8.89,9.18-13.27,21.18-13.27,36.28,0,.17,0,.34,0,.51,0,.16,0,.32,0,.49s0,.34,0,.51c0,.16,0,.32,0,.49s0,.34,0,.51c0,.16,0,.32,0,.49s0,.34,0,.51c0,.16,0,.32,0,.49s0,.34,0,.51c0,.16,0,.32,0,.49s0,.34,0,.51c0,.16,0,.32,0,.49s0,.34,0,.51c0,.16,0,.32,0,.49s0,.34,0,.51c0,.16,0,.32,0,.49s0,.34,0,.51c0,.16,0,.32,0,.49,0,14.26,3.95,25.83,11.86,34.59,7.91,8.61,18.07,12.99,30.49,12.99s22.31-4.66,26.12-12l3.25,10.31h19.06v-61.09h-23.02l21.75-8.36Zm-40.94,12.36v22.93h10.33c-2.36,2.44-6.11,3.85-10.9,3.85-10.56,0-16.74-7.24-17.87-20.24,1.14-13.54,7.52-21.16,17.73-21.16,7.04,0,11.63,3.72,13.59,10.62h-12.88v4Z"/>
          <path class="cls-1" d="m98.56,2.69h-25.41l-19.34,94.3h.21l-.21,1h.21l-.21,1h.21l-.21,1h.21l-.21,1h.21l-.21,1h.21l-.21,1h.21l-.21,1h.21l-.21,1h.21l-.21,1h19.06l3.67-21.18h18.07l3.67,21.18h19.62l-.21-1h.21l-.21-1h.21l-.21-1h.21l-.21-1h.21l-.21-1h.21l-.21-1h.21l-.21-1h.21l-.21-1h.21l-.21-1h.21L98.56,2.69Zm-13.27,31.45h.42l4.63,26.43h-9.59l4.53-26.43Z"/>
          <polygon class="cls-1" points="109.71 3.69 109.71 4.69 109.71 5.69 109.71 6.69 109.71 7.69 109.71 8.69 109.71 9.69 109.71 10.69 109.71 11.69 109.71 19.49 109.71 20.49 109.71 21.49 109.71 22.49 109.71 23.49 109.71 24.49 109.71 25.49 109.71 26.49 109.71 27.49 109.71 28.49 127.5 28.49 127.5 97 127.5 98 127.5 99 127.5 100 127.5 101 127.5 102 127.5 103 127.5 104 127.5 105 127.5 106 147.83 106 147.83 105 147.83 104 147.83 103 147.83 102 147.83 101 147.83 100 147.83 99 147.83 98 147.83 97 147.83 28.49 165.62 28.49 165.62 27.49 165.62 26.49 165.62 25.49 165.62 24.49 165.62 23.49 165.62 22.49 165.62 21.49 165.62 20.49 165.62 19.49 165.62 11.69 165.62 10.69 165.62 9.69 165.62 8.69 165.62 7.69 165.62 6.69 165.62 5.69 165.62 4.69 165.62 3.69 165.62 2.69 109.71 2.69 109.71 3.69"/>
          <path class="cls-1" d="m203.87,3.69v63.94c0,9.46-2.82,13.69-8.47,13.69s-8.47-4.09-8.47-13.69V2.69h-20.33v72.81c0,20.33,10.31,31.62,28.8,31.62s28.8-11.29,28.8-31.62V2.69h-20.33v1Z"/>
          <polygon class="cls-1" points="305.1 42.36 304.81 42.36 285.62 2.69 255.12 2.69 255.12 3.69 255.12 4.69 255.12 5.69 255.12 6.69 255.12 7.69 255.12 8.69 255.12 9.69 255.12 10.69 255.12 11.69 255.12 97 255.12 98 255.12 99 255.12 100 255.12 101 255.12 102 255.12 103 255.12 104 255.12 105 255.12 106 282.79 106 282.79 105 282.79 104 282.79 103 282.79 102 282.79 101 282.79 100 282.79 99 282.79 98 282.79 97 282.79 76.07 282.79 75.07 282.79 74.07 282.79 73.07 282.79 72.07 282.79 71.07 282.79 70.07 282.79 69.07 282.79 68.07 282.79 67.07 282.71 55.18 282.93 55.18 296.91 84.96 312.86 84.96 326.84 55.18 327.06 55.18 326.98 67.07 326.98 68.07 326.98 69.07 326.98 70.07 326.98 71.07 326.98 72.07 326.98 73.07 326.98 74.07 326.98 75.07 326.98 76.07 326.98 97 326.98 98 326.98 99 326.98 100 326.98 101 326.98 102 326.98 103 326.98 104 326.98 105 326.98 106 354.65 106 354.65 105 354.65 104 354.65 103 354.65 102 354.65 101 354.65 100 354.65 99 354.65 98 354.65 97 354.65 11.69 354.65 10.69 354.65 9.69 354.65 8.69 354.65 7.69 354.65 6.69 354.65 5.69 354.65 4.69 354.65 3.69 354.65 2.69 324.3 2.69 305.1 42.36"/>
          <polygon class="cls-1" points="364.25 3.69 364.25 4.69 364.25 5.69 364.25 6.69 364.25 7.69 364.25 8.69 364.25 9.69 364.25 10.69 364.25 11.69 364.25 97 364.25 98 364.25 99 364.25 100 364.25 101 364.25 102 364.25 103 364.25 104 364.25 105 364.25 106 393.19 106 393.19 105 393.19 104 393.19 103 393.19 102 393.19 101 393.19 100 393.19 99 393.19 98 393.19 97 393.19 11.69 393.19 10.69 393.19 9.69 393.19 8.69 393.19 7.69 393.19 6.69 393.19 5.69 393.19 4.69 393.19 3.69 393.19 2.69 364.25 2.69 364.25 3.69"/>
          <polygon class="cls-1" points="462.51 3.69 462.51 4.69 462.51 5.69 462.51 6.69 462.51 7.69 462.51 8.69 462.51 9.69 462.51 10.69 462.51 11.69 462.51 53.38 462.22 53.38 429.9 2.69 402.79 2.69 402.79 3.69 402.79 4.69 402.79 5.69 402.79 6.69 402.79 7.69 402.79 8.69 402.79 9.69 402.79 10.69 402.79 11.69 402.79 97 402.79 98 402.79 99 402.79 100 402.79 101 402.79 102 402.79 103 402.79 104 402.79 105 402.79 106 430.46 106 430.46 105 430.46 104 430.46 103 430.46 102 430.46 101 430.46 100 430.46 99 430.46 98 430.46 97 430.46 55.32 430.74 55.32 464.48 106 490.04 106 490.04 105 490.04 104 490.04 103 490.04 102 490.04 101 490.04 100 490.04 99 490.04 98 490.04 97 490.04 11.69 490.04 10.69 490.04 9.69 490.04 8.69 490.04 7.69 490.04 6.69 490.04 5.69 490.04 4.69 490.04 3.69 490.04 2.69 462.51 2.69 462.51 3.69"/>
          <path class="cls-1" d="m742.32,2.69v54.78c0,11.43-4.23,17.22-12.71,17.22s-12.71-5.79-12.71-17.22V2.69h-29.08v65.75c0,25.41,15.11,39.25,41.79,39.25s41.79-13.83,41.79-39.25V2.69h-29.08Z"/>
        </g>
        <g>
          <path class="cls-2" d="m48.58,90.79c-5.22,4.94-11.86,7.34-19.91,7.34-16.52,0-27.53-10.87-27.67-27.81l17.36-4.8c-.14,10.02,3.81,16.52,10.17,16.52,5.08,0,8.05-3.11,8.05-8.61,0-2.4-.85-4.8-2.54-6.92-1.69-2.26-5.37-5.37-11.01-9.32-8.33-5.65-13.83-10.59-16.52-14.82-2.68-4.38-3.95-9.18-3.95-14.54,0-7.76,2.54-13.98,7.62-18.92C15.27,3.96,21.76,1.57,29.81,1.57c15.95,0,25.55,9.74,26.12,26.26l-17.36,3.81c0-8.61-3.39-14.12-8.61-14.12-4.66,0-7.76,3.25-7.76,8.33,0,2.12.85,4.23,2.4,6.35,1.55,1.98,5.08,4.8,10.59,8.61,8.61,5.93,14.26,11.15,17.08,15.67,2.82,4.52,4.24,9.6,4.24,15.25,0,7.76-2.68,14.12-7.91,19.06Z"/>
          <path class="cls-2" d="m117.9,97h-19.62l-3.67-21.18h-18.07l-3.67,21.18h-19.06L73.15,2.69h25.41l19.34,94.3ZM85.71,25.14h-.42l-6.07,35.43h12.71l-6.21-35.43Z"/>
          <path class="cls-2" d="m147.83,19.49v77.5h-20.33V19.49h-17.79V2.69h55.9v16.8h-17.79Z"/>
          <path class="cls-2" d="m203.87,67.63V2.69h20.33v63.81c0,20.33-10.16,31.62-28.8,31.62s-28.8-11.29-28.8-31.62V2.69h20.33v64.94c0,9.6,2.68,13.69,8.47,13.69s8.47-4.24,8.47-13.69Z"/>
          <path class="cls-2" d="m327.12,46.18h-.28l-13.98,29.79h-15.95l-13.98-29.79h-.28l.14,20.89v29.93h-27.67V2.69h30.49l19.2,39.67h.28l19.2-39.67h30.35v94.3h-27.67v-29.93l.14-20.89Z"/>
          <path class="cls-2" d="m364.25,97V2.69h28.94v94.3h-28.94Z"/>
          <path class="cls-2" d="m462.22,53.38h.28V2.69h27.53v94.3h-25.55l-33.74-50.68h-.28v50.68h-27.67V2.69h27.11l32.33,50.68Z"/>
          <path class="cls-2" d="m543.69,62.83v-17.93h42.21v52.09h-19.06l-3.25-10.31c-3.81,7.34-13.83,12-26.12,12s-22.59-4.38-30.49-12.99c-7.91-8.75-11.86-20.33-11.86-34.59,0-15.11,4.38-27.11,13.27-36.28,8.89-9.18,20.47-13.84,34.87-13.84,10.31,0,19.2,2.4,26.68,7.2,7.48,4.8,12.28,11.29,14.68,19.34l-27.53,10.59c-1.55-8.33-6.35-12.85-14.12-12.85-11.29,0-17.93,9.32-17.93,25.69s6.35,24.71,18.07,24.71c8.47,0,13.69-4.38,13.69-11.15v-1.69h-13.13Z"/>
          <path class="cls-2" d="m638.42,62.83v-17.93h42.21v52.09h-19.06l-3.25-10.31c-3.81,7.34-13.83,12-26.12,12s-22.59-4.38-30.49-12.99c-7.91-8.75-11.86-20.33-11.86-34.59,0-15.11,4.38-27.11,13.27-36.28,8.89-9.18,20.47-13.84,34.87-13.84,10.31,0,19.2,2.4,26.68,7.2,7.48,4.8,12.28,11.29,14.68,19.34l-27.53,10.59c-1.55-8.33-6.35-12.85-14.12-12.85-11.29,0-17.93,9.32-17.93,25.69s6.35,24.71,18.07,24.71c8.47,0,13.69-4.38,13.69-11.15v-1.69h-13.13Z"/>
          <path class="cls-2" d="m742.32,57.47V2.69h29.08v56.75c0,25.41-15.11,39.25-41.79,39.25s-41.79-13.83-41.79-39.25V2.69h29.08v54.78c0,11.43,4.24,17.22,12.71,17.22s12.71-5.79,12.71-17.22Z"/>
        </g>
      </g>
      <g>
        <polygon class="cls-1" points="800.46 43.63 800.46 44.63 800.46 45.63 800.46 46.63 800.46 47.63 800.46 48.63 800.46 49.63 800.46 50.63 800.46 51.63 800.46 52.63 800.46 59.87 800.46 60.87 800.46 61.87 800.46 62.87 800.46 63.87 800.46 64.87 800.46 65.87 800.46 66.87 800.46 67.87 800.46 68.87 870.2 68.87 870.2 67.87 870.2 66.87 870.2 65.87 870.2 64.87 870.2 63.87 870.2 62.87 870.2 61.87 870.2 60.87 870.2 59.87 870.2 52.63 870.2 51.63 870.2 50.63 870.2 49.63 870.2 48.63 870.2 47.63 870.2 46.63 870.2 45.63 870.2 44.63 870.2 43.63 800.46 43.63"/>
        <path class="cls-2" d="m870.2,59.87h-69.74v-16.23h69.74v16.23Z"/>
      </g>
      <g>
        <g>
          <path class="cls-1" d="m1076.63,67.45V2.69h-29.08v54.78c0,11.43-4.24,17.22-12.71,17.22s-12.71-5.79-12.71-17.22V2.69h-29.08v65.75c0,25.41,15.11,39.25,41.79,39.25s41.79-13.83,41.79-39.25v-1Z"/>
          <path class="cls-1" d="m940.82,2.69h-38.96v103.3h38.96c30.63,0,48.42-17.08,48.42-47.15,0-.17,0-.33,0-.5,0-.17,0-.33,0-.5s0-.33,0-.5c0-.17,0-.33,0-.5s0-.33,0-.5c0-.17,0-.33,0-.5s0-.33,0-.5c0-.17,0-.33,0-.5s0-.33,0-.5c0-.17,0-.33,0-.5s0-.33,0-.5c0-.17,0-.33,0-.5s0-.33,0-.5c0-.17,0-.33,0-.5s0-.33,0-.5c0-.17,0-.33,0-.5s0-.33,0-.5c0-.17,0-.33,0-.5,0-30.35-17.79-47.15-48.42-47.15Zm-1.83,33c11.76,0,18.74,6.36,20.08,18.63-1.33,12.2-8.32,18.67-20.08,18.67h-8.19v-37.3h8.19Z"/>
          <path class="cls-1" d="m1140.72,2.69h-33.04l-34.02,94.3h.36l-.36,1h.36l-.36,1h.36l-.36,1h.36l-.36,1h.36l-.36,1h.36l-.36,1h.36l-.36,1h.36l-.36,1h.36l-.36,1h28.38l5.51-16.66h32.33l5.51,16.66h29.51l-.36-1h.36l-.36-1h.36l-.36-1h.36l-.36-1h.36l-.36-1h.36l-.36-1h.36l-.36-1h.36l-.36-1h.36l-.36-1h.36l-34.16-94.3Zm-17.22,38.65h.28l6.04,18.11h-12.35l6.04-18.11Z"/>
          <path class="cls-1" d="m1246.9,52.88c3.51-3.79,5.35-9.4,5.35-16.48,0-.14-.01-.27-.02-.42,0-.2.02-.39.02-.58,0-.14-.01-.27-.02-.42,0-.2.02-.39.02-.58,0-.14-.01-.27-.02-.42,0-.2.02-.39.02-.58,0-.14-.01-.27-.02-.42,0-.2.02-.39.02-.58,0-.14-.01-.27-.02-.42,0-.2.02-.39.02-.58,0-.14-.01-.27-.02-.42,0-.2.02-.39.02-.58,0-.14-.01-.27-.02-.42,0-.2.02-.39.02-.58,0-.14-.01-.27-.02-.42,0-.2.02-.39.02-.58,0-.14-.01-.27-.02-.42,0-.2.02-.39.02-.58,0-15.95-9.32-24.71-26.68-24.71h-26.12v103.3h26.4c18.63,0,28.66-9.18,28.66-25.69,0-.13-.01-.25-.01-.39,0-.21.01-.41.01-.61,0-.13-.01-.25-.01-.39,0-.21.01-.41.01-.61,0-.13-.01-.25-.01-.39,0-.21.01-.41.01-.61,0-.13-.01-.25-.01-.39,0-.21.01-.41.01-.61,0-.13-.01-.25-.01-.39,0-.21.01-.41.01-.61,0-.13-.01-.25-.01-.39,0-.21.01-.41.01-.61,0-.13-.01-.25-.01-.39,0-.21.01-.41.01-.61,0-.13-.01-.25-.01-.39,0-.21.01-.41.01-.61,0-.13-.01-.25-.01-.39,0-.21.01-.41.01-.61,0-8.17-2.69-14.5-7.61-18.43Zm-23.45-25.23c5.42,0,8.31,2.09,9.25,7.26-.94,5.28-3.82,7.46-9.25,7.46h-4.8v-14.72h4.8Zm1.13,38.12c5.55,0,8.64,2.37,9.65,7.67-1.01,5.34-4.1,7.61-9.65,7.61h-5.93v-15.28h5.93Z"/>
          <path class="cls-1" d="m1293.19,3.69v63.94c0,9.46-2.82,13.69-8.47,13.69s-8.47-4.09-8.47-13.69V2.69h-20.33v72.81c0,20.33,10.31,31.62,28.8,31.62s28.8-11.29,28.8-31.62V2.69h-20.33v1Z"/>
          <path class="cls-1" d="m1405,2.69h-25.41l-17.08,83.29v-5.78h-24.42V2.69h-20.19v103.3h61.41l3.67-21.18h18.07l3.67,21.18h19.62l-.21-1h.21l-.21-1h.21l-.21-1h.21l-.21-1h.21l-.21-1h.21l-.21-1h.21l-.21-1h.21l-.21-1h.21l-.21-1h.21l-19.34-94.3Zm-13.27,31.45h.42l4.63,26.43h-9.59l4.53-26.43Z"/>
          <polygon class="cls-1" points="1464.3 2.69 1464.3 3.69 1464.3 4.69 1464.3 5.69 1464.3 6.69 1464.3 7.69 1464.3 8.69 1464.3 9.69 1464.3 10.69 1464.3 11.69 1464.3 53.94 1463.73 53.94 1444.11 2.69 1425.05 2.69 1425.05 3.69 1425.05 4.69 1425.05 5.69 1425.05 6.69 1425.05 7.69 1425.05 8.69 1425.05 9.69 1425.05 10.69 1425.05 11.69 1425.05 97 1425.05 98 1425.05 99 1425.05 100 1425.05 101 1425.05 102 1425.05 103 1425.05 104 1425.05 105 1425.05 106 1443.54 106 1443.54 105 1443.54 104 1443.54 103 1443.54 102 1443.54 101 1443.54 100 1443.54 99 1443.54 98 1443.54 97 1443.54 52.63 1443.97 52.63 1465.14 106 1482.79 106 1482.79 105 1482.79 104 1482.79 103 1482.79 102 1482.79 101 1482.79 100 1482.79 99 1482.79 98 1482.79 97 1482.79 11.69 1482.79 10.69 1482.79 9.69 1482.79 8.69 1482.79 7.69 1482.79 6.69 1482.79 5.69 1482.79 4.69 1482.79 3.69 1482.79 2.69 1464.3 2.69"/>
        </g>
        <g>
          <path class="cls-2" d="m901.85,97V2.69h38.96c30.63,0,48.42,16.8,48.42,47.15s-17.79,47.15-48.42,47.15h-38.96Zm28.94-70.3v46.3h8.19c13.13,0,20.33-8.05,20.33-23.15s-7.2-23.15-20.33-23.15h-8.19Z"/>
          <path class="cls-2" d="m1047.55,57.47V2.69h29.08v56.75c0,25.41-15.11,39.25-41.79,39.25s-41.79-13.83-41.79-39.25V2.69h29.08v54.78c0,11.43,4.23,17.22,12.71,17.22s12.71-5.79,12.71-17.22Z"/>
          <path class="cls-2" d="m1174.89,97h-29.51l-5.51-16.66h-32.33l-5.51,16.66h-28.38l34.02-94.3h33.04l34.16,94.3Zm-51.11-64.66h-.28l-9.04,27.11h18.35l-9.04-27.11Z"/>
          <path class="cls-2" d="m1238.56,48.72v.28c10.16,2.26,15.95,10.31,15.95,22.31,0,16.52-10.02,25.69-28.66,25.69h-26.4V2.69h26.12c17.37,0,26.68,8.75,26.68,24.71,0,11.43-4.8,19.06-13.69,21.32Zm-19.91-30.07v23.72h4.8c6.78,0,9.6-3.39,9.6-12s-2.82-11.72-9.6-11.72h-4.8Zm0,38.12v24.28h5.93c6.92,0,10.02-3.53,10.02-12.14s-3.11-12.14-10.02-12.14h-5.93Z"/>
          <path class="cls-2" d="m1293.19,67.63V2.69h20.33v63.81c0,20.33-10.16,31.62-28.8,31.62s-28.8-11.29-28.8-31.62V2.69h20.33v64.94c0,9.6,2.68,13.69,8.47,13.69s8.47-4.24,8.47-13.69Z"/>
          <path class="cls-2" d="m1317.9,97V2.69h20.19v77.5h24.42v16.8h-44.61Z"/>
          <path class="cls-2" d="m1424.35,97h-19.62l-3.67-21.18h-18.07l-3.67,21.18h-19.06l19.34-94.3h25.41l19.34,94.3Zm-32.19-71.86h-.42l-6.07,35.43h12.71l-6.21-35.43Z"/>
          <path class="cls-2" d="m1463.73,53.94h.57V2.69h18.49v94.3h-17.65l-21.18-53.36h-.42v53.36h-18.49V2.69h19.06l19.62,51.25Z"/>
        </g>
      </g>
    </g>
  </g>
</svg>