<?xml version="1.0" encoding="UTF-8"?>
<svg id="Layer_2" data-name="Layer 2" xmlns="http://www.w3.org/2000/svg" viewBox="0 0 861.1 96.35">
  <defs>
    <style>
      .cls-1 {
        fill: #f4f3d3;
      }

      .cls-1, .cls-2 {
        stroke: #000;
        stroke-miterlimit: 10;
        stroke-width: 2px;
      }
    </style>
  </defs>
  <g id="TFX_Expand" data-name="TFX Expand">
    <g>
      <g>
        <polygon class="cls-2" points="565.03 14.43 565.2 13.43 564.53 13.43 564.7 12.43 564.03 12.43 564.2 11.43 563.53 11.43 563.7 10.43 563.03 10.43 563.2 9.43 562.53 9.43 562.7 8.43 562.03 8.43 562.2 7.43 561.53 7.43 561.7 6.43 561.03 6.43 561.2 5.43 560.53 5.43 560.7 4.43 560.03 4.43 560.2 3.43 559.53 3.43 559.7 2.43 543.51 2.43 539.46 35.67 536.66 14.43 536.29 14.43 536.16 13.43 535.79 13.43 535.66 12.43 535.29 12.43 535.16 11.43 534.79 11.43 534.66 10.43 534.29 10.43 534.16 9.43 533.79 9.43 533.66 8.43 533.29 8.43 533.16 7.43 532.79 7.43 532.66 6.43 532.29 6.43 532.16 5.43 531.79 5.43 531.66 4.43 531.29 4.43 531.16 3.43 530.79 3.43 530.66 2.43 517.45 2.43 513.23 35.06 510.72 14.43 510.34 14.43 510.22 13.43 509.84 13.43 509.72 12.43 509.34 12.43 509.22 11.43 508.84 11.43 508.72 10.43 508.34 10.43 508.22 9.43 507.84 9.43 507.72 8.43 507.34 8.43 507.22 7.43 506.84 7.43 506.72 6.43 506.34 6.43 506.22 5.43 505.84 5.43 505.72 4.43 505.34 4.43 505.22 3.43 504.84 3.43 504.72 2.43 487.94 2.43 500.79 81.92 501.13 81.92 501.29 82.92 501.63 82.92 501.79 83.92 502.13 83.92 502.29 84.92 502.63 84.92 502.79 85.92 503.13 85.92 503.29 86.92 503.63 86.92 503.79 87.92 504.13 87.92 504.29 88.92 504.63 88.92 504.79 89.92 505.13 89.92 505.29 90.92 505.63 90.92 505.79 91.92 506.13 91.92 506.29 92.92 506.63 92.92 506.79 93.92 522.97 93.92 527.72 60.26 530.78 81.92 531.14 81.92 531.28 82.92 531.64 82.92 531.78 83.92 532.14 83.92 532.28 84.92 532.64 84.92 532.78 85.92 533.14 85.92 533.28 86.92 533.64 86.92 533.78 87.92 534.14 87.92 534.28 88.92 534.64 88.92 534.78 89.92 535.14 89.92 535.28 90.92 535.64 90.92 535.78 91.92 536.14 91.92 536.28 92.92 536.64 92.92 536.78 93.92 552.84 93.92 565.7 14.43 565.03 14.43"/>
        <path class="cls-2" d="m602.41,14.43l-.21-1h-.29l-.21-1h-.29l-.21-1h-.29l-.21-1h-.29l-.21-1h-.29l-.21-1h-.29l-.21-1h-.29l-.21-1h-.29l-.21-1h-.29l-.21-1h-.29l-.21-1h-.29l-.21-1h-21.42l-16.3,79.49h.71l-.21,1h.71l-.21,1h.71l-.21,1h.71l-.21,1h.71l-.21,1h.71l-.21,1h.71l-.21,1h.71l-.21,1h.71l-.21,1h.71l-.21,1h.71l-.21,1h.71l-.21,1h16.07l3.09-17.85h11.31l1.01,5.85h.33l.17,1h.33l.17,1h.33l.17,1h.33l.17,1h.33l.17,1h.33l.17,1h.33l.17,1h.33l.17,1h.33l.17,1h.33l.17,1h.33l.17,1h.33l.17,1h16.54l-16.3-79.49h-.29Zm-13.95,36.79l1.31-7.66,1.34,7.66h-2.65Z"/>
        <path class="cls-2" d="m789.47,14.43l-.21-1h-.29l-.21-1h-.29l-.21-1h-.29l-.21-1h-.29l-.21-1h-.29l-.21-1h-.29l-.21-1h-.29l-.21-1h-.29l-.21-1h-.29l-.21-1h-.29l-.21-1h-.29l-.21-1h-21.42l-13.32,64.96c-.46-2.23-1.23-4.34-2.31-6.33-.16-.34-.32-.67-.5-1-.16-.34-.32-.67-.5-1-.16-.34-.32-.67-.5-1-.16-.34-.32-.67-.5-1-.16-.34-.32-.67-.5-1-.16-.34-.32-.67-.5-1-.16-.34-.32-.67-.5-1-.16-.34-.32-.67-.5-1-.16-.34-.32-.67-.5-1-.16-.34-.32-.67-.5-1-.16-.34-.32-.67-.5-1-.37-.78-.78-1.55-1.24-2.29-2.38-3.81-7.14-8.21-14.4-13.21-1.75-1.21-3.27-2.31-4.55-3.29.87-2.71,3.11-4.34,6.14-4.34.61,0,1.19.1,1.74.27,0,.21.02.41.02.63l.47-.1c.02.36.03.73.03,1.1l.47-.1c.02.36.03.73.03,1.1l.47-.1c.02.36.03.73.03,1.1l.47-.1c.02.36.03.73.03,1.1l.47-.1c.02.36.03.73.03,1.1l.47-.1c.02.36.03.73.03,1.1l.47-.1c.02.36.03.73.03,1.1l.47-.1c.02.36.03.73.03,1.1l.47-.1c.02.36.03.73.03,1.1l.47-.1c.02.36.03.73.03,1.1l.47-.1c.02.36.03.73.03,1.1l14.64-3.21c-.16-4.6-1.16-8.55-2.9-11.82-.16-.34-.33-.67-.5-1-.16-.34-.33-.67-.5-1-.16-.34-.33-.67-.5-1-.16-.34-.33-.67-.5-1-.16-.34-.33-.67-.5-1-.16-.34-.33-.67-.5-1-.16-.34-.33-.67-.5-1-.16-.34-.33-.67-.5-1-.16-.34-.33-.67-.5-1-.16-.34-.33-.67-.5-1-.16-.34-.33-.67-.5-1-3.38-7.25-10.17-11.32-19.62-11.32-6.78,0-12.26,2.02-16.54,6.19-4.28,4.17-6.43,9.4-6.43,15.95,0,4.07.87,7.75,2.69,11.13.16.34.32.67.5,1,.16.34.32.67.5,1,.16.34.32.67.5,1,.16.34.32.67.5,1,.16.34.32.67.5,1,.16.34.32.67.5,1,.16.34.32.67.5,1,.16.34.32.67.5,1,.16.34.32.67.5,1,.16.34.32.67.5,1,.16.34.32.67.5,1,.34.72.71,1.43,1.14,2.13,2.26,3.57,6.9,7.74,13.92,12.5,2.05,1.43,3.77,2.73,5.2,3.9-.7,3.25-3.01,5.05-6.56,5.05-.91,0-1.76-.17-2.55-.48-.02-.47-.02-.95-.02-1.45l-.49.13c0-.37-.02-.75-.01-1.13l-.49.13c0-.37-.02-.75-.01-1.13l-.49.13c0-.37-.02-.75-.01-1.13l-.49.13c0-.37-.02-.75-.01-1.13l-.49.13c0-.37-.02-.75-.01-1.13l-.49.13c0-.37-.02-.75-.01-1.13l-.49.13c0-.37-.02-.75-.01-1.13l-.49.13c0-.37-.02-.75-.01-1.13l-.49.13c0-.37-.02-.75-.01-1.13l-.49.13c0-.37-.02-.75-.01-1.13l-.49.13c0-.37-.02-.75-.01-1.13l-.49.13c0-.37-.02-.75-.01-1.13l-13.99,3.87V14.43h-.5v-1h-.5v-1h-.5v-1h-.5v-1h-.5v-1h-.5v-1h-.5v-1h-.5v-1h-.5v-1h-.5v-1h-.5v-1h-.5v-1h-17.02v79.49h.5v1h.5v1h.5v1h.5v1h.5v1h.5v1h.5v1h.5v1h.5v1h.5v1h.5v1h.5v1h17.02v-28.59c.49,2.29,1.25,4.41,2.26,6.3.16.34.33.67.5,1,.16.34.33.67.5,1,.16.34.33.67.5,1,.16.34.33.67.5,1,.16.34.33.67.5,1,.16.34.33.67.5,1,.16.34.33.67.5,1,.16.34.33.67.5,1,.16.34.33.67.5,1,.16.34.33.67.5,1,.16.34.33.67.5,1,3.62,7.68,11.11,12.24,20.92,12.24,6.78,0,12.38-2.02,16.78-6.19,1.81-1.72,3.24-3.64,4.32-5.76h.04l-.21,1h.71l-.21,1h.71l-.21,1h.71l-.21,1h.71l-.21,1h.71l-.21,1h.71l-.21,1h.71l-.21,1h.71l-.21,1h.71l-.21,1h.71l-.21,1h16.07l3.09-17.85h11.31l1.01,5.85h.33l.17,1h.33l.17,1h.33l.17,1h.33l.17,1h.33l.17,1h.33l.17,1h.33l.17,1h.33l.17,1h.33l.17,1h.33l.17,1h.33l.17,1h.33l.17,1h16.54l-16.3-79.49h-.29Zm-13.95,36.79l1.31-7.66,1.34,7.66h-2.65Z"/>
        <polygon class="cls-2" points="859.6 14.43 859.6 13.43 859.1 13.43 859.1 12.43 858.6 12.43 858.6 11.43 858.1 11.43 858.1 10.43 857.6 10.43 857.6 9.43 857.1 9.43 857.1 8.43 856.6 8.43 856.6 7.43 856.1 7.43 856.1 6.43 855.6 6.43 855.6 5.43 855.1 5.43 855.1 4.43 854.6 4.43 854.6 3.43 854.1 3.43 854.1 2.43 838.51 2.43 838.51 43.2 827.49 14.43 827.37 14.43 826.99 13.43 826.87 13.43 826.49 12.43 826.37 12.43 825.99 11.43 825.87 11.43 825.49 10.43 825.37 10.43 824.99 9.43 824.87 9.43 824.49 8.43 824.37 8.43 823.99 7.43 823.87 7.43 823.49 6.43 823.37 6.43 822.99 5.43 822.87 5.43 822.49 4.43 822.37 4.43 821.99 3.43 821.87 3.43 821.49 2.43 805.42 2.43 805.42 81.92 805.92 81.92 805.92 82.92 806.42 82.92 806.42 83.92 806.92 83.92 806.92 84.92 807.42 84.92 807.42 85.92 807.92 85.92 807.92 86.92 808.42 86.92 808.42 87.92 808.92 87.92 808.92 88.92 809.42 88.92 809.42 89.92 809.92 89.92 809.92 90.92 810.42 90.92 810.42 91.92 810.92 91.92 810.92 92.92 811.42 92.92 811.42 93.92 827.01 93.92 827.01 51.16 839.22 81.92 839.32 81.92 839.72 82.92 839.82 82.92 840.22 83.92 840.32 83.92 840.72 84.92 840.82 84.92 841.22 85.92 841.32 85.92 841.72 86.92 841.82 86.92 842.22 87.92 842.32 87.92 842.72 88.92 842.82 88.92 843.22 89.92 843.32 89.92 843.72 90.92 843.82 90.92 844.22 91.92 844.32 91.92 844.72 92.92 844.82 92.92 845.22 93.92 860.1 93.92 860.1 14.43 859.6 14.43"/>
        <polygon class="cls-2" points="76.71 13.43 76.21 13.43 76.21 12.43 75.71 12.43 75.71 11.43 75.21 11.43 75.21 10.43 74.71 10.43 74.71 9.43 74.21 9.43 74.21 8.43 73.71 8.43 73.71 7.43 73.21 7.43 73.21 6.43 72.71 6.43 72.71 5.43 72.21 5.43 72.21 4.43 71.71 4.43 71.71 3.43 71.21 3.43 71.21 2.43 1 2.43 1 19.09 1.5 19.09 1.5 20.09 2 20.09 2 21.09 2.5 21.09 2.5 22.09 3 22.09 3 23.09 3.5 23.09 3.5 24.09 4 24.09 4 25.09 4.5 25.09 4.5 26.09 5 26.09 5 27.09 5.5 27.09 5.5 28.09 6 28.09 6 29.09 6.5 29.09 6.5 30.09 7 30.09 7 31.09 25.99 31.09 25.99 81.92 26.49 81.92 26.49 82.92 26.99 82.92 26.99 83.92 27.49 83.92 27.49 84.92 27.99 84.92 27.99 85.92 28.49 85.92 28.49 86.92 28.99 86.92 28.99 87.92 29.49 87.92 29.49 88.92 29.99 88.92 29.99 89.92 30.49 89.92 30.49 90.92 30.99 90.92 30.99 91.92 31.49 91.92 31.49 92.92 31.99 92.92 31.99 93.92 52.1 93.92 52.1 31.09 77.21 31.09 77.21 14.43 76.71 14.43 76.71 13.43"/>
        <polygon class="cls-2" points="139.19 76.26 138.69 76.26 138.69 75.26 138.19 75.26 138.19 74.26 137.69 74.26 137.69 73.26 137.19 73.26 137.19 72.26 136.69 72.26 136.69 71.26 136.19 71.26 136.19 70.26 135.69 70.26 135.69 69.26 135.19 69.26 135.19 68.26 134.69 68.26 134.69 67.26 134.19 67.26 134.19 66.26 133.69 66.26 133.69 65.26 102.56 65.26 102.56 61.32 135.28 61.32 135.28 46.32 134.78 46.32 134.78 45.32 134.28 45.32 134.28 44.32 133.78 44.32 133.78 43.32 133.28 43.32 133.28 42.32 132.78 42.32 132.78 41.32 132.28 41.32 132.28 40.32 131.78 40.32 131.78 39.32 131.28 39.32 131.28 38.32 130.78 38.32 130.78 37.32 130.28 37.32 130.28 36.32 129.78 36.32 129.78 35.32 129.28 35.32 129.28 34.32 102.56 34.32 102.56 31.09 139.45 31.09 139.45 14.43 138.95 14.43 138.95 13.43 138.45 13.43 138.45 12.43 137.95 12.43 137.95 11.43 137.45 11.43 137.45 10.43 136.95 10.43 136.95 9.43 136.45 9.43 136.45 8.43 135.95 8.43 135.95 7.43 135.45 7.43 135.45 6.43 134.95 6.43 134.95 5.43 134.45 5.43 134.45 4.43 133.95 4.43 133.95 3.43 133.45 3.43 133.45 2.43 77.28 2.43 77.28 81.92 77.78 81.92 77.78 82.92 78.28 82.92 78.28 83.92 78.78 83.92 78.78 84.92 79.28 84.92 79.28 85.92 79.78 85.92 79.78 86.92 80.28 86.92 80.28 87.92 80.78 87.92 80.78 88.92 81.28 88.92 81.28 89.92 81.78 89.92 81.78 90.92 82.28 90.92 82.28 91.92 82.78 91.92 82.78 92.92 83.28 92.92 83.28 93.92 139.69 93.92 139.69 77.26 139.19 77.26 139.19 76.26"/>
        <polygon class="cls-2" points="203.21 76.26 202.71 76.26 202.71 75.26 202.21 75.26 202.21 74.26 201.71 74.26 201.71 73.26 201.21 73.26 201.21 72.26 200.71 72.26 200.71 71.26 200.21 71.26 200.21 70.26 199.71 70.26 199.71 69.26 199.21 69.26 199.21 68.26 198.71 68.26 198.71 67.26 198.21 67.26 198.21 66.26 197.71 66.26 197.71 65.26 168.48 65.26 168.48 14.43 167.98 14.43 167.98 13.43 167.48 13.43 167.48 12.43 166.98 12.43 166.98 11.43 166.48 11.43 166.48 10.43 165.98 10.43 165.98 9.43 165.48 9.43 165.48 8.43 164.98 8.43 164.98 7.43 164.48 7.43 164.48 6.43 163.98 6.43 163.98 5.43 163.48 5.43 163.48 4.43 162.98 4.43 162.98 3.43 162.48 3.43 162.48 2.43 142.49 2.43 142.49 81.92 142.99 81.92 142.99 82.92 143.49 82.92 143.49 83.92 143.99 83.92 143.99 84.92 144.49 84.92 144.49 85.92 144.99 85.92 144.99 86.92 145.49 86.92 145.49 87.92 145.99 87.92 145.99 88.92 146.49 88.92 146.49 89.92 146.99 89.92 146.99 90.92 147.49 90.92 147.49 91.92 147.99 91.92 147.99 92.92 148.49 92.92 148.49 93.92 203.71 93.92 203.71 77.26 203.21 77.26 203.21 76.26"/>
        <path class="cls-2" d="m296.86,58.1c-.16-.34-.32-.67-.5-1-.16-.34-.32-.67-.5-1-.16-.34-.32-.67-.5-1-.16-.34-.32-.67-.5-1-.16-.34-.32-.67-.5-1-.16-.34-.32-.67-.5-1-.16-.34-.32-.67-.5-1-.16-.34-.32-.67-.5-1-.16-.34-.32-.67-.5-1-.16-.34-.32-.67-.5-1-1.37-2.97-3.46-5.49-6.33-7.59-3.69-2.74-7.85-4.4-18.68-6.9-2.86-.7-5.26-1.35-7.22-1.98,1.84-2.12,5.02-3.39,9.06-3.39s7.51,1.33,9.84,3.69c0,.02.01.05.01.07h.05c.11.1.21.2.31.31.05.23.1.45.14.69l.28-.08c.09.35.16.71.22,1.08l.28-.08c.09.35.16.71.22,1.08l.28-.08c.09.35.16.71.22,1.08l.28-.08c.09.35.16.71.22,1.08l.28-.08c.09.35.16.71.22,1.08l17.73-4.88c-.57-2.55-1.45-4.86-2.59-6.94-.16-.34-.32-.68-.5-1-.16-.34-.32-.68-.5-1-.16-.34-.32-.68-.5-1-.16-.34-.32-.68-.5-1-.16-.34-.32-.68-.5-1-.16-.34-.32-.68-.5-1-.16-.34-.32-.68-.5-1-.16-.34-.32-.68-.5-1-.16-.34-.32-.68-.5-1-.16-.34-.32-.68-.5-1-.16-.34-.32-.68-.5-1-4.57-9.32-14.37-14.17-28.61-14.17-8.93,0-16.3,2.38-22.13,7.02s-8.69,10.83-8.69,18.33c0,4.14.82,7.75,2.46,10.8.16.34.32.67.5,1,.16.34.32.67.5,1,.16.34.32.67.5,1,.16.34.32.67.5,1,.16.34.32.67.5,1,.16.34.32.67.5,1,.16.34.32.67.5,1,.16.34.32.67.5,1,.16.34.32.67.5,1,.16.34.32.67.5,1,.16.34.32.67.5,1,1.38,3,3.5,5.5,6.37,7.45,1.79,1.31,4.05,2.5,6.54,3.57,2.62.95,6.66,2.02,12.02,3.33,2.93.65,5.37,1.3,7.35,1.94-1.97,2.25-5.49,3.55-10.02,3.55-5.38,0-10.02-2-12.97-5.37-.03-.14-.07-.27-.1-.41l-.19.08s-.05-.06-.08-.09c-.08-.33-.17-.65-.23-.99l-.24.1c-.1-.36-.19-.73-.26-1.1l-.24.1c-.1-.36-.19-.73-.26-1.1l-.24.1c-.1-.36-.19-.73-.26-1.1l-.24.1c-.1-.36-.19-.73-.26-1.1l-.24.1c-.1-.36-.19-.73-.26-1.1l-15.3,6.37V14.43h-.5v-1h-.5v-1h-.5v-1h-.5v-1h-.5v-1h-.5v-1h-.5v-1h-.5v-1h-.5v-1h-.5v-1h-.5v-1h-.5v-1h-19.99v79.49h.5v1h.5v1h.5v1h.5v1h.5v1h.5v1h.5v1h.5v1h.5v1h.5v1h.5v1h.5v1h19.99v-26.01c.05.09.1.17.15.26.16.34.32.67.5,1,.16.34.32.67.5,1,.16.34.32.67.5,1,.16.34.32.67.5,1,.16.34.32.67.5,1,.16.34.32.67.5,1,.16.34.32.67.5,1,.16.34.32.67.5,1,.16.34.32.67.5,1,.16.34.32.67.5,1,.16.34.32.67.5,1,4.89,10.19,16.29,16.18,31.6,16.18,9.4,0,17.14-2.26,23.09-6.78,5.95-4.64,8.93-10.71,8.93-18.33,0-4.29-.81-7.99-2.5-11.15-.16-.34-.32-.67-.5-1Z"/>
        <polygon class="cls-2" points="325.89 13.43 325.39 13.43 325.39 12.43 324.89 12.43 324.89 11.43 324.39 11.43 324.39 10.43 323.89 10.43 323.89 9.43 323.39 9.43 323.39 8.43 322.89 8.43 322.89 7.43 322.39 7.43 322.39 6.43 321.89 6.43 321.89 5.43 321.39 5.43 321.39 4.43 320.89 4.43 320.89 3.43 320.39 3.43 320.39 2.43 300.4 2.43 300.4 81.92 300.9 81.92 300.9 82.92 301.4 82.92 301.4 83.92 301.9 83.92 301.9 84.92 302.4 84.92 302.4 85.92 302.9 85.92 302.9 86.92 303.4 86.92 303.4 87.92 303.9 87.92 303.9 88.92 304.4 88.92 304.4 89.92 304.9 89.92 304.9 90.92 305.4 90.92 305.4 91.92 305.9 91.92 305.9 92.92 306.4 92.92 306.4 93.92 326.39 93.92 326.39 14.43 325.89 14.43 325.89 13.43"/>
        <polygon class="cls-2" points="408 92.92 407.32 91.92 407.5 91.92 406.82 90.92 407 90.92 406.32 89.92 406.5 89.92 405.82 88.92 406 88.92 405.32 87.92 405.5 87.92 404.82 86.92 405 86.92 404.32 85.92 404.5 85.92 403.82 84.92 404 84.92 403.32 83.92 403.5 83.92 402.82 82.92 403 82.92 402.32 81.92 402.5 81.92 381.64 51.47 406.48 14.43 405.31 14.43 405.98 13.43 404.81 13.43 405.48 12.43 404.31 12.43 404.98 11.43 403.81 11.43 404.48 10.43 403.31 10.43 403.98 9.43 402.81 9.43 403.48 8.43 402.31 8.43 402.98 7.43 401.81 7.43 402.48 6.43 401.31 6.43 401.98 5.43 400.81 5.43 401.48 4.43 400.31 4.43 400.98 3.43 399.81 3.43 400.48 2.43 378.23 2.43 357.52 33.37 357.33 33.37 357.33 14.43 356.83 14.43 356.83 13.43 356.33 13.43 356.33 12.43 355.83 12.43 355.83 11.43 355.33 11.43 355.33 10.43 354.83 10.43 354.83 9.43 354.33 9.43 354.33 8.43 353.83 8.43 353.83 7.43 353.33 7.43 353.33 6.43 352.83 6.43 352.83 5.43 352.33 5.43 352.33 4.43 351.83 4.43 351.83 3.43 351.33 3.43 351.33 2.43 331.34 2.43 331.34 81.92 331.84 81.92 331.84 82.92 332.34 82.92 332.34 83.92 332.84 83.92 332.84 84.92 333.34 84.92 333.34 85.92 333.84 85.92 333.84 86.92 334.34 86.92 334.34 87.92 334.84 87.92 334.84 88.92 335.34 88.92 335.34 89.92 335.84 89.92 335.84 90.92 336.34 90.92 336.34 91.92 336.84 91.92 336.84 92.92 337.34 92.92 337.34 93.92 357.33 93.92 357.33 62.15 363.28 62.15 384.94 93.92 408.5 93.92 407.82 92.92 408 92.92"/>
        <path class="cls-2" d="m466.92,50.82c-.16-.35-.33-.67-.5-1-.16-.35-.33-.67-.5-1-.16-.35-.33-.67-.5-1-.16-.35-.33-.67-.5-1-.16-.35-.33-.67-.5-1-.16-.35-.33-.67-.5-1-.16-.35-.33-.67-.5-1-.16-.35-.33-.67-.5-1-.16-.35-.33-.67-.5-1-.16-.35-.33-.67-.5-1-2.95-6.61-8.21-10.31-15.15-10.31-.82,0-1.63.09-2.4.24l.07-1.8h22.97v-14.52h-.5v-1h-.5v-1h-.5v-1h-.5v-1h-.5v-1h-.5v-1h-.5v-1h-.5v-1h-.5v-1h-.5v-1h-.5v-1h-.5v-1h-36.41l-1.67,44.86.54.02-.04.98.54.02-.04.98.54.02-.04.98.54.02-.04.98.54.02-.04.98.54.02-.04.98.54.02-.04.98.54.02-.04.98.54.02-.04.98.54.02-.04.98.54.02-.04.98.54.02v.33s-9.84,2.81-9.84,2.81c.11,4.14,1.1,7.82,2.8,10.93.16.34.32.68.5,1,.16.34.32.68.5,1,.16.34.32.68.5,1,.16.34.32.68.5,1,.16.34.32.68.5,1,.16.34.32.68.5,1,.16.34.32.68.5,1,.16.34.32.68.5,1,.16.34.32.68.5,1,.16.34.32.68.5,1,.16.34.32.68.5,1,3.43,7.14,10.44,11.5,19.59,11.5,6.9,0,12.5-2.5,16.78-7.5,4.28-5,6.43-11.66,6.43-19.87,0-6.32-1.13-11.61-3.2-15.68-.16-.35-.33-.67-.5-1Zm-19.27,4.54c.27,0,.53.02.78.05,0,.03,0,.06,0,.09,0,8.69-2.26,13.21-6.9,13.21-.53,0-1.03-.06-1.51-.18,0-.12-.01-.24-.01-.36l-.46.13c-.02-.37-.04-.74-.04-1.13l-.46.13c-.02-.37-.04-.74-.04-1.13l-.46.13c-.02-.37-.04-.74-.04-1.13l-.46.13c-.02-.37-.04-.74-.04-1.13l-.46.13c-.02-.37-.04-.74-.04-1.13l-.46.13c-.02-.37-.04-.74-.04-1.13l-.46.13c-.02-.37-.04-.74-.04-1.13l-.46.13c-.02-.37-.04-.74-.04-1.13l-.46.13c-.01-.26-.02-.52-.03-.78l6.77.25c.83-2.74,2.86-4.4,5.35-4.4Z"/>
        <path class="cls-2" d="m674.44,92.92c-.21-.32-.41-.66-.6-1h.1c-.17-.26-.33-.53-.48-.8-.03-.07-.06-.14-.09-.2h.07c-.07-.1-.13-.21-.19-.31-.65-1.66-1.13-3.53-1.4-5.73l-2.14-15.59c-.34-2.39-1-4.47-1.97-6.22-.16-.34-.32-.68-.5-1-.16-.34-.32-.68-.5-1-.16-.34-.32-.68-.5-1-.16-.34-.32-.68-.5-1-.16-.34-.32-.68-.5-1-.16-.34-.32-.68-.5-1-.16-.34-.32-.68-.5-1-.15-.33-.31-.65-.48-.96,5.58-3.07,9.04-9.46,9.04-17.59,0-5.07-.93-9.3-2.73-12.71-.16-.34-.33-.67-.5-1-.16-.34-.33-.67-.5-1-.16-.34-.33-.67-.5-1-.16-.34-.33-.67-.5-1-.16-.34-.33-.67-.5-1-.16-.34-.33-.67-.5-1-.16-.34-.33-.67-.5-1-.16-.34-.33-.67-.5-1-.16-.34-.33-.67-.5-1-.16-.34-.33-.67-.5-1-.16-.34-.33-.67-.5-1-3.43-7.52-10.81-11.38-22.05-11.38h-24.16v79.49h.5v1h.5v1h.5v1h.5v1h.5v1h.5v1h.5v1h.5v1h.5v1h.5v1h.5v1h.5v1h16.9v-30.35h4.4c.66,0,1.27.05,1.83.15l1.1,9.63c.57,3.96,1.35,6.51,2.34,8.29.16.36.33.69.5,1,.16.36.33.69.5,1,.16.36.33.69.5,1,.16.36.33.69.5,1,.16.36.33.69.5,1,.16.36.33.69.5,1,.16.36.33.69.5,1,.16.36.33.69.5,1,.16.36.33.69.5,1,.16.36.33.69.5,1,.16.36.33.69.5,1,.21.47.42.9.65,1.28h17.85c-.21-.32-.41-.66-.6-1h.1Zm-33.18-64.69h5.12c1.08,0,2.04.1,2.9.29-.23,6.94-2.66,9.82-8.02,10.06v-10.35Z"/>
      </g>
      <g>
        <path class="cls-1" d="m46.1,19.09v62.83h-20.11V19.09H1V2.43h70.21v16.66h-25.11Z"/>
        <path class="cls-1" d="m96.56,65.26h37.13v16.66h-56.41V2.43h56.17v16.66h-36.89v15.23h32.73v14.99h-32.73v15.95Z"/>
        <path class="cls-1" d="m142.49,81.92V2.43h19.99v62.83h35.23v16.66h-55.22Z"/>
        <path class="cls-1" d="m204.61,81.92V2.43h19.99v79.49h-19.99Z"/>
        <path class="cls-1" d="m284.93,76.57c-5.95,4.52-13.69,6.78-23.09,6.78-17.14,0-29.39-7.5-33.08-19.99l17.14-7.14c1.31,7.14,7.85,11.78,16.07,11.78,7.14,0,11.78-3.21,11.78-8.33,0-2.02-.95-3.69-2.74-5-1.79-1.31-5.95-2.74-12.38-4.17-5.35-1.31-9.4-2.38-12.02-3.33-2.5-1.07-4.76-2.26-6.54-3.57-5.59-3.81-8.33-9.64-8.33-17.26s2.86-13.69,8.69-18.33,13.21-7.02,22.13-7.02c17.02,0,27.73,6.9,30.7,20.11l-17.73,4.88c-.95-6.07-6.07-9.76-12.85-9.76s-10.83,3.33-10.83,8.21c0,2.02.95,3.69,2.74,5,1.79,1.31,5.95,2.62,12.26,4.17,10.83,2.5,14.99,4.17,18.68,6.9,5.71,4.17,8.33,10,8.33,17.73s-2.98,13.69-8.93,18.33Z"/>
        <path class="cls-1" d="m300.4,81.92V2.43h19.99v79.49h-19.99Z"/>
        <path class="cls-1" d="m374.54,41.1l27.97,40.82h-23.56l-21.66-31.77h-5.95v31.77h-19.99V2.43h19.99v30.94h6.19l20.71-30.94h22.25l-25.94,38.68Z"/>
        <path class="cls-1" d="m423.32,47.29l1.67-44.86h36.41v14.52h-22.97l-.71,17.61c2.02-2.5,5.36-4.05,9.04-4.05,11.07,0,17.85,9.4,17.85,24.99,0,8.21-2.14,14.88-6.43,19.87-4.28,5-9.88,7.5-16.78,7.5-12.85,0-21.54-8.57-21.9-21.42l14.99-4.28c.12,7.5,2.62,11.54,7.02,11.54,4.64,0,6.9-4.52,6.9-13.21,0-8.09-2.38-12.14-6.78-12.14-2.5,0-4.52,1.67-5.35,4.4l-12.97-.48Z"/>
        <path class="cls-1" d="m511.14,51.22l6.31-48.79h13.21l6.43,48.79h.48l5.95-48.79h16.18l-12.85,79.49h-16.07l-6.66-47.24h-.48l-6.66,47.24h-16.18l-12.85-79.49h16.78l5.95,48.79h.48Z"/>
        <path class="cls-1" d="m613.01,81.92h-16.54l-3.09-17.85h-15.23l-3.09,17.85h-16.07l16.3-79.49h21.42l16.3,79.49Zm-27.13-60.57h-.36l-5.12,29.87h10.71l-5.24-29.87Z"/>
        <path class="cls-1" d="m651.09,81.92c-1.07-1.79-1.9-4.4-2.5-8.57l-1.67-14.64c-.83-5.12-2.86-7.14-7.26-7.14h-4.4v30.35h-16.9V2.43h24.16c16.07,0,24.28,7.85,24.28,23.09,0,10-5.24,17.37-13.21,19.16v.24c5.59,1.31,9.16,5.59,10.12,12.38l2.14,15.59c.48,3.81,1.55,6.66,3.09,9.04h-17.85Zm-10.71-65.69h-5.12v22.37h5.24c6.19,0,8.81-3.09,8.81-11.19s-2.62-11.19-8.93-11.19Z"/>
        <path class="cls-1" d="m674.41,81.92V2.43h17.02v79.49h-17.02Z"/>
        <path class="cls-1" d="m736.88,76.69c-4.4,4.17-10,6.19-16.78,6.19-13.92,0-23.21-9.16-23.32-23.44l14.64-4.05c-.12,8.45,3.21,13.92,8.57,13.92,4.28,0,6.78-2.62,6.78-7.26,0-2.02-.71-4.05-2.14-5.83-1.43-1.9-4.52-4.52-9.28-7.85-7.02-4.76-11.66-8.93-13.92-12.5-2.26-3.69-3.33-7.74-3.33-12.26,0-6.55,2.14-11.78,6.43-15.95,4.28-4.17,9.76-6.19,16.54-6.19,13.45,0,21.54,8.21,22.02,22.13l-14.64,3.21c0-7.26-2.86-11.9-7.26-11.9-3.93,0-6.54,2.74-6.54,7.02,0,1.79.71,3.57,2.02,5.35,1.31,1.67,4.28,4.05,8.93,7.26,7.26,5,12.02,9.4,14.4,13.21s3.57,8.09,3.57,12.85c0,6.55-2.26,11.9-6.66,16.07Z"/>
        <path class="cls-1" d="m800.07,81.92h-16.54l-3.09-17.85h-15.23l-3.09,17.85h-16.07l16.3-79.49h21.42l16.3,79.49Zm-27.13-60.57h-.36l-5.12,29.87h10.71l-5.24-29.87Z"/>
        <path class="cls-1" d="m838.03,45.63h.48V2.43h15.59v79.49h-14.88l-17.85-44.98h-.36v44.98h-15.59V2.43h16.07l16.54,43.2Z"/>
      </g>
    </g>
  </g>
</svg>