<?xml version="1.0" encoding="UTF-8"?>
<svg id="Layer_2" data-name="Layer 2" xmlns="http://www.w3.org/2000/svg" viewBox="0 0 244.64 261.59">
  <defs>
    <style>
      .cls-1 {
        fill: #f4f3d3;
      }

      .cls-1, .cls-2 {
        stroke: #000;
        stroke-width: 1.5px;
      }
    </style>
  </defs>
  <g id="TFX_Expand" data-name="TFX Expand">
    <g>
      <g>
        <polygon class="cls-2" points="89.24 60.38 89.24 59.38 89.24 58.38 89.24 57.38 89.24 56.38 89.24 55.38 89.24 54.38 89.24 53.38 89.24 52.38 89.24 48.32 89.24 47.32 89.24 46.32 89.24 45.32 89.24 44.32 89.24 43.32 89.24 42.32 89.24 41.32 89.24 40.32 89.24 39.32 86.46 39.32 86.46 39.21 86.46 38.21 86.46 37.21 86.46 36.21 86.46 35.21 86.46 34.21 86.46 33.21 86.46 32.21 86.46 29.61 86.46 28.61 86.46 27.61 86.46 26.61 86.46 25.61 86.46 24.61 86.46 23.61 86.46 22.81 89.09 22.81 89.09 21.81 89.09 20.81 89.09 19.81 89.09 18.81 89.09 17.81 89.09 16.81 89.09 15.81 89.09 14.81 89.09 13.81 89.09 9.75 89.09 8.75 89.09 7.75 89.09 6.75 89.09 5.75 89.09 4.75 89.09 3.75 89.09 2.75 89.09 1.75 89.09 .75 50.83 .75 50.83 1.75 50.83 2.75 50.83 3.75 50.83 4.75 50.83 5.75 50.83 6.75 50.83 7.75 50.83 8.75 50.83 9.75 50.83 52.38 50.83 53.38 50.83 54.38 50.83 55.38 50.83 56.38 50.83 57.38 50.83 58.38 50.83 59.38 50.83 60.38 50.83 61.38 89.24 61.38 89.24 60.38"/>
        <polygon class="cls-2" points="108.64 60.38 108.64 59.38 108.64 58.38 108.64 57.38 108.64 56.38 108.64 55.38 108.64 54.38 108.64 53.38 108.64 52.38 108.64 33.63 108.79 33.63 127.26 61.38 141.25 61.38 141.25 60.38 141.25 59.38 141.25 58.38 141.25 57.38 141.25 56.38 141.25 55.38 141.25 54.38 141.25 53.38 141.25 52.38 141.25 9.75 141.25 8.75 141.25 7.75 141.25 6.75 141.25 5.75 141.25 4.75 141.25 3.75 141.25 2.75 141.25 1.75 141.25 .75 126.18 .75 126.18 1.75 126.18 2.75 126.18 3.75 126.18 4.75 126.18 5.75 126.18 6.75 126.18 7.75 126.18 8.75 126.18 9.75 126.18 28.5 126.03 28.5 108.33 .75 93.49 .75 93.49 1.75 93.49 2.75 93.49 3.75 93.49 4.75 93.49 5.75 93.49 6.75 93.49 7.75 93.49 8.75 93.49 9.75 93.49 52.38 93.49 53.38 93.49 54.38 93.49 55.38 93.49 56.38 93.49 57.38 93.49 58.38 93.49 59.38 93.49 60.38 93.49 61.38 108.64 61.38 108.64 60.38"/>
        <path class="cls-2" d="m168.69,62.3c14.61,0,22.88-7.57,22.88-21.49V.75h-15.92v29.99c0,6.26-2.32,9.43-6.96,9.43s-6.96-3.17-6.96-9.43V.75h-15.92v40.07c0,13.91,8.27,21.49,22.88,21.49Z"/>
        <polygon class="cls-2" points="59.18 126.66 59.18 125.66 59.18 124.66 59.18 123.66 59.18 122.66 59.18 121.66 59.18 120.66 59.18 119.66 59.18 118.66 59.18 76.03 59.18 75.03 59.18 74.03 59.18 73.03 59.18 72.03 59.18 71.03 59.18 70.03 59.18 69.03 59.18 68.03 59.18 67.03 43.33 67.03 43.33 68.03 43.33 69.03 43.33 70.03 43.33 71.03 43.33 72.03 43.33 73.03 43.33 74.03 43.33 75.03 43.33 76.03 43.33 118.66 43.33 119.66 43.33 120.66 43.33 121.66 43.33 122.66 43.33 123.66 43.33 124.66 43.33 125.66 43.33 126.66 43.33 127.66 59.18 127.66 59.18 126.66"/>
        <path class="cls-2" d="m80.28,126.66v-18.55h3.17l11.59,19.55h30.91l3.01-9.12h17.7l3.01,9.12h16.15l-.36-1h.36l-.36-1h.36l-.36-1h.36l-.36-1h.36l-.36-1h.36l-.36-1h.36l-.36-1h.36l-.36-1h.36l-.36-1h.36l-18.7-51.63h-18.09l-17.48,48.45-11.63-18.97,12.27-20.49h-.6l.6-1h-.6l.6-1h-.6l.6-1h-.6l.6-1h-.6l.6-1h-.6l.6-1h-.6l.6-1h-.6l.6-1h-.6l.6-1h-17.47l-11.13,18.94h-3.32v-18.94h-15.84v60.63h15.84v-1Zm57.42-34.4h.15l1.95,5.84h-4.05l1.95-5.84Z"/>
        <path class="cls-2" d="m108.72,193.94l-.21-1h.21l-.21-1h.21l-.21-1h.21l-.21-1h.21l-.21-1h.21l-.21-1h.21l-.21-1h.21l-.21-1h.21l-.21-1h.21l-10.59-51.63h-13.91l-10.59,51.63h.21l-.21,1h.21l-.21,1h.21l-.21,1h.21l-.21,1h.21l-.21,1h.21l-.21,1h.21l-.21,1h.21l-.21,1h.21l-.21,1h10.43l2.01-11.59h9.89l2.01,11.59h10.74Zm-17.85-39.34h.23l1.82,10.4h-3.84l1.78-10.4Z"/>
        <polygon class="cls-2" points="208.87 192.94 209.26 192.94 208.87 191.94 209.26 191.94 208.87 190.94 209.26 190.94 208.87 189.94 209.26 189.94 208.87 188.94 209.26 188.94 208.87 187.94 209.26 187.94 208.87 186.94 209.26 186.94 208.87 185.94 209.26 185.94 208.87 184.94 209.26 184.94 200.65 162.9 208.57 142.31 208.18 142.31 208.57 141.31 208.18 141.31 208.57 140.31 208.18 140.31 208.57 139.31 208.18 139.31 208.57 138.31 208.18 138.31 208.57 137.31 208.18 137.31 208.57 136.31 208.18 136.31 208.57 135.31 208.18 135.31 208.57 134.31 208.18 134.31 208.57 133.31 196.67 133.31 189.17 154.1 187.08 154.1 187.08 142.31 187.08 141.31 187.08 140.31 187.08 139.31 187.08 138.31 187.08 137.31 187.08 136.31 187.08 135.31 187.08 134.31 187.08 133.31 176.03 133.31 176.03 134.31 176.03 135.31 176.03 136.31 176.03 137.31 176.03 138.31 176.03 139.31 176.03 140.31 176.03 141.31 176.03 142.31 176.03 184.94 176.03 185.94 176.03 186.94 176.03 187.94 176.03 188.94 176.03 189.94 176.03 190.94 176.03 191.94 176.03 192.94 176.03 193.94 187.08 193.94 187.08 192.94 187.08 191.94 187.08 190.94 187.08 189.94 187.08 188.94 187.08 187.94 187.08 186.94 187.08 185.94 187.08 184.94 187.08 172.53 189.17 172.53 197.21 193.94 209.26 193.94 208.87 192.94"/>
        <polygon class="cls-2" points="128.38 216.79 128.38 215.79 128.38 214.79 128.38 213.79 128.38 212.79 128.38 211.79 128.38 210.79 128.38 209.79 128.38 208.79 128.38 208.59 128.38 207.59 128.38 206.59 128.38 205.59 128.38 204.59 128.38 203.59 128.38 202.59 128.38 201.59 128.38 200.59 128.38 199.59 97.78 199.59 97.78 200.59 97.78 201.59 97.78 202.59 97.78 203.59 97.78 204.59 97.78 205.59 97.78 206.59 97.78 207.59 97.78 208.59 97.78 208.79 97.78 209.79 97.78 210.79 97.78 211.79 97.78 212.79 97.78 213.79 97.78 214.79 97.78 215.79 97.78 216.79 97.78 217.79 107.52 217.79 107.52 251.22 107.52 252.22 107.52 253.22 107.52 254.22 107.52 255.22 107.52 256.22 107.52 257.22 107.52 258.22 107.52 259.22 107.52 260.22 118.65 260.22 118.65 259.22 118.65 258.22 118.65 257.22 118.65 256.22 118.65 255.22 118.65 254.22 118.65 253.22 118.65 252.22 118.65 251.22 118.65 217.79 128.38 217.79 128.38 216.79"/>
        <path class="cls-2" d="m233.88,223.74c-.03-.33-.07-.65-.11-.97l.11-.03c-.03-.33-.07-.65-.11-.97l.11-.03c-.03-.33-.07-.65-.11-.97l.11-.03c-.03-.33-.07-.65-.11-.97l.11-.03c-.03-.33-.07-.65-.11-.97l.11-.03c-.03-.33-.07-.65-.11-.97l.11-.03c-.03-.33-.07-.65-.11-.97l.11-.03c-.03-.33-.07-.65-.11-.97l.11-.03c-.03-.33-.07-.65-.11-.97l.11-.03c-.85-9.97-6.11-15.77-14.76-15.77-11.13,0-17.54,9.82-17.54,27.05,0,.17,0,.34,0,.51,0,.16,0,.32,0,.49s0,.34,0,.51c0,.16,0,.32,0,.49s0,.34,0,.51c0,.16,0,.32,0,.49s0,.34,0,.51c0,.16,0,.32,0,.49s0,.34,0,.51c0,.16,0,.32,0,.49s0,.34,0,.51c0,.16,0,.32,0,.49s0,.34,0,.51c0,.16,0,.32,0,.49s0,.34,0,.51c0,.16,0,.32,0,.49s0,.34,0,.51c0,.16,0,.32,0,.49,0,16.08,5.72,25.81,15.07,25.81,4.33,0,7.57-2.24,9.04-5.95l1.08,5.33h7.5v-36.36h-.86l.47-.12Zm-14.61,4.12v13.19h2.79c-.79.89-1.82,1.36-3.1,1.36-3.43,0-5.34-3.85-5.82-11.9.5-8.49,2.49-12.95,5.74-12.95,2.37,0,3.78,1.96,4.34,6.3h-3.95v4Z"/>
        <polygon class="cls-2" points="174.56 119.66 174.56 120.66 174.56 121.66 174.56 122.66 174.56 123.66 174.56 124.66 174.56 125.66 174.56 126.66 174.56 127.66 190.4 127.66 190.4 126.66 190.4 125.66 190.4 124.66 190.4 123.66 190.4 122.66 190.4 121.66 190.4 120.66 190.4 119.66 190.4 118.66 190.4 89.09 206.09 89.09 206.09 88.09 206.09 87.09 206.09 86.09 206.09 85.09 206.09 84.09 206.09 83.09 206.09 82.09 206.09 81.09 206.09 80.09 206.09 76.03 206.09 75.03 206.09 74.03 206.09 73.03 206.09 72.03 206.09 71.03 206.09 70.03 206.09 69.03 206.09 68.03 206.09 67.03 158.87 67.03 158.87 68.03 158.87 69.03 158.87 70.03 158.87 71.03 158.87 72.03 158.87 73.03 158.87 74.03 158.87 75.03 158.87 76.03 158.87 80.09 158.87 81.09 158.87 82.09 158.87 83.09 158.87 84.09 158.87 85.09 158.87 86.09 158.87 87.09 158.87 88.09 158.87 89.09 174.56 89.09 174.56 118.66 174.56 119.66"/>
        <polygon class="cls-2" points="117.68 185.94 117.68 186.94 117.68 187.94 117.68 188.94 117.68 189.94 117.68 190.94 117.68 191.94 117.68 192.94 117.68 193.94 128.58 193.94 128.58 192.94 128.58 191.94 128.58 190.94 128.58 189.94 128.58 188.94 128.58 187.94 128.58 186.94 128.58 185.94 128.58 184.94 128.58 175.78 140.25 142.31 139.9 142.31 140.25 141.31 139.9 141.31 140.25 140.31 139.9 140.31 140.25 139.31 139.9 139.31 140.25 138.31 139.9 138.31 140.25 137.31 139.9 137.31 140.25 136.31 139.9 136.31 140.25 135.31 139.9 135.31 140.25 134.31 139.9 134.31 140.25 133.31 129.27 133.31 123.32 152.56 123.17 152.56 117.29 133.31 105.93 133.31 106.28 134.31 105.93 134.31 106.28 135.31 105.93 135.31 106.28 136.31 105.93 136.31 106.28 137.31 105.93 137.31 106.28 138.31 105.93 138.31 106.28 139.31 105.93 139.31 106.28 140.31 105.93 140.31 106.28 141.31 105.93 141.31 106.28 142.31 105.93 142.31 117.68 175.78 117.68 184.94 117.68 185.94"/>
        <polygon class="cls-2" points="16.44 52.38 16.44 53.38 16.44 54.38 16.44 55.38 16.44 56.38 16.44 57.38 16.44 58.38 16.44 59.38 16.44 60.38 16.44 61.38 32.28 61.38 32.28 60.38 32.28 59.38 32.28 58.38 32.28 57.38 32.28 56.38 32.28 55.38 32.28 54.38 32.28 53.38 32.28 52.38 32.28 22.81 47.97 22.81 47.97 21.81 47.97 20.81 47.97 19.81 47.97 18.81 47.97 17.81 47.97 16.81 47.97 15.81 47.97 14.81 47.97 13.81 47.97 9.75 47.97 8.75 47.97 7.75 47.97 6.75 47.97 5.75 47.97 4.75 47.97 3.75 47.97 2.75 47.97 1.75 47.97 .75 .75 .75 .75 1.75 .75 2.75 .75 3.75 .75 4.75 .75 5.75 .75 6.75 .75 7.75 .75 8.75 .75 9.75 .75 13.81 .75 14.81 .75 15.81 .75 16.81 .75 17.81 .75 18.81 .75 19.81 .75 20.81 .75 21.81 .75 22.81 16.44 22.81 16.44 52.38"/>
        <polygon class="cls-2" points="228.82 .75 228.82 1.75 228.82 2.75 228.82 3.75 228.82 4.75 228.82 5.75 228.82 6.75 228.82 7.75 228.82 8.75 228.82 9.75 228.82 28.5 228.66 28.5 210.96 .75 196.12 .75 196.12 1.75 196.12 2.75 196.12 3.75 196.12 4.75 196.12 5.75 196.12 6.75 196.12 7.75 196.12 8.75 196.12 9.75 196.12 52.38 196.12 53.38 196.12 54.38 196.12 55.38 196.12 56.38 196.12 57.38 196.12 58.38 196.12 59.38 196.12 60.38 196.12 61.38 211.27 61.38 211.27 60.38 211.27 59.38 211.27 58.38 211.27 57.38 211.27 56.38 211.27 55.38 211.27 54.38 211.27 53.38 211.27 52.38 211.27 33.63 211.43 33.63 229.9 61.38 243.89 61.38 243.89 60.38 243.89 59.38 243.89 58.38 243.89 57.38 243.89 56.38 243.89 55.38 243.89 54.38 243.89 53.38 243.89 52.38 243.89 9.75 243.89 8.75 243.89 7.75 243.89 6.75 243.89 5.75 243.89 4.75 243.89 3.75 243.89 2.75 243.89 1.75 243.89 .75 228.82 .75"/>
        <path class="cls-2" d="m54,133.31h-13.37v60.63h13.37c12.6,0,19.09-8.73,19.09-25.74,0-.17-.01-.33-.01-.5,0-.17.01-.33.01-.5s-.01-.33-.01-.5c0-.17.01-.33.01-.5s-.01-.33-.01-.5c0-.17.01-.33.01-.5s-.01-.33-.01-.5c0-.17.01-.33.01-.5s-.01-.33-.01-.5c0-.17.01-.33.01-.5s-.01-.33-.01-.5c0-.17.01-.33.01-.5s-.01-.33-.01-.5c0-.17.01-.33.01-.5s-.01-.33-.01-.5c0-.17.01-.33.01-.5s-.01-.33-.01-.5c0-.17.01-.33.01-.5,0-17.08-6.49-25.89-19.09-25.89Zm-.08,18.12c4.74,0,6.94,3.53,7.45,12.25-.51,8.66-2.71,12.13-7.45,12.13h-2.32v-24.39h2.32Z"/>
        <path class="cls-2" d="m161.97,133.31h-13.91l-10.59,51.63h.21l-.21,1h.21l-.21,1h.21l-.21,1h.21l-.21,1h.21l-.21,1h.21l-.21,1h.21l-.21,1h.21l-.21,1h.21l-.21,1h10.43l2.01-11.59h9.89l2.01,11.59h10.74l-.21-1h.21l-.21-1h.21l-.21-1h.21l-.21-1h.21l-.21-1h.21l-.21-1h.21l-.21-1h.21l-.21-1h.21l-.21-1h.21l-10.59-51.63Zm-7.27,21.29h.23l1.82,10.4h-3.84l1.78-10.4Z"/>
        <path class="cls-2" d="m38.89,229.04c-.98-1.57-2.59-3.3-4.85-5.18l6.85-1.5c-.01-.34-.04-.66-.07-.98l.07-.02c-.01-.34-.04-.66-.07-.98l.07-.02c-.01-.34-.04-.66-.07-.98l.07-.02c-.01-.34-.04-.66-.07-.98l.07-.02c-.01-.34-.04-.66-.07-.98l.07-.02c-.01-.34-.04-.66-.07-.98l.07-.02c-.01-.34-.04-.66-.07-.98l.07-.02c-.01-.34-.04-.66-.07-.98l.07-.02c-.01-.34-.04-.66-.07-.98l.07-.02c-.31-9.04-5.56-14.38-14.3-14.38-4.41,0-7.96,1.31-10.74,4.02s-4.17,6.11-4.17,10.36c0,.2.01.39.02.58,0,.14-.02.28-.02.42,0,.2.01.39.02.58,0,.14-.02.28-.02.42,0,.2.01.39.02.58,0,.14-.02.28-.02.42,0,.2.01.39.02.58,0,.14-.02.28-.02.42,0,.2.01.39.02.58,0,.14-.02.28-.02.42,0,.2.01.39.02.58,0,.14-.02.28-.02.42,0,.2.01.39.02.58,0,.14-.02.28-.02.42,0,.2.01.39.02.58,0,.14-.02.28-.02.42,0,.2.01.39.02.58,0,.14-.02.28-.02.42,0,2.94.7,5.56,2.16,7.96.84,1.32,2.2,2.78,4.04,4.35l-7.06,1.95c0,.34.03.66.05.99h-.05c0,.35.03.67.05,1h-.05c0,.35.03.67.05,1h-.05c0,.35.03.67.05,1h-.05c0,.35.03.67.05,1h-.05c0,.35.03.67.05,1h-.05c0,.35.03.67.05,1h-.05c0,.35.03.67.05,1h-.05c0,.35.03.67.05,1h-.05c.08,9.29,6.11,15.24,15.15,15.24,4.41,0,8.04-1.31,10.9-4.02,2.86-2.71,4.33-6.18,4.33-10.43,0-.2-.01-.39-.02-.58,0-.14.02-.28.02-.42,0-.2-.01-.39-.02-.58,0-.14.02-.28.02-.42,0-.2-.01-.39-.02-.58,0-.14.02-.28.02-.42,0-.2-.01-.39-.02-.58,0-.14.02-.28.02-.42,0-.2-.01-.39-.02-.58,0-.14.02-.28.02-.42,0-.2-.01-.39-.02-.58,0-.14.02-.28.02-.42,0-.2-.01-.39-.02-.58,0-.14.02-.28.02-.42,0-.2-.01-.39-.02-.58,0-.14.02-.28.02-.42,0-.2-.01-.39-.02-.58,0-.14.02-.28.02-.42,0-3.09-.77-5.87-2.32-8.35Zm-9.35-8.58c-1.99-1.38-3.5-2.52-4.55-3.45.51-.2,1.07-.31,1.69-.31,2.23,0,3.84,1.84,4.45,4.88-.51-.37-1.04-.74-1.59-1.13Zm-6.65,17.96c2.35,1.65,4.08,3.03,5.18,4.14-.61.3-1.33.47-2.16.47-2.86,0-4.82-2.4-5.39-6.29.74.55,1.53,1.11,2.38,1.69Z"/>
        <polygon class="cls-2" points="45.23 200.59 45.23 201.59 45.23 202.59 45.23 203.59 45.23 204.59 45.23 205.59 45.23 206.59 45.23 207.59 45.23 208.59 45.23 251.22 45.23 252.22 45.23 253.22 45.23 254.22 45.23 255.22 45.23 256.22 45.23 257.22 45.23 258.22 45.23 259.22 45.23 260.22 56.28 260.22 56.28 259.22 56.28 258.22 56.28 257.22 56.28 256.22 56.28 255.22 56.28 254.22 56.28 253.22 56.28 252.22 56.28 251.22 56.28 208.59 56.28 207.59 56.28 206.59 56.28 205.59 56.28 204.59 56.28 203.59 56.28 202.59 56.28 201.59 56.28 200.59 56.28 199.59 45.23 199.59 45.23 200.59"/>
        <polygon class="cls-2" points="83.64 200.59 83.64 201.59 83.64 202.59 83.64 203.59 83.64 204.59 83.64 205.59 83.64 206.59 83.64 207.59 83.64 208.59 83.64 227.65 83.33 227.65 72.59 199.59 62.15 199.59 62.15 200.59 62.15 201.59 62.15 202.59 62.15 203.59 62.15 204.59 62.15 205.59 62.15 206.59 62.15 207.59 62.15 208.59 62.15 251.22 62.15 252.22 62.15 253.22 62.15 254.22 62.15 255.22 62.15 256.22 62.15 257.22 62.15 258.22 62.15 259.22 62.15 260.22 72.28 260.22 72.28 259.22 72.28 258.22 72.28 257.22 72.28 256.22 72.28 255.22 72.28 254.22 72.28 253.22 72.28 252.22 72.28 251.22 72.28 231.01 72.51 231.01 84.1 260.22 93.76 260.22 93.76 259.22 93.76 258.22 93.76 257.22 93.76 256.22 93.76 255.22 93.76 254.22 93.76 253.22 93.76 252.22 93.76 251.22 93.76 208.59 93.76 207.59 93.76 206.59 93.76 205.59 93.76 204.59 93.76 203.59 93.76 202.59 93.76 201.59 93.76 200.59 93.76 199.59 83.64 199.59 83.64 200.59"/>
        <path class="cls-2" d="m151.42,199.59h-13.91l-10.59,51.63h.21l-.21,1h.21l-.21,1h.21l-.21,1h.21l-.21,1h.21l-.21,1h.21l-.21,1h.21l-.21,1h.21l-.21,1h.21l-.21,1h10.43l2.01-11.59h9.89l2.01,11.59h10.74l-.21-1h.21l-.21-1h.21l-.21-1h.21l-.21-1h.21l-.21-1h.21l-.21-1h.21l-.21-1h.21l-.21-1h.21l-.21-1h.21l-10.59-51.63Zm-7.27,21.29h.23l1.82,10.4h-3.84l1.78-10.4Z"/>
        <polygon class="cls-2" points="186.96 200.59 186.96 201.59 186.96 202.59 186.96 203.59 186.96 204.59 186.96 205.59 186.96 206.59 186.96 207.59 186.96 208.59 186.96 227.65 186.66 227.65 175.91 199.59 165.48 199.59 165.48 200.59 165.48 201.59 165.48 202.59 165.48 203.59 165.48 204.59 165.48 205.59 165.48 206.59 165.48 207.59 165.48 208.59 165.48 251.22 165.48 252.22 165.48 253.22 165.48 254.22 165.48 255.22 165.48 256.22 165.48 257.22 165.48 258.22 165.48 259.22 165.48 260.22 175.6 260.22 175.6 259.22 175.6 258.22 175.6 257.22 175.6 256.22 175.6 255.22 175.6 254.22 175.6 253.22 175.6 252.22 175.6 251.22 175.6 231.01 175.84 231.01 187.43 260.22 197.09 260.22 197.09 259.22 197.09 258.22 197.09 257.22 197.09 256.22 197.09 255.22 197.09 254.22 197.09 253.22 197.09 252.22 197.09 251.22 197.09 208.59 197.09 207.59 197.09 206.59 197.09 205.59 197.09 204.59 197.09 203.59 197.09 202.59 197.09 201.59 197.09 200.59 197.09 199.59 186.96 199.59 186.96 200.59"/>
      </g>
      <g>
        <path class="cls-1" d="m32.28,13.81v38.57h-15.84V13.81H.75V.75h47.22v13.06h-15.69Z"/>
        <path class="cls-1" d="m66.06,39.32h23.19v13.06h-38.41V.75h38.26v13.06h-23.03v6.8h20.4v11.59h-20.4v7.11Z"/>
        <path class="cls-1" d="m126.03,28.5h.15V.75h15.07v51.63h-13.99l-18.47-27.75h-.15v27.75h-15.15V.75h14.84l17.7,27.75Z"/>
        <path class="cls-1" d="m175.64,30.74V.75h15.92v31.07c0,13.91-8.27,21.49-22.88,21.49s-22.88-7.57-22.88-21.49V.75h15.92v29.99c0,6.26,2.32,9.43,6.96,9.43s6.96-3.17,6.96-9.43Z"/>
        <path class="cls-1" d="m228.66,28.5h.15V.75h15.07v51.63h-13.99l-18.47-27.75h-.16v27.75h-15.15V.75h14.84l17.7,27.75Z"/>
        <path class="cls-1" d="m43.33,118.66v-51.63h15.84v51.63h-15.84Z"/>
        <path class="cls-1" d="m97.2,92.07l16.31,26.59h-18.47l-11.59-19.55h-3.17v19.55h-15.84v-51.63h15.84v18.94h3.32l11.13-18.94h17.47l-14.99,25.04Z"/>
        <path class="cls-1" d="m165.83,118.66h-16.15l-3.01-9.12h-17.7l-3.01,9.12h-15.53l18.62-51.63h18.09l18.7,51.63Zm-27.98-35.4h-.15l-4.95,14.84h10.05l-4.95-14.84Z"/>
        <path class="cls-1" d="m190.4,80.09v38.57h-15.84v-38.57h-15.69v-13.06h47.22v13.06h-15.69Z"/>
        <path class="cls-1" d="m40.63,184.94v-51.63h13.37c12.6,0,19.09,8.81,19.09,25.89s-6.49,25.74-19.09,25.74h-13.37Zm10.97-42.51v33.39h2.32c5.49,0,7.57-4.64,7.57-16.62s-2.09-16.77-7.57-16.77h-2.32Z"/>
        <path class="cls-1" d="m108.72,184.94h-10.74l-2.01-11.59h-9.89l-2.01,11.59h-10.43l10.59-51.63h13.91l10.59,51.63Zm-17.62-39.34h-.23l-3.32,19.4h6.96l-3.4-19.4Z"/>
        <path class="cls-1" d="m117.29,133.31l5.87,19.24h.15l5.95-19.24h10.97l-11.67,33.46v18.16h-10.9v-18.16l-11.75-33.46h11.36Z"/>
        <path class="cls-1" d="m172.55,184.94h-10.74l-2.01-11.59h-9.89l-2.01,11.59h-10.43l10.59-51.63h13.91l10.59,51.63Zm-17.62-39.34h-.23l-3.32,19.4h6.96l-3.4-19.4Z"/>
        <path class="cls-1" d="m198.91,158.43l10.36,26.51h-12.06l-8.04-21.41h-2.09v21.41h-11.05v-51.63h11.05v20.79h2.09l7.5-20.79h11.9l-9.66,25.12Z"/>
        <path class="cls-1" d="m36.88,247.82c-2.86,2.71-6.49,4.02-10.9,4.02-9.04,0-15.07-5.95-15.15-15.23l9.51-2.63c-.08,5.49,2.09,9.04,5.56,9.04,2.78,0,4.4-1.7,4.4-4.71,0-1.31-.46-2.63-1.39-3.79-.93-1.24-2.94-2.94-6.03-5.1-4.56-3.09-7.57-5.8-9.04-8.11-1.47-2.4-2.16-5.02-2.16-7.96,0-4.25,1.39-7.65,4.17-10.36s6.34-4.02,10.74-4.02c8.73,0,13.99,5.33,14.3,14.38l-9.51,2.09c0-4.71-1.85-7.73-4.71-7.73-2.55,0-4.25,1.78-4.25,4.56,0,1.16.46,2.32,1.31,3.48.85,1.08,2.78,2.63,5.8,4.71,4.71,3.25,7.81,6.11,9.35,8.58,1.55,2.47,2.32,5.25,2.32,8.35,0,4.25-1.47,7.73-4.33,10.43Z"/>
        <path class="cls-1" d="m45.23,251.22v-51.63h11.05v51.63h-11.05Z"/>
        <path class="cls-1" d="m83.33,227.65h.31v-28.05h10.12v51.63h-9.66l-11.59-29.21h-.23v29.21h-10.12v-51.63h10.43l10.74,28.05Z"/>
        <path class="cls-1" d="m118.65,208.79v42.43h-11.13v-42.43h-9.74v-9.2h30.61v9.2h-9.74Z"/>
        <path class="cls-1" d="m162,251.22h-10.74l-2.01-11.59h-9.89l-2.01,11.59h-10.43l10.59-51.63h13.91l10.59,51.63Zm-17.62-39.34h-.23l-3.32,19.4h6.96l-3.4-19.4Z"/>
        <path class="cls-1" d="m186.66,227.65h.31v-28.05h10.12v51.63h-9.66l-11.59-29.21h-.23v29.21h-10.12v-51.63h10.43l10.74,28.05Z"/>
        <path class="cls-1" d="m219.27,232.05v-8.19h14.99v27.36h-7.5l-1.08-5.33c-1.47,3.71-4.71,5.95-9.04,5.95-9.35,0-15.07-9.74-15.07-25.81,0-17.23,6.42-27.05,17.54-27.05,8.66,0,13.91,5.8,14.76,15.77l-10.43,2.63c-.31-6.11-1.78-8.81-4.56-8.81-3.79,0-5.87,6.03-5.87,17.47s1.93,16.38,5.95,16.38c3.17,0,4.87-2.78,4.87-8.12v-2.24h-4.56Z"/>
      </g>
    </g>
  </g>
</svg>