<?xml version="1.0" encoding="UTF-8"?>
<svg id="Layer_2" data-name="Layer 2" xmlns="http://www.w3.org/2000/svg" viewBox="0 0 303.69 261.9">
  <defs>
    <style>
      .cls-1 {
        fill: #f4f3d3;
      }

      .cls-1, .cls-2 {
        stroke: #000;
        stroke-width: 1.5px;
      }
    </style>
  </defs>
  <g id="TFX_Expand" data-name="TFX Expand">
    <g>
      <g>
        <polygon class="cls-2" points="105.28 60.38 105.28 59.38 105.28 58.38 105.28 57.38 105.28 56.38 105.28 55.38 105.28 54.38 105.28 53.38 105.28 52.38 105.28 9.75 105.28 8.75 105.28 7.75 105.28 6.75 105.28 5.75 105.28 4.75 105.28 3.75 105.28 2.75 105.28 1.75 105.28 .75 89.43 .75 89.43 1.75 89.43 2.75 89.43 3.75 89.43 4.75 89.43 5.75 89.43 6.75 89.43 7.75 89.43 8.75 89.43 9.75 89.43 52.38 89.43 53.38 89.43 54.38 89.43 55.38 89.43 56.38 89.43 57.38 89.43 58.38 89.43 59.38 89.43 60.38 89.43 61.38 105.28 61.38 105.28 60.38"/>
        <path class="cls-2" d="m126.38,60.38v-18.55h3.17l11.59,19.55h30.91l3.01-9.12h17.7l3.01,9.12h16.15l-.36-1h.36l-.36-1h.36l-.36-1h.36l-.36-1h.36l-.36-1h.36l-.36-1h.36l-.36-1h.36l-.36-1h.36l-.36-1h.36L193.23.75h-18.08l-17.48,48.45-11.63-18.97,12.27-20.49h-.6l.6-1h-.6l.6-1h-.6l.6-1h-.6l.6-1h-.6l.6-1h-.6l.6-1h-.6l.6-1h-.6l.6-1h-.6l.6-1h-17.47l-11.13,18.94h-3.32V.75h-15.84v60.63h15.84v-1Zm57.42-34.4h.15l1.95,5.84h-4.05l1.95-5.84Z"/>
        <path class="cls-2" d="m228.85,60.38v-15.54h6.26c3.4,0,5.02,1.31,5.64,4.71l1.08,5.8c.62,3.01,1.24,4.41,2.55,6.03h17c-.33-.33-.62-.66-.89-1h.89c-.33-.33-.62-.66-.89-1h.89c-.33-.33-.62-.66-.89-1h.89c-.33-.33-.62-.66-.89-1h.89c-.33-.33-.62-.66-.89-1h.89c-.33-.33-.62-.66-.89-1h.89c-.33-.33-.62-.66-.89-1h.89c-.33-.33-.62-.66-.89-1h.89c-.33-.33-.62-.66-.89-1h.89c-1.78-1.78-2.71-3.63-3.4-6.42l-1.93-8.27c-.28-1.16-.65-2.19-1.11-3.1,2.19-2.3,3.51-5.45,3.51-9.08,0-.17-.02-.32-.02-.49,0-.17.02-.34.02-.51s-.02-.32-.02-.49c0-.17.02-.34.02-.51s-.02-.32-.02-.49c0-.17.02-.34.02-.51s-.02-.32-.02-.49c0-.17.02-.34.02-.51s-.02-.32-.02-.49c0-.17.02-.34.02-.51s-.02-.32-.02-.49c0-.17.02-.34.02-.51s-.02-.32-.02-.49c0-.17.02-.34.02-.51s-.02-.32-.02-.49c0-.17.02-.34.02-.51s-.02-.32-.02-.49c0-.17.02-.34.02-.51,0-10.28-7.03-15.77-20.09-15.77h-25.04v60.63h15.53v-1Zm7.57-37.95c1.32,0,2.39.22,3.26.63-.86.43-1.94.65-3.26.65h-7.57v-1.28h7.57Z"/>
        <polygon class="cls-2" points="144.81 127.66 144.81 126.66 144.81 125.66 144.81 124.66 144.81 123.66 144.81 122.66 144.81 121.66 144.81 120.66 144.81 119.66 144.81 118.66 144.81 76.03 144.81 75.03 144.81 74.03 144.81 73.03 144.81 72.03 144.81 71.03 144.81 70.03 144.81 69.03 144.81 68.03 144.81 67.03 134.68 67.03 134.68 68.03 134.68 69.03 134.68 70.03 134.68 71.03 134.68 72.03 134.68 73.03 134.68 74.03 134.68 75.03 134.68 76.03 134.68 95.09 134.37 95.09 123.63 67.03 113.2 67.03 113.2 68.03 113.2 69.03 113.2 70.03 113.2 71.03 113.2 72.03 113.2 73.03 113.2 74.03 113.2 75.03 113.2 76.03 113.2 118.66 113.2 119.66 113.2 120.66 113.2 121.66 113.2 122.66 113.2 123.66 113.2 124.66 113.2 125.66 113.2 126.66 113.2 127.66 123.32 127.66 123.32 126.66 123.32 125.66 123.32 124.66 123.32 123.66 123.32 122.66 123.32 121.66 123.32 120.66 123.32 119.66 123.32 118.66 123.32 98.44 123.55 98.44 135.15 127.66 144.81 127.66"/>
        <path class="cls-2" d="m207.95,127.66h10.74l-.21-1h.21l-.21-1h.21l-.21-1h.21l-.21-1h.21l-.21-1h.21l-.21-1h.21l-.21-1h.21l-.21-1h.21l-.21-1h.21l-10.59-51.63h-13.91l-10.59,51.63h.21l-.21,1h.21l-.21,1h.21l-.21,1h.21l-.21,1h.21l-.21,1h.21l-.21,1h.21l-.21,1h.21l-.21,1h.21l-.21,1h10.43l2.01-11.59h9.89l2.01,11.59Zm-7.11-39.34h.23l1.82,10.4h-3.84l1.78-10.4Z"/>
        <polygon class="cls-2" points="253.78 127.66 253.78 126.66 253.78 125.66 253.78 124.66 253.78 123.66 253.78 122.66 253.78 121.66 253.78 120.66 253.78 119.66 253.78 118.66 253.78 76.03 253.78 75.03 253.78 74.03 253.78 73.03 253.78 72.03 253.78 71.03 253.78 70.03 253.78 69.03 253.78 68.03 253.78 67.03 243.65 67.03 243.65 68.03 243.65 69.03 243.65 70.03 243.65 71.03 243.65 72.03 243.65 73.03 243.65 74.03 243.65 75.03 243.65 76.03 243.65 95.09 243.34 95.09 232.6 67.03 222.17 67.03 222.17 68.03 222.17 69.03 222.17 70.03 222.17 71.03 222.17 72.03 222.17 73.03 222.17 74.03 222.17 75.03 222.17 76.03 222.17 118.66 222.17 119.66 222.17 120.66 222.17 121.66 222.17 122.66 222.17 123.66 222.17 124.66 222.17 125.66 222.17 126.66 222.17 127.66 232.29 127.66 232.29 126.66 232.29 125.66 232.29 124.66 232.29 123.66 232.29 122.66 232.29 121.66 232.29 120.66 232.29 119.66 232.29 118.66 232.29 98.44 232.52 98.44 244.12 127.66 253.78 127.66"/>
        <path class="cls-2" d="m45.27,194.56c4.41,0,8.04-1.31,10.9-4.02,2.86-2.71,4.33-6.18,4.33-10.43,0-.2-.01-.39-.02-.58,0-.14.02-.28.02-.42,0-.2-.01-.39-.02-.58,0-.14.02-.28.02-.42,0-.2-.01-.39-.02-.58,0-.14.02-.28.02-.42,0-.2-.01-.39-.02-.58,0-.14.02-.28.02-.42,0-.2-.01-.39-.02-.58,0-.14.02-.28.02-.42,0-.2-.01-.39-.02-.58,0-.14.02-.28.02-.42,0-.2-.01-.39-.02-.58,0-.14.02-.28.02-.42,0-.2-.01-.39-.02-.58,0-.14.02-.28.02-.42,0-.2-.01-.39-.02-.58,0-.14.02-.28.02-.42,0-3.09-.77-5.87-2.32-8.35-.98-1.57-2.59-3.3-4.84-5.18l6.85-1.5c-.01-.34-.04-.66-.07-.98l.07-.02c-.01-.34-.04-.66-.07-.98l.07-.02c-.01-.34-.04-.66-.07-.98l.07-.02c-.01-.34-.04-.66-.07-.98l.07-.02c-.01-.34-.04-.66-.07-.98l.07-.02c-.01-.34-.04-.66-.07-.98l.07-.02c-.01-.34-.04-.66-.07-.98l.07-.02c-.01-.34-.04-.66-.07-.98l.07-.02c-.01-.34-.04-.66-.07-.98l.07-.02c-.31-9.04-5.56-14.38-14.3-14.38-4.41,0-7.96,1.31-10.74,4.02s-4.17,6.11-4.17,10.36c0,.2.01.39.02.58,0,.14-.02.28-.02.42,0,.2.01.39.02.58,0,.14-.02.28-.02.42,0,.2.01.39.02.58,0,.14-.02.28-.02.42,0,.2.01.39.02.58,0,.14-.02.28-.02.42,0,.2.01.39.02.58,0,.14-.02.28-.02.42,0,.2.01.39.02.58,0,.14-.02.28-.02.42,0,.2.01.39.02.58,0,.14-.02.28-.02.42,0,.2.01.39.02.58,0,.14-.02.28-.02.42,0,.2.01.39.02.58,0,.14-.02.28-.02.42,0,2.94.7,5.56,2.16,7.96.84,1.32,2.2,2.78,4.04,4.35l-7.06,1.95c0,.34.03.66.05.99h-.05c0,.35.03.67.05,1h-.05c0,.35.03.67.05,1h-.05c0,.35.03.67.05,1h-.05c0,.35.03.67.05,1h-.05c0,.35.03.67.05,1h-.05c0,.35.03.67.05,1h-.05c0,.35.03.67.05,1h-.05c0,.35.03.67.05,1h-.05c.08,9.29,6.11,15.24,15.15,15.24Zm3.56-40.38c-1.99-1.38-3.5-2.52-4.55-3.45.51-.2,1.07-.31,1.69-.31,2.23,0,3.84,1.84,4.45,4.88-.51-.37-1.04-.75-1.59-1.13Zm-6.65,17.96c2.35,1.65,4.08,3.03,5.18,4.14-.61.3-1.33.47-2.16.47-2.86,0-4.82-2.4-5.39-6.29.74.55,1.53,1.11,2.38,1.69Z"/>
        <polygon class="cls-2" points="89.71 151.51 89.71 150.51 89.71 149.51 89.71 148.51 89.71 147.51 89.71 146.51 89.71 145.51 89.71 144.51 89.71 143.51 89.71 142.51 89.71 142.31 89.71 141.31 89.71 140.31 89.71 139.31 89.71 138.31 89.71 137.31 89.71 136.31 89.71 135.31 89.71 134.31 89.71 133.31 64.51 133.31 64.51 134.31 64.51 135.31 64.51 136.31 64.51 137.31 64.51 138.31 64.51 139.31 64.51 140.31 64.51 141.31 64.51 142.31 64.51 184.94 64.51 185.94 64.51 186.94 64.51 187.94 64.51 188.94 64.51 189.94 64.51 190.94 64.51 191.94 64.51 192.94 64.51 193.94 89.71 193.94 89.71 192.94 89.71 191.94 89.71 190.94 89.71 189.94 89.71 188.94 89.71 187.94 89.71 186.94 89.71 185.94 89.71 184.94 89.71 184.74 89.71 183.74 89.71 182.74 89.71 181.74 89.71 180.74 89.71 179.74 89.71 178.74 89.71 177.74 89.71 176.74 89.71 175.74 75.41 175.74 75.41 172.14 87.46 172.14 87.46 171.14 87.46 170.14 87.46 169.14 87.46 168.14 87.46 167.14 87.46 166.14 87.46 165.14 87.46 164.14 87.46 163.41 87.46 163.14 87.46 162.41 87.46 161.41 87.46 160.41 87.46 159.41 87.46 158.41 87.46 157.41 87.46 156.41 87.46 155.41 87.46 154.41 75.41 154.41 75.41 151.51 89.71 151.51"/>
        <path class="cls-2" d="m207.33,193.94l2.01-11.59h9.89l2.01,11.59h10.74l-.21-1h.21l-.21-1h.21l-.21-1h.21l-.21-1h.21l-.21-1h.21l-.21-1h.21l-.21-1h.21l-.21-1h.21l-.21-1h.21l-10.59-51.63h-13.91l-10.59,51.63h.21l-.21,1h.21l-.21,1h.21l-.21,1h.21l-.21,1h.21l-.21,1h.21l-.21,1h.21l-.21,1h.21l-.21,1h.21l-.21,1h10.43Zm6.8-39.34h.23l1.82,10.4h-3.84l1.78-10.4Z"/>
        <polygon class="cls-2" points="245.58 192.94 245.58 191.94 245.58 190.94 245.58 189.94 245.58 188.94 245.58 187.94 245.58 186.94 245.58 185.94 245.58 184.94 245.58 164.73 245.82 164.73 257.41 193.94 267.07 193.94 267.07 192.94 267.07 191.94 267.07 190.94 267.07 189.94 267.07 188.94 267.07 187.94 267.07 186.94 267.07 185.94 267.07 184.94 267.07 142.31 267.07 141.31 267.07 140.31 267.07 139.31 267.07 138.31 267.07 137.31 267.07 136.31 267.07 135.31 267.07 134.31 267.07 133.31 256.94 133.31 256.94 134.31 256.94 135.31 256.94 136.31 256.94 137.31 256.94 138.31 256.94 139.31 256.94 140.31 256.94 141.31 256.94 142.31 256.94 161.37 256.64 161.37 245.89 133.31 235.46 133.31 235.46 134.31 235.46 135.31 235.46 136.31 235.46 137.31 235.46 138.31 235.46 139.31 235.46 140.31 235.46 141.31 235.46 142.31 235.46 184.94 235.46 185.94 235.46 186.94 235.46 187.94 235.46 188.94 235.46 189.94 235.46 190.94 235.46 191.94 235.46 192.94 235.46 193.94 245.58 193.94 245.58 192.94"/>
        <path class="cls-2" d="m302.26,251.22h.36l-18.7-51.63h-18.08l-18.63,51.63h.36l-.36,1h.36l-.36,1h.36l-.36,1h.36l-.36,1h.36l-.36,1h.36l-.36,1h.36l-.36,1h.36l-.36,1h.36l-.36,1h15.53l3.01-9.12h17.7l3.01,9.12h16.15l-.36-1h.36l-.36-1h.36l-.36-1h.36l-.36-1h.36l-.36-1h.36l-.36-1h.36l-.36-1h.36l-.36-1h.36l-.36-1Zm-27.77-26.4h.15l1.95,5.84h-4.05l1.95-5.84Z"/>
        <polygon class="cls-2" points="55.04 52.38 55.04 53.38 55.04 54.38 55.04 55.38 55.04 56.38 55.04 57.38 55.04 58.38 55.04 59.38 55.04 60.38 55.04 61.38 70.89 61.38 70.89 60.38 70.89 59.38 70.89 58.38 70.89 57.38 70.89 56.38 70.89 55.38 70.89 54.38 70.89 53.38 70.89 52.38 70.89 22.81 86.57 22.81 86.57 21.81 86.57 20.81 86.57 19.81 86.57 18.81 86.57 17.81 86.57 16.81 86.57 15.81 86.57 14.81 86.57 13.81 86.57 9.75 86.57 8.75 86.57 7.75 86.57 6.75 86.57 5.75 86.57 4.75 86.57 3.75 86.57 2.75 86.57 1.75 86.57 .75 39.35 .75 39.35 1.75 39.35 2.75 39.35 3.75 39.35 4.75 39.35 5.75 39.35 6.75 39.35 7.75 39.35 8.75 39.35 9.75 39.35 13.81 39.35 14.81 39.35 15.81 39.35 16.81 39.35 17.81 39.35 18.81 39.35 19.81 39.35 20.81 39.35 21.81 39.35 22.81 55.04 22.81 55.04 52.38"/>
        <path class="cls-2" d="m59.95,67.03h-14.14v60.63h10.9v-18.01h3.25c10.59,0,16.15-5.72,16.15-16.85,0-.17-.01-.33-.02-.5,0-.17.02-.33.02-.5s-.01-.33-.02-.5c0-.17.02-.33.02-.5s-.01-.33-.02-.5c0-.17.02-.33.02-.5s-.01-.33-.02-.5c0-.17.02-.33.02-.5s-.01-.33-.02-.5c0-.17.02-.33.02-.5s-.01-.33-.02-.5c0-.17.02-.33.02-.5s-.01-.33-.02-.5c0-.17.02-.33.02-.5s-.01-.33-.02-.5c0-.17.02-.33.02-.5s-.01-.33-.02-.5c0-.17.02-.33.02-.5,0-11.05-5.56-16.77-16.15-16.77Zm-.62,17.96c2.74,0,4.36,1.01,5.15,3.35-.79,2.4-2.44,3.49-5.15,3.49h-2.63v-6.84h2.63Z"/>
        <path class="cls-2" d="m99.13,67.03h-13.91l-10.59,51.63h.21l-.21,1h.21l-.21,1h.21l-.21,1h.21l-.21,1h.21l-.21,1h.21l-.21,1h.21l-.21,1h.21l-.21,1h.21l-.21,1h10.43l2.01-11.59h9.89l2.01,11.59h10.74l-.21-1h.21l-.21-1h.21l-.21-1h.21l-.21-1h.21l-.21-1h.21l-.21-1h.21l-.21-1h.21l-.21-1h.21l-.21-1h.21l-10.59-51.63Zm-7.26,21.29h.23l1.82,10.4h-3.84l1.78-10.4Z"/>
        <path class="cls-2" d="m163.97,67.03h-13.37v60.63h13.37c12.6,0,19.09-8.73,19.09-25.74,0-.17-.01-.33-.01-.5,0-.17.01-.33.01-.5s-.01-.33-.01-.5c0-.17.01-.33.01-.5s-.01-.33-.01-.5c0-.17.01-.33.01-.5s-.01-.33-.01-.5c0-.17.01-.33.01-.5s-.01-.33-.01-.5c0-.17.01-.33.01-.5s-.01-.33-.01-.5c0-.17.01-.33.01-.5s-.01-.33-.01-.5c0-.17.01-.33.01-.5s-.01-.33-.01-.5c0-.17.01-.33.01-.5s-.01-.33-.01-.5c0-.17.01-.33.01-.5,0-17.08-6.49-25.89-19.09-25.89Zm-.08,18.12c4.74,0,6.94,3.53,7.45,12.25-.51,8.66-2.71,12.13-7.45,12.13h-2.32v-24.39h2.32Z"/>
        <path class="cls-2" d="m94.73,134.31v59.63h10.97v-19.71h2.86c2.86,0,4.17,1.31,4.71,4.64l1.08,9.51c.39,2.71.93,4.41,1.62,5.56h11.59c-.21-.32-.4-.65-.58-1h.58c-.21-.32-.4-.65-.58-1h.58c-.21-.32-.4-.65-.58-1h.58c-.21-.32-.4-.65-.58-1h.58c-.21-.32-.4-.65-.58-1h.58c-.21-.32-.4-.65-.58-1h.58c-.21-.32-.4-.65-.58-1h.58c-.21-.32-.4-.65-.58-1h.58c-.21-.32-.4-.65-.58-1h.58c-1-1.55-1.7-3.4-2.01-5.87l-1.39-10.12c-.15-1.06-.4-2.02-.74-2.89,1.74-2.21,2.75-5.23,2.75-8.75,0-.17-.01-.32-.02-.49,0-.17.02-.34.02-.51s-.01-.32-.02-.49c0-.17.02-.34.02-.51s-.01-.32-.02-.49c0-.17.02-.34.02-.51s-.01-.32-.02-.49c0-.17.02-.34.02-.51s-.01-.32-.02-.49c0-.17.02-.34.02-.51s-.01-.32-.02-.49c0-.17.02-.34.02-.51s-.01-.32-.02-.49c0-.17.02-.34.02-.51s-.01-.32-.02-.49c0-.17.02-.34.02-.51s-.01-.32-.02-.49c0-.17.02-.34.02-.51,0-9.89-5.33-14.99-15.77-14.99h-15.69v1Zm14.3,16.96c2.61,0,4.24.82,5.09,2.77-.84,1.94-2.45,2.76-5.01,2.76h-3.4v-5.53h3.32Z"/>
        <path class="cls-2" d="m153.23,133.31h-13.91l-10.59,51.63h.21l-.21,1h.21l-.21,1h.21l-.21,1h.21l-.21,1h.21l-.21,1h.21l-.21,1h.21l-.21,1h.21l-.21,1h.21l-.21,1h10.43l2.01-11.59h9.89l2.01,11.59h10.74l-.21-1h.21l-.21-1h.21l-.21-1h.21l-.21-1h.21l-.21-1h.21l-.21-1h.21l-.21-1h.21l-.21-1h.21l-.21-1h.21l-10.59-51.63Zm-7.26,21.29h.23l1.82,10.4h-3.84l1.78-10.4Z"/>
        <path class="cls-2" d="m192.96,162.76c-.98-1.57-2.59-3.3-4.84-5.18l6.85-1.5c-.01-.34-.04-.66-.07-.98l.07-.02c-.01-.34-.04-.66-.07-.98l.07-.02c-.01-.34-.04-.66-.07-.98l.07-.02c-.01-.34-.04-.66-.07-.98l.07-.02c-.01-.34-.04-.66-.07-.98l.07-.02c-.01-.34-.04-.66-.07-.98l.07-.02c-.01-.34-.04-.66-.07-.98l.07-.02c-.01-.34-.04-.66-.07-.98l.07-.02c-.01-.34-.04-.66-.07-.98l.07-.02c-.31-9.04-5.56-14.38-14.3-14.38-4.41,0-7.96,1.31-10.74,4.02s-4.17,6.11-4.17,10.36c0,.2.01.39.02.58,0,.14-.02.28-.02.42,0,.2.01.39.02.58,0,.14-.02.28-.02.42,0,.2.01.39.02.58,0,.14-.02.28-.02.42,0,.2.01.39.02.58,0,.14-.02.28-.02.42,0,.2.01.39.02.58,0,.14-.02.28-.02.42,0,.2.01.39.02.58,0,.14-.02.28-.02.42,0,.2.01.39.02.58,0,.14-.02.28-.02.42,0,.2.01.39.02.58,0,.14-.02.28-.02.42,0,.2.01.39.02.58,0,.14-.02.28-.02.42,0,2.94.7,5.56,2.16,7.96.84,1.32,2.2,2.78,4.04,4.35l-7.06,1.95c0,.34.03.66.05.99h-.05c0,.35.03.67.05,1h-.05c0,.35.03.67.05,1h-.05c0,.35.03.67.05,1h-.05c0,.35.03.67.05,1h-.05c0,.35.03.67.05,1h-.05c0,.35.03.67.05,1h-.05c0,.35.03.67.05,1h-.05c0,.35.03.67.05,1h-.05c.08,9.29,6.11,15.24,15.15,15.24,4.41,0,8.04-1.31,10.9-4.02,2.86-2.71,4.33-6.18,4.33-10.43,0-.2-.01-.39-.02-.58,0-.14.02-.28.02-.42,0-.2-.01-.39-.02-.58,0-.14.02-.28.02-.42,0-.2-.01-.39-.02-.58,0-.14.02-.28.02-.42,0-.2-.01-.39-.02-.58,0-.14.02-.28.02-.42,0-.2-.01-.39-.02-.58,0-.14.02-.28.02-.42,0-.2-.01-.39-.02-.58,0-.14.02-.28.02-.42,0-.2-.01-.39-.02-.58,0-.14.02-.28.02-.42,0-.2-.01-.39-.02-.58,0-.14.02-.28.02-.42,0-.2-.01-.39-.02-.58,0-.14.02-.28.02-.42,0-3.09-.77-5.87-2.32-8.35Zm-9.35-8.58c-1.99-1.38-3.5-2.52-4.55-3.45.51-.2,1.07-.31,1.69-.31,2.23,0,3.84,1.84,4.45,4.88-.51-.37-1.04-.75-1.59-1.13Zm-6.65,17.96c2.35,1.65,4.08,3.03,5.18,4.14-.61.3-1.33.47-2.16.47-2.86,0-4.82-2.4-5.39-6.29.74.55,1.53,1.11,2.38,1.69Z"/>
        <polygon class="cls-2" points="33.44 200.59 33.44 201.59 33.44 202.59 33.44 203.59 33.44 204.59 33.44 205.59 33.44 206.59 33.44 207.59 33.44 208.59 33.44 227.34 33.29 227.34 15.59 199.59 .75 199.59 .75 200.59 .75 201.59 .75 202.59 .75 203.59 .75 204.59 .75 205.59 .75 206.59 .75 207.59 .75 208.59 .75 251.22 .75 252.22 .75 253.22 .75 254.22 .75 255.22 .75 256.22 .75 257.22 .75 258.22 .75 259.22 .75 260.22 15.9 260.22 15.9 259.22 15.9 258.22 15.9 257.22 15.9 256.22 15.9 255.22 15.9 254.22 15.9 253.22 15.9 252.22 15.9 251.22 15.9 232.48 16.05 232.48 34.52 260.22 48.51 260.22 48.51 259.22 48.51 258.22 48.51 257.22 48.51 256.22 48.51 255.22 48.51 254.22 48.51 253.22 48.51 252.22 48.51 251.22 48.51 208.59 48.51 207.59 48.51 206.59 48.51 205.59 48.51 204.59 48.51 203.59 48.51 202.59 48.51 201.59 48.51 200.59 48.51 199.59 33.44 199.59 33.44 200.59"/>
        <path class="cls-2" d="m86.61,199.59h-18.08l-18.63,51.63h.36l-.36,1h.36l-.36,1h.36l-.36,1h.36l-.36,1h.36l-.36,1h.36l-.36,1h.36l-.36,1h.36l-.36,1h.36l-.36,1h15.53l3.01-9.12h17.7l3.01,9.12h16.15l-.36-1h.36l-.36-1h.36l-.36-1h.36l-.36-1h.36l-.36-1h.36l-.36-1h.36l-.36-1h.36l-.36-1h.36l-.36-1h.36l-18.7-51.63Zm-9.43,25.23h.15l1.95,5.84h-4.05l1.95-5.84Z"/>
        <polygon class="cls-2" points="98.36 200.59 98.36 201.59 98.36 202.59 98.36 203.59 98.36 204.59 98.36 205.59 98.36 206.59 98.36 207.59 98.36 208.59 98.36 212.66 98.36 213.66 98.36 214.66 98.36 215.66 98.36 216.66 98.36 217.66 98.36 218.66 98.36 219.66 98.36 220.66 98.36 221.66 114.05 221.66 114.05 251.22 114.05 252.22 114.05 253.22 114.05 254.22 114.05 255.22 114.05 256.22 114.05 257.22 114.05 258.22 114.05 259.22 114.05 260.22 129.89 260.22 129.89 259.22 129.89 258.22 129.89 257.22 129.89 256.22 129.89 255.22 129.89 254.22 129.89 253.22 129.89 252.22 129.89 251.22 129.89 221.66 145.58 221.66 145.58 220.66 145.58 219.66 145.58 218.66 145.58 217.66 145.58 216.66 145.58 215.66 145.58 214.66 145.58 213.66 145.58 212.66 145.58 208.59 145.58 207.59 145.58 206.59 145.58 205.59 145.58 204.59 145.58 203.59 145.58 202.59 145.58 201.59 145.58 200.59 145.58 199.59 98.36 199.59 98.36 200.59"/>
        <path class="cls-2" d="m177.58,200.59v28.99c0,6.26-2.32,9.43-6.96,9.43s-6.96-3.17-6.96-9.43v-29.99h-15.92v40.07c0,13.91,8.27,21.49,22.88,21.49s22.88-7.57,22.88-21.49v-40.07h-15.92v1Z"/>
        <polygon class="cls-2" points="230.75 200.59 230.75 201.59 230.75 202.59 230.75 203.59 230.75 204.59 230.75 205.59 230.75 206.59 230.75 207.59 230.75 208.59 230.75 227.34 230.59 227.34 212.9 199.59 198.06 199.59 198.06 200.59 198.06 201.59 198.06 202.59 198.06 203.59 198.06 204.59 198.06 205.59 198.06 206.59 198.06 207.59 198.06 208.59 198.06 251.22 198.06 252.22 198.06 253.22 198.06 254.22 198.06 255.22 198.06 256.22 198.06 257.22 198.06 258.22 198.06 259.22 198.06 260.22 213.2 260.22 213.2 259.22 213.2 258.22 213.2 257.22 213.2 256.22 213.2 255.22 213.2 254.22 213.2 253.22 213.2 252.22 213.2 251.22 213.2 232.48 213.36 232.48 231.83 260.22 245.82 260.22 245.82 259.22 245.82 258.22 245.82 257.22 245.82 256.22 245.82 255.22 245.82 254.22 245.82 253.22 245.82 252.22 245.82 251.22 245.82 208.59 245.82 207.59 245.82 206.59 245.82 205.59 245.82 204.59 245.82 203.59 245.82 202.59 245.82 201.59 245.82 200.59 245.82 199.59 230.75 199.59 230.75 200.59"/>
      </g>
      <g>
        <path class="cls-1" d="m70.89,13.81v38.57h-15.84V13.81h-15.69V.75h47.22v13.06h-15.69Z"/>
        <path class="cls-1" d="m89.43,52.38V.75h15.84v51.63h-15.84Z"/>
        <path class="cls-1" d="m143.3,25.79l16.31,26.59h-18.47l-11.59-19.55h-3.17v19.55h-15.84V.75h15.84v18.94h3.32L140.83.75h17.47l-14.99,25.04Z"/>
        <path class="cls-1" d="m211.93,52.38h-16.15l-3.01-9.12h-17.7l-3.01,9.12h-15.53L175.14.75h18.08l18.7,51.63Zm-27.98-35.4h-.15l-4.95,14.84h10.05l-4.95-14.84Z"/>
        <path class="cls-1" d="m244.39,52.38c-1.31-1.62-1.93-3.01-2.55-6.03l-1.08-5.8c-.62-3.4-2.24-4.71-5.64-4.71h-6.26v16.54h-15.53V.75h25.04c13.06,0,20.09,5.49,20.09,15.77,0,6.72-4.48,11.82-10.74,12.83v.15c4.41.7,7.19,3.32,8.35,8.19l1.93,8.27c.7,2.78,1.62,4.64,3.4,6.42h-17Zm-7.96-38.95h-7.57v10.28h7.57c3.79,0,5.72-1.78,5.72-5.26s-1.93-5.02-5.72-5.02Z"/>
        <path class="cls-1" d="m59.95,100.65h-3.25v18.01h-10.9v-51.63h14.14c10.59,0,16.15,5.72,16.15,16.77s-5.56,16.85-16.15,16.85Zm-.62-24.65h-2.63v15.84h2.63c4.02,0,5.72-2.4,5.72-7.96s-1.62-7.88-5.72-7.88Z"/>
        <path class="cls-1" d="m109.72,118.66h-10.74l-2.01-11.59h-9.89l-2.01,11.59h-10.43l10.59-51.63h13.91l10.59,51.63Zm-17.62-39.34h-.23l-3.32,19.4h6.96l-3.4-19.4Z"/>
        <path class="cls-1" d="m134.37,95.09h.31v-28.05h10.12v51.63h-9.66l-11.59-29.21h-.23v29.21h-10.12v-51.63h10.43l10.74,28.05Z"/>
        <path class="cls-1" d="m150.6,118.66v-51.63h13.37c12.6,0,19.09,8.81,19.09,25.89s-6.49,25.74-19.09,25.74h-13.37Zm10.97-42.51v33.39h2.32c5.49,0,7.57-4.64,7.57-16.62s-2.09-16.77-7.57-16.77h-2.32Z"/>
        <path class="cls-1" d="m218.69,118.66h-10.74l-2.01-11.59h-9.89l-2.01,11.59h-10.43l10.59-51.63h13.91l10.59,51.63Zm-17.62-39.34h-.23l-3.32,19.4h6.96l-3.4-19.4Z"/>
        <path class="cls-1" d="m243.34,95.09h.31v-28.05h10.12v51.63h-9.66l-11.59-29.21h-.23v29.21h-10.12v-51.63h10.43l10.74,28.05Z"/>
        <path class="cls-1" d="m56.17,181.54c-2.86,2.71-6.49,4.02-10.9,4.02-9.04,0-15.07-5.95-15.15-15.23l9.51-2.63c-.08,5.49,2.09,9.04,5.56,9.04,2.78,0,4.41-1.7,4.41-4.71,0-1.31-.46-2.63-1.39-3.79-.93-1.24-2.94-2.94-6.03-5.1-4.56-3.09-7.57-5.8-9.04-8.11-1.47-2.4-2.16-5.02-2.16-7.96,0-4.25,1.39-7.65,4.17-10.36s6.34-4.02,10.74-4.02c8.73,0,13.99,5.33,14.3,14.38l-9.51,2.09c0-4.71-1.85-7.73-4.71-7.73-2.55,0-4.25,1.78-4.25,4.56,0,1.16.46,2.32,1.31,3.48.85,1.08,2.78,2.63,5.8,4.71,4.71,3.25,7.81,6.11,9.35,8.58,1.55,2.47,2.32,5.25,2.32,8.35,0,4.25-1.47,7.73-4.33,10.43Z"/>
        <path class="cls-1" d="m75.41,175.74h14.3v9.2h-25.19v-51.63h25.19v9.2h-14.3v11.9h12.06v8.73h-12.06v12.6Z"/>
        <path class="cls-1" d="m115.98,184.94c-.7-1.16-1.24-2.86-1.62-5.56l-1.08-9.51c-.54-3.32-1.85-4.64-4.71-4.64h-2.86v19.71h-10.97v-51.63h15.69c10.43,0,15.77,5.1,15.77,14.99,0,6.49-3.4,11.28-8.58,12.44v.15c3.63.85,5.95,3.63,6.57,8.04l1.39,10.12c.31,2.47,1,4.33,2.01,5.87h-11.59Zm-6.96-42.66h-3.32v14.53h3.4c4.02,0,5.72-2.01,5.72-7.26s-1.7-7.27-5.8-7.27Z"/>
        <path class="cls-1" d="m163.82,184.94h-10.74l-2.01-11.59h-9.89l-2.01,11.59h-10.43l10.59-51.63h13.91l10.59,51.63Zm-17.62-39.34h-.23l-3.32,19.4h6.96l-3.4-19.4Z"/>
        <path class="cls-1" d="m190.95,181.54c-2.86,2.71-6.49,4.02-10.9,4.02-9.04,0-15.07-5.95-15.15-15.23l9.51-2.63c-.08,5.49,2.09,9.04,5.56,9.04,2.78,0,4.41-1.7,4.41-4.71,0-1.31-.46-2.63-1.39-3.79-.93-1.24-2.94-2.94-6.03-5.1-4.56-3.09-7.57-5.8-9.04-8.11-1.47-2.4-2.16-5.02-2.16-7.96,0-4.25,1.39-7.65,4.17-10.36s6.34-4.02,10.74-4.02c8.73,0,13.99,5.33,14.3,14.38l-9.51,2.09c0-4.71-1.85-7.73-4.71-7.73-2.55,0-4.25,1.78-4.25,4.56,0,1.16.46,2.32,1.31,3.48.85,1.08,2.78,2.63,5.8,4.71,4.71,3.25,7.81,6.11,9.35,8.58,1.55,2.47,2.32,5.25,2.32,8.35,0,4.25-1.47,7.73-4.33,10.43Z"/>
        <path class="cls-1" d="m231.98,184.94h-10.74l-2.01-11.59h-9.89l-2.01,11.59h-10.43l10.59-51.63h13.91l10.59,51.63Zm-17.62-39.34h-.23l-3.32,19.4h6.96l-3.4-19.4Z"/>
        <path class="cls-1" d="m256.64,161.37h.31v-28.05h10.12v51.63h-9.66l-11.59-29.21h-.23v29.21h-10.12v-51.63h10.43l10.74,28.05Z"/>
        <path class="cls-1" d="m33.29,227.34h.15v-27.75h15.07v51.63h-13.99l-18.47-27.75h-.15v27.75H.75v-51.63h14.84l17.7,27.75Z"/>
        <path class="cls-1" d="m105.32,251.22h-16.15l-3.01-9.12h-17.7l-3.01,9.12h-15.53l18.63-51.63h18.08l18.7,51.63Zm-27.98-35.4h-.15l-4.95,14.84h10.05l-4.95-14.84Z"/>
        <path class="cls-1" d="m129.89,212.66v38.57h-15.84v-38.57h-15.69v-13.06h47.22v13.06h-15.69Z"/>
        <path class="cls-1" d="m177.58,229.58v-29.99h15.92v31.07c0,13.91-8.27,21.49-22.88,21.49s-22.88-7.57-22.88-21.49v-31.07h15.92v29.99c0,6.26,2.32,9.43,6.96,9.43s6.96-3.17,6.96-9.43Z"/>
        <path class="cls-1" d="m230.59,227.34h.15v-27.75h15.07v51.63h-13.99l-18.47-27.75h-.15v27.75h-15.15v-51.63h14.84l17.7,27.75Z"/>
        <path class="cls-1" d="m302.62,251.22h-16.15l-3.01-9.12h-17.7l-3.01,9.12h-15.53l18.63-51.63h18.08l18.7,51.63Zm-27.98-35.4h-.15l-4.95,14.84h10.05l-4.95-14.84Z"/>
      </g>
    </g>
  </g>
</svg>