<?xml version="1.0" encoding="UTF-8"?>
<svg id="Layer_2" data-name="Layer 2" xmlns="http://www.w3.org/2000/svg" viewBox="0 0 245.33 195.62">
  <defs>
    <style>
      .cls-1 {
        fill: #f4f3d3;
      }

      .cls-1, .cls-2 {
        stroke: #000;
        stroke-width: 1.5px;
      }
    </style>
  </defs>
  <g id="TFX_Expand" data-name="TFX Expand">
    <g>
      <g>
        <path class="cls-2" d="m46.5,40.75V1.68h-15.92v29.99c0,6.26-2.32,9.43-6.96,9.43s-6.96-3.17-6.96-9.43V1.68H.75v40.07c0,13.91,8.27,21.49,22.88,21.49s22.88-7.57,22.88-21.49v-1Z"/>
        <path class="cls-2" d="m98.9,36.49c0-.17,0-.33,0-.5,0-.17,0-.33,0-.5s0-.33,0-.5c0-.17,0-.33,0-.5s0-.33,0-.5c0-.17,0-.33,0-.5s0-.33,0-.5c0-.17,0-.33,0-.5s0-.33,0-.5c0-.17,0-.33,0-.5s0-.33,0-.5c0-.17,0-.33,0-.5s0-.33,0-.5c0-.17,0-.33,0-.5s0-.33,0-.5c0-.17,0-.33,0-.5s0-.33,0-.5c0-.17,0-.33,0-.5,0-16.62-9.74-25.81-26.51-25.81h-21.33v60.63h21.33c16.77,0,26.51-9.35,26.51-25.81Zm-27.51-12.67c5.75,0,9.42,2.78,10.66,8.16-1.24,5.36-4.9,8.19-10.66,8.19h-4.48v-16.35h4.48Z"/>
        <polygon class="cls-2" points="140.09 61.3 140.09 60.3 140.09 59.3 140.09 58.3 140.09 57.3 140.09 56.3 140.09 55.3 140.09 54.3 140.09 53.3 140.09 49.24 140.09 48.24 140.09 47.24 140.09 46.24 140.09 45.24 140.09 44.24 140.09 43.24 140.09 42.24 140.09 41.24 140.09 40.24 137.31 40.24 137.31 40.13 137.31 39.13 137.31 38.13 137.31 37.13 137.31 36.13 137.31 35.13 137.31 34.13 137.31 33.13 137.31 30.54 137.31 29.54 137.31 28.54 137.31 27.54 137.31 26.54 137.31 25.54 137.31 24.54 137.31 23.74 139.94 23.74 139.94 22.74 139.94 21.74 139.94 20.74 139.94 19.74 139.94 18.74 139.94 17.74 139.94 16.74 139.94 15.74 139.94 14.74 139.94 10.68 139.94 9.68 139.94 8.68 139.94 7.68 139.94 6.68 139.94 5.68 139.94 4.68 139.94 3.68 139.94 2.68 139.94 1.68 101.68 1.68 101.68 2.68 101.68 3.68 101.68 4.68 101.68 5.68 101.68 6.68 101.68 7.68 101.68 8.68 101.68 9.68 101.68 10.68 101.68 53.3 101.68 54.3 101.68 55.3 101.68 56.3 101.68 57.3 101.68 58.3 101.68 59.3 101.68 60.3 101.68 61.3 101.68 62.3 140.09 62.3 140.09 61.3"/>
        <polygon class="cls-2" points="159.49 61.3 159.49 60.3 159.49 59.3 159.49 58.3 159.49 57.3 159.49 56.3 159.49 55.3 159.49 54.3 159.49 53.3 159.49 34.56 159.65 34.56 178.12 62.3 192.11 62.3 192.11 61.3 192.11 60.3 192.11 59.3 192.11 58.3 192.11 57.3 192.11 56.3 192.11 55.3 192.11 54.3 192.11 53.3 192.11 10.68 192.11 9.68 192.11 8.68 192.11 7.68 192.11 6.68 192.11 5.68 192.11 4.68 192.11 3.68 192.11 2.68 192.11 1.68 177.03 1.68 177.03 2.68 177.03 3.68 177.03 4.68 177.03 5.68 177.03 6.68 177.03 7.68 177.03 8.68 177.03 9.68 177.03 10.68 177.03 29.42 176.88 29.42 159.18 1.68 144.34 1.68 144.34 2.68 144.34 3.68 144.34 4.68 144.34 5.68 144.34 6.68 144.34 7.68 144.34 8.68 144.34 9.68 144.34 10.68 144.34 53.3 144.34 54.3 144.34 55.3 144.34 56.3 144.34 57.3 144.34 58.3 144.34 59.3 144.34 60.3 144.34 61.3 144.34 62.3 159.49 62.3 159.49 61.3"/>
        <path class="cls-2" d="m242.57,24.79l1.32-.51c-.09-.3-.2-.59-.3-.88l.3-.12c-.09-.3-.2-.59-.3-.88l.3-.12c-.09-.3-.2-.59-.3-.88l.3-.12c-.09-.3-.2-.59-.3-.88l.3-.12c-.09-.3-.2-.59-.3-.88l.3-.12c-.09-.3-.2-.59-.3-.88l.3-.12c-.09-.3-.2-.59-.3-.88l.3-.12c-.09-.3-.2-.59-.3-.88l.3-.12c-.09-.3-.2-.59-.3-.88l.3-.12c-1.31-4.41-3.94-7.96-8.04-10.59-4.1-2.63-8.96-3.94-14.61-3.94-7.88,0-14.22,2.55-19.09,7.57-4.87,5.02-7.27,11.59-7.27,19.86,0,.12.01.23.01.34,0,.22-.01.44-.01.66,0,.12.01.23.01.34,0,.22-.01.44-.01.66,0,.12.01.23.01.34,0,.22-.01.44-.01.66,0,.12.01.23.01.34,0,.22-.01.44-.01.66,0,.12.01.23.01.34,0,.22-.01.44-.01.66,0,.12.01.23.01.34,0,.22-.01.44-.01.66,0,.12.01.23.01.34,0,.22-.01.44-.01.66,0,.12.01.23.01.34,0,.22-.01.44-.01.66,0,.12.01.23.01.34,0,.22-.01.44-.01.66,0,7.81,2.16,14.14,6.49,18.94,4.33,4.71,9.89,7.11,16.69,7.11s12.21-2.55,14.3-6.57l1.78,5.64h10.43V24.79h-2.01Zm-21.1,7v9.84c-.1,0-.2.01-.31.01-5.21,0-8.49-3.21-9.53-9.06,1.06-6.13,4.4-9.53,9.45-9.53,2.08,0,3.78.6,5.06,1.74h-4.68v7Z"/>
        <polygon class="cls-2" points="78.93 97.54 86.85 76.96 86.46 76.96 86.85 75.96 86.46 75.96 86.85 74.96 86.46 74.96 86.85 73.96 86.46 73.96 86.85 72.96 86.46 72.96 86.85 71.96 86.46 71.96 86.85 70.96 86.46 70.96 86.85 69.96 86.46 69.96 86.85 68.96 86.46 68.96 86.85 67.96 74.94 67.96 67.45 88.75 65.36 88.75 65.36 76.96 65.36 75.96 65.36 74.96 65.36 73.96 65.36 72.96 65.36 71.96 65.36 70.96 65.36 69.96 65.36 68.96 65.36 67.96 54.31 67.96 54.31 68.96 54.31 69.96 54.31 70.96 54.31 71.96 54.31 72.96 54.31 73.96 54.31 74.96 54.31 75.96 54.31 76.96 54.31 119.59 54.31 120.59 54.31 121.59 54.31 122.59 54.31 123.59 54.31 124.59 54.31 125.59 54.31 126.59 54.31 127.59 54.31 128.59 65.36 128.59 65.36 127.59 65.36 126.59 65.36 125.59 65.36 124.59 65.36 123.59 65.36 122.59 65.36 121.59 65.36 120.59 65.36 119.59 65.36 107.18 67.45 107.18 75.49 128.59 87.54 128.59 87.15 127.59 87.54 127.59 87.15 126.59 87.54 126.59 87.15 125.59 87.54 125.59 87.15 124.59 87.54 124.59 87.15 123.59 87.54 123.59 87.15 122.59 87.54 122.59 87.15 121.59 87.54 121.59 87.15 120.59 87.54 120.59 87.15 119.59 87.54 119.59 78.93 97.54"/>
        <polygon class="cls-2" points="101.61 75.96 101.61 74.96 101.61 73.96 101.61 72.96 101.61 71.96 101.61 70.96 101.61 69.96 101.61 68.96 101.61 67.96 90.56 67.96 90.56 68.96 90.56 69.96 90.56 70.96 90.56 71.96 90.56 72.96 90.56 73.96 90.56 74.96 90.56 75.96 90.56 76.96 90.56 119.59 90.56 120.59 90.56 121.59 90.56 122.59 90.56 123.59 90.56 124.59 90.56 125.59 90.56 126.59 90.56 127.59 90.56 128.59 101.61 128.59 101.61 127.59 101.61 126.59 101.61 125.59 101.61 124.59 101.61 123.59 101.61 122.59 101.61 121.59 101.61 120.59 101.61 119.59 101.61 107.02 111.89 107.02 111.89 119.59 111.89 120.59 111.89 121.59 111.89 122.59 111.89 123.59 111.89 124.59 111.89 125.59 111.89 126.59 111.89 127.59 111.89 128.59 123.02 128.59 123.02 127.59 123.02 126.59 123.02 125.59 123.02 124.59 123.02 123.59 123.02 122.59 123.02 121.59 123.02 120.59 123.02 119.59 123.02 76.96 123.02 75.96 123.02 74.96 123.02 73.96 123.02 72.96 123.02 71.96 123.02 70.96 123.02 69.96 123.02 68.96 123.02 67.96 111.89 67.96 111.89 68.96 111.89 69.96 111.89 70.96 111.89 71.96 111.89 72.96 111.89 73.96 111.89 74.96 111.89 75.96 111.89 76.96 111.89 88.9 101.61 88.9 101.61 76.96 101.61 75.96"/>
        <path class="cls-2" d="m150.91,67.96h-13.91l-10.59,51.63h.21l-.21,1h.21l-.21,1h.21l-.21,1h.21l-.21,1h.21l-.21,1h.21l-.21,1h.21l-.21,1h.21l-.21,1h.21l-.21,1h10.43l2.01-11.59h9.89l2.01,11.59h10.74l-.21-1h.21l-.21-1h.21l-.21-1h.21l-.21-1h.21l-.21-1h.21l-.21-1h.21l-.21-1h.21l-.21-1h.21l-.21-1h.21l-10.59-51.63Zm-7.26,21.29h.23l1.82,10.4h-3.84l1.78-10.4Z"/>
        <path class="cls-2" d="m178.35,67.34c-4.41,0-7.96,1.31-10.74,4.02s-4.17,6.11-4.17,10.36c0,.2.01.39.02.58,0,.14-.02.28-.02.42,0,.2.01.39.02.58,0,.14-.02.28-.02.42,0,.2.01.39.02.58,0,.14-.02.28-.02.42,0,.2.01.39.02.58,0,.14-.02.28-.02.42,0,.2.01.39.02.58,0,.14-.02.28-.02.42,0,.2.01.39.02.58,0,.14-.02.28-.02.42,0,.2.01.39.02.58,0,.14-.02.28-.02.42,0,.2.01.39.02.58,0,.14-.02.28-.02.42,0,.2.01.39.02.58,0,.14-.02.28-.02.42,0,2.94.7,5.56,2.16,7.96.84,1.32,2.2,2.78,4.04,4.35l-7.06,1.95c0,.34.03.66.05.99h-.05c0,.35.03.67.05,1h-.05c0,.35.03.67.05,1h-.05c0,.35.03.67.05,1h-.05c0,.35.03.67.05,1h-.05c0,.35.03.67.05,1h-.05c0,.35.03.67.05,1h-.05c0,.35.03.67.05,1h-.05c0,.35.03.67.05,1h-.05c.08,9.29,6.11,15.24,15.15,15.24,4.41,0,8.04-1.31,10.9-4.02,2.86-2.71,4.33-6.18,4.33-10.43,0-.2-.01-.39-.02-.58,0-.14.02-.28.02-.42,0-.2-.01-.39-.02-.58,0-.14.02-.28.02-.42,0-.2-.01-.39-.02-.58,0-.14.02-.28.02-.42,0-.2-.01-.39-.02-.58,0-.14.02-.28.02-.42,0-.2-.01-.39-.02-.58,0-.14.02-.28.02-.42,0-.2-.01-.39-.02-.58,0-.14.02-.28.02-.42,0-.2-.01-.39-.02-.58,0-.14.02-.28.02-.42,0-.2-.01-.39-.02-.58,0-.14.02-.28.02-.42,0-.2-.01-.39-.02-.58,0-.14.02-.28.02-.42,0-3.09-.77-5.87-2.32-8.35-.98-1.57-2.59-3.3-4.84-5.18l6.85-1.5c-.01-.34-.04-.66-.07-.98l.07-.02c-.01-.34-.04-.66-.07-.98l.07-.02c-.01-.34-.04-.66-.07-.98l.07-.02c-.01-.34-.04-.66-.07-.98l.07-.02c-.01-.34-.04-.66-.07-.98l.07-.02c-.01-.34-.04-.66-.07-.98l.07-.02c-.01-.34-.04-.66-.07-.98l.07-.02c-.01-.34-.04-.66-.07-.98l.07-.02c-.01-.34-.04-.66-.07-.98l.07-.02c-.31-9.04-5.56-14.38-14.3-14.38Zm-3.71,39.45c2.35,1.65,4.08,3.03,5.18,4.14-.61.3-1.33.47-2.16.47-2.86,0-4.82-2.4-5.39-6.29.74.55,1.53,1.11,2.38,1.69Zm6.65-17.96c-1.99-1.38-3.5-2.52-4.55-3.45.51-.2,1.07-.31,1.69-.31,2.23,0,3.84,1.84,4.45,4.88-.51-.37-1.04-.75-1.59-1.13Z"/>
        <path class="cls-2" d="m123.94,134.24h-18.08l-16.7,46.27c0-.17-.01-.33-.02-.49,0-.15.02-.3.02-.46,0-.18-.02-.36-.02-.54,0-.15.02-.3.02-.46,0-.18-.02-.36-.02-.54,0-.15.02-.3.02-.46,0-.18-.02-.36-.02-.54,0-.15.02-.3.02-.46,0-.18-.02-.36-.02-.54,0-.15.02-.3.02-.46,0-.18-.02-.36-.02-.54,0-.15.02-.3.02-.46,0-.18-.02-.36-.02-.54,0-.15.02-.3.02-.46,0-.18-.02-.36-.02-.54,0-.15.02-.3.02-.46,0-.18-.02-.36-.02-.54,0-.15.02-.3.02-.46,0-3.55-1.26-6.52-3.49-8.64.87-1.69,1.33-3.69,1.33-5.93,0-.15-.02-.29-.02-.43,0-.19.02-.38.02-.57,0-.15-.02-.29-.02-.43,0-.19.02-.38.02-.57,0-.15-.02-.29-.02-.43,0-.19.02-.38.02-.57,0-.15-.02-.29-.02-.43,0-.19.02-.38.02-.57,0-.15-.02-.29-.02-.43,0-.19.02-.38.02-.57,0-.15-.02-.29-.02-.43,0-.19.02-.38.02-.57,0-.15-.02-.29-.02-.43,0-.19.02-.38.02-.57,0-.15-.02-.29-.02-.43,0-.19.02-.38.02-.57,0-.15-.02-.29-.02-.43,0-.19.02-.38.02-.57,0-8.58-6.11-13.76-16.08-13.76h-25.89v60.63h25.97c7.85,0,13.47-2.55,16.24-7.02v.02s.35,0,.35,0l-.36,1h.36l-.36,1h.36l-.36,1h.36l-.36,1h.36l-.36,1h.36l-.36,1h.36l-.36,1h15.53l3.01-9.12h17.7l3.01,9.12h16.15l-.36-1h.36l-.36-1h.36l-.36-1h.36l-.36-1h.36l-.36-1h.36l-.36-1h.36l-.36-1h.36l-.36-1h.36l-.36-1h.36l-18.7-51.63Zm-57.58,20.59c.86,0,1.61.1,2.26.31-.69.23-1.49.35-2.41.35h-5.87v-.66h6.03Zm1.08,18.86c.96,0,1.8.13,2.52.36-.71.2-1.54.3-2.52.3h-7.11v-.66h7.11Zm47.07-14.22h.15l1.95,5.84h-4.05l1.95-5.84Z"/>
        <polygon class="cls-2" points="159.88 143.24 159.88 142.24 159.88 141.24 159.88 140.24 159.88 139.24 159.88 138.24 159.88 137.24 159.88 136.24 159.88 135.24 159.88 134.24 144.04 134.24 144.04 135.24 144.04 136.24 144.04 137.24 144.04 138.24 144.04 139.24 144.04 140.24 144.04 141.24 144.04 142.24 144.04 143.24 144.04 185.87 144.04 186.87 144.04 187.87 144.04 188.87 144.04 189.87 144.04 190.87 144.04 191.87 144.04 192.87 144.04 193.87 144.04 194.87 181.44 194.87 181.44 193.87 181.44 192.87 181.44 191.87 181.44 190.87 181.44 189.87 181.44 188.87 181.44 187.87 181.44 186.87 181.44 185.87 181.44 181.81 181.44 180.81 181.44 179.81 181.44 178.81 181.44 177.81 181.44 176.81 181.44 175.81 181.44 174.81 181.44 173.81 181.44 172.81 159.88 172.81 159.88 143.24"/>
        <polygon class="cls-2" points="184.53 135.24 184.53 136.24 184.53 137.24 184.53 138.24 184.53 139.24 184.53 140.24 184.53 141.24 184.53 142.24 184.53 143.24 184.53 185.87 184.53 186.87 184.53 187.87 184.53 188.87 184.53 189.87 184.53 190.87 184.53 191.87 184.53 192.87 184.53 193.87 184.53 194.87 200.38 194.87 200.38 193.87 200.38 192.87 200.38 191.87 200.38 190.87 200.38 189.87 200.38 188.87 200.38 187.87 200.38 186.87 200.38 185.87 200.38 143.24 200.38 142.24 200.38 141.24 200.38 140.24 200.38 139.24 200.38 138.24 200.38 137.24 200.38 136.24 200.38 135.24 200.38 134.24 184.53 134.24 184.53 135.24"/>
      </g>
      <g>
        <path class="cls-1" d="m30.58,31.67V1.68h15.92v31.07c0,13.91-8.27,21.49-22.88,21.49S.75,46.66.75,32.75V1.68h15.92v29.99c0,6.26,2.32,9.43,6.96,9.43s6.96-3.17,6.96-9.43Z"/>
        <path class="cls-1" d="m51.06,53.3V1.68h21.33c16.77,0,26.51,9.2,26.51,25.81s-9.74,25.81-26.51,25.81h-21.33Zm15.84-38.49v25.35h4.48c7.19,0,11.13-4.41,11.13-12.67s-3.94-12.67-11.13-12.67h-4.48Z"/>
        <path class="cls-1" d="m116.91,40.24h23.19v13.06h-38.41V1.68h38.26v13.06h-23.03v6.8h20.4v11.59h-20.4v7.11Z"/>
        <path class="cls-1" d="m176.88,29.42h.15V1.68h15.07v51.63h-13.99l-18.47-27.75h-.15v27.75h-15.15V1.68h14.84l17.7,27.75Z"/>
        <path class="cls-1" d="m221.47,34.6v-9.82h23.11v28.52h-10.43l-1.78-5.64c-2.09,4.02-7.57,6.57-14.3,6.57s-12.37-2.4-16.69-7.11c-4.33-4.79-6.49-11.13-6.49-18.94,0-8.27,2.4-14.84,7.27-19.86,4.87-5.02,11.21-7.57,19.09-7.57,5.64,0,10.51,1.31,14.61,3.94,4.1,2.63,6.72,6.18,8.04,10.59l-15.07,5.8c-.85-4.56-3.48-7.03-7.73-7.03-6.18,0-9.82,5.1-9.82,14.07s3.48,13.53,9.89,13.53c4.64,0,7.5-2.4,7.5-6.11v-.93h-7.19Z"/>
        <path class="cls-1" d="m77.19,93.08l10.36,26.51h-12.06l-8.04-21.41h-2.09v21.41h-11.05v-51.63h11.05v20.79h2.09l7.5-20.79h11.9l-9.66,25.12Z"/>
        <path class="cls-1" d="m101.61,98.02v21.56h-11.05v-51.63h11.05v20.94h10.28v-20.94h11.13v51.63h-11.13v-21.56h-10.28Z"/>
        <path class="cls-1" d="m161.5,119.59h-10.74l-2.01-11.59h-9.89l-2.01,11.59h-10.43l10.59-51.63h13.91l10.59,51.63Zm-17.62-39.34h-.23l-3.32,19.4h6.96l-3.4-19.4Z"/>
        <path class="cls-1" d="m188.63,116.19c-2.86,2.71-6.49,4.02-10.9,4.02-9.04,0-15.07-5.95-15.15-15.23l9.51-2.63c-.08,5.49,2.09,9.04,5.56,9.04,2.78,0,4.41-1.7,4.41-4.71,0-1.31-.46-2.63-1.39-3.79-.93-1.24-2.94-2.94-6.03-5.1-4.56-3.09-7.57-5.8-9.04-8.11-1.47-2.4-2.16-5.02-2.16-7.96,0-4.25,1.39-7.65,4.17-10.36s6.34-4.02,10.74-4.02c8.73,0,13.99,5.33,14.3,14.38l-9.51,2.09c0-4.71-1.85-7.73-4.71-7.73-2.55,0-4.25,1.78-4.25,4.56,0,1.16.46,2.32,1.31,3.48.85,1.08,2.78,2.63,5.8,4.71,4.71,3.25,7.81,6.11,9.35,8.58,1.55,2.47,2.32,5.25,2.32,8.35,0,4.25-1.47,7.73-4.33,10.43Z"/>
        <path class="cls-1" d="m78.27,159.44v.15c6.72.93,10.9,5.49,10.9,11.98,0,8.89-6.72,14.3-18.16,14.3h-25.97v-51.63h25.89c9.97,0,16.08,5.18,16.08,13.76,0,5.95-3.25,10.2-8.73,11.44Zm-17.93-13.6v9.66h5.87c3.48,0,5.33-1.62,5.33-4.71,0-3.32-1.78-4.95-5.18-4.95h-6.03Zm0,18.86v9.66h7.11c3.79,0,5.56-1.47,5.56-4.79s-1.93-4.87-5.56-4.87h-7.11Z"/>
        <path class="cls-1" d="m142.65,185.87h-16.15l-3.01-9.12h-17.7l-3.01,9.12h-15.53l18.63-51.63h18.08l18.7,51.63Zm-27.98-35.4h-.15l-4.95,14.84h10.05l-4.95-14.84Z"/>
        <path class="cls-1" d="m144.04,185.87v-51.63h15.84v38.57h21.56v13.06h-37.41Z"/>
        <path class="cls-1" d="m184.53,185.87v-51.63h15.84v51.63h-15.84Z"/>
      </g>
    </g>
  </g>
</svg>