<?xml version="1.0" encoding="UTF-8"?>
<svg id="Layer_2" data-name="Layer 2" xmlns="http://www.w3.org/2000/svg" viewBox="0 0 384.7 94.92">
  <defs>
    <style>
      .cls-1, .cls-2 {
        stroke: #000;
        stroke-width: 2px;
      }

      .cls-2 {
        fill: #f4f3d3;
      }
    </style>
  </defs>
  <g id="TFX_Expand" data-name="TFX Expand">
    <g>
      <g>
        <polygon class="cls-1" points="381.62 80.49 382.8 80.49 355.87 41.19 374.78 13 374.61 13 375.28 12 375.11 12 375.78 11 375.61 11 376.28 10 376.11 10 376.78 9 376.61 9 377.28 8 377.11 8 377.78 7 377.61 7 378.28 6 378.11 6 378.78 5 378.61 5 379.28 4 379.11 4 379.78 3 379.61 3 380.28 2 380.11 2 380.78 1 358.52 1 337.82 31.94 331.63 31.94 331.63 1 311.64 1 311.64 2 311.14 2 311.14 3 310.64 3 310.64 4 310.14 4 310.14 5 309.64 5 309.64 6 309.14 6 309.14 7 308.64 7 308.64 8 308.14 8 308.14 9 307.64 9 307.64 10 307.14 10 307.14 11 306.64 11 306.64 12 306.14 12 306.14 13 305.64 13 305.64 92.49 325.63 92.49 325.63 91.49 326.13 91.49 326.13 90.49 326.63 90.49 326.63 89.49 327.13 89.49 327.13 88.49 327.63 88.49 327.63 87.49 328.13 87.49 328.13 86.49 328.63 86.49 328.63 85.49 329.13 85.49 329.13 84.49 329.63 84.49 329.63 83.49 330.13 83.49 330.13 82.49 330.63 82.49 330.63 81.49 331.13 81.49 331.13 80.49 331.63 80.49 331.63 60.79 353.24 92.49 376.8 92.49 376.12 91.49 377.3 91.49 376.62 90.49 377.8 90.49 377.12 89.49 378.3 89.49 377.62 88.49 378.8 88.49 378.12 87.49 379.3 87.49 378.62 86.49 379.8 86.49 379.12 85.49 380.3 85.49 379.62 84.49 380.8 84.49 380.12 83.49 381.3 83.49 380.62 82.49 381.8 82.49 381.12 81.49 382.3 81.49 381.62 80.49"/>
        <path class="cls-1" d="m53.89,2h-.5v1h-.5v1h-.5v1h-.5v1h-.5v1h-.5v1h-.5v1h-.5v1h-.5v1h-.5v1h-.5v1h-.5v47.24c0,1.13-.06,2.18-.15,3.2-1.97,1.2-4.4,1.82-7.3,1.82-8.93,0-13.33-5.71-13.33-17.02V1H7v1h-.5v1h-.5v1h-.5v1h-.5v1h-.5v1h-.5v1h-.5v1h-.5v1h-.5v1h-.5v1h-.5v1h-.5v48.67c0,20.83,12.14,32.25,33.44,32.25,14.85,0,25.24-5.56,30.17-15.97.17-.33.34-.66.5-1,.17-.33.34-.66.5-1,.17-.33.34-.66.5-1,.17-.33.34-.66.5-1,.17-.33.34-.66.5-1,.17-.33.34-.66.5-1,.17-.33.34-.66.5-1,.17-.33.34-.66.5-1,.17-.33.34-.66.5-1,.17-.33.34-.66.5-1,.17-.33.34-.66.5-1,2.47-4.72,3.77-10.5,3.77-17.28V1h-19.99v1Z"/>
        <polygon class="cls-1" points="134.33 2 133.83 2 133.83 3 133.33 3 133.33 4 132.83 4 132.83 5 132.33 5 132.33 6 131.83 6 131.83 7 131.33 7 131.33 8 130.83 8 130.83 9 130.33 9 130.33 10 129.83 10 129.83 11 129.33 11 129.33 12 128.83 12 128.83 13 128.33 13 128.33 40.84 102.68 1 83.75 1 83.75 2 83.25 2 83.25 3 82.75 3 82.75 4 82.25 4 82.25 5 81.75 5 81.75 6 81.25 6 81.25 7 80.75 7 80.75 8 80.25 8 80.25 9 79.75 9 79.75 10 79.25 10 79.25 11 78.75 11 78.75 12 78.25 12 78.25 13 77.75 13 77.75 92.49 96.91 92.49 96.91 91.49 97.41 91.49 97.41 90.49 97.91 90.49 97.91 89.49 98.41 89.49 98.41 88.49 98.91 88.49 98.91 87.49 99.41 87.49 99.41 86.49 99.91 86.49 99.91 85.49 100.41 85.49 100.41 84.49 100.91 84.49 100.91 83.49 101.41 83.49 101.41 82.49 101.91 82.49 101.91 81.49 102.41 81.49 102.41 80.49 102.91 80.49 102.91 52.13 129.76 92.49 147.49 92.49 147.49 91.49 147.99 91.49 147.99 90.49 148.49 90.49 148.49 89.49 148.99 89.49 148.99 88.49 149.49 88.49 149.49 87.49 149.99 87.49 149.99 86.49 150.49 86.49 150.49 85.49 150.99 85.49 150.99 84.49 151.49 84.49 151.49 83.49 151.99 83.49 151.99 82.49 152.49 82.49 152.49 81.49 152.99 81.49 152.99 80.49 153.49 80.49 153.49 1 134.33 1 134.33 2"/>
        <path class="cls-1" d="m281.77,2h-.5v1h-.5v1h-.5v1h-.5v1h-.5v1h-.5v1h-.5v1h-.5v1h-.5v1h-.5v1h-.5v1h-.5v47.24c0,1.13-.06,2.18-.15,3.2-1.97,1.2-4.4,1.82-7.3,1.82-8.93,0-13.33-5.71-13.33-17.02V1h-20.11v1h-.5v1h-.5v1h-.5v1h-.5v1h-.5v1h-.5v1h-.5v1h-.5v1h-.5v1h-.5V1h-70.21v1h-.5v1h-.5v1h-.5v1h-.5v1h-.5v1h-.5v1h-.5v1h-.5v1h-.5v1h-.5v1h-.5v1h-.5v16.66h24.99v62.83h20.11v-1h.5v-1h.5v-1h.5v-1h.5v-1h.5v-1h.5v-1h.5v-1h.5v-1h.5v-1h.5v-1h.5v-1h.5V29.66h19.11v-1h.5v-1h.5v-1h.5v-1h.5v-1h.5v-1h.5v-1h.5v-1h.5v-1h.5v-1h.5v42.01c0,20.83,12.14,32.25,33.44,32.25,14.85,0,25.24-5.56,30.17-15.97.17-.33.34-.66.5-1,.17-.33.34-.66.5-1,.17-.33.34-.66.5-1,.17-.33.34-.66.5-1,.17-.33.34-.66.5-1,.17-.33.34-.66.5-1,.17-.33.34-.66.5-1,.17-.33.34-.66.5-1,.17-.33.34-.66.5-1,.17-.33.34-.66.5-1,.17-.33.34-.66.5-1,2.47-4.72,3.77-10.5,3.77-17.28V1h-19.99v1Z"/>
      </g>
      <g>
        <path class="cls-2" d="m53.89,48.24V1h19.99v48.67c0,20.83-12.14,32.25-33.44,32.25S7,70.5,7,49.67V1h20.11v47.24c0,11.31,4.4,17.02,13.33,17.02s13.45-5.71,13.45-17.02Z"/>
        <path class="cls-2" d="m134.09,49.79h.24V1h19.16v79.49h-17.73l-32.61-49.03h-.24v49.03h-19.16V1h18.92l31.42,48.79Z"/>
        <path class="cls-2" d="m204.78,17.66v62.83h-20.11V17.66h-24.99V1h70.21v16.66h-25.11Z"/>
        <path class="cls-2" d="m281.77,48.24V1h19.99v48.67c0,20.83-12.14,32.25-33.44,32.25s-33.44-11.42-33.44-32.25V1h20.11v47.24c0,11.31,4.4,17.02,13.33,17.02s13.45-5.71,13.45-17.02Z"/>
        <path class="cls-2" d="m354.83,39.68l27.97,40.82h-23.56l-21.66-31.77h-5.95v31.77h-19.99V1h19.99v30.94h6.19l20.71-30.94h22.25l-25.94,38.68Z"/>
      </g>
    </g>
  </g>
</svg>